<svg width="177" height="192" viewBox="0 0 177 192" fill="none" xmlns="http://www.w3.org/2000/svg">
<path fill-rule="evenodd" clip-rule="evenodd" d="M6.96875 3.06982C6.96875 4.72732 5.62625 6.06982 3.96875 6.06982C2.31125 6.06982 0.96875 4.72732 0.96875 3.06982C0.96875 1.41232 2.31125 0.0698242 3.96875 0.0698242C5.62625 0.0698242 6.96875 1.41232 6.96875 3.06982Z" fill="#42A584"/>
<path fill-rule="evenodd" clip-rule="evenodd" d="M6.96875 3.06982C6.96875 4.72732 5.62625 6.06982 3.96875 6.06982C2.31125 6.06982 0.96875 4.72732 0.96875 3.06982C0.96875 1.41232 2.31125 0.0698242 3.96875 0.0698242C5.62625 0.0698242 6.96875 1.41232 6.96875 3.06982Z" fill="#42A584"/>
<path fill-rule="evenodd" clip-rule="evenodd" d="M6.96875 18.0698C6.96875 19.7273 5.62625 21.0698 3.96875 21.0698C2.31125 21.0698 0.96875 19.7273 0.96875 18.0698C0.96875 16.4123 2.31125 15.0698 3.96875 15.0698C5.62625 15.0698 6.96875 16.4123 6.96875 18.0698Z" fill="#42A584"/>
<path fill-rule="evenodd" clip-rule="evenodd" d="M6.96875 18.0698C6.96875 19.7273 5.62625 21.0698 3.96875 21.0698C2.31125 21.0698 0.96875 19.7273 0.96875 18.0698C0.96875 16.4123 2.31125 15.0698 3.96875 15.0698C5.62625 15.0698 6.96875 16.4123 6.96875 18.0698Z" fill="#42A584"/>
<path fill-rule="evenodd" clip-rule="evenodd" d="M22.9688 18.0698C22.9688 19.7273 21.6263 21.0698 19.9688 21.0698C18.3112 21.0698 16.9688 19.7273 16.9688 18.0698C16.9688 16.4123 18.3112 15.0698 19.9688 15.0698C21.6263 15.0698 22.9688 16.4123 22.9688 18.0698Z" fill="#42A584"/>
<path fill-rule="evenodd" clip-rule="evenodd" d="M22.9688 18.0698C22.9688 19.7273 21.6263 21.0698 19.9688 21.0698C18.3112 21.0698 16.9688 19.7273 16.9688 18.0698C16.9688 16.4123 18.3112 15.0698 19.9688 15.0698C21.6263 15.0698 22.9688 16.4123 22.9688 18.0698Z" fill="#42A584"/>
<path fill-rule="evenodd" clip-rule="evenodd" d="M37.9688 18.0698C37.9688 19.7273 36.6263 21.0698 34.9688 21.0698C33.3112 21.0698 31.9688 19.7273 31.9688 18.0698C31.9688 16.4123 33.3112 15.0698 34.9688 15.0698C36.6263 15.0698 37.9688 16.4123 37.9688 18.0698Z" fill="#42A584"/>
<path fill-rule="evenodd" clip-rule="evenodd" d="M37.9688 18.0698C37.9688 19.7273 36.6263 21.0698 34.9688 21.0698C33.3112 21.0698 31.9688 19.7273 31.9688 18.0698C31.9688 16.4123 33.3112 15.0698 34.9688 15.0698C36.6263 15.0698 37.9688 16.4123 37.9688 18.0698Z" fill="#42A584"/>
<path fill-rule="evenodd" clip-rule="evenodd" d="M52.9688 18.0698C52.9688 19.7273 51.6263 21.0698 49.9688 21.0698C48.3112 21.0698 46.9688 19.7273 46.9688 18.0698C46.9688 16.4123 48.3112 15.0698 49.9688 15.0698C51.6263 15.0698 52.9688 16.4123 52.9688 18.0698Z" fill="#42A584"/>
<path fill-rule="evenodd" clip-rule="evenodd" d="M52.9688 18.0698C52.9688 19.7273 51.6263 21.0698 49.9688 21.0698C48.3112 21.0698 46.9688 19.7273 46.9688 18.0698C46.9688 16.4123 48.3112 15.0698 49.9688 15.0698C51.6263 15.0698 52.9688 16.4123 52.9688 18.0698Z" fill="#42A584"/>
<path fill-rule="evenodd" clip-rule="evenodd" d="M68.9688 18.0698C68.9688 19.7273 67.6263 21.0698 65.9688 21.0698C64.3112 21.0698 62.9688 19.7273 62.9688 18.0698C62.9688 16.4123 64.3112 15.0698 65.9688 15.0698C67.6263 15.0698 68.9688 16.4123 68.9688 18.0698Z" fill="#42A584"/>
<path fill-rule="evenodd" clip-rule="evenodd" d="M68.9688 18.0698C68.9688 19.7273 67.6263 21.0698 65.9688 21.0698C64.3112 21.0698 62.9688 19.7273 62.9688 18.0698C62.9688 16.4123 64.3112 15.0698 65.9688 15.0698C67.6263 15.0698 68.9688 16.4123 68.9688 18.0698Z" fill="#42A584"/>
<path fill-rule="evenodd" clip-rule="evenodd" d="M83.9688 18.0698C83.9688 19.7273 82.6263 21.0698 80.9688 21.0698C79.3112 21.0698 77.9688 19.7273 77.9688 18.0698C77.9688 16.4123 79.3112 15.0698 80.9688 15.0698C82.6263 15.0698 83.9688 16.4123 83.9688 18.0698Z" fill="#42A584"/>
<path fill-rule="evenodd" clip-rule="evenodd" d="M83.9688 18.0698C83.9688 19.7273 82.6263 21.0698 80.9688 21.0698C79.3112 21.0698 77.9688 19.7273 77.9688 18.0698C77.9688 16.4123 79.3112 15.0698 80.9688 15.0698C82.6263 15.0698 83.9688 16.4123 83.9688 18.0698Z" fill="#42A584"/>
<path fill-rule="evenodd" clip-rule="evenodd" d="M99.9688 18.0698C99.9688 19.7273 98.6263 21.0698 96.9688 21.0698C95.3112 21.0698 93.9688 19.7273 93.9688 18.0698C93.9688 16.4123 95.3112 15.0698 96.9688 15.0698C98.6263 15.0698 99.9688 16.4123 99.9688 18.0698Z" fill="#42A584"/>
<path fill-rule="evenodd" clip-rule="evenodd" d="M99.9688 18.0698C99.9688 19.7273 98.6263 21.0698 96.9688 21.0698C95.3112 21.0698 93.9688 19.7273 93.9688 18.0698C93.9688 16.4123 95.3112 15.0698 96.9688 15.0698C98.6263 15.0698 99.9688 16.4123 99.9688 18.0698Z" fill="#42A584"/>
<path fill-rule="evenodd" clip-rule="evenodd" d="M114.969 18.0698C114.969 19.7273 113.626 21.0698 111.969 21.0698C110.311 21.0698 108.969 19.7273 108.969 18.0698C108.969 16.4123 110.311 15.0698 111.969 15.0698C113.626 15.0698 114.969 16.4123 114.969 18.0698Z" fill="#42A584"/>
<path fill-rule="evenodd" clip-rule="evenodd" d="M114.969 18.0698C114.969 19.7273 113.626 21.0698 111.969 21.0698C110.311 21.0698 108.969 19.7273 108.969 18.0698C108.969 16.4123 110.311 15.0698 111.969 15.0698C113.626 15.0698 114.969 16.4123 114.969 18.0698Z" fill="#42A584"/>
<path fill-rule="evenodd" clip-rule="evenodd" d="M130.969 18.0698C130.969 19.7273 129.626 21.0698 127.969 21.0698C126.311 21.0698 124.969 19.7273 124.969 18.0698C124.969 16.4123 126.311 15.0698 127.969 15.0698C129.626 15.0698 130.969 16.4123 130.969 18.0698Z" fill="#42A584"/>
<path fill-rule="evenodd" clip-rule="evenodd" d="M130.969 18.0698C130.969 19.7273 129.626 21.0698 127.969 21.0698C126.311 21.0698 124.969 19.7273 124.969 18.0698C124.969 16.4123 126.311 15.0698 127.969 15.0698C129.626 15.0698 130.969 16.4123 130.969 18.0698Z" fill="#42A584"/>
<path fill-rule="evenodd" clip-rule="evenodd" d="M145.969 18.0698C145.969 19.7273 144.626 21.0698 142.969 21.0698C141.311 21.0698 139.969 19.7273 139.969 18.0698C139.969 16.4123 141.311 15.0698 142.969 15.0698C144.626 15.0698 145.969 16.4123 145.969 18.0698Z" fill="#42A584"/>
<path fill-rule="evenodd" clip-rule="evenodd" d="M145.969 18.0698C145.969 19.7273 144.626 21.0698 142.969 21.0698C141.311 21.0698 139.969 19.7273 139.969 18.0698C139.969 16.4123 141.311 15.0698 142.969 15.0698C144.626 15.0698 145.969 16.4123 145.969 18.0698Z" fill="#42A584"/>
<path fill-rule="evenodd" clip-rule="evenodd" d="M160.969 18.0698C160.969 19.7273 159.626 21.0698 157.969 21.0698C156.311 21.0698 154.969 19.7273 154.969 18.0698C154.969 16.4123 156.311 15.0698 157.969 15.0698C159.626 15.0698 160.969 16.4123 160.969 18.0698Z" fill="#42A584"/>
<path fill-rule="evenodd" clip-rule="evenodd" d="M160.969 18.0698C160.969 19.7273 159.626 21.0698 157.969 21.0698C156.311 21.0698 154.969 19.7273 154.969 18.0698C154.969 16.4123 156.311 15.0698 157.969 15.0698C159.626 15.0698 160.969 16.4123 160.969 18.0698Z" fill="#42A584"/>
<path fill-rule="evenodd" clip-rule="evenodd" d="M176.969 18.0698C176.969 19.7273 175.626 21.0698 173.969 21.0698C172.311 21.0698 170.969 19.7273 170.969 18.0698C170.969 16.4123 172.311 15.0698 173.969 15.0698C175.626 15.0698 176.969 16.4123 176.969 18.0698Z" fill="#42A584"/>
<path fill-rule="evenodd" clip-rule="evenodd" d="M176.969 18.0698C176.969 19.7273 175.626 21.0698 173.969 21.0698C172.311 21.0698 170.969 19.7273 170.969 18.0698C170.969 16.4123 172.311 15.0698 173.969 15.0698C175.626 15.0698 176.969 16.4123 176.969 18.0698Z" fill="#42A584"/>
<path fill-rule="evenodd" clip-rule="evenodd" d="M6.96875 34.0698C6.96875 35.7273 5.62625 37.0698 3.96875 37.0698C2.31125 37.0698 0.96875 35.7273 0.96875 34.0698C0.96875 32.4123 2.31125 31.0698 3.96875 31.0698C5.62625 31.0698 6.96875 32.4123 6.96875 34.0698Z" fill="#42A584"/>
<path fill-rule="evenodd" clip-rule="evenodd" d="M6.96875 34.0698C6.96875 35.7273 5.62625 37.0698 3.96875 37.0698C2.31125 37.0698 0.96875 35.7273 0.96875 34.0698C0.96875 32.4123 2.31125 31.0698 3.96875 31.0698C5.62625 31.0698 6.96875 32.4123 6.96875 34.0698Z" fill="#42A584"/>
<path fill-rule="evenodd" clip-rule="evenodd" d="M22.9688 34.0698C22.9688 35.7273 21.6263 37.0698 19.9688 37.0698C18.3112 37.0698 16.9688 35.7273 16.9688 34.0698C16.9688 32.4123 18.3112 31.0698 19.9688 31.0698C21.6263 31.0698 22.9688 32.4123 22.9688 34.0698Z" fill="#42A584"/>
<path fill-rule="evenodd" clip-rule="evenodd" d="M22.9688 34.0698C22.9688 35.7273 21.6263 37.0698 19.9688 37.0698C18.3112 37.0698 16.9688 35.7273 16.9688 34.0698C16.9688 32.4123 18.3112 31.0698 19.9688 31.0698C21.6263 31.0698 22.9688 32.4123 22.9688 34.0698Z" fill="#42A584"/>
<path fill-rule="evenodd" clip-rule="evenodd" d="M37.9688 34.0698C37.9688 35.7273 36.6263 37.0698 34.9688 37.0698C33.3112 37.0698 31.9688 35.7273 31.9688 34.0698C31.9688 32.4123 33.3112 31.0698 34.9688 31.0698C36.6263 31.0698 37.9688 32.4123 37.9688 34.0698Z" fill="#42A584"/>
<path fill-rule="evenodd" clip-rule="evenodd" d="M37.9688 34.0698C37.9688 35.7273 36.6263 37.0698 34.9688 37.0698C33.3112 37.0698 31.9688 35.7273 31.9688 34.0698C31.9688 32.4123 33.3112 31.0698 34.9688 31.0698C36.6263 31.0698 37.9688 32.4123 37.9688 34.0698Z" fill="#42A584"/>
<path fill-rule="evenodd" clip-rule="evenodd" d="M52.9688 34.0698C52.9688 35.7273 51.6263 37.0698 49.9688 37.0698C48.3112 37.0698 46.9688 35.7273 46.9688 34.0698C46.9688 32.4123 48.3112 31.0698 49.9688 31.0698C51.6263 31.0698 52.9688 32.4123 52.9688 34.0698Z" fill="#42A584"/>
<path fill-rule="evenodd" clip-rule="evenodd" d="M52.9688 34.0698C52.9688 35.7273 51.6263 37.0698 49.9688 37.0698C48.3112 37.0698 46.9688 35.7273 46.9688 34.0698C46.9688 32.4123 48.3112 31.0698 49.9688 31.0698C51.6263 31.0698 52.9688 32.4123 52.9688 34.0698Z" fill="#42A584"/>
<path fill-rule="evenodd" clip-rule="evenodd" d="M68.9688 34.0698C68.9688 35.7273 67.6263 37.0698 65.9688 37.0698C64.3112 37.0698 62.9688 35.7273 62.9688 34.0698C62.9688 32.4123 64.3112 31.0698 65.9688 31.0698C67.6263 31.0698 68.9688 32.4123 68.9688 34.0698Z" fill="#42A584"/>
<path fill-rule="evenodd" clip-rule="evenodd" d="M68.9688 34.0698C68.9688 35.7273 67.6263 37.0698 65.9688 37.0698C64.3112 37.0698 62.9688 35.7273 62.9688 34.0698C62.9688 32.4123 64.3112 31.0698 65.9688 31.0698C67.6263 31.0698 68.9688 32.4123 68.9688 34.0698Z" fill="#42A584"/>
<path fill-rule="evenodd" clip-rule="evenodd" d="M83.9688 34.0698C83.9688 35.7273 82.6263 37.0698 80.9688 37.0698C79.3112 37.0698 77.9688 35.7273 77.9688 34.0698C77.9688 32.4123 79.3112 31.0698 80.9688 31.0698C82.6263 31.0698 83.9688 32.4123 83.9688 34.0698Z" fill="#42A584"/>
<path fill-rule="evenodd" clip-rule="evenodd" d="M83.9688 34.0698C83.9688 35.7273 82.6263 37.0698 80.9688 37.0698C79.3112 37.0698 77.9688 35.7273 77.9688 34.0698C77.9688 32.4123 79.3112 31.0698 80.9688 31.0698C82.6263 31.0698 83.9688 32.4123 83.9688 34.0698Z" fill="#42A584"/>
<path fill-rule="evenodd" clip-rule="evenodd" d="M99.9688 34.0698C99.9688 35.7273 98.6263 37.0698 96.9688 37.0698C95.3112 37.0698 93.9688 35.7273 93.9688 34.0698C93.9688 32.4123 95.3112 31.0698 96.9688 31.0698C98.6263 31.0698 99.9688 32.4123 99.9688 34.0698Z" fill="#42A584"/>
<path fill-rule="evenodd" clip-rule="evenodd" d="M99.9688 34.0698C99.9688 35.7273 98.6263 37.0698 96.9688 37.0698C95.3112 37.0698 93.9688 35.7273 93.9688 34.0698C93.9688 32.4123 95.3112 31.0698 96.9688 31.0698C98.6263 31.0698 99.9688 32.4123 99.9688 34.0698Z" fill="#42A584"/>
<path fill-rule="evenodd" clip-rule="evenodd" d="M114.969 34.0698C114.969 35.7273 113.626 37.0698 111.969 37.0698C110.311 37.0698 108.969 35.7273 108.969 34.0698C108.969 32.4123 110.311 31.0698 111.969 31.0698C113.626 31.0698 114.969 32.4123 114.969 34.0698Z" fill="#42A584"/>
<path fill-rule="evenodd" clip-rule="evenodd" d="M114.969 34.0698C114.969 35.7273 113.626 37.0698 111.969 37.0698C110.311 37.0698 108.969 35.7273 108.969 34.0698C108.969 32.4123 110.311 31.0698 111.969 31.0698C113.626 31.0698 114.969 32.4123 114.969 34.0698Z" fill="#42A584"/>
<path fill-rule="evenodd" clip-rule="evenodd" d="M130.969 34.0698C130.969 35.7273 129.626 37.0698 127.969 37.0698C126.311 37.0698 124.969 35.7273 124.969 34.0698C124.969 32.4123 126.311 31.0698 127.969 31.0698C129.626 31.0698 130.969 32.4123 130.969 34.0698Z" fill="#42A584"/>
<path fill-rule="evenodd" clip-rule="evenodd" d="M130.969 34.0698C130.969 35.7273 129.626 37.0698 127.969 37.0698C126.311 37.0698 124.969 35.7273 124.969 34.0698C124.969 32.4123 126.311 31.0698 127.969 31.0698C129.626 31.0698 130.969 32.4123 130.969 34.0698Z" fill="#42A584"/>
<path fill-rule="evenodd" clip-rule="evenodd" d="M145.969 34.0698C145.969 35.7273 144.626 37.0698 142.969 37.0698C141.311 37.0698 139.969 35.7273 139.969 34.0698C139.969 32.4123 141.311 31.0698 142.969 31.0698C144.626 31.0698 145.969 32.4123 145.969 34.0698Z" fill="#42A584"/>
<path fill-rule="evenodd" clip-rule="evenodd" d="M145.969 34.0698C145.969 35.7273 144.626 37.0698 142.969 37.0698C141.311 37.0698 139.969 35.7273 139.969 34.0698C139.969 32.4123 141.311 31.0698 142.969 31.0698C144.626 31.0698 145.969 32.4123 145.969 34.0698Z" fill="#42A584"/>
<path fill-rule="evenodd" clip-rule="evenodd" d="M160.969 34.0698C160.969 35.7273 159.626 37.0698 157.969 37.0698C156.311 37.0698 154.969 35.7273 154.969 34.0698C154.969 32.4123 156.311 31.0698 157.969 31.0698C159.626 31.0698 160.969 32.4123 160.969 34.0698Z" fill="#42A584"/>
<path fill-rule="evenodd" clip-rule="evenodd" d="M160.969 34.0698C160.969 35.7273 159.626 37.0698 157.969 37.0698C156.311 37.0698 154.969 35.7273 154.969 34.0698C154.969 32.4123 156.311 31.0698 157.969 31.0698C159.626 31.0698 160.969 32.4123 160.969 34.0698Z" fill="#42A584"/>
<path fill-rule="evenodd" clip-rule="evenodd" d="M176.969 34.0698C176.969 35.7273 175.626 37.0698 173.969 37.0698C172.311 37.0698 170.969 35.7273 170.969 34.0698C170.969 32.4123 172.311 31.0698 173.969 31.0698C175.626 31.0698 176.969 32.4123 176.969 34.0698Z" fill="#42A584"/>
<path fill-rule="evenodd" clip-rule="evenodd" d="M176.969 34.0698C176.969 35.7273 175.626 37.0698 173.969 37.0698C172.311 37.0698 170.969 35.7273 170.969 34.0698C170.969 32.4123 172.311 31.0698 173.969 31.0698C175.626 31.0698 176.969 32.4123 176.969 34.0698Z" fill="#42A584"/>
<path fill-rule="evenodd" clip-rule="evenodd" d="M6.96875 49.0698C6.96875 50.7273 5.62625 52.0698 3.96875 52.0698C2.31125 52.0698 0.96875 50.7273 0.96875 49.0698C0.96875 47.4123 2.31125 46.0698 3.96875 46.0698C5.62625 46.0698 6.96875 47.4123 6.96875 49.0698Z" fill="#42A584"/>
<path fill-rule="evenodd" clip-rule="evenodd" d="M6.96875 49.0698C6.96875 50.7273 5.62625 52.0698 3.96875 52.0698C2.31125 52.0698 0.96875 50.7273 0.96875 49.0698C0.96875 47.4123 2.31125 46.0698 3.96875 46.0698C5.62625 46.0698 6.96875 47.4123 6.96875 49.0698Z" fill="#42A584"/>
<path fill-rule="evenodd" clip-rule="evenodd" d="M22.9688 49.0698C22.9688 50.7273 21.6263 52.0698 19.9688 52.0698C18.3112 52.0698 16.9688 50.7273 16.9688 49.0698C16.9688 47.4123 18.3112 46.0698 19.9688 46.0698C21.6263 46.0698 22.9688 47.4123 22.9688 49.0698Z" fill="#42A584"/>
<path fill-rule="evenodd" clip-rule="evenodd" d="M22.9688 49.0698C22.9688 50.7273 21.6263 52.0698 19.9688 52.0698C18.3112 52.0698 16.9688 50.7273 16.9688 49.0698C16.9688 47.4123 18.3112 46.0698 19.9688 46.0698C21.6263 46.0698 22.9688 47.4123 22.9688 49.0698Z" fill="#42A584"/>
<path fill-rule="evenodd" clip-rule="evenodd" d="M37.9688 49.0698C37.9688 50.7273 36.6263 52.0698 34.9688 52.0698C33.3112 52.0698 31.9688 50.7273 31.9688 49.0698C31.9688 47.4123 33.3112 46.0698 34.9688 46.0698C36.6263 46.0698 37.9688 47.4123 37.9688 49.0698Z" fill="#42A584"/>
<path fill-rule="evenodd" clip-rule="evenodd" d="M37.9688 49.0698C37.9688 50.7273 36.6263 52.0698 34.9688 52.0698C33.3112 52.0698 31.9688 50.7273 31.9688 49.0698C31.9688 47.4123 33.3112 46.0698 34.9688 46.0698C36.6263 46.0698 37.9688 47.4123 37.9688 49.0698Z" fill="#42A584"/>
<path fill-rule="evenodd" clip-rule="evenodd" d="M52.9688 49.0698C52.9688 50.7273 51.6263 52.0698 49.9688 52.0698C48.3112 52.0698 46.9688 50.7273 46.9688 49.0698C46.9688 47.4123 48.3112 46.0698 49.9688 46.0698C51.6263 46.0698 52.9688 47.4123 52.9688 49.0698Z" fill="#42A584"/>
<path fill-rule="evenodd" clip-rule="evenodd" d="M52.9688 49.0698C52.9688 50.7273 51.6263 52.0698 49.9688 52.0698C48.3112 52.0698 46.9688 50.7273 46.9688 49.0698C46.9688 47.4123 48.3112 46.0698 49.9688 46.0698C51.6263 46.0698 52.9688 47.4123 52.9688 49.0698Z" fill="#42A584"/>
<path fill-rule="evenodd" clip-rule="evenodd" d="M68.9688 49.0698C68.9688 50.7273 67.6263 52.0698 65.9688 52.0698C64.3112 52.0698 62.9688 50.7273 62.9688 49.0698C62.9688 47.4123 64.3112 46.0698 65.9688 46.0698C67.6263 46.0698 68.9688 47.4123 68.9688 49.0698Z" fill="#42A584"/>
<path fill-rule="evenodd" clip-rule="evenodd" d="M68.9688 49.0698C68.9688 50.7273 67.6263 52.0698 65.9688 52.0698C64.3112 52.0698 62.9688 50.7273 62.9688 49.0698C62.9688 47.4123 64.3112 46.0698 65.9688 46.0698C67.6263 46.0698 68.9688 47.4123 68.9688 49.0698Z" fill="#42A584"/>
<path fill-rule="evenodd" clip-rule="evenodd" d="M83.9688 49.0698C83.9688 50.7273 82.6263 52.0698 80.9688 52.0698C79.3112 52.0698 77.9688 50.7273 77.9688 49.0698C77.9688 47.4123 79.3112 46.0698 80.9688 46.0698C82.6263 46.0698 83.9688 47.4123 83.9688 49.0698Z" fill="#42A584"/>
<path fill-rule="evenodd" clip-rule="evenodd" d="M83.9688 49.0698C83.9688 50.7273 82.6263 52.0698 80.9688 52.0698C79.3112 52.0698 77.9688 50.7273 77.9688 49.0698C77.9688 47.4123 79.3112 46.0698 80.9688 46.0698C82.6263 46.0698 83.9688 47.4123 83.9688 49.0698Z" fill="#42A584"/>
<path fill-rule="evenodd" clip-rule="evenodd" d="M99.9688 49.0698C99.9688 50.7273 98.6263 52.0698 96.9688 52.0698C95.3112 52.0698 93.9688 50.7273 93.9688 49.0698C93.9688 47.4123 95.3112 46.0698 96.9688 46.0698C98.6263 46.0698 99.9688 47.4123 99.9688 49.0698Z" fill="#42A584"/>
<path fill-rule="evenodd" clip-rule="evenodd" d="M99.9688 49.0698C99.9688 50.7273 98.6263 52.0698 96.9688 52.0698C95.3112 52.0698 93.9688 50.7273 93.9688 49.0698C93.9688 47.4123 95.3112 46.0698 96.9688 46.0698C98.6263 46.0698 99.9688 47.4123 99.9688 49.0698Z" fill="#42A584"/>
<path fill-rule="evenodd" clip-rule="evenodd" d="M114.969 49.0698C114.969 50.7273 113.626 52.0698 111.969 52.0698C110.311 52.0698 108.969 50.7273 108.969 49.0698C108.969 47.4123 110.311 46.0698 111.969 46.0698C113.626 46.0698 114.969 47.4123 114.969 49.0698Z" fill="#42A584"/>
<path fill-rule="evenodd" clip-rule="evenodd" d="M114.969 49.0698C114.969 50.7273 113.626 52.0698 111.969 52.0698C110.311 52.0698 108.969 50.7273 108.969 49.0698C108.969 47.4123 110.311 46.0698 111.969 46.0698C113.626 46.0698 114.969 47.4123 114.969 49.0698Z" fill="#42A584"/>
<path fill-rule="evenodd" clip-rule="evenodd" d="M130.969 49.0698C130.969 50.7273 129.626 52.0698 127.969 52.0698C126.311 52.0698 124.969 50.7273 124.969 49.0698C124.969 47.4123 126.311 46.0698 127.969 46.0698C129.626 46.0698 130.969 47.4123 130.969 49.0698Z" fill="#42A584"/>
<path fill-rule="evenodd" clip-rule="evenodd" d="M130.969 49.0698C130.969 50.7273 129.626 52.0698 127.969 52.0698C126.311 52.0698 124.969 50.7273 124.969 49.0698C124.969 47.4123 126.311 46.0698 127.969 46.0698C129.626 46.0698 130.969 47.4123 130.969 49.0698Z" fill="#42A584"/>
<path fill-rule="evenodd" clip-rule="evenodd" d="M145.969 49.0698C145.969 50.7273 144.626 52.0698 142.969 52.0698C141.311 52.0698 139.969 50.7273 139.969 49.0698C139.969 47.4123 141.311 46.0698 142.969 46.0698C144.626 46.0698 145.969 47.4123 145.969 49.0698Z" fill="#42A584"/>
<path fill-rule="evenodd" clip-rule="evenodd" d="M145.969 49.0698C145.969 50.7273 144.626 52.0698 142.969 52.0698C141.311 52.0698 139.969 50.7273 139.969 49.0698C139.969 47.4123 141.311 46.0698 142.969 46.0698C144.626 46.0698 145.969 47.4123 145.969 49.0698Z" fill="#42A584"/>
<path fill-rule="evenodd" clip-rule="evenodd" d="M160.969 49.0698C160.969 50.7273 159.626 52.0698 157.969 52.0698C156.311 52.0698 154.969 50.7273 154.969 49.0698C154.969 47.4123 156.311 46.0698 157.969 46.0698C159.626 46.0698 160.969 47.4123 160.969 49.0698Z" fill="#42A584"/>
<path fill-rule="evenodd" clip-rule="evenodd" d="M160.969 49.0698C160.969 50.7273 159.626 52.0698 157.969 52.0698C156.311 52.0698 154.969 50.7273 154.969 49.0698C154.969 47.4123 156.311 46.0698 157.969 46.0698C159.626 46.0698 160.969 47.4123 160.969 49.0698Z" fill="#42A584"/>
<path fill-rule="evenodd" clip-rule="evenodd" d="M176.969 49.0698C176.969 50.7273 175.626 52.0698 173.969 52.0698C172.311 52.0698 170.969 50.7273 170.969 49.0698C170.969 47.4123 172.311 46.0698 173.969 46.0698C175.626 46.0698 176.969 47.4123 176.969 49.0698Z" fill="#42A584"/>
<path fill-rule="evenodd" clip-rule="evenodd" d="M176.969 49.0698C176.969 50.7273 175.626 52.0698 173.969 52.0698C172.311 52.0698 170.969 50.7273 170.969 49.0698C170.969 47.4123 172.311 46.0698 173.969 46.0698C175.626 46.0698 176.969 47.4123 176.969 49.0698Z" fill="#42A584"/>
<path fill-rule="evenodd" clip-rule="evenodd" d="M6.96875 65.0698C6.96875 66.7273 5.62625 68.0698 3.96875 68.0698C2.31125 68.0698 0.96875 66.7273 0.96875 65.0698C0.96875 63.4123 2.31125 62.0698 3.96875 62.0698C5.62625 62.0698 6.96875 63.4123 6.96875 65.0698Z" fill="#42A584"/>
<path fill-rule="evenodd" clip-rule="evenodd" d="M6.96875 65.0698C6.96875 66.7273 5.62625 68.0698 3.96875 68.0698C2.31125 68.0698 0.96875 66.7273 0.96875 65.0698C0.96875 63.4123 2.31125 62.0698 3.96875 62.0698C5.62625 62.0698 6.96875 63.4123 6.96875 65.0698Z" fill="#42A584"/>
<path fill-rule="evenodd" clip-rule="evenodd" d="M22.9688 65.0698C22.9688 66.7273 21.6263 68.0698 19.9688 68.0698C18.3112 68.0698 16.9688 66.7273 16.9688 65.0698C16.9688 63.4123 18.3112 62.0698 19.9688 62.0698C21.6263 62.0698 22.9688 63.4123 22.9688 65.0698Z" fill="#42A584"/>
<path fill-rule="evenodd" clip-rule="evenodd" d="M22.9688 65.0698C22.9688 66.7273 21.6263 68.0698 19.9688 68.0698C18.3112 68.0698 16.9688 66.7273 16.9688 65.0698C16.9688 63.4123 18.3112 62.0698 19.9688 62.0698C21.6263 62.0698 22.9688 63.4123 22.9688 65.0698Z" fill="#42A584"/>
<path fill-rule="evenodd" clip-rule="evenodd" d="M37.9688 65.0698C37.9688 66.7273 36.6263 68.0698 34.9688 68.0698C33.3112 68.0698 31.9688 66.7273 31.9688 65.0698C31.9688 63.4123 33.3112 62.0698 34.9688 62.0698C36.6263 62.0698 37.9688 63.4123 37.9688 65.0698Z" fill="#42A584"/>
<path fill-rule="evenodd" clip-rule="evenodd" d="M37.9688 65.0698C37.9688 66.7273 36.6263 68.0698 34.9688 68.0698C33.3112 68.0698 31.9688 66.7273 31.9688 65.0698C31.9688 63.4123 33.3112 62.0698 34.9688 62.0698C36.6263 62.0698 37.9688 63.4123 37.9688 65.0698Z" fill="#42A584"/>
<path fill-rule="evenodd" clip-rule="evenodd" d="M52.9688 65.0698C52.9688 66.7273 51.6263 68.0698 49.9688 68.0698C48.3112 68.0698 46.9688 66.7273 46.9688 65.0698C46.9688 63.4123 48.3112 62.0698 49.9688 62.0698C51.6263 62.0698 52.9688 63.4123 52.9688 65.0698Z" fill="#42A584"/>
<path fill-rule="evenodd" clip-rule="evenodd" d="M52.9688 65.0698C52.9688 66.7273 51.6263 68.0698 49.9688 68.0698C48.3112 68.0698 46.9688 66.7273 46.9688 65.0698C46.9688 63.4123 48.3112 62.0698 49.9688 62.0698C51.6263 62.0698 52.9688 63.4123 52.9688 65.0698Z" fill="#42A584"/>
<path fill-rule="evenodd" clip-rule="evenodd" d="M68.9688 65.0698C68.9688 66.7273 67.6263 68.0698 65.9688 68.0698C64.3112 68.0698 62.9688 66.7273 62.9688 65.0698C62.9688 63.4123 64.3112 62.0698 65.9688 62.0698C67.6263 62.0698 68.9688 63.4123 68.9688 65.0698Z" fill="#42A584"/>
<path fill-rule="evenodd" clip-rule="evenodd" d="M68.9688 65.0698C68.9688 66.7273 67.6263 68.0698 65.9688 68.0698C64.3112 68.0698 62.9688 66.7273 62.9688 65.0698C62.9688 63.4123 64.3112 62.0698 65.9688 62.0698C67.6263 62.0698 68.9688 63.4123 68.9688 65.0698Z" fill="#42A584"/>
<path fill-rule="evenodd" clip-rule="evenodd" d="M83.9688 65.0698C83.9688 66.7273 82.6263 68.0698 80.9688 68.0698C79.3112 68.0698 77.9688 66.7273 77.9688 65.0698C77.9688 63.4123 79.3112 62.0698 80.9688 62.0698C82.6263 62.0698 83.9688 63.4123 83.9688 65.0698Z" fill="#42A584"/>
<path fill-rule="evenodd" clip-rule="evenodd" d="M83.9688 65.0698C83.9688 66.7273 82.6263 68.0698 80.9688 68.0698C79.3112 68.0698 77.9688 66.7273 77.9688 65.0698C77.9688 63.4123 79.3112 62.0698 80.9688 62.0698C82.6263 62.0698 83.9688 63.4123 83.9688 65.0698Z" fill="#42A584"/>
<path fill-rule="evenodd" clip-rule="evenodd" d="M99.9688 65.0698C99.9688 66.7273 98.6263 68.0698 96.9688 68.0698C95.3112 68.0698 93.9688 66.7273 93.9688 65.0698C93.9688 63.4123 95.3112 62.0698 96.9688 62.0698C98.6263 62.0698 99.9688 63.4123 99.9688 65.0698Z" fill="#42A584"/>
<path fill-rule="evenodd" clip-rule="evenodd" d="M99.9688 65.0698C99.9688 66.7273 98.6263 68.0698 96.9688 68.0698C95.3112 68.0698 93.9688 66.7273 93.9688 65.0698C93.9688 63.4123 95.3112 62.0698 96.9688 62.0698C98.6263 62.0698 99.9688 63.4123 99.9688 65.0698Z" fill="#42A584"/>
<path fill-rule="evenodd" clip-rule="evenodd" d="M114.969 65.0698C114.969 66.7273 113.626 68.0698 111.969 68.0698C110.311 68.0698 108.969 66.7273 108.969 65.0698C108.969 63.4123 110.311 62.0698 111.969 62.0698C113.626 62.0698 114.969 63.4123 114.969 65.0698Z" fill="#42A584"/>
<path fill-rule="evenodd" clip-rule="evenodd" d="M114.969 65.0698C114.969 66.7273 113.626 68.0698 111.969 68.0698C110.311 68.0698 108.969 66.7273 108.969 65.0698C108.969 63.4123 110.311 62.0698 111.969 62.0698C113.626 62.0698 114.969 63.4123 114.969 65.0698Z" fill="#42A584"/>
<path fill-rule="evenodd" clip-rule="evenodd" d="M130.969 65.0698C130.969 66.7273 129.626 68.0698 127.969 68.0698C126.311 68.0698 124.969 66.7273 124.969 65.0698C124.969 63.4123 126.311 62.0698 127.969 62.0698C129.626 62.0698 130.969 63.4123 130.969 65.0698Z" fill="#42A584"/>
<path fill-rule="evenodd" clip-rule="evenodd" d="M130.969 65.0698C130.969 66.7273 129.626 68.0698 127.969 68.0698C126.311 68.0698 124.969 66.7273 124.969 65.0698C124.969 63.4123 126.311 62.0698 127.969 62.0698C129.626 62.0698 130.969 63.4123 130.969 65.0698Z" fill="#42A584"/>
<path fill-rule="evenodd" clip-rule="evenodd" d="M145.969 65.0698C145.969 66.7273 144.626 68.0698 142.969 68.0698C141.311 68.0698 139.969 66.7273 139.969 65.0698C139.969 63.4123 141.311 62.0698 142.969 62.0698C144.626 62.0698 145.969 63.4123 145.969 65.0698Z" fill="#42A584"/>
<path fill-rule="evenodd" clip-rule="evenodd" d="M145.969 65.0698C145.969 66.7273 144.626 68.0698 142.969 68.0698C141.311 68.0698 139.969 66.7273 139.969 65.0698C139.969 63.4123 141.311 62.0698 142.969 62.0698C144.626 62.0698 145.969 63.4123 145.969 65.0698Z" fill="#42A584"/>
<path fill-rule="evenodd" clip-rule="evenodd" d="M160.969 65.0698C160.969 66.7273 159.626 68.0698 157.969 68.0698C156.311 68.0698 154.969 66.7273 154.969 65.0698C154.969 63.4123 156.311 62.0698 157.969 62.0698C159.626 62.0698 160.969 63.4123 160.969 65.0698Z" fill="#42A584"/>
<path fill-rule="evenodd" clip-rule="evenodd" d="M160.969 65.0698C160.969 66.7273 159.626 68.0698 157.969 68.0698C156.311 68.0698 154.969 66.7273 154.969 65.0698C154.969 63.4123 156.311 62.0698 157.969 62.0698C159.626 62.0698 160.969 63.4123 160.969 65.0698Z" fill="#42A584"/>
<path fill-rule="evenodd" clip-rule="evenodd" d="M176.969 65.0698C176.969 66.7273 175.626 68.0698 173.969 68.0698C172.311 68.0698 170.969 66.7273 170.969 65.0698C170.969 63.4123 172.311 62.0698 173.969 62.0698C175.626 62.0698 176.969 63.4123 176.969 65.0698Z" fill="#42A584"/>
<path fill-rule="evenodd" clip-rule="evenodd" d="M176.969 65.0698C176.969 66.7273 175.626 68.0698 173.969 68.0698C172.311 68.0698 170.969 66.7273 170.969 65.0698C170.969 63.4123 172.311 62.0698 173.969 62.0698C175.626 62.0698 176.969 63.4123 176.969 65.0698Z" fill="#42A584"/>
<path fill-rule="evenodd" clip-rule="evenodd" d="M6.96875 80.0698C6.96875 81.7273 5.62625 83.0698 3.96875 83.0698C2.31125 83.0698 0.96875 81.7273 0.96875 80.0698C0.96875 78.4123 2.31125 77.0698 3.96875 77.0698C5.62625 77.0698 6.96875 78.4123 6.96875 80.0698Z" fill="#42A584"/>
<path fill-rule="evenodd" clip-rule="evenodd" d="M6.96875 80.0698C6.96875 81.7273 5.62625 83.0698 3.96875 83.0698C2.31125 83.0698 0.96875 81.7273 0.96875 80.0698C0.96875 78.4123 2.31125 77.0698 3.96875 77.0698C5.62625 77.0698 6.96875 78.4123 6.96875 80.0698Z" fill="#42A584"/>
<path fill-rule="evenodd" clip-rule="evenodd" d="M22.9688 80.0698C22.9688 81.7273 21.6263 83.0698 19.9688 83.0698C18.3112 83.0698 16.9688 81.7273 16.9688 80.0698C16.9688 78.4123 18.3112 77.0698 19.9688 77.0698C21.6263 77.0698 22.9688 78.4123 22.9688 80.0698Z" fill="#42A584"/>
<path fill-rule="evenodd" clip-rule="evenodd" d="M22.9688 80.0698C22.9688 81.7273 21.6263 83.0698 19.9688 83.0698C18.3112 83.0698 16.9688 81.7273 16.9688 80.0698C16.9688 78.4123 18.3112 77.0698 19.9688 77.0698C21.6263 77.0698 22.9688 78.4123 22.9688 80.0698Z" fill="#42A584"/>
<path fill-rule="evenodd" clip-rule="evenodd" d="M37.9688 80.0698C37.9688 81.7273 36.6263 83.0698 34.9688 83.0698C33.3112 83.0698 31.9688 81.7273 31.9688 80.0698C31.9688 78.4123 33.3112 77.0698 34.9688 77.0698C36.6263 77.0698 37.9688 78.4123 37.9688 80.0698Z" fill="#42A584"/>
<path fill-rule="evenodd" clip-rule="evenodd" d="M37.9688 80.0698C37.9688 81.7273 36.6263 83.0698 34.9688 83.0698C33.3112 83.0698 31.9688 81.7273 31.9688 80.0698C31.9688 78.4123 33.3112 77.0698 34.9688 77.0698C36.6263 77.0698 37.9688 78.4123 37.9688 80.0698Z" fill="#42A584"/>
<path fill-rule="evenodd" clip-rule="evenodd" d="M52.9688 80.0698C52.9688 81.7273 51.6263 83.0698 49.9688 83.0698C48.3112 83.0698 46.9688 81.7273 46.9688 80.0698C46.9688 78.4123 48.3112 77.0698 49.9688 77.0698C51.6263 77.0698 52.9688 78.4123 52.9688 80.0698Z" fill="#42A584"/>
<path fill-rule="evenodd" clip-rule="evenodd" d="M52.9688 80.0698C52.9688 81.7273 51.6263 83.0698 49.9688 83.0698C48.3112 83.0698 46.9688 81.7273 46.9688 80.0698C46.9688 78.4123 48.3112 77.0698 49.9688 77.0698C51.6263 77.0698 52.9688 78.4123 52.9688 80.0698Z" fill="#42A584"/>
<path fill-rule="evenodd" clip-rule="evenodd" d="M68.9688 80.0698C68.9688 81.7273 67.6263 83.0698 65.9688 83.0698C64.3112 83.0698 62.9688 81.7273 62.9688 80.0698C62.9688 78.4123 64.3112 77.0698 65.9688 77.0698C67.6263 77.0698 68.9688 78.4123 68.9688 80.0698Z" fill="#42A584"/>
<path fill-rule="evenodd" clip-rule="evenodd" d="M68.9688 80.0698C68.9688 81.7273 67.6263 83.0698 65.9688 83.0698C64.3112 83.0698 62.9688 81.7273 62.9688 80.0698C62.9688 78.4123 64.3112 77.0698 65.9688 77.0698C67.6263 77.0698 68.9688 78.4123 68.9688 80.0698Z" fill="#42A584"/>
<path fill-rule="evenodd" clip-rule="evenodd" d="M83.9688 80.0698C83.9688 81.7273 82.6263 83.0698 80.9688 83.0698C79.3112 83.0698 77.9688 81.7273 77.9688 80.0698C77.9688 78.4123 79.3112 77.0698 80.9688 77.0698C82.6263 77.0698 83.9688 78.4123 83.9688 80.0698Z" fill="#42A584"/>
<path fill-rule="evenodd" clip-rule="evenodd" d="M83.9688 80.0698C83.9688 81.7273 82.6263 83.0698 80.9688 83.0698C79.3112 83.0698 77.9688 81.7273 77.9688 80.0698C77.9688 78.4123 79.3112 77.0698 80.9688 77.0698C82.6263 77.0698 83.9688 78.4123 83.9688 80.0698Z" fill="#42A584"/>
<path fill-rule="evenodd" clip-rule="evenodd" d="M99.9688 80.0698C99.9688 81.7273 98.6263 83.0698 96.9688 83.0698C95.3112 83.0698 93.9688 81.7273 93.9688 80.0698C93.9688 78.4123 95.3112 77.0698 96.9688 77.0698C98.6263 77.0698 99.9688 78.4123 99.9688 80.0698Z" fill="#42A584"/>
<path fill-rule="evenodd" clip-rule="evenodd" d="M99.9688 80.0698C99.9688 81.7273 98.6263 83.0698 96.9688 83.0698C95.3112 83.0698 93.9688 81.7273 93.9688 80.0698C93.9688 78.4123 95.3112 77.0698 96.9688 77.0698C98.6263 77.0698 99.9688 78.4123 99.9688 80.0698Z" fill="#42A584"/>
<path fill-rule="evenodd" clip-rule="evenodd" d="M114.969 80.0698C114.969 81.7273 113.626 83.0698 111.969 83.0698C110.311 83.0698 108.969 81.7273 108.969 80.0698C108.969 78.4123 110.311 77.0698 111.969 77.0698C113.626 77.0698 114.969 78.4123 114.969 80.0698Z" fill="#42A584"/>
<path fill-rule="evenodd" clip-rule="evenodd" d="M114.969 80.0698C114.969 81.7273 113.626 83.0698 111.969 83.0698C110.311 83.0698 108.969 81.7273 108.969 80.0698C108.969 78.4123 110.311 77.0698 111.969 77.0698C113.626 77.0698 114.969 78.4123 114.969 80.0698Z" fill="#42A584"/>
<path fill-rule="evenodd" clip-rule="evenodd" d="M130.969 80.0698C130.969 81.7273 129.626 83.0698 127.969 83.0698C126.311 83.0698 124.969 81.7273 124.969 80.0698C124.969 78.4123 126.311 77.0698 127.969 77.0698C129.626 77.0698 130.969 78.4123 130.969 80.0698Z" fill="#42A584"/>
<path fill-rule="evenodd" clip-rule="evenodd" d="M130.969 80.0698C130.969 81.7273 129.626 83.0698 127.969 83.0698C126.311 83.0698 124.969 81.7273 124.969 80.0698C124.969 78.4123 126.311 77.0698 127.969 77.0698C129.626 77.0698 130.969 78.4123 130.969 80.0698Z" fill="#42A584"/>
<path fill-rule="evenodd" clip-rule="evenodd" d="M145.969 80.0698C145.969 81.7273 144.626 83.0698 142.969 83.0698C141.311 83.0698 139.969 81.7273 139.969 80.0698C139.969 78.4123 141.311 77.0698 142.969 77.0698C144.626 77.0698 145.969 78.4123 145.969 80.0698Z" fill="#42A584"/>
<path fill-rule="evenodd" clip-rule="evenodd" d="M145.969 80.0698C145.969 81.7273 144.626 83.0698 142.969 83.0698C141.311 83.0698 139.969 81.7273 139.969 80.0698C139.969 78.4123 141.311 77.0698 142.969 77.0698C144.626 77.0698 145.969 78.4123 145.969 80.0698Z" fill="#42A584"/>
<path fill-rule="evenodd" clip-rule="evenodd" d="M160.969 80.0698C160.969 81.7273 159.626 83.0698 157.969 83.0698C156.311 83.0698 154.969 81.7273 154.969 80.0698C154.969 78.4123 156.311 77.0698 157.969 77.0698C159.626 77.0698 160.969 78.4123 160.969 80.0698Z" fill="#42A584"/>
<path fill-rule="evenodd" clip-rule="evenodd" d="M160.969 80.0698C160.969 81.7273 159.626 83.0698 157.969 83.0698C156.311 83.0698 154.969 81.7273 154.969 80.0698C154.969 78.4123 156.311 77.0698 157.969 77.0698C159.626 77.0698 160.969 78.4123 160.969 80.0698Z" fill="#42A584"/>
<path fill-rule="evenodd" clip-rule="evenodd" d="M176.969 80.0698C176.969 81.7273 175.626 83.0698 173.969 83.0698C172.311 83.0698 170.969 81.7273 170.969 80.0698C170.969 78.4123 172.311 77.0698 173.969 77.0698C175.626 77.0698 176.969 78.4123 176.969 80.0698Z" fill="#42A584"/>
<path fill-rule="evenodd" clip-rule="evenodd" d="M176.969 80.0698C176.969 81.7273 175.626 83.0698 173.969 83.0698C172.311 83.0698 170.969 81.7273 170.969 80.0698C170.969 78.4123 172.311 77.0698 173.969 77.0698C175.626 77.0698 176.969 78.4123 176.969 80.0698Z" fill="#42A584"/>
<path fill-rule="evenodd" clip-rule="evenodd" d="M6.96875 96.0698C6.96875 97.7273 5.62625 99.0698 3.96875 99.0698C2.31125 99.0698 0.96875 97.7273 0.96875 96.0698C0.96875 94.4123 2.31125 93.0698 3.96875 93.0698C5.62625 93.0698 6.96875 94.4123 6.96875 96.0698Z" fill="#42A584"/>
<path fill-rule="evenodd" clip-rule="evenodd" d="M6.96875 96.0698C6.96875 97.7273 5.62625 99.0698 3.96875 99.0698C2.31125 99.0698 0.96875 97.7273 0.96875 96.0698C0.96875 94.4123 2.31125 93.0698 3.96875 93.0698C5.62625 93.0698 6.96875 94.4123 6.96875 96.0698Z" fill="#42A584"/>
<path fill-rule="evenodd" clip-rule="evenodd" d="M22.9688 96.0698C22.9688 97.7273 21.6263 99.0698 19.9688 99.0698C18.3112 99.0698 16.9688 97.7273 16.9688 96.0698C16.9688 94.4123 18.3112 93.0698 19.9688 93.0698C21.6263 93.0698 22.9688 94.4123 22.9688 96.0698Z" fill="#42A584"/>
<path fill-rule="evenodd" clip-rule="evenodd" d="M22.9688 96.0698C22.9688 97.7273 21.6263 99.0698 19.9688 99.0698C18.3112 99.0698 16.9688 97.7273 16.9688 96.0698C16.9688 94.4123 18.3112 93.0698 19.9688 93.0698C21.6263 93.0698 22.9688 94.4123 22.9688 96.0698Z" fill="#42A584"/>
<path fill-rule="evenodd" clip-rule="evenodd" d="M37.9688 96.0698C37.9688 97.7273 36.6263 99.0698 34.9688 99.0698C33.3112 99.0698 31.9688 97.7273 31.9688 96.0698C31.9688 94.4123 33.3112 93.0698 34.9688 93.0698C36.6263 93.0698 37.9688 94.4123 37.9688 96.0698Z" fill="#42A584"/>
<path fill-rule="evenodd" clip-rule="evenodd" d="M37.9688 96.0698C37.9688 97.7273 36.6263 99.0698 34.9688 99.0698C33.3112 99.0698 31.9688 97.7273 31.9688 96.0698C31.9688 94.4123 33.3112 93.0698 34.9688 93.0698C36.6263 93.0698 37.9688 94.4123 37.9688 96.0698Z" fill="#42A584"/>
<path fill-rule="evenodd" clip-rule="evenodd" d="M52.9688 96.0698C52.9688 97.7273 51.6263 99.0698 49.9688 99.0698C48.3112 99.0698 46.9688 97.7273 46.9688 96.0698C46.9688 94.4123 48.3112 93.0698 49.9688 93.0698C51.6263 93.0698 52.9688 94.4123 52.9688 96.0698Z" fill="#42A584"/>
<path fill-rule="evenodd" clip-rule="evenodd" d="M52.9688 96.0698C52.9688 97.7273 51.6263 99.0698 49.9688 99.0698C48.3112 99.0698 46.9688 97.7273 46.9688 96.0698C46.9688 94.4123 48.3112 93.0698 49.9688 93.0698C51.6263 93.0698 52.9688 94.4123 52.9688 96.0698Z" fill="#42A584"/>
<path fill-rule="evenodd" clip-rule="evenodd" d="M68.9688 96.0698C68.9688 97.7273 67.6263 99.0698 65.9688 99.0698C64.3112 99.0698 62.9688 97.7273 62.9688 96.0698C62.9688 94.4123 64.3112 93.0698 65.9688 93.0698C67.6263 93.0698 68.9688 94.4123 68.9688 96.0698Z" fill="#42A584"/>
<path fill-rule="evenodd" clip-rule="evenodd" d="M68.9688 96.0698C68.9688 97.7273 67.6263 99.0698 65.9688 99.0698C64.3112 99.0698 62.9688 97.7273 62.9688 96.0698C62.9688 94.4123 64.3112 93.0698 65.9688 93.0698C67.6263 93.0698 68.9688 94.4123 68.9688 96.0698Z" fill="#42A584"/>
<path fill-rule="evenodd" clip-rule="evenodd" d="M83.9688 96.0698C83.9688 97.7273 82.6263 99.0698 80.9688 99.0698C79.3112 99.0698 77.9688 97.7273 77.9688 96.0698C77.9688 94.4123 79.3112 93.0698 80.9688 93.0698C82.6263 93.0698 83.9688 94.4123 83.9688 96.0698Z" fill="#42A584"/>
<path fill-rule="evenodd" clip-rule="evenodd" d="M83.9688 96.0698C83.9688 97.7273 82.6263 99.0698 80.9688 99.0698C79.3112 99.0698 77.9688 97.7273 77.9688 96.0698C77.9688 94.4123 79.3112 93.0698 80.9688 93.0698C82.6263 93.0698 83.9688 94.4123 83.9688 96.0698Z" fill="#42A584"/>
<path fill-rule="evenodd" clip-rule="evenodd" d="M99.9688 96.0698C99.9688 97.7273 98.6263 99.0698 96.9688 99.0698C95.3112 99.0698 93.9688 97.7273 93.9688 96.0698C93.9688 94.4123 95.3112 93.0698 96.9688 93.0698C98.6263 93.0698 99.9688 94.4123 99.9688 96.0698Z" fill="#42A584"/>
<path fill-rule="evenodd" clip-rule="evenodd" d="M99.9688 96.0698C99.9688 97.7273 98.6263 99.0698 96.9688 99.0698C95.3112 99.0698 93.9688 97.7273 93.9688 96.0698C93.9688 94.4123 95.3112 93.0698 96.9688 93.0698C98.6263 93.0698 99.9688 94.4123 99.9688 96.0698Z" fill="#42A584"/>
<path fill-rule="evenodd" clip-rule="evenodd" d="M114.969 96.0698C114.969 97.7273 113.626 99.0698 111.969 99.0698C110.311 99.0698 108.969 97.7273 108.969 96.0698C108.969 94.4123 110.311 93.0698 111.969 93.0698C113.626 93.0698 114.969 94.4123 114.969 96.0698Z" fill="#42A584"/>
<path fill-rule="evenodd" clip-rule="evenodd" d="M114.969 96.0698C114.969 97.7273 113.626 99.0698 111.969 99.0698C110.311 99.0698 108.969 97.7273 108.969 96.0698C108.969 94.4123 110.311 93.0698 111.969 93.0698C113.626 93.0698 114.969 94.4123 114.969 96.0698Z" fill="#42A584"/>
<path fill-rule="evenodd" clip-rule="evenodd" d="M130.969 96.0698C130.969 97.7273 129.626 99.0698 127.969 99.0698C126.311 99.0698 124.969 97.7273 124.969 96.0698C124.969 94.4123 126.311 93.0698 127.969 93.0698C129.626 93.0698 130.969 94.4123 130.969 96.0698Z" fill="#42A584"/>
<path fill-rule="evenodd" clip-rule="evenodd" d="M130.969 96.0698C130.969 97.7273 129.626 99.0698 127.969 99.0698C126.311 99.0698 124.969 97.7273 124.969 96.0698C124.969 94.4123 126.311 93.0698 127.969 93.0698C129.626 93.0698 130.969 94.4123 130.969 96.0698Z" fill="#42A584"/>
<path fill-rule="evenodd" clip-rule="evenodd" d="M145.969 96.0698C145.969 97.7273 144.626 99.0698 142.969 99.0698C141.311 99.0698 139.969 97.7273 139.969 96.0698C139.969 94.4123 141.311 93.0698 142.969 93.0698C144.626 93.0698 145.969 94.4123 145.969 96.0698Z" fill="#42A584"/>
<path fill-rule="evenodd" clip-rule="evenodd" d="M145.969 96.0698C145.969 97.7273 144.626 99.0698 142.969 99.0698C141.311 99.0698 139.969 97.7273 139.969 96.0698C139.969 94.4123 141.311 93.0698 142.969 93.0698C144.626 93.0698 145.969 94.4123 145.969 96.0698Z" fill="#42A584"/>
<path fill-rule="evenodd" clip-rule="evenodd" d="M160.969 96.0698C160.969 97.7273 159.626 99.0698 157.969 99.0698C156.311 99.0698 154.969 97.7273 154.969 96.0698C154.969 94.4123 156.311 93.0698 157.969 93.0698C159.626 93.0698 160.969 94.4123 160.969 96.0698Z" fill="#42A584"/>
<path fill-rule="evenodd" clip-rule="evenodd" d="M160.969 96.0698C160.969 97.7273 159.626 99.0698 157.969 99.0698C156.311 99.0698 154.969 97.7273 154.969 96.0698C154.969 94.4123 156.311 93.0698 157.969 93.0698C159.626 93.0698 160.969 94.4123 160.969 96.0698Z" fill="#42A584"/>
<path fill-rule="evenodd" clip-rule="evenodd" d="M176.969 96.0698C176.969 97.7273 175.626 99.0698 173.969 99.0698C172.311 99.0698 170.969 97.7273 170.969 96.0698C170.969 94.4123 172.311 93.0698 173.969 93.0698C175.626 93.0698 176.969 94.4123 176.969 96.0698Z" fill="#42A584"/>
<path fill-rule="evenodd" clip-rule="evenodd" d="M176.969 96.0698C176.969 97.7273 175.626 99.0698 173.969 99.0698C172.311 99.0698 170.969 97.7273 170.969 96.0698C170.969 94.4123 172.311 93.0698 173.969 93.0698C175.626 93.0698 176.969 94.4123 176.969 96.0698Z" fill="#42A584"/>
<path fill-rule="evenodd" clip-rule="evenodd" d="M6.96875 111.07C6.96875 112.727 5.62625 114.07 3.96875 114.07C2.31125 114.07 0.96875 112.727 0.96875 111.07C0.96875 109.412 2.31125 108.07 3.96875 108.07C5.62625 108.07 6.96875 109.412 6.96875 111.07Z" fill="#42A584"/>
<path fill-rule="evenodd" clip-rule="evenodd" d="M6.96875 111.07C6.96875 112.727 5.62625 114.07 3.96875 114.07C2.31125 114.07 0.96875 112.727 0.96875 111.07C0.96875 109.412 2.31125 108.07 3.96875 108.07C5.62625 108.07 6.96875 109.412 6.96875 111.07Z" fill="#42A584"/>
<path fill-rule="evenodd" clip-rule="evenodd" d="M22.9688 111.07C22.9688 112.727 21.6263 114.07 19.9688 114.07C18.3112 114.07 16.9688 112.727 16.9688 111.07C16.9688 109.412 18.3112 108.07 19.9688 108.07C21.6263 108.07 22.9688 109.412 22.9688 111.07Z" fill="#42A584"/>
<path fill-rule="evenodd" clip-rule="evenodd" d="M22.9688 111.07C22.9688 112.727 21.6263 114.07 19.9688 114.07C18.3112 114.07 16.9688 112.727 16.9688 111.07C16.9688 109.412 18.3112 108.07 19.9688 108.07C21.6263 108.07 22.9688 109.412 22.9688 111.07Z" fill="#42A584"/>
<path fill-rule="evenodd" clip-rule="evenodd" d="M37.9688 111.07C37.9688 112.727 36.6263 114.07 34.9688 114.07C33.3112 114.07 31.9688 112.727 31.9688 111.07C31.9688 109.412 33.3112 108.07 34.9688 108.07C36.6263 108.07 37.9688 109.412 37.9688 111.07Z" fill="#42A584"/>
<path fill-rule="evenodd" clip-rule="evenodd" d="M37.9688 111.07C37.9688 112.727 36.6263 114.07 34.9688 114.07C33.3112 114.07 31.9688 112.727 31.9688 111.07C31.9688 109.412 33.3112 108.07 34.9688 108.07C36.6263 108.07 37.9688 109.412 37.9688 111.07Z" fill="#42A584"/>
<path fill-rule="evenodd" clip-rule="evenodd" d="M52.9688 111.07C52.9688 112.727 51.6263 114.07 49.9688 114.07C48.3112 114.07 46.9688 112.727 46.9688 111.07C46.9688 109.412 48.3112 108.07 49.9688 108.07C51.6263 108.07 52.9688 109.412 52.9688 111.07Z" fill="#42A584"/>
<path fill-rule="evenodd" clip-rule="evenodd" d="M52.9688 111.07C52.9688 112.727 51.6263 114.07 49.9688 114.07C48.3112 114.07 46.9688 112.727 46.9688 111.07C46.9688 109.412 48.3112 108.07 49.9688 108.07C51.6263 108.07 52.9688 109.412 52.9688 111.07Z" fill="#42A584"/>
<path fill-rule="evenodd" clip-rule="evenodd" d="M68.9688 111.07C68.9688 112.727 67.6263 114.07 65.9688 114.07C64.3112 114.07 62.9688 112.727 62.9688 111.07C62.9688 109.412 64.3112 108.07 65.9688 108.07C67.6263 108.07 68.9688 109.412 68.9688 111.07Z" fill="#42A584"/>
<path fill-rule="evenodd" clip-rule="evenodd" d="M68.9688 111.07C68.9688 112.727 67.6263 114.07 65.9688 114.07C64.3112 114.07 62.9688 112.727 62.9688 111.07C62.9688 109.412 64.3112 108.07 65.9688 108.07C67.6263 108.07 68.9688 109.412 68.9688 111.07Z" fill="#42A584"/>
<path fill-rule="evenodd" clip-rule="evenodd" d="M83.9688 111.07C83.9688 112.727 82.6263 114.07 80.9688 114.07C79.3112 114.07 77.9688 112.727 77.9688 111.07C77.9688 109.412 79.3112 108.07 80.9688 108.07C82.6263 108.07 83.9688 109.412 83.9688 111.07Z" fill="#42A584"/>
<path fill-rule="evenodd" clip-rule="evenodd" d="M83.9688 111.07C83.9688 112.727 82.6263 114.07 80.9688 114.07C79.3112 114.07 77.9688 112.727 77.9688 111.07C77.9688 109.412 79.3112 108.07 80.9688 108.07C82.6263 108.07 83.9688 109.412 83.9688 111.07Z" fill="#42A584"/>
<path fill-rule="evenodd" clip-rule="evenodd" d="M99.9688 111.07C99.9688 112.727 98.6263 114.07 96.9688 114.07C95.3112 114.07 93.9688 112.727 93.9688 111.07C93.9688 109.412 95.3112 108.07 96.9688 108.07C98.6263 108.07 99.9688 109.412 99.9688 111.07Z" fill="#42A584"/>
<path fill-rule="evenodd" clip-rule="evenodd" d="M99.9688 111.07C99.9688 112.727 98.6263 114.07 96.9688 114.07C95.3112 114.07 93.9688 112.727 93.9688 111.07C93.9688 109.412 95.3112 108.07 96.9688 108.07C98.6263 108.07 99.9688 109.412 99.9688 111.07Z" fill="#42A584"/>
<path fill-rule="evenodd" clip-rule="evenodd" d="M114.969 111.07C114.969 112.727 113.626 114.07 111.969 114.07C110.311 114.07 108.969 112.727 108.969 111.07C108.969 109.412 110.311 108.07 111.969 108.07C113.626 108.07 114.969 109.412 114.969 111.07Z" fill="#42A584"/>
<path fill-rule="evenodd" clip-rule="evenodd" d="M114.969 111.07C114.969 112.727 113.626 114.07 111.969 114.07C110.311 114.07 108.969 112.727 108.969 111.07C108.969 109.412 110.311 108.07 111.969 108.07C113.626 108.07 114.969 109.412 114.969 111.07Z" fill="#42A584"/>
<path fill-rule="evenodd" clip-rule="evenodd" d="M130.969 111.07C130.969 112.727 129.626 114.07 127.969 114.07C126.311 114.07 124.969 112.727 124.969 111.07C124.969 109.412 126.311 108.07 127.969 108.07C129.626 108.07 130.969 109.412 130.969 111.07Z" fill="#42A584"/>
<path fill-rule="evenodd" clip-rule="evenodd" d="M130.969 111.07C130.969 112.727 129.626 114.07 127.969 114.07C126.311 114.07 124.969 112.727 124.969 111.07C124.969 109.412 126.311 108.07 127.969 108.07C129.626 108.07 130.969 109.412 130.969 111.07Z" fill="#42A584"/>
<path fill-rule="evenodd" clip-rule="evenodd" d="M145.969 111.07C145.969 112.727 144.626 114.07 142.969 114.07C141.311 114.07 139.969 112.727 139.969 111.07C139.969 109.412 141.311 108.07 142.969 108.07C144.626 108.07 145.969 109.412 145.969 111.07Z" fill="#42A584"/>
<path fill-rule="evenodd" clip-rule="evenodd" d="M145.969 111.07C145.969 112.727 144.626 114.07 142.969 114.07C141.311 114.07 139.969 112.727 139.969 111.07C139.969 109.412 141.311 108.07 142.969 108.07C144.626 108.07 145.969 109.412 145.969 111.07Z" fill="#42A584"/>
<path fill-rule="evenodd" clip-rule="evenodd" d="M160.969 111.07C160.969 112.727 159.626 114.07 157.969 114.07C156.311 114.07 154.969 112.727 154.969 111.07C154.969 109.412 156.311 108.07 157.969 108.07C159.626 108.07 160.969 109.412 160.969 111.07Z" fill="#42A584"/>
<path fill-rule="evenodd" clip-rule="evenodd" d="M160.969 111.07C160.969 112.727 159.626 114.07 157.969 114.07C156.311 114.07 154.969 112.727 154.969 111.07C154.969 109.412 156.311 108.07 157.969 108.07C159.626 108.07 160.969 109.412 160.969 111.07Z" fill="#42A584"/>
<path fill-rule="evenodd" clip-rule="evenodd" d="M176.969 111.07C176.969 112.727 175.626 114.07 173.969 114.07C172.311 114.07 170.969 112.727 170.969 111.07C170.969 109.412 172.311 108.07 173.969 108.07C175.626 108.07 176.969 109.412 176.969 111.07Z" fill="#42A584"/>
<path fill-rule="evenodd" clip-rule="evenodd" d="M176.969 111.07C176.969 112.727 175.626 114.07 173.969 114.07C172.311 114.07 170.969 112.727 170.969 111.07C170.969 109.412 172.311 108.07 173.969 108.07C175.626 108.07 176.969 109.412 176.969 111.07Z" fill="#42A584"/>
<path fill-rule="evenodd" clip-rule="evenodd" d="M6.96875 126.07C6.96875 127.727 5.62625 129.07 3.96875 129.07C2.31125 129.07 0.96875 127.727 0.96875 126.07C0.96875 124.412 2.31125 123.07 3.96875 123.07C5.62625 123.07 6.96875 124.412 6.96875 126.07Z" fill="#42A584"/>
<path fill-rule="evenodd" clip-rule="evenodd" d="M6.96875 126.07C6.96875 127.727 5.62625 129.07 3.96875 129.07C2.31125 129.07 0.96875 127.727 0.96875 126.07C0.96875 124.412 2.31125 123.07 3.96875 123.07C5.62625 123.07 6.96875 124.412 6.96875 126.07Z" fill="#42A584"/>
<path fill-rule="evenodd" clip-rule="evenodd" d="M22.9688 126.07C22.9688 127.727 21.6263 129.07 19.9688 129.07C18.3112 129.07 16.9688 127.727 16.9688 126.07C16.9688 124.412 18.3112 123.07 19.9688 123.07C21.6263 123.07 22.9688 124.412 22.9688 126.07Z" fill="#42A584"/>
<path fill-rule="evenodd" clip-rule="evenodd" d="M22.9688 126.07C22.9688 127.727 21.6263 129.07 19.9688 129.07C18.3112 129.07 16.9688 127.727 16.9688 126.07C16.9688 124.412 18.3112 123.07 19.9688 123.07C21.6263 123.07 22.9688 124.412 22.9688 126.07Z" fill="#42A584"/>
<path fill-rule="evenodd" clip-rule="evenodd" d="M37.9688 126.07C37.9688 127.727 36.6263 129.07 34.9688 129.07C33.3112 129.07 31.9688 127.727 31.9688 126.07C31.9688 124.412 33.3112 123.07 34.9688 123.07C36.6263 123.07 37.9688 124.412 37.9688 126.07Z" fill="#42A584"/>
<path fill-rule="evenodd" clip-rule="evenodd" d="M37.9688 126.07C37.9688 127.727 36.6263 129.07 34.9688 129.07C33.3112 129.07 31.9688 127.727 31.9688 126.07C31.9688 124.412 33.3112 123.07 34.9688 123.07C36.6263 123.07 37.9688 124.412 37.9688 126.07Z" fill="#42A584"/>
<path fill-rule="evenodd" clip-rule="evenodd" d="M52.9688 126.07C52.9688 127.727 51.6263 129.07 49.9688 129.07C48.3112 129.07 46.9688 127.727 46.9688 126.07C46.9688 124.412 48.3112 123.07 49.9688 123.07C51.6263 123.07 52.9688 124.412 52.9688 126.07Z" fill="#42A584"/>
<path fill-rule="evenodd" clip-rule="evenodd" d="M52.9688 126.07C52.9688 127.727 51.6263 129.07 49.9688 129.07C48.3112 129.07 46.9688 127.727 46.9688 126.07C46.9688 124.412 48.3112 123.07 49.9688 123.07C51.6263 123.07 52.9688 124.412 52.9688 126.07Z" fill="#42A584"/>
<path fill-rule="evenodd" clip-rule="evenodd" d="M68.9688 126.07C68.9688 127.727 67.6263 129.07 65.9688 129.07C64.3112 129.07 62.9688 127.727 62.9688 126.07C62.9688 124.412 64.3112 123.07 65.9688 123.07C67.6263 123.07 68.9688 124.412 68.9688 126.07Z" fill="#42A584"/>
<path fill-rule="evenodd" clip-rule="evenodd" d="M68.9688 126.07C68.9688 127.727 67.6263 129.07 65.9688 129.07C64.3112 129.07 62.9688 127.727 62.9688 126.07C62.9688 124.412 64.3112 123.07 65.9688 123.07C67.6263 123.07 68.9688 124.412 68.9688 126.07Z" fill="#42A584"/>
<path fill-rule="evenodd" clip-rule="evenodd" d="M83.9688 126.07C83.9688 127.727 82.6263 129.07 80.9688 129.07C79.3112 129.07 77.9688 127.727 77.9688 126.07C77.9688 124.412 79.3112 123.07 80.9688 123.07C82.6263 123.07 83.9688 124.412 83.9688 126.07Z" fill="#42A584"/>
<path fill-rule="evenodd" clip-rule="evenodd" d="M83.9688 126.07C83.9688 127.727 82.6263 129.07 80.9688 129.07C79.3112 129.07 77.9688 127.727 77.9688 126.07C77.9688 124.412 79.3112 123.07 80.9688 123.07C82.6263 123.07 83.9688 124.412 83.9688 126.07Z" fill="#42A584"/>
<path fill-rule="evenodd" clip-rule="evenodd" d="M99.9688 126.07C99.9688 127.727 98.6263 129.07 96.9688 129.07C95.3112 129.07 93.9688 127.727 93.9688 126.07C93.9688 124.412 95.3112 123.07 96.9688 123.07C98.6263 123.07 99.9688 124.412 99.9688 126.07Z" fill="#42A584"/>
<path fill-rule="evenodd" clip-rule="evenodd" d="M99.9688 126.07C99.9688 127.727 98.6263 129.07 96.9688 129.07C95.3112 129.07 93.9688 127.727 93.9688 126.07C93.9688 124.412 95.3112 123.07 96.9688 123.07C98.6263 123.07 99.9688 124.412 99.9688 126.07Z" fill="#42A584"/>
<path fill-rule="evenodd" clip-rule="evenodd" d="M114.969 126.07C114.969 127.727 113.626 129.07 111.969 129.07C110.311 129.07 108.969 127.727 108.969 126.07C108.969 124.412 110.311 123.07 111.969 123.07C113.626 123.07 114.969 124.412 114.969 126.07Z" fill="#42A584"/>
<path fill-rule="evenodd" clip-rule="evenodd" d="M114.969 126.07C114.969 127.727 113.626 129.07 111.969 129.07C110.311 129.07 108.969 127.727 108.969 126.07C108.969 124.412 110.311 123.07 111.969 123.07C113.626 123.07 114.969 124.412 114.969 126.07Z" fill="#42A584"/>
<path fill-rule="evenodd" clip-rule="evenodd" d="M130.969 126.07C130.969 127.727 129.626 129.07 127.969 129.07C126.311 129.07 124.969 127.727 124.969 126.07C124.969 124.412 126.311 123.07 127.969 123.07C129.626 123.07 130.969 124.412 130.969 126.07Z" fill="#42A584"/>
<path fill-rule="evenodd" clip-rule="evenodd" d="M130.969 126.07C130.969 127.727 129.626 129.07 127.969 129.07C126.311 129.07 124.969 127.727 124.969 126.07C124.969 124.412 126.311 123.07 127.969 123.07C129.626 123.07 130.969 124.412 130.969 126.07Z" fill="#42A584"/>
<path fill-rule="evenodd" clip-rule="evenodd" d="M145.969 126.07C145.969 127.727 144.626 129.07 142.969 129.07C141.311 129.07 139.969 127.727 139.969 126.07C139.969 124.412 141.311 123.07 142.969 123.07C144.626 123.07 145.969 124.412 145.969 126.07Z" fill="#42A584"/>
<path fill-rule="evenodd" clip-rule="evenodd" d="M145.969 126.07C145.969 127.727 144.626 129.07 142.969 129.07C141.311 129.07 139.969 127.727 139.969 126.07C139.969 124.412 141.311 123.07 142.969 123.07C144.626 123.07 145.969 124.412 145.969 126.07Z" fill="#42A584"/>
<path fill-rule="evenodd" clip-rule="evenodd" d="M160.969 126.07C160.969 127.727 159.626 129.07 157.969 129.07C156.311 129.07 154.969 127.727 154.969 126.07C154.969 124.412 156.311 123.07 157.969 123.07C159.626 123.07 160.969 124.412 160.969 126.07Z" fill="#42A584"/>
<path fill-rule="evenodd" clip-rule="evenodd" d="M160.969 126.07C160.969 127.727 159.626 129.07 157.969 129.07C156.311 129.07 154.969 127.727 154.969 126.07C154.969 124.412 156.311 123.07 157.969 123.07C159.626 123.07 160.969 124.412 160.969 126.07Z" fill="#42A584"/>
<path fill-rule="evenodd" clip-rule="evenodd" d="M176.969 126.07C176.969 127.727 175.626 129.07 173.969 129.07C172.311 129.07 170.969 127.727 170.969 126.07C170.969 124.412 172.311 123.07 173.969 123.07C175.626 123.07 176.969 124.412 176.969 126.07Z" fill="#42A584"/>
<path fill-rule="evenodd" clip-rule="evenodd" d="M176.969 126.07C176.969 127.727 175.626 129.07 173.969 129.07C172.311 129.07 170.969 127.727 170.969 126.07C170.969 124.412 172.311 123.07 173.969 123.07C175.626 123.07 176.969 124.412 176.969 126.07Z" fill="#42A584"/>
<path fill-rule="evenodd" clip-rule="evenodd" d="M6.96875 142.07C6.96875 143.727 5.62625 145.07 3.96875 145.07C2.31125 145.07 0.96875 143.727 0.96875 142.07C0.96875 140.412 2.31125 139.07 3.96875 139.07C5.62625 139.07 6.96875 140.412 6.96875 142.07Z" fill="#42A584"/>
<path fill-rule="evenodd" clip-rule="evenodd" d="M6.96875 142.07C6.96875 143.727 5.62625 145.07 3.96875 145.07C2.31125 145.07 0.96875 143.727 0.96875 142.07C0.96875 140.412 2.31125 139.07 3.96875 139.07C5.62625 139.07 6.96875 140.412 6.96875 142.07Z" fill="#42A584"/>
<path fill-rule="evenodd" clip-rule="evenodd" d="M22.9688 142.07C22.9688 143.727 21.6263 145.07 19.9688 145.07C18.3112 145.07 16.9688 143.727 16.9688 142.07C16.9688 140.412 18.3112 139.07 19.9688 139.07C21.6263 139.07 22.9688 140.412 22.9688 142.07Z" fill="#42A584"/>
<path fill-rule="evenodd" clip-rule="evenodd" d="M22.9688 142.07C22.9688 143.727 21.6263 145.07 19.9688 145.07C18.3112 145.07 16.9688 143.727 16.9688 142.07C16.9688 140.412 18.3112 139.07 19.9688 139.07C21.6263 139.07 22.9688 140.412 22.9688 142.07Z" fill="#42A584"/>
<path fill-rule="evenodd" clip-rule="evenodd" d="M37.9688 142.07C37.9688 143.727 36.6263 145.07 34.9688 145.07C33.3112 145.07 31.9688 143.727 31.9688 142.07C31.9688 140.412 33.3112 139.07 34.9688 139.07C36.6263 139.07 37.9688 140.412 37.9688 142.07Z" fill="#42A584"/>
<path fill-rule="evenodd" clip-rule="evenodd" d="M37.9688 142.07C37.9688 143.727 36.6263 145.07 34.9688 145.07C33.3112 145.07 31.9688 143.727 31.9688 142.07C31.9688 140.412 33.3112 139.07 34.9688 139.07C36.6263 139.07 37.9688 140.412 37.9688 142.07Z" fill="#42A584"/>
<path fill-rule="evenodd" clip-rule="evenodd" d="M52.9688 142.07C52.9688 143.727 51.6263 145.07 49.9688 145.07C48.3112 145.07 46.9688 143.727 46.9688 142.07C46.9688 140.412 48.3112 139.07 49.9688 139.07C51.6263 139.07 52.9688 140.412 52.9688 142.07Z" fill="#42A584"/>
<path fill-rule="evenodd" clip-rule="evenodd" d="M52.9688 142.07C52.9688 143.727 51.6263 145.07 49.9688 145.07C48.3112 145.07 46.9688 143.727 46.9688 142.07C46.9688 140.412 48.3112 139.07 49.9688 139.07C51.6263 139.07 52.9688 140.412 52.9688 142.07Z" fill="#42A584"/>
<path fill-rule="evenodd" clip-rule="evenodd" d="M68.9688 142.07C68.9688 143.727 67.6263 145.07 65.9688 145.07C64.3112 145.07 62.9688 143.727 62.9688 142.07C62.9688 140.412 64.3112 139.07 65.9688 139.07C67.6263 139.07 68.9688 140.412 68.9688 142.07Z" fill="#42A584"/>
<path fill-rule="evenodd" clip-rule="evenodd" d="M68.9688 142.07C68.9688 143.727 67.6263 145.07 65.9688 145.07C64.3112 145.07 62.9688 143.727 62.9688 142.07C62.9688 140.412 64.3112 139.07 65.9688 139.07C67.6263 139.07 68.9688 140.412 68.9688 142.07Z" fill="#42A584"/>
<path fill-rule="evenodd" clip-rule="evenodd" d="M83.9688 142.07C83.9688 143.727 82.6263 145.07 80.9688 145.07C79.3112 145.07 77.9688 143.727 77.9688 142.07C77.9688 140.412 79.3112 139.07 80.9688 139.07C82.6263 139.07 83.9688 140.412 83.9688 142.07Z" fill="#42A584"/>
<path fill-rule="evenodd" clip-rule="evenodd" d="M83.9688 142.07C83.9688 143.727 82.6263 145.07 80.9688 145.07C79.3112 145.07 77.9688 143.727 77.9688 142.07C77.9688 140.412 79.3112 139.07 80.9688 139.07C82.6263 139.07 83.9688 140.412 83.9688 142.07Z" fill="#42A584"/>
<path fill-rule="evenodd" clip-rule="evenodd" d="M99.9688 142.07C99.9688 143.727 98.6263 145.07 96.9688 145.07C95.3112 145.07 93.9688 143.727 93.9688 142.07C93.9688 140.412 95.3112 139.07 96.9688 139.07C98.6263 139.07 99.9688 140.412 99.9688 142.07Z" fill="#42A584"/>
<path fill-rule="evenodd" clip-rule="evenodd" d="M99.9688 142.07C99.9688 143.727 98.6263 145.07 96.9688 145.07C95.3112 145.07 93.9688 143.727 93.9688 142.07C93.9688 140.412 95.3112 139.07 96.9688 139.07C98.6263 139.07 99.9688 140.412 99.9688 142.07Z" fill="#42A584"/>
<path fill-rule="evenodd" clip-rule="evenodd" d="M114.969 142.07C114.969 143.727 113.626 145.07 111.969 145.07C110.311 145.07 108.969 143.727 108.969 142.07C108.969 140.412 110.311 139.07 111.969 139.07C113.626 139.07 114.969 140.412 114.969 142.07Z" fill="#42A584"/>
<path fill-rule="evenodd" clip-rule="evenodd" d="M114.969 142.07C114.969 143.727 113.626 145.07 111.969 145.07C110.311 145.07 108.969 143.727 108.969 142.07C108.969 140.412 110.311 139.07 111.969 139.07C113.626 139.07 114.969 140.412 114.969 142.07Z" fill="#42A584"/>
<path fill-rule="evenodd" clip-rule="evenodd" d="M130.969 142.07C130.969 143.727 129.626 145.07 127.969 145.07C126.311 145.07 124.969 143.727 124.969 142.07C124.969 140.412 126.311 139.07 127.969 139.07C129.626 139.07 130.969 140.412 130.969 142.07Z" fill="#42A584"/>
<path fill-rule="evenodd" clip-rule="evenodd" d="M130.969 142.07C130.969 143.727 129.626 145.07 127.969 145.07C126.311 145.07 124.969 143.727 124.969 142.07C124.969 140.412 126.311 139.07 127.969 139.07C129.626 139.07 130.969 140.412 130.969 142.07Z" fill="#42A584"/>
<path fill-rule="evenodd" clip-rule="evenodd" d="M145.969 142.07C145.969 143.727 144.626 145.07 142.969 145.07C141.311 145.07 139.969 143.727 139.969 142.07C139.969 140.412 141.311 139.07 142.969 139.07C144.626 139.07 145.969 140.412 145.969 142.07Z" fill="#42A584"/>
<path fill-rule="evenodd" clip-rule="evenodd" d="M145.969 142.07C145.969 143.727 144.626 145.07 142.969 145.07C141.311 145.07 139.969 143.727 139.969 142.07C139.969 140.412 141.311 139.07 142.969 139.07C144.626 139.07 145.969 140.412 145.969 142.07Z" fill="#42A584"/>
<path fill-rule="evenodd" clip-rule="evenodd" d="M160.969 142.07C160.969 143.727 159.626 145.07 157.969 145.07C156.311 145.07 154.969 143.727 154.969 142.07C154.969 140.412 156.311 139.07 157.969 139.07C159.626 139.07 160.969 140.412 160.969 142.07Z" fill="#42A584"/>
<path fill-rule="evenodd" clip-rule="evenodd" d="M160.969 142.07C160.969 143.727 159.626 145.07 157.969 145.07C156.311 145.07 154.969 143.727 154.969 142.07C154.969 140.412 156.311 139.07 157.969 139.07C159.626 139.07 160.969 140.412 160.969 142.07Z" fill="#42A584"/>
<path fill-rule="evenodd" clip-rule="evenodd" d="M176.969 142.07C176.969 143.727 175.626 145.07 173.969 145.07C172.311 145.07 170.969 143.727 170.969 142.07C170.969 140.412 172.311 139.07 173.969 139.07C175.626 139.07 176.969 140.412 176.969 142.07Z" fill="#42A584"/>
<path fill-rule="evenodd" clip-rule="evenodd" d="M176.969 142.07C176.969 143.727 175.626 145.07 173.969 145.07C172.311 145.07 170.969 143.727 170.969 142.07C170.969 140.412 172.311 139.07 173.969 139.07C175.626 139.07 176.969 140.412 176.969 142.07Z" fill="#42A584"/>
<path fill-rule="evenodd" clip-rule="evenodd" d="M6.96875 157.07C6.96875 158.727 5.62625 160.07 3.96875 160.07C2.31125 160.07 0.96875 158.727 0.96875 157.07C0.96875 155.412 2.31125 154.07 3.96875 154.07C5.62625 154.07 6.96875 155.412 6.96875 157.07Z" fill="#42A584"/>
<path fill-rule="evenodd" clip-rule="evenodd" d="M6.96875 157.07C6.96875 158.727 5.62625 160.07 3.96875 160.07C2.31125 160.07 0.96875 158.727 0.96875 157.07C0.96875 155.412 2.31125 154.07 3.96875 154.07C5.62625 154.07 6.96875 155.412 6.96875 157.07Z" fill="#42A584"/>
<path fill-rule="evenodd" clip-rule="evenodd" d="M22.9688 157.07C22.9688 158.727 21.6263 160.07 19.9688 160.07C18.3112 160.07 16.9688 158.727 16.9688 157.07C16.9688 155.412 18.3112 154.07 19.9688 154.07C21.6263 154.07 22.9688 155.412 22.9688 157.07Z" fill="#42A584"/>
<path fill-rule="evenodd" clip-rule="evenodd" d="M22.9688 157.07C22.9688 158.727 21.6263 160.07 19.9688 160.07C18.3112 160.07 16.9688 158.727 16.9688 157.07C16.9688 155.412 18.3112 154.07 19.9688 154.07C21.6263 154.07 22.9688 155.412 22.9688 157.07Z" fill="#42A584"/>
<path fill-rule="evenodd" clip-rule="evenodd" d="M37.9688 157.07C37.9688 158.727 36.6263 160.07 34.9688 160.07C33.3112 160.07 31.9688 158.727 31.9688 157.07C31.9688 155.412 33.3112 154.07 34.9688 154.07C36.6263 154.07 37.9688 155.412 37.9688 157.07Z" fill="#42A584"/>
<path fill-rule="evenodd" clip-rule="evenodd" d="M37.9688 157.07C37.9688 158.727 36.6263 160.07 34.9688 160.07C33.3112 160.07 31.9688 158.727 31.9688 157.07C31.9688 155.412 33.3112 154.07 34.9688 154.07C36.6263 154.07 37.9688 155.412 37.9688 157.07Z" fill="#42A584"/>
<path fill-rule="evenodd" clip-rule="evenodd" d="M52.9688 157.07C52.9688 158.727 51.6263 160.07 49.9688 160.07C48.3112 160.07 46.9688 158.727 46.9688 157.07C46.9688 155.412 48.3112 154.07 49.9688 154.07C51.6263 154.07 52.9688 155.412 52.9688 157.07Z" fill="#42A584"/>
<path fill-rule="evenodd" clip-rule="evenodd" d="M52.9688 157.07C52.9688 158.727 51.6263 160.07 49.9688 160.07C48.3112 160.07 46.9688 158.727 46.9688 157.07C46.9688 155.412 48.3112 154.07 49.9688 154.07C51.6263 154.07 52.9688 155.412 52.9688 157.07Z" fill="#42A584"/>
<path fill-rule="evenodd" clip-rule="evenodd" d="M68.9688 157.07C68.9688 158.727 67.6263 160.07 65.9688 160.07C64.3112 160.07 62.9688 158.727 62.9688 157.07C62.9688 155.412 64.3112 154.07 65.9688 154.07C67.6263 154.07 68.9688 155.412 68.9688 157.07Z" fill="#42A584"/>
<path fill-rule="evenodd" clip-rule="evenodd" d="M68.9688 157.07C68.9688 158.727 67.6263 160.07 65.9688 160.07C64.3112 160.07 62.9688 158.727 62.9688 157.07C62.9688 155.412 64.3112 154.07 65.9688 154.07C67.6263 154.07 68.9688 155.412 68.9688 157.07Z" fill="#42A584"/>
<path fill-rule="evenodd" clip-rule="evenodd" d="M83.9688 157.07C83.9688 158.727 82.6263 160.07 80.9688 160.07C79.3112 160.07 77.9688 158.727 77.9688 157.07C77.9688 155.412 79.3112 154.07 80.9688 154.07C82.6263 154.07 83.9688 155.412 83.9688 157.07Z" fill="#42A584"/>
<path fill-rule="evenodd" clip-rule="evenodd" d="M83.9688 157.07C83.9688 158.727 82.6263 160.07 80.9688 160.07C79.3112 160.07 77.9688 158.727 77.9688 157.07C77.9688 155.412 79.3112 154.07 80.9688 154.07C82.6263 154.07 83.9688 155.412 83.9688 157.07Z" fill="#42A584"/>
<path fill-rule="evenodd" clip-rule="evenodd" d="M99.9688 157.07C99.9688 158.727 98.6263 160.07 96.9688 160.07C95.3112 160.07 93.9688 158.727 93.9688 157.07C93.9688 155.412 95.3112 154.07 96.9688 154.07C98.6263 154.07 99.9688 155.412 99.9688 157.07Z" fill="#42A584"/>
<path fill-rule="evenodd" clip-rule="evenodd" d="M99.9688 157.07C99.9688 158.727 98.6263 160.07 96.9688 160.07C95.3112 160.07 93.9688 158.727 93.9688 157.07C93.9688 155.412 95.3112 154.07 96.9688 154.07C98.6263 154.07 99.9688 155.412 99.9688 157.07Z" fill="#42A584"/>
<path fill-rule="evenodd" clip-rule="evenodd" d="M114.969 157.07C114.969 158.727 113.626 160.07 111.969 160.07C110.311 160.07 108.969 158.727 108.969 157.07C108.969 155.412 110.311 154.07 111.969 154.07C113.626 154.07 114.969 155.412 114.969 157.07Z" fill="#42A584"/>
<path fill-rule="evenodd" clip-rule="evenodd" d="M114.969 157.07C114.969 158.727 113.626 160.07 111.969 160.07C110.311 160.07 108.969 158.727 108.969 157.07C108.969 155.412 110.311 154.07 111.969 154.07C113.626 154.07 114.969 155.412 114.969 157.07Z" fill="#42A584"/>
<path fill-rule="evenodd" clip-rule="evenodd" d="M130.969 157.07C130.969 158.727 129.626 160.07 127.969 160.07C126.311 160.07 124.969 158.727 124.969 157.07C124.969 155.412 126.311 154.07 127.969 154.07C129.626 154.07 130.969 155.412 130.969 157.07Z" fill="#42A584"/>
<path fill-rule="evenodd" clip-rule="evenodd" d="M130.969 157.07C130.969 158.727 129.626 160.07 127.969 160.07C126.311 160.07 124.969 158.727 124.969 157.07C124.969 155.412 126.311 154.07 127.969 154.07C129.626 154.07 130.969 155.412 130.969 157.07Z" fill="#42A584"/>
<path fill-rule="evenodd" clip-rule="evenodd" d="M145.969 157.07C145.969 158.727 144.626 160.07 142.969 160.07C141.311 160.07 139.969 158.727 139.969 157.07C139.969 155.412 141.311 154.07 142.969 154.07C144.626 154.07 145.969 155.412 145.969 157.07Z" fill="#42A584"/>
<path fill-rule="evenodd" clip-rule="evenodd" d="M145.969 157.07C145.969 158.727 144.626 160.07 142.969 160.07C141.311 160.07 139.969 158.727 139.969 157.07C139.969 155.412 141.311 154.07 142.969 154.07C144.626 154.07 145.969 155.412 145.969 157.07Z" fill="#42A584"/>
<path fill-rule="evenodd" clip-rule="evenodd" d="M160.969 157.07C160.969 158.727 159.626 160.07 157.969 160.07C156.311 160.07 154.969 158.727 154.969 157.07C154.969 155.412 156.311 154.07 157.969 154.07C159.626 154.07 160.969 155.412 160.969 157.07Z" fill="#42A584"/>
<path fill-rule="evenodd" clip-rule="evenodd" d="M160.969 157.07C160.969 158.727 159.626 160.07 157.969 160.07C156.311 160.07 154.969 158.727 154.969 157.07C154.969 155.412 156.311 154.07 157.969 154.07C159.626 154.07 160.969 155.412 160.969 157.07Z" fill="#42A584"/>
<path fill-rule="evenodd" clip-rule="evenodd" d="M176.969 157.07C176.969 158.727 175.626 160.07 173.969 160.07C172.311 160.07 170.969 158.727 170.969 157.07C170.969 155.412 172.311 154.07 173.969 154.07C175.626 154.07 176.969 155.412 176.969 157.07Z" fill="#42A584"/>
<path fill-rule="evenodd" clip-rule="evenodd" d="M176.969 157.07C176.969 158.727 175.626 160.07 173.969 160.07C172.311 160.07 170.969 158.727 170.969 157.07C170.969 155.412 172.311 154.07 173.969 154.07C175.626 154.07 176.969 155.412 176.969 157.07Z" fill="#42A584"/>
<path fill-rule="evenodd" clip-rule="evenodd" d="M6.96875 173.07C6.96875 174.727 5.62625 176.07 3.96875 176.07C2.31125 176.07 0.96875 174.727 0.96875 173.07C0.96875 171.412 2.31125 170.07 3.96875 170.07C5.62625 170.07 6.96875 171.412 6.96875 173.07Z" fill="#42A584"/>
<path fill-rule="evenodd" clip-rule="evenodd" d="M6.96875 173.07C6.96875 174.727 5.62625 176.07 3.96875 176.07C2.31125 176.07 0.96875 174.727 0.96875 173.07C0.96875 171.412 2.31125 170.07 3.96875 170.07C5.62625 170.07 6.96875 171.412 6.96875 173.07Z" fill="#42A584"/>
<path fill-rule="evenodd" clip-rule="evenodd" d="M22.9688 173.07C22.9688 174.727 21.6263 176.07 19.9688 176.07C18.3112 176.07 16.9688 174.727 16.9688 173.07C16.9688 171.412 18.3112 170.07 19.9688 170.07C21.6263 170.07 22.9688 171.412 22.9688 173.07Z" fill="#42A584"/>
<path fill-rule="evenodd" clip-rule="evenodd" d="M22.9688 173.07C22.9688 174.727 21.6263 176.07 19.9688 176.07C18.3112 176.07 16.9688 174.727 16.9688 173.07C16.9688 171.412 18.3112 170.07 19.9688 170.07C21.6263 170.07 22.9688 171.412 22.9688 173.07Z" fill="#42A584"/>
<path fill-rule="evenodd" clip-rule="evenodd" d="M37.9688 173.07C37.9688 174.727 36.6263 176.07 34.9688 176.07C33.3112 176.07 31.9688 174.727 31.9688 173.07C31.9688 171.412 33.3112 170.07 34.9688 170.07C36.6263 170.07 37.9688 171.412 37.9688 173.07Z" fill="#42A584"/>
<path fill-rule="evenodd" clip-rule="evenodd" d="M37.9688 173.07C37.9688 174.727 36.6263 176.07 34.9688 176.07C33.3112 176.07 31.9688 174.727 31.9688 173.07C31.9688 171.412 33.3112 170.07 34.9688 170.07C36.6263 170.07 37.9688 171.412 37.9688 173.07Z" fill="#42A584"/>
<path fill-rule="evenodd" clip-rule="evenodd" d="M52.9688 173.07C52.9688 174.727 51.6263 176.07 49.9688 176.07C48.3112 176.07 46.9688 174.727 46.9688 173.07C46.9688 171.412 48.3112 170.07 49.9688 170.07C51.6263 170.07 52.9688 171.412 52.9688 173.07Z" fill="#42A584"/>
<path fill-rule="evenodd" clip-rule="evenodd" d="M52.9688 173.07C52.9688 174.727 51.6263 176.07 49.9688 176.07C48.3112 176.07 46.9688 174.727 46.9688 173.07C46.9688 171.412 48.3112 170.07 49.9688 170.07C51.6263 170.07 52.9688 171.412 52.9688 173.07Z" fill="#42A584"/>
<path fill-rule="evenodd" clip-rule="evenodd" d="M68.9688 173.07C68.9688 174.727 67.6263 176.07 65.9688 176.07C64.3112 176.07 62.9688 174.727 62.9688 173.07C62.9688 171.412 64.3112 170.07 65.9688 170.07C67.6263 170.07 68.9688 171.412 68.9688 173.07Z" fill="#42A584"/>
<path fill-rule="evenodd" clip-rule="evenodd" d="M68.9688 173.07C68.9688 174.727 67.6263 176.07 65.9688 176.07C64.3112 176.07 62.9688 174.727 62.9688 173.07C62.9688 171.412 64.3112 170.07 65.9688 170.07C67.6263 170.07 68.9688 171.412 68.9688 173.07Z" fill="#42A584"/>
<path fill-rule="evenodd" clip-rule="evenodd" d="M83.9688 173.07C83.9688 174.727 82.6263 176.07 80.9688 176.07C79.3112 176.07 77.9688 174.727 77.9688 173.07C77.9688 171.412 79.3112 170.07 80.9688 170.07C82.6263 170.07 83.9688 171.412 83.9688 173.07Z" fill="#42A584"/>
<path fill-rule="evenodd" clip-rule="evenodd" d="M83.9688 173.07C83.9688 174.727 82.6263 176.07 80.9688 176.07C79.3112 176.07 77.9688 174.727 77.9688 173.07C77.9688 171.412 79.3112 170.07 80.9688 170.07C82.6263 170.07 83.9688 171.412 83.9688 173.07Z" fill="#42A584"/>
<path fill-rule="evenodd" clip-rule="evenodd" d="M99.9688 173.07C99.9688 174.727 98.6263 176.07 96.9688 176.07C95.3112 176.07 93.9688 174.727 93.9688 173.07C93.9688 171.412 95.3112 170.07 96.9688 170.07C98.6263 170.07 99.9688 171.412 99.9688 173.07Z" fill="#42A584"/>
<path fill-rule="evenodd" clip-rule="evenodd" d="M99.9688 173.07C99.9688 174.727 98.6263 176.07 96.9688 176.07C95.3112 176.07 93.9688 174.727 93.9688 173.07C93.9688 171.412 95.3112 170.07 96.9688 170.07C98.6263 170.07 99.9688 171.412 99.9688 173.07Z" fill="#42A584"/>
<path fill-rule="evenodd" clip-rule="evenodd" d="M114.969 173.07C114.969 174.727 113.626 176.07 111.969 176.07C110.311 176.07 108.969 174.727 108.969 173.07C108.969 171.412 110.311 170.07 111.969 170.07C113.626 170.07 114.969 171.412 114.969 173.07Z" fill="#42A584"/>
<path fill-rule="evenodd" clip-rule="evenodd" d="M114.969 173.07C114.969 174.727 113.626 176.07 111.969 176.07C110.311 176.07 108.969 174.727 108.969 173.07C108.969 171.412 110.311 170.07 111.969 170.07C113.626 170.07 114.969 171.412 114.969 173.07Z" fill="#42A584"/>
<path fill-rule="evenodd" clip-rule="evenodd" d="M130.969 173.07C130.969 174.727 129.626 176.07 127.969 176.07C126.311 176.07 124.969 174.727 124.969 173.07C124.969 171.412 126.311 170.07 127.969 170.07C129.626 170.07 130.969 171.412 130.969 173.07Z" fill="#42A584"/>
<path fill-rule="evenodd" clip-rule="evenodd" d="M130.969 173.07C130.969 174.727 129.626 176.07 127.969 176.07C126.311 176.07 124.969 174.727 124.969 173.07C124.969 171.412 126.311 170.07 127.969 170.07C129.626 170.07 130.969 171.412 130.969 173.07Z" fill="#42A584"/>
<path fill-rule="evenodd" clip-rule="evenodd" d="M145.969 173.07C145.969 174.727 144.626 176.07 142.969 176.07C141.311 176.07 139.969 174.727 139.969 173.07C139.969 171.412 141.311 170.07 142.969 170.07C144.626 170.07 145.969 171.412 145.969 173.07Z" fill="#42A584"/>
<path fill-rule="evenodd" clip-rule="evenodd" d="M145.969 173.07C145.969 174.727 144.626 176.07 142.969 176.07C141.311 176.07 139.969 174.727 139.969 173.07C139.969 171.412 141.311 170.07 142.969 170.07C144.626 170.07 145.969 171.412 145.969 173.07Z" fill="#42A584"/>
<path fill-rule="evenodd" clip-rule="evenodd" d="M160.969 173.07C160.969 174.727 159.626 176.07 157.969 176.07C156.311 176.07 154.969 174.727 154.969 173.07C154.969 171.412 156.311 170.07 157.969 170.07C159.626 170.07 160.969 171.412 160.969 173.07Z" fill="#42A584"/>
<path fill-rule="evenodd" clip-rule="evenodd" d="M160.969 173.07C160.969 174.727 159.626 176.07 157.969 176.07C156.311 176.07 154.969 174.727 154.969 173.07C154.969 171.412 156.311 170.07 157.969 170.07C159.626 170.07 160.969 171.412 160.969 173.07Z" fill="#42A584"/>
<path fill-rule="evenodd" clip-rule="evenodd" d="M176.969 173.07C176.969 174.727 175.626 176.07 173.969 176.07C172.311 176.07 170.969 174.727 170.969 173.07C170.969 171.412 172.311 170.07 173.969 170.07C175.626 170.07 176.969 171.412 176.969 173.07Z" fill="#42A584"/>
<path fill-rule="evenodd" clip-rule="evenodd" d="M176.969 173.07C176.969 174.727 175.626 176.07 173.969 176.07C172.311 176.07 170.969 174.727 170.969 173.07C170.969 171.412 172.311 170.07 173.969 170.07C175.626 170.07 176.969 171.412 176.969 173.07Z" fill="#42A584"/>
<path fill-rule="evenodd" clip-rule="evenodd" d="M6.96875 188.07C6.96875 189.727 5.62625 191.07 3.96875 191.07C2.31125 191.07 0.96875 189.727 0.96875 188.07C0.96875 186.412 2.31125 185.07 3.96875 185.07C5.62625 185.07 6.96875 186.412 6.96875 188.07Z" fill="#42A584"/>
<path fill-rule="evenodd" clip-rule="evenodd" d="M6.96875 188.07C6.96875 189.727 5.62625 191.07 3.96875 191.07C2.31125 191.07 0.96875 189.727 0.96875 188.07C0.96875 186.412 2.31125 185.07 3.96875 185.07C5.62625 185.07 6.96875 186.412 6.96875 188.07Z" fill="#42A584"/>
<path fill-rule="evenodd" clip-rule="evenodd" d="M22.9688 188.07C22.9688 189.727 21.6263 191.07 19.9688 191.07C18.3112 191.07 16.9688 189.727 16.9688 188.07C16.9688 186.412 18.3112 185.07 19.9688 185.07C21.6263 185.07 22.9688 186.412 22.9688 188.07Z" fill="#42A584"/>
<path fill-rule="evenodd" clip-rule="evenodd" d="M22.9688 188.07C22.9688 189.727 21.6263 191.07 19.9688 191.07C18.3112 191.07 16.9688 189.727 16.9688 188.07C16.9688 186.412 18.3112 185.07 19.9688 185.07C21.6263 185.07 22.9688 186.412 22.9688 188.07Z" fill="#42A584"/>
<path fill-rule="evenodd" clip-rule="evenodd" d="M37.9688 188.07C37.9688 189.727 36.6263 191.07 34.9688 191.07C33.3112 191.07 31.9688 189.727 31.9688 188.07C31.9688 186.412 33.3112 185.07 34.9688 185.07C36.6263 185.07 37.9688 186.412 37.9688 188.07Z" fill="#42A584"/>
<path fill-rule="evenodd" clip-rule="evenodd" d="M37.9688 188.07C37.9688 189.727 36.6263 191.07 34.9688 191.07C33.3112 191.07 31.9688 189.727 31.9688 188.07C31.9688 186.412 33.3112 185.07 34.9688 185.07C36.6263 185.07 37.9688 186.412 37.9688 188.07Z" fill="#42A584"/>
<path fill-rule="evenodd" clip-rule="evenodd" d="M52.9688 188.07C52.9688 189.727 51.6263 191.07 49.9688 191.07C48.3112 191.07 46.9688 189.727 46.9688 188.07C46.9688 186.412 48.3112 185.07 49.9688 185.07C51.6263 185.07 52.9688 186.412 52.9688 188.07Z" fill="#42A584"/>
<path fill-rule="evenodd" clip-rule="evenodd" d="M52.9688 188.07C52.9688 189.727 51.6263 191.07 49.9688 191.07C48.3112 191.07 46.9688 189.727 46.9688 188.07C46.9688 186.412 48.3112 185.07 49.9688 185.07C51.6263 185.07 52.9688 186.412 52.9688 188.07Z" fill="#42A584"/>
<path fill-rule="evenodd" clip-rule="evenodd" d="M68.9688 188.07C68.9688 189.727 67.6263 191.07 65.9688 191.07C64.3112 191.07 62.9688 189.727 62.9688 188.07C62.9688 186.412 64.3112 185.07 65.9688 185.07C67.6263 185.07 68.9688 186.412 68.9688 188.07Z" fill="#42A584"/>
<path fill-rule="evenodd" clip-rule="evenodd" d="M68.9688 188.07C68.9688 189.727 67.6263 191.07 65.9688 191.07C64.3112 191.07 62.9688 189.727 62.9688 188.07C62.9688 186.412 64.3112 185.07 65.9688 185.07C67.6263 185.07 68.9688 186.412 68.9688 188.07Z" fill="#42A584"/>
<path fill-rule="evenodd" clip-rule="evenodd" d="M83.9688 188.07C83.9688 189.727 82.6263 191.07 80.9688 191.07C79.3112 191.07 77.9688 189.727 77.9688 188.07C77.9688 186.412 79.3112 185.07 80.9688 185.07C82.6263 185.07 83.9688 186.412 83.9688 188.07Z" fill="#42A584"/>
<path fill-rule="evenodd" clip-rule="evenodd" d="M83.9688 188.07C83.9688 189.727 82.6263 191.07 80.9688 191.07C79.3112 191.07 77.9688 189.727 77.9688 188.07C77.9688 186.412 79.3112 185.07 80.9688 185.07C82.6263 185.07 83.9688 186.412 83.9688 188.07Z" fill="#42A584"/>
<path fill-rule="evenodd" clip-rule="evenodd" d="M99.9688 188.07C99.9688 189.727 98.6263 191.07 96.9688 191.07C95.3112 191.07 93.9688 189.727 93.9688 188.07C93.9688 186.412 95.3112 185.07 96.9688 185.07C98.6263 185.07 99.9688 186.412 99.9688 188.07Z" fill="#42A584"/>
<path fill-rule="evenodd" clip-rule="evenodd" d="M99.9688 188.07C99.9688 189.727 98.6263 191.07 96.9688 191.07C95.3112 191.07 93.9688 189.727 93.9688 188.07C93.9688 186.412 95.3112 185.07 96.9688 185.07C98.6263 185.07 99.9688 186.412 99.9688 188.07Z" fill="#42A584"/>
<path fill-rule="evenodd" clip-rule="evenodd" d="M114.969 188.07C114.969 189.727 113.626 191.07 111.969 191.07C110.311 191.07 108.969 189.727 108.969 188.07C108.969 186.412 110.311 185.07 111.969 185.07C113.626 185.07 114.969 186.412 114.969 188.07Z" fill="#42A584"/>
<path fill-rule="evenodd" clip-rule="evenodd" d="M114.969 188.07C114.969 189.727 113.626 191.07 111.969 191.07C110.311 191.07 108.969 189.727 108.969 188.07C108.969 186.412 110.311 185.07 111.969 185.07C113.626 185.07 114.969 186.412 114.969 188.07Z" fill="#42A584"/>
<path fill-rule="evenodd" clip-rule="evenodd" d="M130.969 188.07C130.969 189.727 129.626 191.07 127.969 191.07C126.311 191.07 124.969 189.727 124.969 188.07C124.969 186.412 126.311 185.07 127.969 185.07C129.626 185.07 130.969 186.412 130.969 188.07Z" fill="#42A584"/>
<path fill-rule="evenodd" clip-rule="evenodd" d="M130.969 188.07C130.969 189.727 129.626 191.07 127.969 191.07C126.311 191.07 124.969 189.727 124.969 188.07C124.969 186.412 126.311 185.07 127.969 185.07C129.626 185.07 130.969 186.412 130.969 188.07Z" fill="#42A584"/>
<path fill-rule="evenodd" clip-rule="evenodd" d="M145.969 188.07C145.969 189.727 144.626 191.07 142.969 191.07C141.311 191.07 139.969 189.727 139.969 188.07C139.969 186.412 141.311 185.07 142.969 185.07C144.626 185.07 145.969 186.412 145.969 188.07Z" fill="#42A584"/>
<path fill-rule="evenodd" clip-rule="evenodd" d="M145.969 188.07C145.969 189.727 144.626 191.07 142.969 191.07C141.311 191.07 139.969 189.727 139.969 188.07C139.969 186.412 141.311 185.07 142.969 185.07C144.626 185.07 145.969 186.412 145.969 188.07Z" fill="#42A584"/>
<path fill-rule="evenodd" clip-rule="evenodd" d="M160.969 188.07C160.969 189.727 159.626 191.07 157.969 191.07C156.311 191.07 154.969 189.727 154.969 188.07C154.969 186.412 156.311 185.07 157.969 185.07C159.626 185.07 160.969 186.412 160.969 188.07Z" fill="#42A584"/>
<path fill-rule="evenodd" clip-rule="evenodd" d="M160.969 188.07C160.969 189.727 159.626 191.07 157.969 191.07C156.311 191.07 154.969 189.727 154.969 188.07C154.969 186.412 156.311 185.07 157.969 185.07C159.626 185.07 160.969 186.412 160.969 188.07Z" fill="#42A584"/>
<path fill-rule="evenodd" clip-rule="evenodd" d="M176.969 188.07C176.969 189.727 175.626 191.07 173.969 191.07C172.311 191.07 170.969 189.727 170.969 188.07C170.969 186.412 172.311 185.07 173.969 185.07C175.626 185.07 176.969 186.412 176.969 188.07Z" fill="#42A584"/>
<path fill-rule="evenodd" clip-rule="evenodd" d="M176.969 188.07C176.969 189.727 175.626 191.07 173.969 191.07C172.311 191.07 170.969 189.727 170.969 188.07C170.969 186.412 172.311 185.07 173.969 185.07C175.626 185.07 176.969 186.412 176.969 188.07Z" fill="#42A584"/>
<path fill-rule="evenodd" clip-rule="evenodd" d="M22.9688 3.06982C22.9688 4.72732 21.6263 6.06982 19.9688 6.06982C18.3112 6.06982 16.9688 4.72732 16.9688 3.06982C16.9688 1.41232 18.3112 0.0698242 19.9688 0.0698242C21.6263 0.0698242 22.9688 1.41232 22.9688 3.06982Z" fill="#42A584"/>
<path fill-rule="evenodd" clip-rule="evenodd" d="M22.9688 3.06982C22.9688 4.72732 21.6263 6.06982 19.9688 6.06982C18.3112 6.06982 16.9688 4.72732 16.9688 3.06982C16.9688 1.41232 18.3112 0.0698242 19.9688 0.0698242C21.6263 0.0698242 22.9688 1.41232 22.9688 3.06982Z" fill="#42A584"/>
<path fill-rule="evenodd" clip-rule="evenodd" d="M37.9688 3.06982C37.9688 4.72732 36.6263 6.06982 34.9688 6.06982C33.3112 6.06982 31.9688 4.72732 31.9688 3.06982C31.9688 1.41232 33.3112 0.0698242 34.9688 0.0698242C36.6263 0.0698242 37.9688 1.41232 37.9688 3.06982Z" fill="#42A584"/>
<path fill-rule="evenodd" clip-rule="evenodd" d="M37.9688 3.06982C37.9688 4.72732 36.6263 6.06982 34.9688 6.06982C33.3112 6.06982 31.9688 4.72732 31.9688 3.06982C31.9688 1.41232 33.3112 0.0698242 34.9688 0.0698242C36.6263 0.0698242 37.9688 1.41232 37.9688 3.06982Z" fill="#42A584"/>
<path fill-rule="evenodd" clip-rule="evenodd" d="M52.9688 3.06982C52.9688 4.72732 51.6263 6.06982 49.9688 6.06982C48.3112 6.06982 46.9688 4.72732 46.9688 3.06982C46.9688 1.41232 48.3112 0.0698242 49.9688 0.0698242C51.6263 0.0698242 52.9688 1.41232 52.9688 3.06982Z" fill="#42A584"/>
<path fill-rule="evenodd" clip-rule="evenodd" d="M52.9688 3.06982C52.9688 4.72732 51.6263 6.06982 49.9688 6.06982C48.3112 6.06982 46.9688 4.72732 46.9688 3.06982C46.9688 1.41232 48.3112 0.0698242 49.9688 0.0698242C51.6263 0.0698242 52.9688 1.41232 52.9688 3.06982Z" fill="#42A584"/>
<path fill-rule="evenodd" clip-rule="evenodd" d="M68.9688 3.06982C68.9688 4.72732 67.6263 6.06982 65.9688 6.06982C64.3112 6.06982 62.9688 4.72732 62.9688 3.06982C62.9688 1.41232 64.3112 0.0698242 65.9688 0.0698242C67.6263 0.0698242 68.9688 1.41232 68.9688 3.06982Z" fill="#42A584"/>
<path fill-rule="evenodd" clip-rule="evenodd" d="M68.9688 3.06982C68.9688 4.72732 67.6263 6.06982 65.9688 6.06982C64.3112 6.06982 62.9688 4.72732 62.9688 3.06982C62.9688 1.41232 64.3112 0.0698242 65.9688 0.0698242C67.6263 0.0698242 68.9688 1.41232 68.9688 3.06982Z" fill="#42A584"/>
<path fill-rule="evenodd" clip-rule="evenodd" d="M83.9688 3.06982C83.9688 4.72732 82.6263 6.06982 80.9688 6.06982C79.3112 6.06982 77.9688 4.72732 77.9688 3.06982C77.9688 1.41232 79.3112 0.0698242 80.9688 0.0698242C82.6263 0.0698242 83.9688 1.41232 83.9688 3.06982Z" fill="#42A584"/>
<path fill-rule="evenodd" clip-rule="evenodd" d="M83.9688 3.06982C83.9688 4.72732 82.6263 6.06982 80.9688 6.06982C79.3112 6.06982 77.9688 4.72732 77.9688 3.06982C77.9688 1.41232 79.3112 0.0698242 80.9688 0.0698242C82.6263 0.0698242 83.9688 1.41232 83.9688 3.06982Z" fill="#42A584"/>
<path fill-rule="evenodd" clip-rule="evenodd" d="M99.9688 3.06982C99.9688 4.72732 98.6263 6.06982 96.9688 6.06982C95.3112 6.06982 93.9688 4.72732 93.9688 3.06982C93.9688 1.41232 95.3112 0.0698242 96.9688 0.0698242C98.6263 0.0698242 99.9688 1.41232 99.9688 3.06982Z" fill="#42A584"/>
<path fill-rule="evenodd" clip-rule="evenodd" d="M99.9688 3.06982C99.9688 4.72732 98.6263 6.06982 96.9688 6.06982C95.3112 6.06982 93.9688 4.72732 93.9688 3.06982C93.9688 1.41232 95.3112 0.0698242 96.9688 0.0698242C98.6263 0.0698242 99.9688 1.41232 99.9688 3.06982Z" fill="#42A584"/>
<path fill-rule="evenodd" clip-rule="evenodd" d="M114.969 3.06982C114.969 4.72732 113.626 6.06982 111.969 6.06982C110.311 6.06982 108.969 4.72732 108.969 3.06982C108.969 1.41232 110.311 0.0698242 111.969 0.0698242C113.626 0.0698242 114.969 1.41232 114.969 3.06982Z" fill="#42A584"/>
<path fill-rule="evenodd" clip-rule="evenodd" d="M114.969 3.06982C114.969 4.72732 113.626 6.06982 111.969 6.06982C110.311 6.06982 108.969 4.72732 108.969 3.06982C108.969 1.41232 110.311 0.0698242 111.969 0.0698242C113.626 0.0698242 114.969 1.41232 114.969 3.06982Z" fill="#42A584"/>
<path fill-rule="evenodd" clip-rule="evenodd" d="M130.969 3.06982C130.969 4.72732 129.626 6.06982 127.969 6.06982C126.311 6.06982 124.969 4.72732 124.969 3.06982C124.969 1.41232 126.311 0.0698242 127.969 0.0698242C129.626 0.0698242 130.969 1.41232 130.969 3.06982Z" fill="#42A584"/>
<path fill-rule="evenodd" clip-rule="evenodd" d="M130.969 3.06982C130.969 4.72732 129.626 6.06982 127.969 6.06982C126.311 6.06982 124.969 4.72732 124.969 3.06982C124.969 1.41232 126.311 0.0698242 127.969 0.0698242C129.626 0.0698242 130.969 1.41232 130.969 3.06982Z" fill="#42A584"/>
<path fill-rule="evenodd" clip-rule="evenodd" d="M145.969 3.06982C145.969 4.72732 144.626 6.06982 142.969 6.06982C141.311 6.06982 139.969 4.72732 139.969 3.06982C139.969 1.41232 141.311 0.0698242 142.969 0.0698242C144.626 0.0698242 145.969 1.41232 145.969 3.06982Z" fill="#42A584"/>
<path fill-rule="evenodd" clip-rule="evenodd" d="M145.969 3.06982C145.969 4.72732 144.626 6.06982 142.969 6.06982C141.311 6.06982 139.969 4.72732 139.969 3.06982C139.969 1.41232 141.311 0.0698242 142.969 0.0698242C144.626 0.0698242 145.969 1.41232 145.969 3.06982Z" fill="#42A584"/>
<path fill-rule="evenodd" clip-rule="evenodd" d="M160.969 3.06982C160.969 4.72732 159.626 6.06982 157.969 6.06982C156.311 6.06982 154.969 4.72732 154.969 3.06982C154.969 1.41232 156.311 0.0698242 157.969 0.0698242C159.626 0.0698242 160.969 1.41232 160.969 3.06982Z" fill="#42A584"/>
<path fill-rule="evenodd" clip-rule="evenodd" d="M160.969 3.06982C160.969 4.72732 159.626 6.06982 157.969 6.06982C156.311 6.06982 154.969 4.72732 154.969 3.06982C154.969 1.41232 156.311 0.0698242 157.969 0.0698242C159.626 0.0698242 160.969 1.41232 160.969 3.06982Z" fill="#42A584"/>
<path fill-rule="evenodd" clip-rule="evenodd" d="M176.969 3.06982C176.969 4.72732 175.626 6.06982 173.969 6.06982C172.311 6.06982 170.969 4.72732 170.969 3.06982C170.969 1.41232 172.311 0.0698242 173.969 0.0698242C175.626 0.0698242 176.969 1.41232 176.969 3.06982Z" fill="#42A584"/>
<path fill-rule="evenodd" clip-rule="evenodd" d="M176.969 3.06982C176.969 4.72732 175.626 6.06982 173.969 6.06982C172.311 6.06982 170.969 4.72732 170.969 3.06982C170.969 1.41232 172.311 0.0698242 173.969 0.0698242C175.626 0.0698242 176.969 1.41232 176.969 3.06982Z" fill="#42A584"/>
</svg>
