<svg width="32" height="32" viewBox="0 0 32 32" fill="none" xmlns="http://www.w3.org/2000/svg">
<path d="M23 9.77188V22.225C23 22.6531 22.6531 22.9969 22.2281 22.9969H18.6594V17.5781H20.4781L20.75 15.4656H18.6563V14.1156C18.6563 13.5031 18.825 13.0875 19.7031 13.0875H20.8219V11.1969C20.6281 11.1719 19.9656 11.1125 19.1906 11.1125C17.5781 11.1125 16.4719 12.0969 16.4719 13.9062V15.4656H14.6469V17.5781H16.4719V23H9.77188C9.34688 23 9 22.6531 9 22.2281V9.77188C9 9.34688 9.34688 9 9.77188 9H22.225C22.6531 9 23 9.34688 23 9.77188Z" fill="white"/>
</svg>
