<svg width="24" height="19" viewBox="0 0 24 19" fill="none" xmlns="http://www.w3.org/2000/svg">
<path d="M2.28653 2.92737C2.37449 2.92737 2.46111 2.89165 2.52317 2.82914C2.58568 2.76708 2.6214 2.68046 2.6214 2.5925C2.6214 2.50454 2.58568 2.41792 2.52317 2.35586C2.46111 2.29335 2.37449 2.25763 2.28653 2.25763C2.19857 2.25763 2.11195 2.29335 2.04989 2.35586C1.98738 2.41792 1.95166 2.50454 1.95166 2.5925C1.95166 2.68046 1.98738 2.76708 2.04989 2.82914C2.11195 2.89165 2.19812 2.92737 2.28653 2.92737Z" fill="#8D5DA7"/>
<path d="M3.35831 2.92737C3.44627 2.92737 3.53289 2.89165 3.59495 2.82914C3.65746 2.76708 3.69318 2.68046 3.69318 2.5925C3.69318 2.50454 3.65746 2.41792 3.59495 2.35586C3.53289 2.29335 3.44627 2.25763 3.35831 2.25763C3.27035 2.25763 3.18373 2.29335 3.12167 2.35586C3.05916 2.41792 3.02344 2.50454 3.02344 2.5925C3.02344 2.68046 3.05916 2.76708 3.12167 2.82914C3.18373 2.89165 3.27035 2.92737 3.35831 2.92737Z" fill="#8D5DA7"/>
<path d="M4.4296 2.92737C4.51756 2.92737 4.60418 2.89165 4.66624 2.82914C4.72875 2.76708 4.76447 2.68046 4.76447 2.5925C4.76447 2.50454 4.72875 2.41792 4.66624 2.35586C4.60418 2.29335 4.51756 2.25763 4.4296 2.25763C4.34164 2.25763 4.25502 2.29335 4.19296 2.35586C4.13045 2.41792 4.09473 2.50454 4.09473 2.5925C4.09473 2.68046 4.13045 2.76708 4.19296 2.82914C4.25502 2.89165 4.34164 2.92737 4.4296 2.92737Z" fill="#8D5DA7"/>
<path d="M5.8588 2.92737H19.4322C19.6172 2.92737 19.7671 2.77744 19.7671 2.5925C19.7671 2.40756 19.6172 2.25763 19.4322 2.25763H5.8588C5.67386 2.25763 5.52393 2.40756 5.52393 2.5925C5.52393 2.77744 5.67386 2.92737 5.8588 2.92737Z" fill="#8D5DA7"/>
<path d="M20.8607 2.92737H21.5751C21.7601 2.92737 21.91 2.77744 21.91 2.5925C21.91 2.40756 21.7601 2.25763 21.5751 2.25763H20.8607C20.6758 2.25763 20.5259 2.40756 20.5259 2.5925C20.5259 2.77744 20.6758 2.92737 20.8607 2.92737Z" fill="#8D5DA7"/>
<path d="M2.64395 6.14417H5.14432C5.32926 6.14417 5.47919 5.99423 5.47919 5.8093C5.47919 5.62436 5.32926 5.47443 5.14432 5.47443H2.64395C2.45901 5.47443 2.30908 5.62436 2.30908 5.8093C2.30908 5.99423 2.45901 6.14417 2.64395 6.14417Z" fill="#8D5DA7"/>
<path d="M5.14432 7.26154H2.64395C2.45901 7.26154 2.30908 7.41147 2.30908 7.59641C2.30908 7.78134 2.45901 7.93128 2.64395 7.93128H5.14432C5.32926 7.93128 5.47919 7.78134 5.47919 7.59641C5.47919 7.41147 5.32926 7.26154 5.14432 7.26154Z" fill="#8D5DA7"/>
<path d="M5.14432 9.04877H2.64395C2.45901 9.04877 2.30908 9.1987 2.30908 9.38364C2.30908 9.56858 2.45901 9.71851 2.64395 9.71851H5.14432C5.32926 9.71851 5.47919 9.56858 5.47919 9.38364C5.47919 9.1987 5.32926 9.04877 5.14432 9.04877Z" fill="#8D5DA7"/>
<path d="M5.14432 10.8359H2.64395C2.45901 10.8359 2.30908 10.9858 2.30908 11.1707C2.30908 11.3557 2.45901 11.5056 2.64395 11.5056H5.14432C5.32926 11.5056 5.47919 11.3557 5.47919 11.1707C5.47919 10.9858 5.32926 10.8359 5.14432 10.8359Z" fill="#8D5DA7"/>
<path d="M9.43061 14.4102H8.71622C8.53128 14.4102 8.38135 14.5602 8.38135 14.7451C8.38135 14.93 8.53128 15.08 8.71622 15.08H9.43061C9.61555 15.08 9.76548 14.93 9.76548 14.7451C9.76548 14.5602 9.61555 14.4102 9.43061 14.4102Z" fill="#8D5DA7"/>
<path d="M9.43061 16.1972H8.71622C8.53128 16.1972 8.38135 16.3471 8.38135 16.5321C8.38135 16.717 8.53128 16.8669 8.71622 16.8669H9.43061C9.61555 16.8669 9.76548 16.717 9.76548 16.5321C9.76548 16.3471 9.61555 16.1972 9.43061 16.1972Z" fill="#8D5DA7"/>
<path d="M10.8573 15.08H11.5717C11.7567 15.08 11.9066 14.93 11.9066 14.7451C11.9066 14.5602 11.7567 14.4102 11.5717 14.4102H10.8573C10.6724 14.4102 10.5225 14.5602 10.5225 14.7451C10.5225 14.93 10.6724 15.08 10.8573 15.08Z" fill="#8D5DA7"/>
<path d="M12.2861 16.1972H10.8573C10.6724 16.1972 10.5225 16.3471 10.5225 16.5321C10.5225 16.717 10.6724 16.8669 10.8573 16.8669H12.2861C12.4711 16.8669 12.621 16.717 12.621 16.5321C12.621 16.3471 12.4711 16.1972 12.2861 16.1972Z" fill="#8D5DA7"/>
<path d="M18.3603 14.4102H13.0024C12.8174 14.4102 12.6675 14.5602 12.6675 14.7451C12.6675 14.93 12.8174 15.08 13.0024 15.08H18.3603C18.5452 15.08 18.6951 14.93 18.6951 14.7451C18.6951 14.5602 18.5452 14.4102 18.3603 14.4102Z" fill="#8D5DA7"/>
<path d="M15.8599 16.1972H13.7167C13.5318 16.1972 13.3818 16.3471 13.3818 16.5321C13.3818 16.717 13.5318 16.8669 13.7167 16.8669H15.8599C16.0448 16.8669 16.1947 16.717 16.1947 16.5321C16.1947 16.3471 16.0448 16.1972 15.8599 16.1972Z" fill="#8D5DA7"/>
<path d="M5.14432 12.6229H2.64395C2.45901 12.6229 2.30908 12.7728 2.30908 12.9577C2.30908 13.1427 2.45901 13.2926 2.64395 13.2926H5.14432C5.32926 13.2926 5.47919 13.1427 5.47919 12.9577C5.47919 12.7728 5.32926 12.6229 5.14432 12.6229Z" fill="#8D5DA7"/>
<path d="M5.14432 14.4102H2.64395C2.45901 14.4102 2.30908 14.5602 2.30908 14.7451C2.30908 14.93 2.45901 15.08 2.64395 15.08H5.14432C5.32926 15.08 5.47919 14.93 5.47919 14.7451C5.47919 14.5602 5.32926 14.4102 5.14432 14.4102Z" fill="#8D5DA7"/>
<path d="M5.14432 16.1972H2.64395C2.45901 16.1972 2.30908 16.3471 2.30908 16.5321C2.30908 16.717 2.45901 16.8669 2.64395 16.8669H5.14432C5.32926 16.8669 5.47919 16.717 5.47919 16.5321C5.47919 16.3471 5.32926 16.1972 5.14432 16.1972Z" fill="#8D5DA7"/>
<path d="M21.5751 0.827515H2.2866C1.31414 0.827515 0.522949 1.61921 0.522949 2.5923V16.8893C0.522949 17.8624 1.31414 18.6541 2.2866 18.6541H21.5751C22.5476 18.6541 23.3388 17.8624 23.3388 16.8893V2.5923C23.3388 1.61921 22.5476 0.827515 21.5751 0.827515ZM7.26501 4.35708H22.6691V12.6225H7.26501V4.35708ZM2.2866 1.49769H21.5751C22.1783 1.49769 22.6691 1.98874 22.6691 2.5923V3.68691H1.19269V2.5923C1.19269 1.98874 1.68343 1.49769 2.2866 1.49769ZM1.19269 16.8893V4.35708H6.59527V17.9839H2.2866C1.68343 17.9839 1.19269 17.4928 1.19269 16.8893ZM21.5751 17.9839H7.26501V13.2927H22.6691V16.8893C22.6691 17.4928 22.1783 17.9839 21.5751 17.9839Z" fill="#8D5DA7"/>
<path d="M17.255 10.2692H10.4451C10.069 10.2692 9.76416 10.4789 9.76416 10.7377C9.76416 10.9965 10.069 11.2063 10.4451 11.2063H17.255C17.6311 11.2063 17.936 10.9965 17.936 10.7377C17.936 10.4789 17.6311 10.2692 17.255 10.2692Z" fill="#8D5DA7"/>
<path d="M16.2743 5.38592C16.019 5.10191 15.605 5.10191 15.3497 5.38592L13.1968 7.7807L12.3515 6.84042C12.0961 6.55641 11.6822 6.55641 11.4268 6.84042C11.1715 7.12442 11.1715 7.58491 11.4268 7.86892L12.7345 9.32345C12.9898 9.60746 13.4038 9.60746 13.6591 9.32345L16.2743 6.41442C16.5296 6.13042 16.5296 5.66992 16.2743 5.38592Z" fill="#8D5DA7"/>
</svg>
