<svg width="999" height="683" viewBox="0 0 999 683" fill="none" xmlns="http://www.w3.org/2000/svg">
<rect width="999" height="683" fill="white"/>
<path d="M742.66 524.32C844.093 524.32 926.32 442.093 926.32 340.66C926.32 239.227 844.093 157 742.66 157C641.227 157 559 239.227 559 340.66C559 442.093 641.227 524.32 742.66 524.32Z" fill="#FED14A"/>
<path fill-rule="evenodd" clip-rule="evenodd" d="M59.9688 24.0698C59.9688 25.7273 58.6263 27.0698 56.9688 27.0698C55.3112 27.0698 53.9688 25.7273 53.9688 24.0698C53.9688 22.4123 55.3112 21.0698 56.9688 21.0698C58.6263 21.0698 59.9688 22.4123 59.9688 24.0698Z" fill="#42A584"/>
<path fill-rule="evenodd" clip-rule="evenodd" d="M59.9688 24.0698C59.9688 25.7273 58.6263 27.0698 56.9688 27.0698C55.3112 27.0698 53.9688 25.7273 53.9688 24.0698C53.9688 22.4123 55.3112 21.0698 56.9688 21.0698C58.6263 21.0698 59.9688 22.4123 59.9688 24.0698Z" fill="#42A584"/>
<path fill-rule="evenodd" clip-rule="evenodd" d="M59.9688 39.0698C59.9688 40.7273 58.6263 42.0698 56.9688 42.0698C55.3112 42.0698 53.9688 40.7273 53.9688 39.0698C53.9688 37.4123 55.3112 36.0698 56.9688 36.0698C58.6263 36.0698 59.9688 37.4123 59.9688 39.0698Z" fill="#42A584"/>
<path fill-rule="evenodd" clip-rule="evenodd" d="M59.9688 39.0698C59.9688 40.7273 58.6263 42.0698 56.9688 42.0698C55.3112 42.0698 53.9688 40.7273 53.9688 39.0698C53.9688 37.4123 55.3112 36.0698 56.9688 36.0698C58.6263 36.0698 59.9688 37.4123 59.9688 39.0698Z" fill="#42A584"/>
<path fill-rule="evenodd" clip-rule="evenodd" d="M75.9688 39.0698C75.9688 40.7273 74.6263 42.0698 72.9688 42.0698C71.3112 42.0698 69.9688 40.7273 69.9688 39.0698C69.9688 37.4123 71.3112 36.0698 72.9688 36.0698C74.6263 36.0698 75.9688 37.4123 75.9688 39.0698Z" fill="#42A584"/>
<path fill-rule="evenodd" clip-rule="evenodd" d="M75.9688 39.0698C75.9688 40.7273 74.6263 42.0698 72.9688 42.0698C71.3112 42.0698 69.9688 40.7273 69.9688 39.0698C69.9688 37.4123 71.3112 36.0698 72.9688 36.0698C74.6263 36.0698 75.9688 37.4123 75.9688 39.0698Z" fill="#42A584"/>
<path fill-rule="evenodd" clip-rule="evenodd" d="M90.9688 39.0698C90.9688 40.7273 89.6263 42.0698 87.9688 42.0698C86.3112 42.0698 84.9688 40.7273 84.9688 39.0698C84.9688 37.4123 86.3112 36.0698 87.9688 36.0698C89.6263 36.0698 90.9688 37.4123 90.9688 39.0698Z" fill="#42A584"/>
<path fill-rule="evenodd" clip-rule="evenodd" d="M90.9688 39.0698C90.9688 40.7273 89.6263 42.0698 87.9688 42.0698C86.3112 42.0698 84.9688 40.7273 84.9688 39.0698C84.9688 37.4123 86.3112 36.0698 87.9688 36.0698C89.6263 36.0698 90.9688 37.4123 90.9688 39.0698Z" fill="#42A584"/>
<path fill-rule="evenodd" clip-rule="evenodd" d="M105.969 39.0698C105.969 40.7273 104.626 42.0698 102.969 42.0698C101.311 42.0698 99.9688 40.7273 99.9688 39.0698C99.9688 37.4123 101.311 36.0698 102.969 36.0698C104.626 36.0698 105.969 37.4123 105.969 39.0698Z" fill="#42A584"/>
<path fill-rule="evenodd" clip-rule="evenodd" d="M105.969 39.0698C105.969 40.7273 104.626 42.0698 102.969 42.0698C101.311 42.0698 99.9688 40.7273 99.9688 39.0698C99.9688 37.4123 101.311 36.0698 102.969 36.0698C104.626 36.0698 105.969 37.4123 105.969 39.0698Z" fill="#42A584"/>
<path fill-rule="evenodd" clip-rule="evenodd" d="M121.969 39.0698C121.969 40.7273 120.626 42.0698 118.969 42.0698C117.311 42.0698 115.969 40.7273 115.969 39.0698C115.969 37.4123 117.311 36.0698 118.969 36.0698C120.626 36.0698 121.969 37.4123 121.969 39.0698Z" fill="#42A584"/>
<path fill-rule="evenodd" clip-rule="evenodd" d="M121.969 39.0698C121.969 40.7273 120.626 42.0698 118.969 42.0698C117.311 42.0698 115.969 40.7273 115.969 39.0698C115.969 37.4123 117.311 36.0698 118.969 36.0698C120.626 36.0698 121.969 37.4123 121.969 39.0698Z" fill="#42A584"/>
<path fill-rule="evenodd" clip-rule="evenodd" d="M136.969 39.0698C136.969 40.7273 135.626 42.0698 133.969 42.0698C132.311 42.0698 130.969 40.7273 130.969 39.0698C130.969 37.4123 132.311 36.0698 133.969 36.0698C135.626 36.0698 136.969 37.4123 136.969 39.0698Z" fill="#42A584"/>
<path fill-rule="evenodd" clip-rule="evenodd" d="M136.969 39.0698C136.969 40.7273 135.626 42.0698 133.969 42.0698C132.311 42.0698 130.969 40.7273 130.969 39.0698C130.969 37.4123 132.311 36.0698 133.969 36.0698C135.626 36.0698 136.969 37.4123 136.969 39.0698Z" fill="#42A584"/>
<path fill-rule="evenodd" clip-rule="evenodd" d="M152.969 39.0698C152.969 40.7273 151.626 42.0698 149.969 42.0698C148.311 42.0698 146.969 40.7273 146.969 39.0698C146.969 37.4123 148.311 36.0698 149.969 36.0698C151.626 36.0698 152.969 37.4123 152.969 39.0698Z" fill="#42A584"/>
<path fill-rule="evenodd" clip-rule="evenodd" d="M152.969 39.0698C152.969 40.7273 151.626 42.0698 149.969 42.0698C148.311 42.0698 146.969 40.7273 146.969 39.0698C146.969 37.4123 148.311 36.0698 149.969 36.0698C151.626 36.0698 152.969 37.4123 152.969 39.0698Z" fill="#42A584"/>
<path fill-rule="evenodd" clip-rule="evenodd" d="M167.969 39.0698C167.969 40.7273 166.626 42.0698 164.969 42.0698C163.311 42.0698 161.969 40.7273 161.969 39.0698C161.969 37.4123 163.311 36.0698 164.969 36.0698C166.626 36.0698 167.969 37.4123 167.969 39.0698Z" fill="#42A584"/>
<path fill-rule="evenodd" clip-rule="evenodd" d="M167.969 39.0698C167.969 40.7273 166.626 42.0698 164.969 42.0698C163.311 42.0698 161.969 40.7273 161.969 39.0698C161.969 37.4123 163.311 36.0698 164.969 36.0698C166.626 36.0698 167.969 37.4123 167.969 39.0698Z" fill="#42A584"/>
<path fill-rule="evenodd" clip-rule="evenodd" d="M183.969 39.0698C183.969 40.7273 182.626 42.0698 180.969 42.0698C179.311 42.0698 177.969 40.7273 177.969 39.0698C177.969 37.4123 179.311 36.0698 180.969 36.0698C182.626 36.0698 183.969 37.4123 183.969 39.0698Z" fill="#42A584"/>
<path fill-rule="evenodd" clip-rule="evenodd" d="M183.969 39.0698C183.969 40.7273 182.626 42.0698 180.969 42.0698C179.311 42.0698 177.969 40.7273 177.969 39.0698C177.969 37.4123 179.311 36.0698 180.969 36.0698C182.626 36.0698 183.969 37.4123 183.969 39.0698Z" fill="#42A584"/>
<path fill-rule="evenodd" clip-rule="evenodd" d="M198.969 39.0698C198.969 40.7273 197.626 42.0698 195.969 42.0698C194.311 42.0698 192.969 40.7273 192.969 39.0698C192.969 37.4123 194.311 36.0698 195.969 36.0698C197.626 36.0698 198.969 37.4123 198.969 39.0698Z" fill="#42A584"/>
<path fill-rule="evenodd" clip-rule="evenodd" d="M198.969 39.0698C198.969 40.7273 197.626 42.0698 195.969 42.0698C194.311 42.0698 192.969 40.7273 192.969 39.0698C192.969 37.4123 194.311 36.0698 195.969 36.0698C197.626 36.0698 198.969 37.4123 198.969 39.0698Z" fill="#42A584"/>
<path fill-rule="evenodd" clip-rule="evenodd" d="M213.969 39.0698C213.969 40.7273 212.626 42.0698 210.969 42.0698C209.311 42.0698 207.969 40.7273 207.969 39.0698C207.969 37.4123 209.311 36.0698 210.969 36.0698C212.626 36.0698 213.969 37.4123 213.969 39.0698Z" fill="#42A584"/>
<path fill-rule="evenodd" clip-rule="evenodd" d="M213.969 39.0698C213.969 40.7273 212.626 42.0698 210.969 42.0698C209.311 42.0698 207.969 40.7273 207.969 39.0698C207.969 37.4123 209.311 36.0698 210.969 36.0698C212.626 36.0698 213.969 37.4123 213.969 39.0698Z" fill="#42A584"/>
<path fill-rule="evenodd" clip-rule="evenodd" d="M229.969 39.0698C229.969 40.7273 228.626 42.0698 226.969 42.0698C225.311 42.0698 223.969 40.7273 223.969 39.0698C223.969 37.4123 225.311 36.0698 226.969 36.0698C228.626 36.0698 229.969 37.4123 229.969 39.0698Z" fill="#42A584"/>
<path fill-rule="evenodd" clip-rule="evenodd" d="M229.969 39.0698C229.969 40.7273 228.626 42.0698 226.969 42.0698C225.311 42.0698 223.969 40.7273 223.969 39.0698C223.969 37.4123 225.311 36.0698 226.969 36.0698C228.626 36.0698 229.969 37.4123 229.969 39.0698Z" fill="#42A584"/>
<path fill-rule="evenodd" clip-rule="evenodd" d="M59.9688 55.0698C59.9688 56.7273 58.6263 58.0698 56.9688 58.0698C55.3112 58.0698 53.9688 56.7273 53.9688 55.0698C53.9688 53.4123 55.3112 52.0698 56.9688 52.0698C58.6263 52.0698 59.9688 53.4123 59.9688 55.0698Z" fill="#42A584"/>
<path fill-rule="evenodd" clip-rule="evenodd" d="M59.9688 55.0698C59.9688 56.7273 58.6263 58.0698 56.9688 58.0698C55.3112 58.0698 53.9688 56.7273 53.9688 55.0698C53.9688 53.4123 55.3112 52.0698 56.9688 52.0698C58.6263 52.0698 59.9688 53.4123 59.9688 55.0698Z" fill="#42A584"/>
<path fill-rule="evenodd" clip-rule="evenodd" d="M75.9688 55.0698C75.9688 56.7273 74.6263 58.0698 72.9688 58.0698C71.3112 58.0698 69.9688 56.7273 69.9688 55.0698C69.9688 53.4123 71.3112 52.0698 72.9688 52.0698C74.6263 52.0698 75.9688 53.4123 75.9688 55.0698Z" fill="#42A584"/>
<path fill-rule="evenodd" clip-rule="evenodd" d="M75.9688 55.0698C75.9688 56.7273 74.6263 58.0698 72.9688 58.0698C71.3112 58.0698 69.9688 56.7273 69.9688 55.0698C69.9688 53.4123 71.3112 52.0698 72.9688 52.0698C74.6263 52.0698 75.9688 53.4123 75.9688 55.0698Z" fill="#42A584"/>
<path fill-rule="evenodd" clip-rule="evenodd" d="M90.9688 55.0698C90.9688 56.7273 89.6263 58.0698 87.9688 58.0698C86.3112 58.0698 84.9688 56.7273 84.9688 55.0698C84.9688 53.4123 86.3112 52.0698 87.9688 52.0698C89.6263 52.0698 90.9688 53.4123 90.9688 55.0698Z" fill="#42A584"/>
<path fill-rule="evenodd" clip-rule="evenodd" d="M90.9688 55.0698C90.9688 56.7273 89.6263 58.0698 87.9688 58.0698C86.3112 58.0698 84.9688 56.7273 84.9688 55.0698C84.9688 53.4123 86.3112 52.0698 87.9688 52.0698C89.6263 52.0698 90.9688 53.4123 90.9688 55.0698Z" fill="#42A584"/>
<path fill-rule="evenodd" clip-rule="evenodd" d="M105.969 55.0698C105.969 56.7273 104.626 58.0698 102.969 58.0698C101.311 58.0698 99.9688 56.7273 99.9688 55.0698C99.9688 53.4123 101.311 52.0698 102.969 52.0698C104.626 52.0698 105.969 53.4123 105.969 55.0698Z" fill="#42A584"/>
<path fill-rule="evenodd" clip-rule="evenodd" d="M105.969 55.0698C105.969 56.7273 104.626 58.0698 102.969 58.0698C101.311 58.0698 99.9688 56.7273 99.9688 55.0698C99.9688 53.4123 101.311 52.0698 102.969 52.0698C104.626 52.0698 105.969 53.4123 105.969 55.0698Z" fill="#42A584"/>
<path fill-rule="evenodd" clip-rule="evenodd" d="M121.969 55.0698C121.969 56.7273 120.626 58.0698 118.969 58.0698C117.311 58.0698 115.969 56.7273 115.969 55.0698C115.969 53.4123 117.311 52.0698 118.969 52.0698C120.626 52.0698 121.969 53.4123 121.969 55.0698Z" fill="#42A584"/>
<path fill-rule="evenodd" clip-rule="evenodd" d="M121.969 55.0698C121.969 56.7273 120.626 58.0698 118.969 58.0698C117.311 58.0698 115.969 56.7273 115.969 55.0698C115.969 53.4123 117.311 52.0698 118.969 52.0698C120.626 52.0698 121.969 53.4123 121.969 55.0698Z" fill="#42A584"/>
<path fill-rule="evenodd" clip-rule="evenodd" d="M136.969 55.0698C136.969 56.7273 135.626 58.0698 133.969 58.0698C132.311 58.0698 130.969 56.7273 130.969 55.0698C130.969 53.4123 132.311 52.0698 133.969 52.0698C135.626 52.0698 136.969 53.4123 136.969 55.0698Z" fill="#42A584"/>
<path fill-rule="evenodd" clip-rule="evenodd" d="M136.969 55.0698C136.969 56.7273 135.626 58.0698 133.969 58.0698C132.311 58.0698 130.969 56.7273 130.969 55.0698C130.969 53.4123 132.311 52.0698 133.969 52.0698C135.626 52.0698 136.969 53.4123 136.969 55.0698Z" fill="#42A584"/>
<path fill-rule="evenodd" clip-rule="evenodd" d="M152.969 55.0698C152.969 56.7273 151.626 58.0698 149.969 58.0698C148.311 58.0698 146.969 56.7273 146.969 55.0698C146.969 53.4123 148.311 52.0698 149.969 52.0698C151.626 52.0698 152.969 53.4123 152.969 55.0698Z" fill="#42A584"/>
<path fill-rule="evenodd" clip-rule="evenodd" d="M152.969 55.0698C152.969 56.7273 151.626 58.0698 149.969 58.0698C148.311 58.0698 146.969 56.7273 146.969 55.0698C146.969 53.4123 148.311 52.0698 149.969 52.0698C151.626 52.0698 152.969 53.4123 152.969 55.0698Z" fill="#42A584"/>
<path fill-rule="evenodd" clip-rule="evenodd" d="M167.969 55.0698C167.969 56.7273 166.626 58.0698 164.969 58.0698C163.311 58.0698 161.969 56.7273 161.969 55.0698C161.969 53.4123 163.311 52.0698 164.969 52.0698C166.626 52.0698 167.969 53.4123 167.969 55.0698Z" fill="#42A584"/>
<path fill-rule="evenodd" clip-rule="evenodd" d="M167.969 55.0698C167.969 56.7273 166.626 58.0698 164.969 58.0698C163.311 58.0698 161.969 56.7273 161.969 55.0698C161.969 53.4123 163.311 52.0698 164.969 52.0698C166.626 52.0698 167.969 53.4123 167.969 55.0698Z" fill="#42A584"/>
<path fill-rule="evenodd" clip-rule="evenodd" d="M183.969 55.0698C183.969 56.7273 182.626 58.0698 180.969 58.0698C179.311 58.0698 177.969 56.7273 177.969 55.0698C177.969 53.4123 179.311 52.0698 180.969 52.0698C182.626 52.0698 183.969 53.4123 183.969 55.0698Z" fill="#42A584"/>
<path fill-rule="evenodd" clip-rule="evenodd" d="M183.969 55.0698C183.969 56.7273 182.626 58.0698 180.969 58.0698C179.311 58.0698 177.969 56.7273 177.969 55.0698C177.969 53.4123 179.311 52.0698 180.969 52.0698C182.626 52.0698 183.969 53.4123 183.969 55.0698Z" fill="#42A584"/>
<path fill-rule="evenodd" clip-rule="evenodd" d="M198.969 55.0698C198.969 56.7273 197.626 58.0698 195.969 58.0698C194.311 58.0698 192.969 56.7273 192.969 55.0698C192.969 53.4123 194.311 52.0698 195.969 52.0698C197.626 52.0698 198.969 53.4123 198.969 55.0698Z" fill="#42A584"/>
<path fill-rule="evenodd" clip-rule="evenodd" d="M198.969 55.0698C198.969 56.7273 197.626 58.0698 195.969 58.0698C194.311 58.0698 192.969 56.7273 192.969 55.0698C192.969 53.4123 194.311 52.0698 195.969 52.0698C197.626 52.0698 198.969 53.4123 198.969 55.0698Z" fill="#42A584"/>
<path fill-rule="evenodd" clip-rule="evenodd" d="M213.969 55.0698C213.969 56.7273 212.626 58.0698 210.969 58.0698C209.311 58.0698 207.969 56.7273 207.969 55.0698C207.969 53.4123 209.311 52.0698 210.969 52.0698C212.626 52.0698 213.969 53.4123 213.969 55.0698Z" fill="#42A584"/>
<path fill-rule="evenodd" clip-rule="evenodd" d="M213.969 55.0698C213.969 56.7273 212.626 58.0698 210.969 58.0698C209.311 58.0698 207.969 56.7273 207.969 55.0698C207.969 53.4123 209.311 52.0698 210.969 52.0698C212.626 52.0698 213.969 53.4123 213.969 55.0698Z" fill="#42A584"/>
<path fill-rule="evenodd" clip-rule="evenodd" d="M229.969 55.0698C229.969 56.7273 228.626 58.0698 226.969 58.0698C225.311 58.0698 223.969 56.7273 223.969 55.0698C223.969 53.4123 225.311 52.0698 226.969 52.0698C228.626 52.0698 229.969 53.4123 229.969 55.0698Z" fill="#42A584"/>
<path fill-rule="evenodd" clip-rule="evenodd" d="M229.969 55.0698C229.969 56.7273 228.626 58.0698 226.969 58.0698C225.311 58.0698 223.969 56.7273 223.969 55.0698C223.969 53.4123 225.311 52.0698 226.969 52.0698C228.626 52.0698 229.969 53.4123 229.969 55.0698Z" fill="#42A584"/>
<path fill-rule="evenodd" clip-rule="evenodd" d="M59.9688 70.0698C59.9688 71.7273 58.6263 73.0698 56.9688 73.0698C55.3112 73.0698 53.9688 71.7273 53.9688 70.0698C53.9688 68.4123 55.3112 67.0698 56.9688 67.0698C58.6263 67.0698 59.9688 68.4123 59.9688 70.0698Z" fill="#42A584"/>
<path fill-rule="evenodd" clip-rule="evenodd" d="M59.9688 70.0698C59.9688 71.7273 58.6263 73.0698 56.9688 73.0698C55.3112 73.0698 53.9688 71.7273 53.9688 70.0698C53.9688 68.4123 55.3112 67.0698 56.9688 67.0698C58.6263 67.0698 59.9688 68.4123 59.9688 70.0698Z" fill="#42A584"/>
<path fill-rule="evenodd" clip-rule="evenodd" d="M75.9688 70.0698C75.9688 71.7273 74.6263 73.0698 72.9688 73.0698C71.3112 73.0698 69.9688 71.7273 69.9688 70.0698C69.9688 68.4123 71.3112 67.0698 72.9688 67.0698C74.6263 67.0698 75.9688 68.4123 75.9688 70.0698Z" fill="#42A584"/>
<path fill-rule="evenodd" clip-rule="evenodd" d="M75.9688 70.0698C75.9688 71.7273 74.6263 73.0698 72.9688 73.0698C71.3112 73.0698 69.9688 71.7273 69.9688 70.0698C69.9688 68.4123 71.3112 67.0698 72.9688 67.0698C74.6263 67.0698 75.9688 68.4123 75.9688 70.0698Z" fill="#42A584"/>
<path fill-rule="evenodd" clip-rule="evenodd" d="M90.9688 70.0698C90.9688 71.7273 89.6263 73.0698 87.9688 73.0698C86.3112 73.0698 84.9688 71.7273 84.9688 70.0698C84.9688 68.4123 86.3112 67.0698 87.9688 67.0698C89.6263 67.0698 90.9688 68.4123 90.9688 70.0698Z" fill="#42A584"/>
<path fill-rule="evenodd" clip-rule="evenodd" d="M90.9688 70.0698C90.9688 71.7273 89.6263 73.0698 87.9688 73.0698C86.3112 73.0698 84.9688 71.7273 84.9688 70.0698C84.9688 68.4123 86.3112 67.0698 87.9688 67.0698C89.6263 67.0698 90.9688 68.4123 90.9688 70.0698Z" fill="#42A584"/>
<path fill-rule="evenodd" clip-rule="evenodd" d="M105.969 70.0698C105.969 71.7273 104.626 73.0698 102.969 73.0698C101.311 73.0698 99.9688 71.7273 99.9688 70.0698C99.9688 68.4123 101.311 67.0698 102.969 67.0698C104.626 67.0698 105.969 68.4123 105.969 70.0698Z" fill="#42A584"/>
<path fill-rule="evenodd" clip-rule="evenodd" d="M105.969 70.0698C105.969 71.7273 104.626 73.0698 102.969 73.0698C101.311 73.0698 99.9688 71.7273 99.9688 70.0698C99.9688 68.4123 101.311 67.0698 102.969 67.0698C104.626 67.0698 105.969 68.4123 105.969 70.0698Z" fill="#42A584"/>
<path fill-rule="evenodd" clip-rule="evenodd" d="M121.969 70.0698C121.969 71.7273 120.626 73.0698 118.969 73.0698C117.311 73.0698 115.969 71.7273 115.969 70.0698C115.969 68.4123 117.311 67.0698 118.969 67.0698C120.626 67.0698 121.969 68.4123 121.969 70.0698Z" fill="#42A584"/>
<path fill-rule="evenodd" clip-rule="evenodd" d="M121.969 70.0698C121.969 71.7273 120.626 73.0698 118.969 73.0698C117.311 73.0698 115.969 71.7273 115.969 70.0698C115.969 68.4123 117.311 67.0698 118.969 67.0698C120.626 67.0698 121.969 68.4123 121.969 70.0698Z" fill="#42A584"/>
<path fill-rule="evenodd" clip-rule="evenodd" d="M136.969 70.0698C136.969 71.7273 135.626 73.0698 133.969 73.0698C132.311 73.0698 130.969 71.7273 130.969 70.0698C130.969 68.4123 132.311 67.0698 133.969 67.0698C135.626 67.0698 136.969 68.4123 136.969 70.0698Z" fill="#42A584"/>
<path fill-rule="evenodd" clip-rule="evenodd" d="M136.969 70.0698C136.969 71.7273 135.626 73.0698 133.969 73.0698C132.311 73.0698 130.969 71.7273 130.969 70.0698C130.969 68.4123 132.311 67.0698 133.969 67.0698C135.626 67.0698 136.969 68.4123 136.969 70.0698Z" fill="#42A584"/>
<path fill-rule="evenodd" clip-rule="evenodd" d="M152.969 70.0698C152.969 71.7273 151.626 73.0698 149.969 73.0698C148.311 73.0698 146.969 71.7273 146.969 70.0698C146.969 68.4123 148.311 67.0698 149.969 67.0698C151.626 67.0698 152.969 68.4123 152.969 70.0698Z" fill="#42A584"/>
<path fill-rule="evenodd" clip-rule="evenodd" d="M152.969 70.0698C152.969 71.7273 151.626 73.0698 149.969 73.0698C148.311 73.0698 146.969 71.7273 146.969 70.0698C146.969 68.4123 148.311 67.0698 149.969 67.0698C151.626 67.0698 152.969 68.4123 152.969 70.0698Z" fill="#42A584"/>
<path fill-rule="evenodd" clip-rule="evenodd" d="M167.969 70.0698C167.969 71.7273 166.626 73.0698 164.969 73.0698C163.311 73.0698 161.969 71.7273 161.969 70.0698C161.969 68.4123 163.311 67.0698 164.969 67.0698C166.626 67.0698 167.969 68.4123 167.969 70.0698Z" fill="#42A584"/>
<path fill-rule="evenodd" clip-rule="evenodd" d="M167.969 70.0698C167.969 71.7273 166.626 73.0698 164.969 73.0698C163.311 73.0698 161.969 71.7273 161.969 70.0698C161.969 68.4123 163.311 67.0698 164.969 67.0698C166.626 67.0698 167.969 68.4123 167.969 70.0698Z" fill="#42A584"/>
<path fill-rule="evenodd" clip-rule="evenodd" d="M183.969 70.0698C183.969 71.7273 182.626 73.0698 180.969 73.0698C179.311 73.0698 177.969 71.7273 177.969 70.0698C177.969 68.4123 179.311 67.0698 180.969 67.0698C182.626 67.0698 183.969 68.4123 183.969 70.0698Z" fill="#42A584"/>
<path fill-rule="evenodd" clip-rule="evenodd" d="M183.969 70.0698C183.969 71.7273 182.626 73.0698 180.969 73.0698C179.311 73.0698 177.969 71.7273 177.969 70.0698C177.969 68.4123 179.311 67.0698 180.969 67.0698C182.626 67.0698 183.969 68.4123 183.969 70.0698Z" fill="#42A584"/>
<path fill-rule="evenodd" clip-rule="evenodd" d="M198.969 70.0698C198.969 71.7273 197.626 73.0698 195.969 73.0698C194.311 73.0698 192.969 71.7273 192.969 70.0698C192.969 68.4123 194.311 67.0698 195.969 67.0698C197.626 67.0698 198.969 68.4123 198.969 70.0698Z" fill="#42A584"/>
<path fill-rule="evenodd" clip-rule="evenodd" d="M198.969 70.0698C198.969 71.7273 197.626 73.0698 195.969 73.0698C194.311 73.0698 192.969 71.7273 192.969 70.0698C192.969 68.4123 194.311 67.0698 195.969 67.0698C197.626 67.0698 198.969 68.4123 198.969 70.0698Z" fill="#42A584"/>
<path fill-rule="evenodd" clip-rule="evenodd" d="M213.969 70.0698C213.969 71.7273 212.626 73.0698 210.969 73.0698C209.311 73.0698 207.969 71.7273 207.969 70.0698C207.969 68.4123 209.311 67.0698 210.969 67.0698C212.626 67.0698 213.969 68.4123 213.969 70.0698Z" fill="#42A584"/>
<path fill-rule="evenodd" clip-rule="evenodd" d="M213.969 70.0698C213.969 71.7273 212.626 73.0698 210.969 73.0698C209.311 73.0698 207.969 71.7273 207.969 70.0698C207.969 68.4123 209.311 67.0698 210.969 67.0698C212.626 67.0698 213.969 68.4123 213.969 70.0698Z" fill="#42A584"/>
<path fill-rule="evenodd" clip-rule="evenodd" d="M229.969 70.0698C229.969 71.7273 228.626 73.0698 226.969 73.0698C225.311 73.0698 223.969 71.7273 223.969 70.0698C223.969 68.4123 225.311 67.0698 226.969 67.0698C228.626 67.0698 229.969 68.4123 229.969 70.0698Z" fill="#42A584"/>
<path fill-rule="evenodd" clip-rule="evenodd" d="M229.969 70.0698C229.969 71.7273 228.626 73.0698 226.969 73.0698C225.311 73.0698 223.969 71.7273 223.969 70.0698C223.969 68.4123 225.311 67.0698 226.969 67.0698C228.626 67.0698 229.969 68.4123 229.969 70.0698Z" fill="#42A584"/>
<path fill-rule="evenodd" clip-rule="evenodd" d="M59.9688 86.0698C59.9688 87.7273 58.6263 89.0698 56.9688 89.0698C55.3112 89.0698 53.9688 87.7273 53.9688 86.0698C53.9688 84.4123 55.3112 83.0698 56.9688 83.0698C58.6263 83.0698 59.9688 84.4123 59.9688 86.0698Z" fill="#42A584"/>
<path fill-rule="evenodd" clip-rule="evenodd" d="M59.9688 86.0698C59.9688 87.7273 58.6263 89.0698 56.9688 89.0698C55.3112 89.0698 53.9688 87.7273 53.9688 86.0698C53.9688 84.4123 55.3112 83.0698 56.9688 83.0698C58.6263 83.0698 59.9688 84.4123 59.9688 86.0698Z" fill="#42A584"/>
<path fill-rule="evenodd" clip-rule="evenodd" d="M75.9688 86.0698C75.9688 87.7273 74.6263 89.0698 72.9688 89.0698C71.3112 89.0698 69.9688 87.7273 69.9688 86.0698C69.9688 84.4123 71.3112 83.0698 72.9688 83.0698C74.6263 83.0698 75.9688 84.4123 75.9688 86.0698Z" fill="#42A584"/>
<path fill-rule="evenodd" clip-rule="evenodd" d="M75.9688 86.0698C75.9688 87.7273 74.6263 89.0698 72.9688 89.0698C71.3112 89.0698 69.9688 87.7273 69.9688 86.0698C69.9688 84.4123 71.3112 83.0698 72.9688 83.0698C74.6263 83.0698 75.9688 84.4123 75.9688 86.0698Z" fill="#42A584"/>
<path fill-rule="evenodd" clip-rule="evenodd" d="M90.9688 86.0698C90.9688 87.7273 89.6263 89.0698 87.9688 89.0698C86.3112 89.0698 84.9688 87.7273 84.9688 86.0698C84.9688 84.4123 86.3112 83.0698 87.9688 83.0698C89.6263 83.0698 90.9688 84.4123 90.9688 86.0698Z" fill="#42A584"/>
<path fill-rule="evenodd" clip-rule="evenodd" d="M90.9688 86.0698C90.9688 87.7273 89.6263 89.0698 87.9688 89.0698C86.3112 89.0698 84.9688 87.7273 84.9688 86.0698C84.9688 84.4123 86.3112 83.0698 87.9688 83.0698C89.6263 83.0698 90.9688 84.4123 90.9688 86.0698Z" fill="#42A584"/>
<path fill-rule="evenodd" clip-rule="evenodd" d="M105.969 86.0698C105.969 87.7273 104.626 89.0698 102.969 89.0698C101.311 89.0698 99.9688 87.7273 99.9688 86.0698C99.9688 84.4123 101.311 83.0698 102.969 83.0698C104.626 83.0698 105.969 84.4123 105.969 86.0698Z" fill="#42A584"/>
<path fill-rule="evenodd" clip-rule="evenodd" d="M105.969 86.0698C105.969 87.7273 104.626 89.0698 102.969 89.0698C101.311 89.0698 99.9688 87.7273 99.9688 86.0698C99.9688 84.4123 101.311 83.0698 102.969 83.0698C104.626 83.0698 105.969 84.4123 105.969 86.0698Z" fill="#42A584"/>
<path fill-rule="evenodd" clip-rule="evenodd" d="M121.969 86.0698C121.969 87.7273 120.626 89.0698 118.969 89.0698C117.311 89.0698 115.969 87.7273 115.969 86.0698C115.969 84.4123 117.311 83.0698 118.969 83.0698C120.626 83.0698 121.969 84.4123 121.969 86.0698Z" fill="#42A584"/>
<path fill-rule="evenodd" clip-rule="evenodd" d="M121.969 86.0698C121.969 87.7273 120.626 89.0698 118.969 89.0698C117.311 89.0698 115.969 87.7273 115.969 86.0698C115.969 84.4123 117.311 83.0698 118.969 83.0698C120.626 83.0698 121.969 84.4123 121.969 86.0698Z" fill="#42A584"/>
<path fill-rule="evenodd" clip-rule="evenodd" d="M136.969 86.0698C136.969 87.7273 135.626 89.0698 133.969 89.0698C132.311 89.0698 130.969 87.7273 130.969 86.0698C130.969 84.4123 132.311 83.0698 133.969 83.0698C135.626 83.0698 136.969 84.4123 136.969 86.0698Z" fill="#42A584"/>
<path fill-rule="evenodd" clip-rule="evenodd" d="M136.969 86.0698C136.969 87.7273 135.626 89.0698 133.969 89.0698C132.311 89.0698 130.969 87.7273 130.969 86.0698C130.969 84.4123 132.311 83.0698 133.969 83.0698C135.626 83.0698 136.969 84.4123 136.969 86.0698Z" fill="#42A584"/>
<path fill-rule="evenodd" clip-rule="evenodd" d="M152.969 86.0698C152.969 87.7273 151.626 89.0698 149.969 89.0698C148.311 89.0698 146.969 87.7273 146.969 86.0698C146.969 84.4123 148.311 83.0698 149.969 83.0698C151.626 83.0698 152.969 84.4123 152.969 86.0698Z" fill="#42A584"/>
<path fill-rule="evenodd" clip-rule="evenodd" d="M152.969 86.0698C152.969 87.7273 151.626 89.0698 149.969 89.0698C148.311 89.0698 146.969 87.7273 146.969 86.0698C146.969 84.4123 148.311 83.0698 149.969 83.0698C151.626 83.0698 152.969 84.4123 152.969 86.0698Z" fill="#42A584"/>
<path fill-rule="evenodd" clip-rule="evenodd" d="M167.969 86.0698C167.969 87.7273 166.626 89.0698 164.969 89.0698C163.311 89.0698 161.969 87.7273 161.969 86.0698C161.969 84.4123 163.311 83.0698 164.969 83.0698C166.626 83.0698 167.969 84.4123 167.969 86.0698Z" fill="#42A584"/>
<path fill-rule="evenodd" clip-rule="evenodd" d="M167.969 86.0698C167.969 87.7273 166.626 89.0698 164.969 89.0698C163.311 89.0698 161.969 87.7273 161.969 86.0698C161.969 84.4123 163.311 83.0698 164.969 83.0698C166.626 83.0698 167.969 84.4123 167.969 86.0698Z" fill="#42A584"/>
<path fill-rule="evenodd" clip-rule="evenodd" d="M183.969 86.0698C183.969 87.7273 182.626 89.0698 180.969 89.0698C179.311 89.0698 177.969 87.7273 177.969 86.0698C177.969 84.4123 179.311 83.0698 180.969 83.0698C182.626 83.0698 183.969 84.4123 183.969 86.0698Z" fill="#42A584"/>
<path fill-rule="evenodd" clip-rule="evenodd" d="M183.969 86.0698C183.969 87.7273 182.626 89.0698 180.969 89.0698C179.311 89.0698 177.969 87.7273 177.969 86.0698C177.969 84.4123 179.311 83.0698 180.969 83.0698C182.626 83.0698 183.969 84.4123 183.969 86.0698Z" fill="#42A584"/>
<path fill-rule="evenodd" clip-rule="evenodd" d="M198.969 86.0698C198.969 87.7273 197.626 89.0698 195.969 89.0698C194.311 89.0698 192.969 87.7273 192.969 86.0698C192.969 84.4123 194.311 83.0698 195.969 83.0698C197.626 83.0698 198.969 84.4123 198.969 86.0698Z" fill="#42A584"/>
<path fill-rule="evenodd" clip-rule="evenodd" d="M198.969 86.0698C198.969 87.7273 197.626 89.0698 195.969 89.0698C194.311 89.0698 192.969 87.7273 192.969 86.0698C192.969 84.4123 194.311 83.0698 195.969 83.0698C197.626 83.0698 198.969 84.4123 198.969 86.0698Z" fill="#42A584"/>
<path fill-rule="evenodd" clip-rule="evenodd" d="M213.969 86.0698C213.969 87.7273 212.626 89.0698 210.969 89.0698C209.311 89.0698 207.969 87.7273 207.969 86.0698C207.969 84.4123 209.311 83.0698 210.969 83.0698C212.626 83.0698 213.969 84.4123 213.969 86.0698Z" fill="#42A584"/>
<path fill-rule="evenodd" clip-rule="evenodd" d="M213.969 86.0698C213.969 87.7273 212.626 89.0698 210.969 89.0698C209.311 89.0698 207.969 87.7273 207.969 86.0698C207.969 84.4123 209.311 83.0698 210.969 83.0698C212.626 83.0698 213.969 84.4123 213.969 86.0698Z" fill="#42A584"/>
<path fill-rule="evenodd" clip-rule="evenodd" d="M229.969 86.0698C229.969 87.7273 228.626 89.0698 226.969 89.0698C225.311 89.0698 223.969 87.7273 223.969 86.0698C223.969 84.4123 225.311 83.0698 226.969 83.0698C228.626 83.0698 229.969 84.4123 229.969 86.0698Z" fill="#42A584"/>
<path fill-rule="evenodd" clip-rule="evenodd" d="M229.969 86.0698C229.969 87.7273 228.626 89.0698 226.969 89.0698C225.311 89.0698 223.969 87.7273 223.969 86.0698C223.969 84.4123 225.311 83.0698 226.969 83.0698C228.626 83.0698 229.969 84.4123 229.969 86.0698Z" fill="#42A584"/>
<path fill-rule="evenodd" clip-rule="evenodd" d="M59.9688 101.07C59.9688 102.727 58.6263 104.07 56.9688 104.07C55.3112 104.07 53.9688 102.727 53.9688 101.07C53.9688 99.4123 55.3112 98.0698 56.9688 98.0698C58.6263 98.0698 59.9688 99.4123 59.9688 101.07Z" fill="#42A584"/>
<path fill-rule="evenodd" clip-rule="evenodd" d="M59.9688 101.07C59.9688 102.727 58.6263 104.07 56.9688 104.07C55.3112 104.07 53.9688 102.727 53.9688 101.07C53.9688 99.4123 55.3112 98.0698 56.9688 98.0698C58.6263 98.0698 59.9688 99.4123 59.9688 101.07Z" fill="#42A584"/>
<path fill-rule="evenodd" clip-rule="evenodd" d="M75.9688 101.07C75.9688 102.727 74.6263 104.07 72.9688 104.07C71.3112 104.07 69.9688 102.727 69.9688 101.07C69.9688 99.4123 71.3112 98.0698 72.9688 98.0698C74.6263 98.0698 75.9688 99.4123 75.9688 101.07Z" fill="#42A584"/>
<path fill-rule="evenodd" clip-rule="evenodd" d="M75.9688 101.07C75.9688 102.727 74.6263 104.07 72.9688 104.07C71.3112 104.07 69.9688 102.727 69.9688 101.07C69.9688 99.4123 71.3112 98.0698 72.9688 98.0698C74.6263 98.0698 75.9688 99.4123 75.9688 101.07Z" fill="#42A584"/>
<path fill-rule="evenodd" clip-rule="evenodd" d="M90.9688 101.07C90.9688 102.727 89.6263 104.07 87.9688 104.07C86.3112 104.07 84.9688 102.727 84.9688 101.07C84.9688 99.4123 86.3112 98.0698 87.9688 98.0698C89.6263 98.0698 90.9688 99.4123 90.9688 101.07Z" fill="#42A584"/>
<path fill-rule="evenodd" clip-rule="evenodd" d="M90.9688 101.07C90.9688 102.727 89.6263 104.07 87.9688 104.07C86.3112 104.07 84.9688 102.727 84.9688 101.07C84.9688 99.4123 86.3112 98.0698 87.9688 98.0698C89.6263 98.0698 90.9688 99.4123 90.9688 101.07Z" fill="#42A584"/>
<path fill-rule="evenodd" clip-rule="evenodd" d="M105.969 101.07C105.969 102.727 104.626 104.07 102.969 104.07C101.311 104.07 99.9688 102.727 99.9688 101.07C99.9688 99.4123 101.311 98.0698 102.969 98.0698C104.626 98.0698 105.969 99.4123 105.969 101.07Z" fill="#42A584"/>
<path fill-rule="evenodd" clip-rule="evenodd" d="M105.969 101.07C105.969 102.727 104.626 104.07 102.969 104.07C101.311 104.07 99.9688 102.727 99.9688 101.07C99.9688 99.4123 101.311 98.0698 102.969 98.0698C104.626 98.0698 105.969 99.4123 105.969 101.07Z" fill="#42A584"/>
<path fill-rule="evenodd" clip-rule="evenodd" d="M121.969 101.07C121.969 102.727 120.626 104.07 118.969 104.07C117.311 104.07 115.969 102.727 115.969 101.07C115.969 99.4123 117.311 98.0698 118.969 98.0698C120.626 98.0698 121.969 99.4123 121.969 101.07Z" fill="#42A584"/>
<path fill-rule="evenodd" clip-rule="evenodd" d="M121.969 101.07C121.969 102.727 120.626 104.07 118.969 104.07C117.311 104.07 115.969 102.727 115.969 101.07C115.969 99.4123 117.311 98.0698 118.969 98.0698C120.626 98.0698 121.969 99.4123 121.969 101.07Z" fill="#42A584"/>
<path fill-rule="evenodd" clip-rule="evenodd" d="M136.969 101.07C136.969 102.727 135.626 104.07 133.969 104.07C132.311 104.07 130.969 102.727 130.969 101.07C130.969 99.4123 132.311 98.0698 133.969 98.0698C135.626 98.0698 136.969 99.4123 136.969 101.07Z" fill="#42A584"/>
<path fill-rule="evenodd" clip-rule="evenodd" d="M136.969 101.07C136.969 102.727 135.626 104.07 133.969 104.07C132.311 104.07 130.969 102.727 130.969 101.07C130.969 99.4123 132.311 98.0698 133.969 98.0698C135.626 98.0698 136.969 99.4123 136.969 101.07Z" fill="#42A584"/>
<path fill-rule="evenodd" clip-rule="evenodd" d="M152.969 101.07C152.969 102.727 151.626 104.07 149.969 104.07C148.311 104.07 146.969 102.727 146.969 101.07C146.969 99.4123 148.311 98.0698 149.969 98.0698C151.626 98.0698 152.969 99.4123 152.969 101.07Z" fill="#42A584"/>
<path fill-rule="evenodd" clip-rule="evenodd" d="M152.969 101.07C152.969 102.727 151.626 104.07 149.969 104.07C148.311 104.07 146.969 102.727 146.969 101.07C146.969 99.4123 148.311 98.0698 149.969 98.0698C151.626 98.0698 152.969 99.4123 152.969 101.07Z" fill="#42A584"/>
<path fill-rule="evenodd" clip-rule="evenodd" d="M167.969 101.07C167.969 102.727 166.626 104.07 164.969 104.07C163.311 104.07 161.969 102.727 161.969 101.07C161.969 99.4123 163.311 98.0698 164.969 98.0698C166.626 98.0698 167.969 99.4123 167.969 101.07Z" fill="#42A584"/>
<path fill-rule="evenodd" clip-rule="evenodd" d="M167.969 101.07C167.969 102.727 166.626 104.07 164.969 104.07C163.311 104.07 161.969 102.727 161.969 101.07C161.969 99.4123 163.311 98.0698 164.969 98.0698C166.626 98.0698 167.969 99.4123 167.969 101.07Z" fill="#42A584"/>
<path fill-rule="evenodd" clip-rule="evenodd" d="M183.969 101.07C183.969 102.727 182.626 104.07 180.969 104.07C179.311 104.07 177.969 102.727 177.969 101.07C177.969 99.4123 179.311 98.0698 180.969 98.0698C182.626 98.0698 183.969 99.4123 183.969 101.07Z" fill="#42A584"/>
<path fill-rule="evenodd" clip-rule="evenodd" d="M183.969 101.07C183.969 102.727 182.626 104.07 180.969 104.07C179.311 104.07 177.969 102.727 177.969 101.07C177.969 99.4123 179.311 98.0698 180.969 98.0698C182.626 98.0698 183.969 99.4123 183.969 101.07Z" fill="#42A584"/>
<path fill-rule="evenodd" clip-rule="evenodd" d="M198.969 101.07C198.969 102.727 197.626 104.07 195.969 104.07C194.311 104.07 192.969 102.727 192.969 101.07C192.969 99.4123 194.311 98.0698 195.969 98.0698C197.626 98.0698 198.969 99.4123 198.969 101.07Z" fill="#42A584"/>
<path fill-rule="evenodd" clip-rule="evenodd" d="M198.969 101.07C198.969 102.727 197.626 104.07 195.969 104.07C194.311 104.07 192.969 102.727 192.969 101.07C192.969 99.4123 194.311 98.0698 195.969 98.0698C197.626 98.0698 198.969 99.4123 198.969 101.07Z" fill="#42A584"/>
<path fill-rule="evenodd" clip-rule="evenodd" d="M213.969 101.07C213.969 102.727 212.626 104.07 210.969 104.07C209.311 104.07 207.969 102.727 207.969 101.07C207.969 99.4123 209.311 98.0698 210.969 98.0698C212.626 98.0698 213.969 99.4123 213.969 101.07Z" fill="#42A584"/>
<path fill-rule="evenodd" clip-rule="evenodd" d="M213.969 101.07C213.969 102.727 212.626 104.07 210.969 104.07C209.311 104.07 207.969 102.727 207.969 101.07C207.969 99.4123 209.311 98.0698 210.969 98.0698C212.626 98.0698 213.969 99.4123 213.969 101.07Z" fill="#42A584"/>
<path fill-rule="evenodd" clip-rule="evenodd" d="M229.969 101.07C229.969 102.727 228.626 104.07 226.969 104.07C225.311 104.07 223.969 102.727 223.969 101.07C223.969 99.4123 225.311 98.0698 226.969 98.0698C228.626 98.0698 229.969 99.4123 229.969 101.07Z" fill="#42A584"/>
<path fill-rule="evenodd" clip-rule="evenodd" d="M229.969 101.07C229.969 102.727 228.626 104.07 226.969 104.07C225.311 104.07 223.969 102.727 223.969 101.07C223.969 99.4123 225.311 98.0698 226.969 98.0698C228.626 98.0698 229.969 99.4123 229.969 101.07Z" fill="#42A584"/>
<path fill-rule="evenodd" clip-rule="evenodd" d="M59.9688 117.07C59.9688 118.727 58.6263 120.07 56.9688 120.07C55.3112 120.07 53.9688 118.727 53.9688 117.07C53.9688 115.412 55.3112 114.07 56.9688 114.07C58.6263 114.07 59.9688 115.412 59.9688 117.07Z" fill="#42A584"/>
<path fill-rule="evenodd" clip-rule="evenodd" d="M59.9688 117.07C59.9688 118.727 58.6263 120.07 56.9688 120.07C55.3112 120.07 53.9688 118.727 53.9688 117.07C53.9688 115.412 55.3112 114.07 56.9688 114.07C58.6263 114.07 59.9688 115.412 59.9688 117.07Z" fill="#42A584"/>
<path fill-rule="evenodd" clip-rule="evenodd" d="M75.9688 117.07C75.9688 118.727 74.6263 120.07 72.9688 120.07C71.3112 120.07 69.9688 118.727 69.9688 117.07C69.9688 115.412 71.3112 114.07 72.9688 114.07C74.6263 114.07 75.9688 115.412 75.9688 117.07Z" fill="#42A584"/>
<path fill-rule="evenodd" clip-rule="evenodd" d="M75.9688 117.07C75.9688 118.727 74.6263 120.07 72.9688 120.07C71.3112 120.07 69.9688 118.727 69.9688 117.07C69.9688 115.412 71.3112 114.07 72.9688 114.07C74.6263 114.07 75.9688 115.412 75.9688 117.07Z" fill="#42A584"/>
<path fill-rule="evenodd" clip-rule="evenodd" d="M90.9688 117.07C90.9688 118.727 89.6263 120.07 87.9688 120.07C86.3112 120.07 84.9688 118.727 84.9688 117.07C84.9688 115.412 86.3112 114.07 87.9688 114.07C89.6263 114.07 90.9688 115.412 90.9688 117.07Z" fill="#42A584"/>
<path fill-rule="evenodd" clip-rule="evenodd" d="M90.9688 117.07C90.9688 118.727 89.6263 120.07 87.9688 120.07C86.3112 120.07 84.9688 118.727 84.9688 117.07C84.9688 115.412 86.3112 114.07 87.9688 114.07C89.6263 114.07 90.9688 115.412 90.9688 117.07Z" fill="#42A584"/>
<path fill-rule="evenodd" clip-rule="evenodd" d="M105.969 117.07C105.969 118.727 104.626 120.07 102.969 120.07C101.311 120.07 99.9688 118.727 99.9688 117.07C99.9688 115.412 101.311 114.07 102.969 114.07C104.626 114.07 105.969 115.412 105.969 117.07Z" fill="#42A584"/>
<path fill-rule="evenodd" clip-rule="evenodd" d="M105.969 117.07C105.969 118.727 104.626 120.07 102.969 120.07C101.311 120.07 99.9688 118.727 99.9688 117.07C99.9688 115.412 101.311 114.07 102.969 114.07C104.626 114.07 105.969 115.412 105.969 117.07Z" fill="#42A584"/>
<path fill-rule="evenodd" clip-rule="evenodd" d="M121.969 117.07C121.969 118.727 120.626 120.07 118.969 120.07C117.311 120.07 115.969 118.727 115.969 117.07C115.969 115.412 117.311 114.07 118.969 114.07C120.626 114.07 121.969 115.412 121.969 117.07Z" fill="#42A584"/>
<path fill-rule="evenodd" clip-rule="evenodd" d="M121.969 117.07C121.969 118.727 120.626 120.07 118.969 120.07C117.311 120.07 115.969 118.727 115.969 117.07C115.969 115.412 117.311 114.07 118.969 114.07C120.626 114.07 121.969 115.412 121.969 117.07Z" fill="#42A584"/>
<path fill-rule="evenodd" clip-rule="evenodd" d="M136.969 117.07C136.969 118.727 135.626 120.07 133.969 120.07C132.311 120.07 130.969 118.727 130.969 117.07C130.969 115.412 132.311 114.07 133.969 114.07C135.626 114.07 136.969 115.412 136.969 117.07Z" fill="#42A584"/>
<path fill-rule="evenodd" clip-rule="evenodd" d="M136.969 117.07C136.969 118.727 135.626 120.07 133.969 120.07C132.311 120.07 130.969 118.727 130.969 117.07C130.969 115.412 132.311 114.07 133.969 114.07C135.626 114.07 136.969 115.412 136.969 117.07Z" fill="#42A584"/>
<path fill-rule="evenodd" clip-rule="evenodd" d="M152.969 117.07C152.969 118.727 151.626 120.07 149.969 120.07C148.311 120.07 146.969 118.727 146.969 117.07C146.969 115.412 148.311 114.07 149.969 114.07C151.626 114.07 152.969 115.412 152.969 117.07Z" fill="#42A584"/>
<path fill-rule="evenodd" clip-rule="evenodd" d="M152.969 117.07C152.969 118.727 151.626 120.07 149.969 120.07C148.311 120.07 146.969 118.727 146.969 117.07C146.969 115.412 148.311 114.07 149.969 114.07C151.626 114.07 152.969 115.412 152.969 117.07Z" fill="#42A584"/>
<path fill-rule="evenodd" clip-rule="evenodd" d="M167.969 117.07C167.969 118.727 166.626 120.07 164.969 120.07C163.311 120.07 161.969 118.727 161.969 117.07C161.969 115.412 163.311 114.07 164.969 114.07C166.626 114.07 167.969 115.412 167.969 117.07Z" fill="#42A584"/>
<path fill-rule="evenodd" clip-rule="evenodd" d="M167.969 117.07C167.969 118.727 166.626 120.07 164.969 120.07C163.311 120.07 161.969 118.727 161.969 117.07C161.969 115.412 163.311 114.07 164.969 114.07C166.626 114.07 167.969 115.412 167.969 117.07Z" fill="#42A584"/>
<path fill-rule="evenodd" clip-rule="evenodd" d="M183.969 117.07C183.969 118.727 182.626 120.07 180.969 120.07C179.311 120.07 177.969 118.727 177.969 117.07C177.969 115.412 179.311 114.07 180.969 114.07C182.626 114.07 183.969 115.412 183.969 117.07Z" fill="#42A584"/>
<path fill-rule="evenodd" clip-rule="evenodd" d="M183.969 117.07C183.969 118.727 182.626 120.07 180.969 120.07C179.311 120.07 177.969 118.727 177.969 117.07C177.969 115.412 179.311 114.07 180.969 114.07C182.626 114.07 183.969 115.412 183.969 117.07Z" fill="#42A584"/>
<path fill-rule="evenodd" clip-rule="evenodd" d="M198.969 117.07C198.969 118.727 197.626 120.07 195.969 120.07C194.311 120.07 192.969 118.727 192.969 117.07C192.969 115.412 194.311 114.07 195.969 114.07C197.626 114.07 198.969 115.412 198.969 117.07Z" fill="#42A584"/>
<path fill-rule="evenodd" clip-rule="evenodd" d="M198.969 117.07C198.969 118.727 197.626 120.07 195.969 120.07C194.311 120.07 192.969 118.727 192.969 117.07C192.969 115.412 194.311 114.07 195.969 114.07C197.626 114.07 198.969 115.412 198.969 117.07Z" fill="#42A584"/>
<path fill-rule="evenodd" clip-rule="evenodd" d="M213.969 117.07C213.969 118.727 212.626 120.07 210.969 120.07C209.311 120.07 207.969 118.727 207.969 117.07C207.969 115.412 209.311 114.07 210.969 114.07C212.626 114.07 213.969 115.412 213.969 117.07Z" fill="#42A584"/>
<path fill-rule="evenodd" clip-rule="evenodd" d="M213.969 117.07C213.969 118.727 212.626 120.07 210.969 120.07C209.311 120.07 207.969 118.727 207.969 117.07C207.969 115.412 209.311 114.07 210.969 114.07C212.626 114.07 213.969 115.412 213.969 117.07Z" fill="#42A584"/>
<path fill-rule="evenodd" clip-rule="evenodd" d="M229.969 117.07C229.969 118.727 228.626 120.07 226.969 120.07C225.311 120.07 223.969 118.727 223.969 117.07C223.969 115.412 225.311 114.07 226.969 114.07C228.626 114.07 229.969 115.412 229.969 117.07Z" fill="#42A584"/>
<path fill-rule="evenodd" clip-rule="evenodd" d="M229.969 117.07C229.969 118.727 228.626 120.07 226.969 120.07C225.311 120.07 223.969 118.727 223.969 117.07C223.969 115.412 225.311 114.07 226.969 114.07C228.626 114.07 229.969 115.412 229.969 117.07Z" fill="#42A584"/>
<path fill-rule="evenodd" clip-rule="evenodd" d="M59.9688 132.07C59.9688 133.727 58.6263 135.07 56.9688 135.07C55.3112 135.07 53.9688 133.727 53.9688 132.07C53.9688 130.412 55.3112 129.07 56.9688 129.07C58.6263 129.07 59.9688 130.412 59.9688 132.07Z" fill="#42A584"/>
<path fill-rule="evenodd" clip-rule="evenodd" d="M59.9688 132.07C59.9688 133.727 58.6263 135.07 56.9688 135.07C55.3112 135.07 53.9688 133.727 53.9688 132.07C53.9688 130.412 55.3112 129.07 56.9688 129.07C58.6263 129.07 59.9688 130.412 59.9688 132.07Z" fill="#42A584"/>
<path fill-rule="evenodd" clip-rule="evenodd" d="M75.9688 132.07C75.9688 133.727 74.6263 135.07 72.9688 135.07C71.3112 135.07 69.9688 133.727 69.9688 132.07C69.9688 130.412 71.3112 129.07 72.9688 129.07C74.6263 129.07 75.9688 130.412 75.9688 132.07Z" fill="#42A584"/>
<path fill-rule="evenodd" clip-rule="evenodd" d="M75.9688 132.07C75.9688 133.727 74.6263 135.07 72.9688 135.07C71.3112 135.07 69.9688 133.727 69.9688 132.07C69.9688 130.412 71.3112 129.07 72.9688 129.07C74.6263 129.07 75.9688 130.412 75.9688 132.07Z" fill="#42A584"/>
<path fill-rule="evenodd" clip-rule="evenodd" d="M90.9688 132.07C90.9688 133.727 89.6263 135.07 87.9688 135.07C86.3112 135.07 84.9688 133.727 84.9688 132.07C84.9688 130.412 86.3112 129.07 87.9688 129.07C89.6263 129.07 90.9688 130.412 90.9688 132.07Z" fill="#42A584"/>
<path fill-rule="evenodd" clip-rule="evenodd" d="M90.9688 132.07C90.9688 133.727 89.6263 135.07 87.9688 135.07C86.3112 135.07 84.9688 133.727 84.9688 132.07C84.9688 130.412 86.3112 129.07 87.9688 129.07C89.6263 129.07 90.9688 130.412 90.9688 132.07Z" fill="#42A584"/>
<path fill-rule="evenodd" clip-rule="evenodd" d="M105.969 132.07C105.969 133.727 104.626 135.07 102.969 135.07C101.311 135.07 99.9688 133.727 99.9688 132.07C99.9688 130.412 101.311 129.07 102.969 129.07C104.626 129.07 105.969 130.412 105.969 132.07Z" fill="#42A584"/>
<path fill-rule="evenodd" clip-rule="evenodd" d="M105.969 132.07C105.969 133.727 104.626 135.07 102.969 135.07C101.311 135.07 99.9688 133.727 99.9688 132.07C99.9688 130.412 101.311 129.07 102.969 129.07C104.626 129.07 105.969 130.412 105.969 132.07Z" fill="#42A584"/>
<path fill-rule="evenodd" clip-rule="evenodd" d="M121.969 132.07C121.969 133.727 120.626 135.07 118.969 135.07C117.311 135.07 115.969 133.727 115.969 132.07C115.969 130.412 117.311 129.07 118.969 129.07C120.626 129.07 121.969 130.412 121.969 132.07Z" fill="#42A584"/>
<path fill-rule="evenodd" clip-rule="evenodd" d="M121.969 132.07C121.969 133.727 120.626 135.07 118.969 135.07C117.311 135.07 115.969 133.727 115.969 132.07C115.969 130.412 117.311 129.07 118.969 129.07C120.626 129.07 121.969 130.412 121.969 132.07Z" fill="#42A584"/>
<path fill-rule="evenodd" clip-rule="evenodd" d="M136.969 132.07C136.969 133.727 135.626 135.07 133.969 135.07C132.311 135.07 130.969 133.727 130.969 132.07C130.969 130.412 132.311 129.07 133.969 129.07C135.626 129.07 136.969 130.412 136.969 132.07Z" fill="#42A584"/>
<path fill-rule="evenodd" clip-rule="evenodd" d="M136.969 132.07C136.969 133.727 135.626 135.07 133.969 135.07C132.311 135.07 130.969 133.727 130.969 132.07C130.969 130.412 132.311 129.07 133.969 129.07C135.626 129.07 136.969 130.412 136.969 132.07Z" fill="#42A584"/>
<path fill-rule="evenodd" clip-rule="evenodd" d="M152.969 132.07C152.969 133.727 151.626 135.07 149.969 135.07C148.311 135.07 146.969 133.727 146.969 132.07C146.969 130.412 148.311 129.07 149.969 129.07C151.626 129.07 152.969 130.412 152.969 132.07Z" fill="#42A584"/>
<path fill-rule="evenodd" clip-rule="evenodd" d="M152.969 132.07C152.969 133.727 151.626 135.07 149.969 135.07C148.311 135.07 146.969 133.727 146.969 132.07C146.969 130.412 148.311 129.07 149.969 129.07C151.626 129.07 152.969 130.412 152.969 132.07Z" fill="#42A584"/>
<path fill-rule="evenodd" clip-rule="evenodd" d="M167.969 132.07C167.969 133.727 166.626 135.07 164.969 135.07C163.311 135.07 161.969 133.727 161.969 132.07C161.969 130.412 163.311 129.07 164.969 129.07C166.626 129.07 167.969 130.412 167.969 132.07Z" fill="#42A584"/>
<path fill-rule="evenodd" clip-rule="evenodd" d="M167.969 132.07C167.969 133.727 166.626 135.07 164.969 135.07C163.311 135.07 161.969 133.727 161.969 132.07C161.969 130.412 163.311 129.07 164.969 129.07C166.626 129.07 167.969 130.412 167.969 132.07Z" fill="#42A584"/>
<path fill-rule="evenodd" clip-rule="evenodd" d="M183.969 132.07C183.969 133.727 182.626 135.07 180.969 135.07C179.311 135.07 177.969 133.727 177.969 132.07C177.969 130.412 179.311 129.07 180.969 129.07C182.626 129.07 183.969 130.412 183.969 132.07Z" fill="#42A584"/>
<path fill-rule="evenodd" clip-rule="evenodd" d="M183.969 132.07C183.969 133.727 182.626 135.07 180.969 135.07C179.311 135.07 177.969 133.727 177.969 132.07C177.969 130.412 179.311 129.07 180.969 129.07C182.626 129.07 183.969 130.412 183.969 132.07Z" fill="#42A584"/>
<path fill-rule="evenodd" clip-rule="evenodd" d="M198.969 132.07C198.969 133.727 197.626 135.07 195.969 135.07C194.311 135.07 192.969 133.727 192.969 132.07C192.969 130.412 194.311 129.07 195.969 129.07C197.626 129.07 198.969 130.412 198.969 132.07Z" fill="#42A584"/>
<path fill-rule="evenodd" clip-rule="evenodd" d="M198.969 132.07C198.969 133.727 197.626 135.07 195.969 135.07C194.311 135.07 192.969 133.727 192.969 132.07C192.969 130.412 194.311 129.07 195.969 129.07C197.626 129.07 198.969 130.412 198.969 132.07Z" fill="#42A584"/>
<path fill-rule="evenodd" clip-rule="evenodd" d="M213.969 132.07C213.969 133.727 212.626 135.07 210.969 135.07C209.311 135.07 207.969 133.727 207.969 132.07C207.969 130.412 209.311 129.07 210.969 129.07C212.626 129.07 213.969 130.412 213.969 132.07Z" fill="#42A584"/>
<path fill-rule="evenodd" clip-rule="evenodd" d="M213.969 132.07C213.969 133.727 212.626 135.07 210.969 135.07C209.311 135.07 207.969 133.727 207.969 132.07C207.969 130.412 209.311 129.07 210.969 129.07C212.626 129.07 213.969 130.412 213.969 132.07Z" fill="#42A584"/>
<path fill-rule="evenodd" clip-rule="evenodd" d="M229.969 132.07C229.969 133.727 228.626 135.07 226.969 135.07C225.311 135.07 223.969 133.727 223.969 132.07C223.969 130.412 225.311 129.07 226.969 129.07C228.626 129.07 229.969 130.412 229.969 132.07Z" fill="#42A584"/>
<path fill-rule="evenodd" clip-rule="evenodd" d="M229.969 132.07C229.969 133.727 228.626 135.07 226.969 135.07C225.311 135.07 223.969 133.727 223.969 132.07C223.969 130.412 225.311 129.07 226.969 129.07C228.626 129.07 229.969 130.412 229.969 132.07Z" fill="#42A584"/>
<path fill-rule="evenodd" clip-rule="evenodd" d="M59.9688 147.07C59.9688 148.727 58.6263 150.07 56.9688 150.07C55.3112 150.07 53.9688 148.727 53.9688 147.07C53.9688 145.412 55.3112 144.07 56.9688 144.07C58.6263 144.07 59.9688 145.412 59.9688 147.07Z" fill="#42A584"/>
<path fill-rule="evenodd" clip-rule="evenodd" d="M59.9688 147.07C59.9688 148.727 58.6263 150.07 56.9688 150.07C55.3112 150.07 53.9688 148.727 53.9688 147.07C53.9688 145.412 55.3112 144.07 56.9688 144.07C58.6263 144.07 59.9688 145.412 59.9688 147.07Z" fill="#42A584"/>
<path fill-rule="evenodd" clip-rule="evenodd" d="M75.9688 147.07C75.9688 148.727 74.6263 150.07 72.9688 150.07C71.3112 150.07 69.9688 148.727 69.9688 147.07C69.9688 145.412 71.3112 144.07 72.9688 144.07C74.6263 144.07 75.9688 145.412 75.9688 147.07Z" fill="#42A584"/>
<path fill-rule="evenodd" clip-rule="evenodd" d="M75.9688 147.07C75.9688 148.727 74.6263 150.07 72.9688 150.07C71.3112 150.07 69.9688 148.727 69.9688 147.07C69.9688 145.412 71.3112 144.07 72.9688 144.07C74.6263 144.07 75.9688 145.412 75.9688 147.07Z" fill="#42A584"/>
<path fill-rule="evenodd" clip-rule="evenodd" d="M90.9688 147.07C90.9688 148.727 89.6263 150.07 87.9688 150.07C86.3112 150.07 84.9688 148.727 84.9688 147.07C84.9688 145.412 86.3112 144.07 87.9688 144.07C89.6263 144.07 90.9688 145.412 90.9688 147.07Z" fill="#42A584"/>
<path fill-rule="evenodd" clip-rule="evenodd" d="M90.9688 147.07C90.9688 148.727 89.6263 150.07 87.9688 150.07C86.3112 150.07 84.9688 148.727 84.9688 147.07C84.9688 145.412 86.3112 144.07 87.9688 144.07C89.6263 144.07 90.9688 145.412 90.9688 147.07Z" fill="#42A584"/>
<path fill-rule="evenodd" clip-rule="evenodd" d="M105.969 147.07C105.969 148.727 104.626 150.07 102.969 150.07C101.311 150.07 99.9688 148.727 99.9688 147.07C99.9688 145.412 101.311 144.07 102.969 144.07C104.626 144.07 105.969 145.412 105.969 147.07Z" fill="#42A584"/>
<path fill-rule="evenodd" clip-rule="evenodd" d="M105.969 147.07C105.969 148.727 104.626 150.07 102.969 150.07C101.311 150.07 99.9688 148.727 99.9688 147.07C99.9688 145.412 101.311 144.07 102.969 144.07C104.626 144.07 105.969 145.412 105.969 147.07Z" fill="#42A584"/>
<path fill-rule="evenodd" clip-rule="evenodd" d="M121.969 147.07C121.969 148.727 120.626 150.07 118.969 150.07C117.311 150.07 115.969 148.727 115.969 147.07C115.969 145.412 117.311 144.07 118.969 144.07C120.626 144.07 121.969 145.412 121.969 147.07Z" fill="#42A584"/>
<path fill-rule="evenodd" clip-rule="evenodd" d="M121.969 147.07C121.969 148.727 120.626 150.07 118.969 150.07C117.311 150.07 115.969 148.727 115.969 147.07C115.969 145.412 117.311 144.07 118.969 144.07C120.626 144.07 121.969 145.412 121.969 147.07Z" fill="#42A584"/>
<path fill-rule="evenodd" clip-rule="evenodd" d="M136.969 147.07C136.969 148.727 135.626 150.07 133.969 150.07C132.311 150.07 130.969 148.727 130.969 147.07C130.969 145.412 132.311 144.07 133.969 144.07C135.626 144.07 136.969 145.412 136.969 147.07Z" fill="#42A584"/>
<path fill-rule="evenodd" clip-rule="evenodd" d="M136.969 147.07C136.969 148.727 135.626 150.07 133.969 150.07C132.311 150.07 130.969 148.727 130.969 147.07C130.969 145.412 132.311 144.07 133.969 144.07C135.626 144.07 136.969 145.412 136.969 147.07Z" fill="#42A584"/>
<path fill-rule="evenodd" clip-rule="evenodd" d="M152.969 147.07C152.969 148.727 151.626 150.07 149.969 150.07C148.311 150.07 146.969 148.727 146.969 147.07C146.969 145.412 148.311 144.07 149.969 144.07C151.626 144.07 152.969 145.412 152.969 147.07Z" fill="#42A584"/>
<path fill-rule="evenodd" clip-rule="evenodd" d="M152.969 147.07C152.969 148.727 151.626 150.07 149.969 150.07C148.311 150.07 146.969 148.727 146.969 147.07C146.969 145.412 148.311 144.07 149.969 144.07C151.626 144.07 152.969 145.412 152.969 147.07Z" fill="#42A584"/>
<path fill-rule="evenodd" clip-rule="evenodd" d="M167.969 147.07C167.969 148.727 166.626 150.07 164.969 150.07C163.311 150.07 161.969 148.727 161.969 147.07C161.969 145.412 163.311 144.07 164.969 144.07C166.626 144.07 167.969 145.412 167.969 147.07Z" fill="#42A584"/>
<path fill-rule="evenodd" clip-rule="evenodd" d="M167.969 147.07C167.969 148.727 166.626 150.07 164.969 150.07C163.311 150.07 161.969 148.727 161.969 147.07C161.969 145.412 163.311 144.07 164.969 144.07C166.626 144.07 167.969 145.412 167.969 147.07Z" fill="#42A584"/>
<path fill-rule="evenodd" clip-rule="evenodd" d="M183.969 147.07C183.969 148.727 182.626 150.07 180.969 150.07C179.311 150.07 177.969 148.727 177.969 147.07C177.969 145.412 179.311 144.07 180.969 144.07C182.626 144.07 183.969 145.412 183.969 147.07Z" fill="#42A584"/>
<path fill-rule="evenodd" clip-rule="evenodd" d="M183.969 147.07C183.969 148.727 182.626 150.07 180.969 150.07C179.311 150.07 177.969 148.727 177.969 147.07C177.969 145.412 179.311 144.07 180.969 144.07C182.626 144.07 183.969 145.412 183.969 147.07Z" fill="#42A584"/>
<path fill-rule="evenodd" clip-rule="evenodd" d="M198.969 147.07C198.969 148.727 197.626 150.07 195.969 150.07C194.311 150.07 192.969 148.727 192.969 147.07C192.969 145.412 194.311 144.07 195.969 144.07C197.626 144.07 198.969 145.412 198.969 147.07Z" fill="#42A584"/>
<path fill-rule="evenodd" clip-rule="evenodd" d="M198.969 147.07C198.969 148.727 197.626 150.07 195.969 150.07C194.311 150.07 192.969 148.727 192.969 147.07C192.969 145.412 194.311 144.07 195.969 144.07C197.626 144.07 198.969 145.412 198.969 147.07Z" fill="#42A584"/>
<path fill-rule="evenodd" clip-rule="evenodd" d="M213.969 147.07C213.969 148.727 212.626 150.07 210.969 150.07C209.311 150.07 207.969 148.727 207.969 147.07C207.969 145.412 209.311 144.07 210.969 144.07C212.626 144.07 213.969 145.412 213.969 147.07Z" fill="#42A584"/>
<path fill-rule="evenodd" clip-rule="evenodd" d="M213.969 147.07C213.969 148.727 212.626 150.07 210.969 150.07C209.311 150.07 207.969 148.727 207.969 147.07C207.969 145.412 209.311 144.07 210.969 144.07C212.626 144.07 213.969 145.412 213.969 147.07Z" fill="#42A584"/>
<path fill-rule="evenodd" clip-rule="evenodd" d="M229.969 147.07C229.969 148.727 228.626 150.07 226.969 150.07C225.311 150.07 223.969 148.727 223.969 147.07C223.969 145.412 225.311 144.07 226.969 144.07C228.626 144.07 229.969 145.412 229.969 147.07Z" fill="#42A584"/>
<path fill-rule="evenodd" clip-rule="evenodd" d="M229.969 147.07C229.969 148.727 228.626 150.07 226.969 150.07C225.311 150.07 223.969 148.727 223.969 147.07C223.969 145.412 225.311 144.07 226.969 144.07C228.626 144.07 229.969 145.412 229.969 147.07Z" fill="#42A584"/>
<path fill-rule="evenodd" clip-rule="evenodd" d="M59.9688 163.07C59.9688 164.727 58.6263 166.07 56.9688 166.07C55.3112 166.07 53.9688 164.727 53.9688 163.07C53.9688 161.412 55.3112 160.07 56.9688 160.07C58.6263 160.07 59.9688 161.412 59.9688 163.07Z" fill="#42A584"/>
<path fill-rule="evenodd" clip-rule="evenodd" d="M59.9688 163.07C59.9688 164.727 58.6263 166.07 56.9688 166.07C55.3112 166.07 53.9688 164.727 53.9688 163.07C53.9688 161.412 55.3112 160.07 56.9688 160.07C58.6263 160.07 59.9688 161.412 59.9688 163.07Z" fill="#42A584"/>
<path fill-rule="evenodd" clip-rule="evenodd" d="M75.9688 163.07C75.9688 164.727 74.6263 166.07 72.9688 166.07C71.3112 166.07 69.9688 164.727 69.9688 163.07C69.9688 161.412 71.3112 160.07 72.9688 160.07C74.6263 160.07 75.9688 161.412 75.9688 163.07Z" fill="#42A584"/>
<path fill-rule="evenodd" clip-rule="evenodd" d="M75.9688 163.07C75.9688 164.727 74.6263 166.07 72.9688 166.07C71.3112 166.07 69.9688 164.727 69.9688 163.07C69.9688 161.412 71.3112 160.07 72.9688 160.07C74.6263 160.07 75.9688 161.412 75.9688 163.07Z" fill="#42A584"/>
<path fill-rule="evenodd" clip-rule="evenodd" d="M90.9688 163.07C90.9688 164.727 89.6263 166.07 87.9688 166.07C86.3112 166.07 84.9688 164.727 84.9688 163.07C84.9688 161.412 86.3112 160.07 87.9688 160.07C89.6263 160.07 90.9688 161.412 90.9688 163.07Z" fill="#42A584"/>
<path fill-rule="evenodd" clip-rule="evenodd" d="M90.9688 163.07C90.9688 164.727 89.6263 166.07 87.9688 166.07C86.3112 166.07 84.9688 164.727 84.9688 163.07C84.9688 161.412 86.3112 160.07 87.9688 160.07C89.6263 160.07 90.9688 161.412 90.9688 163.07Z" fill="#42A584"/>
<path fill-rule="evenodd" clip-rule="evenodd" d="M105.969 163.07C105.969 164.727 104.626 166.07 102.969 166.07C101.311 166.07 99.9688 164.727 99.9688 163.07C99.9688 161.412 101.311 160.07 102.969 160.07C104.626 160.07 105.969 161.412 105.969 163.07Z" fill="#42A584"/>
<path fill-rule="evenodd" clip-rule="evenodd" d="M105.969 163.07C105.969 164.727 104.626 166.07 102.969 166.07C101.311 166.07 99.9688 164.727 99.9688 163.07C99.9688 161.412 101.311 160.07 102.969 160.07C104.626 160.07 105.969 161.412 105.969 163.07Z" fill="#42A584"/>
<path fill-rule="evenodd" clip-rule="evenodd" d="M121.969 163.07C121.969 164.727 120.626 166.07 118.969 166.07C117.311 166.07 115.969 164.727 115.969 163.07C115.969 161.412 117.311 160.07 118.969 160.07C120.626 160.07 121.969 161.412 121.969 163.07Z" fill="#42A584"/>
<path fill-rule="evenodd" clip-rule="evenodd" d="M121.969 163.07C121.969 164.727 120.626 166.07 118.969 166.07C117.311 166.07 115.969 164.727 115.969 163.07C115.969 161.412 117.311 160.07 118.969 160.07C120.626 160.07 121.969 161.412 121.969 163.07Z" fill="#42A584"/>
<path fill-rule="evenodd" clip-rule="evenodd" d="M136.969 163.07C136.969 164.727 135.626 166.07 133.969 166.07C132.311 166.07 130.969 164.727 130.969 163.07C130.969 161.412 132.311 160.07 133.969 160.07C135.626 160.07 136.969 161.412 136.969 163.07Z" fill="#42A584"/>
<path fill-rule="evenodd" clip-rule="evenodd" d="M136.969 163.07C136.969 164.727 135.626 166.07 133.969 166.07C132.311 166.07 130.969 164.727 130.969 163.07C130.969 161.412 132.311 160.07 133.969 160.07C135.626 160.07 136.969 161.412 136.969 163.07Z" fill="#42A584"/>
<path fill-rule="evenodd" clip-rule="evenodd" d="M152.969 163.07C152.969 164.727 151.626 166.07 149.969 166.07C148.311 166.07 146.969 164.727 146.969 163.07C146.969 161.412 148.311 160.07 149.969 160.07C151.626 160.07 152.969 161.412 152.969 163.07Z" fill="#42A584"/>
<path fill-rule="evenodd" clip-rule="evenodd" d="M152.969 163.07C152.969 164.727 151.626 166.07 149.969 166.07C148.311 166.07 146.969 164.727 146.969 163.07C146.969 161.412 148.311 160.07 149.969 160.07C151.626 160.07 152.969 161.412 152.969 163.07Z" fill="#42A584"/>
<path fill-rule="evenodd" clip-rule="evenodd" d="M167.969 163.07C167.969 164.727 166.626 166.07 164.969 166.07C163.311 166.07 161.969 164.727 161.969 163.07C161.969 161.412 163.311 160.07 164.969 160.07C166.626 160.07 167.969 161.412 167.969 163.07Z" fill="#42A584"/>
<path fill-rule="evenodd" clip-rule="evenodd" d="M167.969 163.07C167.969 164.727 166.626 166.07 164.969 166.07C163.311 166.07 161.969 164.727 161.969 163.07C161.969 161.412 163.311 160.07 164.969 160.07C166.626 160.07 167.969 161.412 167.969 163.07Z" fill="#42A584"/>
<path fill-rule="evenodd" clip-rule="evenodd" d="M183.969 163.07C183.969 164.727 182.626 166.07 180.969 166.07C179.311 166.07 177.969 164.727 177.969 163.07C177.969 161.412 179.311 160.07 180.969 160.07C182.626 160.07 183.969 161.412 183.969 163.07Z" fill="#42A584"/>
<path fill-rule="evenodd" clip-rule="evenodd" d="M183.969 163.07C183.969 164.727 182.626 166.07 180.969 166.07C179.311 166.07 177.969 164.727 177.969 163.07C177.969 161.412 179.311 160.07 180.969 160.07C182.626 160.07 183.969 161.412 183.969 163.07Z" fill="#42A584"/>
<path fill-rule="evenodd" clip-rule="evenodd" d="M198.969 163.07C198.969 164.727 197.626 166.07 195.969 166.07C194.311 166.07 192.969 164.727 192.969 163.07C192.969 161.412 194.311 160.07 195.969 160.07C197.626 160.07 198.969 161.412 198.969 163.07Z" fill="#42A584"/>
<path fill-rule="evenodd" clip-rule="evenodd" d="M198.969 163.07C198.969 164.727 197.626 166.07 195.969 166.07C194.311 166.07 192.969 164.727 192.969 163.07C192.969 161.412 194.311 160.07 195.969 160.07C197.626 160.07 198.969 161.412 198.969 163.07Z" fill="#42A584"/>
<path fill-rule="evenodd" clip-rule="evenodd" d="M213.969 163.07C213.969 164.727 212.626 166.07 210.969 166.07C209.311 166.07 207.969 164.727 207.969 163.07C207.969 161.412 209.311 160.07 210.969 160.07C212.626 160.07 213.969 161.412 213.969 163.07Z" fill="#42A584"/>
<path fill-rule="evenodd" clip-rule="evenodd" d="M213.969 163.07C213.969 164.727 212.626 166.07 210.969 166.07C209.311 166.07 207.969 164.727 207.969 163.07C207.969 161.412 209.311 160.07 210.969 160.07C212.626 160.07 213.969 161.412 213.969 163.07Z" fill="#42A584"/>
<path fill-rule="evenodd" clip-rule="evenodd" d="M229.969 163.07C229.969 164.727 228.626 166.07 226.969 166.07C225.311 166.07 223.969 164.727 223.969 163.07C223.969 161.412 225.311 160.07 226.969 160.07C228.626 160.07 229.969 161.412 229.969 163.07Z" fill="#42A584"/>
<path fill-rule="evenodd" clip-rule="evenodd" d="M229.969 163.07C229.969 164.727 228.626 166.07 226.969 166.07C225.311 166.07 223.969 164.727 223.969 163.07C223.969 161.412 225.311 160.07 226.969 160.07C228.626 160.07 229.969 161.412 229.969 163.07Z" fill="#42A584"/>
<path fill-rule="evenodd" clip-rule="evenodd" d="M59.9688 178.07C59.9688 179.727 58.6263 181.07 56.9688 181.07C55.3112 181.07 53.9688 179.727 53.9688 178.07C53.9688 176.412 55.3112 175.07 56.9688 175.07C58.6263 175.07 59.9688 176.412 59.9688 178.07Z" fill="#42A584"/>
<path fill-rule="evenodd" clip-rule="evenodd" d="M59.9688 178.07C59.9688 179.727 58.6263 181.07 56.9688 181.07C55.3112 181.07 53.9688 179.727 53.9688 178.07C53.9688 176.412 55.3112 175.07 56.9688 175.07C58.6263 175.07 59.9688 176.412 59.9688 178.07Z" fill="#42A584"/>
<path fill-rule="evenodd" clip-rule="evenodd" d="M75.9688 178.07C75.9688 179.727 74.6263 181.07 72.9688 181.07C71.3112 181.07 69.9688 179.727 69.9688 178.07C69.9688 176.412 71.3112 175.07 72.9688 175.07C74.6263 175.07 75.9688 176.412 75.9688 178.07Z" fill="#42A584"/>
<path fill-rule="evenodd" clip-rule="evenodd" d="M75.9688 178.07C75.9688 179.727 74.6263 181.07 72.9688 181.07C71.3112 181.07 69.9688 179.727 69.9688 178.07C69.9688 176.412 71.3112 175.07 72.9688 175.07C74.6263 175.07 75.9688 176.412 75.9688 178.07Z" fill="#42A584"/>
<path fill-rule="evenodd" clip-rule="evenodd" d="M90.9688 178.07C90.9688 179.727 89.6263 181.07 87.9688 181.07C86.3112 181.07 84.9688 179.727 84.9688 178.07C84.9688 176.412 86.3112 175.07 87.9688 175.07C89.6263 175.07 90.9688 176.412 90.9688 178.07Z" fill="#42A584"/>
<path fill-rule="evenodd" clip-rule="evenodd" d="M90.9688 178.07C90.9688 179.727 89.6263 181.07 87.9688 181.07C86.3112 181.07 84.9688 179.727 84.9688 178.07C84.9688 176.412 86.3112 175.07 87.9688 175.07C89.6263 175.07 90.9688 176.412 90.9688 178.07Z" fill="#42A584"/>
<path fill-rule="evenodd" clip-rule="evenodd" d="M105.969 178.07C105.969 179.727 104.626 181.07 102.969 181.07C101.311 181.07 99.9688 179.727 99.9688 178.07C99.9688 176.412 101.311 175.07 102.969 175.07C104.626 175.07 105.969 176.412 105.969 178.07Z" fill="#42A584"/>
<path fill-rule="evenodd" clip-rule="evenodd" d="M105.969 178.07C105.969 179.727 104.626 181.07 102.969 181.07C101.311 181.07 99.9688 179.727 99.9688 178.07C99.9688 176.412 101.311 175.07 102.969 175.07C104.626 175.07 105.969 176.412 105.969 178.07Z" fill="#42A584"/>
<path fill-rule="evenodd" clip-rule="evenodd" d="M121.969 178.07C121.969 179.727 120.626 181.07 118.969 181.07C117.311 181.07 115.969 179.727 115.969 178.07C115.969 176.412 117.311 175.07 118.969 175.07C120.626 175.07 121.969 176.412 121.969 178.07Z" fill="#42A584"/>
<path fill-rule="evenodd" clip-rule="evenodd" d="M121.969 178.07C121.969 179.727 120.626 181.07 118.969 181.07C117.311 181.07 115.969 179.727 115.969 178.07C115.969 176.412 117.311 175.07 118.969 175.07C120.626 175.07 121.969 176.412 121.969 178.07Z" fill="#42A584"/>
<path fill-rule="evenodd" clip-rule="evenodd" d="M136.969 178.07C136.969 179.727 135.626 181.07 133.969 181.07C132.311 181.07 130.969 179.727 130.969 178.07C130.969 176.412 132.311 175.07 133.969 175.07C135.626 175.07 136.969 176.412 136.969 178.07Z" fill="#42A584"/>
<path fill-rule="evenodd" clip-rule="evenodd" d="M136.969 178.07C136.969 179.727 135.626 181.07 133.969 181.07C132.311 181.07 130.969 179.727 130.969 178.07C130.969 176.412 132.311 175.07 133.969 175.07C135.626 175.07 136.969 176.412 136.969 178.07Z" fill="#42A584"/>
<path fill-rule="evenodd" clip-rule="evenodd" d="M152.969 178.07C152.969 179.727 151.626 181.07 149.969 181.07C148.311 181.07 146.969 179.727 146.969 178.07C146.969 176.412 148.311 175.07 149.969 175.07C151.626 175.07 152.969 176.412 152.969 178.07Z" fill="#42A584"/>
<path fill-rule="evenodd" clip-rule="evenodd" d="M152.969 178.07C152.969 179.727 151.626 181.07 149.969 181.07C148.311 181.07 146.969 179.727 146.969 178.07C146.969 176.412 148.311 175.07 149.969 175.07C151.626 175.07 152.969 176.412 152.969 178.07Z" fill="#42A584"/>
<path fill-rule="evenodd" clip-rule="evenodd" d="M167.969 178.07C167.969 179.727 166.626 181.07 164.969 181.07C163.311 181.07 161.969 179.727 161.969 178.07C161.969 176.412 163.311 175.07 164.969 175.07C166.626 175.07 167.969 176.412 167.969 178.07Z" fill="#42A584"/>
<path fill-rule="evenodd" clip-rule="evenodd" d="M167.969 178.07C167.969 179.727 166.626 181.07 164.969 181.07C163.311 181.07 161.969 179.727 161.969 178.07C161.969 176.412 163.311 175.07 164.969 175.07C166.626 175.07 167.969 176.412 167.969 178.07Z" fill="#42A584"/>
<path fill-rule="evenodd" clip-rule="evenodd" d="M183.969 178.07C183.969 179.727 182.626 181.07 180.969 181.07C179.311 181.07 177.969 179.727 177.969 178.07C177.969 176.412 179.311 175.07 180.969 175.07C182.626 175.07 183.969 176.412 183.969 178.07Z" fill="#42A584"/>
<path fill-rule="evenodd" clip-rule="evenodd" d="M183.969 178.07C183.969 179.727 182.626 181.07 180.969 181.07C179.311 181.07 177.969 179.727 177.969 178.07C177.969 176.412 179.311 175.07 180.969 175.07C182.626 175.07 183.969 176.412 183.969 178.07Z" fill="#42A584"/>
<path fill-rule="evenodd" clip-rule="evenodd" d="M198.969 178.07C198.969 179.727 197.626 181.07 195.969 181.07C194.311 181.07 192.969 179.727 192.969 178.07C192.969 176.412 194.311 175.07 195.969 175.07C197.626 175.07 198.969 176.412 198.969 178.07Z" fill="#42A584"/>
<path fill-rule="evenodd" clip-rule="evenodd" d="M198.969 178.07C198.969 179.727 197.626 181.07 195.969 181.07C194.311 181.07 192.969 179.727 192.969 178.07C192.969 176.412 194.311 175.07 195.969 175.07C197.626 175.07 198.969 176.412 198.969 178.07Z" fill="#42A584"/>
<path fill-rule="evenodd" clip-rule="evenodd" d="M213.969 178.07C213.969 179.727 212.626 181.07 210.969 181.07C209.311 181.07 207.969 179.727 207.969 178.07C207.969 176.412 209.311 175.07 210.969 175.07C212.626 175.07 213.969 176.412 213.969 178.07Z" fill="#42A584"/>
<path fill-rule="evenodd" clip-rule="evenodd" d="M213.969 178.07C213.969 179.727 212.626 181.07 210.969 181.07C209.311 181.07 207.969 179.727 207.969 178.07C207.969 176.412 209.311 175.07 210.969 175.07C212.626 175.07 213.969 176.412 213.969 178.07Z" fill="#42A584"/>
<path fill-rule="evenodd" clip-rule="evenodd" d="M229.969 178.07C229.969 179.727 228.626 181.07 226.969 181.07C225.311 181.07 223.969 179.727 223.969 178.07C223.969 176.412 225.311 175.07 226.969 175.07C228.626 175.07 229.969 176.412 229.969 178.07Z" fill="#42A584"/>
<path fill-rule="evenodd" clip-rule="evenodd" d="M229.969 178.07C229.969 179.727 228.626 181.07 226.969 181.07C225.311 181.07 223.969 179.727 223.969 178.07C223.969 176.412 225.311 175.07 226.969 175.07C228.626 175.07 229.969 176.412 229.969 178.07Z" fill="#42A584"/>
<path fill-rule="evenodd" clip-rule="evenodd" d="M59.9688 194.07C59.9688 195.727 58.6263 197.07 56.9688 197.07C55.3112 197.07 53.9688 195.727 53.9688 194.07C53.9688 192.412 55.3112 191.07 56.9688 191.07C58.6263 191.07 59.9688 192.412 59.9688 194.07Z" fill="#42A584"/>
<path fill-rule="evenodd" clip-rule="evenodd" d="M59.9688 194.07C59.9688 195.727 58.6263 197.07 56.9688 197.07C55.3112 197.07 53.9688 195.727 53.9688 194.07C53.9688 192.412 55.3112 191.07 56.9688 191.07C58.6263 191.07 59.9688 192.412 59.9688 194.07Z" fill="#42A584"/>
<path fill-rule="evenodd" clip-rule="evenodd" d="M75.9688 194.07C75.9688 195.727 74.6263 197.07 72.9688 197.07C71.3112 197.07 69.9688 195.727 69.9688 194.07C69.9688 192.412 71.3112 191.07 72.9688 191.07C74.6263 191.07 75.9688 192.412 75.9688 194.07Z" fill="#42A584"/>
<path fill-rule="evenodd" clip-rule="evenodd" d="M75.9688 194.07C75.9688 195.727 74.6263 197.07 72.9688 197.07C71.3112 197.07 69.9688 195.727 69.9688 194.07C69.9688 192.412 71.3112 191.07 72.9688 191.07C74.6263 191.07 75.9688 192.412 75.9688 194.07Z" fill="#42A584"/>
<path fill-rule="evenodd" clip-rule="evenodd" d="M90.9688 194.07C90.9688 195.727 89.6263 197.07 87.9688 197.07C86.3112 197.07 84.9688 195.727 84.9688 194.07C84.9688 192.412 86.3112 191.07 87.9688 191.07C89.6263 191.07 90.9688 192.412 90.9688 194.07Z" fill="#42A584"/>
<path fill-rule="evenodd" clip-rule="evenodd" d="M90.9688 194.07C90.9688 195.727 89.6263 197.07 87.9688 197.07C86.3112 197.07 84.9688 195.727 84.9688 194.07C84.9688 192.412 86.3112 191.07 87.9688 191.07C89.6263 191.07 90.9688 192.412 90.9688 194.07Z" fill="#42A584"/>
<path fill-rule="evenodd" clip-rule="evenodd" d="M105.969 194.07C105.969 195.727 104.626 197.07 102.969 197.07C101.311 197.07 99.9688 195.727 99.9688 194.07C99.9688 192.412 101.311 191.07 102.969 191.07C104.626 191.07 105.969 192.412 105.969 194.07Z" fill="#42A584"/>
<path fill-rule="evenodd" clip-rule="evenodd" d="M105.969 194.07C105.969 195.727 104.626 197.07 102.969 197.07C101.311 197.07 99.9688 195.727 99.9688 194.07C99.9688 192.412 101.311 191.07 102.969 191.07C104.626 191.07 105.969 192.412 105.969 194.07Z" fill="#42A584"/>
<path fill-rule="evenodd" clip-rule="evenodd" d="M121.969 194.07C121.969 195.727 120.626 197.07 118.969 197.07C117.311 197.07 115.969 195.727 115.969 194.07C115.969 192.412 117.311 191.07 118.969 191.07C120.626 191.07 121.969 192.412 121.969 194.07Z" fill="#42A584"/>
<path fill-rule="evenodd" clip-rule="evenodd" d="M121.969 194.07C121.969 195.727 120.626 197.07 118.969 197.07C117.311 197.07 115.969 195.727 115.969 194.07C115.969 192.412 117.311 191.07 118.969 191.07C120.626 191.07 121.969 192.412 121.969 194.07Z" fill="#42A584"/>
<path fill-rule="evenodd" clip-rule="evenodd" d="M136.969 194.07C136.969 195.727 135.626 197.07 133.969 197.07C132.311 197.07 130.969 195.727 130.969 194.07C130.969 192.412 132.311 191.07 133.969 191.07C135.626 191.07 136.969 192.412 136.969 194.07Z" fill="#42A584"/>
<path fill-rule="evenodd" clip-rule="evenodd" d="M136.969 194.07C136.969 195.727 135.626 197.07 133.969 197.07C132.311 197.07 130.969 195.727 130.969 194.07C130.969 192.412 132.311 191.07 133.969 191.07C135.626 191.07 136.969 192.412 136.969 194.07Z" fill="#42A584"/>
<path fill-rule="evenodd" clip-rule="evenodd" d="M152.969 194.07C152.969 195.727 151.626 197.07 149.969 197.07C148.311 197.07 146.969 195.727 146.969 194.07C146.969 192.412 148.311 191.07 149.969 191.07C151.626 191.07 152.969 192.412 152.969 194.07Z" fill="#42A584"/>
<path fill-rule="evenodd" clip-rule="evenodd" d="M152.969 194.07C152.969 195.727 151.626 197.07 149.969 197.07C148.311 197.07 146.969 195.727 146.969 194.07C146.969 192.412 148.311 191.07 149.969 191.07C151.626 191.07 152.969 192.412 152.969 194.07Z" fill="#42A584"/>
<path fill-rule="evenodd" clip-rule="evenodd" d="M167.969 194.07C167.969 195.727 166.626 197.07 164.969 197.07C163.311 197.07 161.969 195.727 161.969 194.07C161.969 192.412 163.311 191.07 164.969 191.07C166.626 191.07 167.969 192.412 167.969 194.07Z" fill="#42A584"/>
<path fill-rule="evenodd" clip-rule="evenodd" d="M167.969 194.07C167.969 195.727 166.626 197.07 164.969 197.07C163.311 197.07 161.969 195.727 161.969 194.07C161.969 192.412 163.311 191.07 164.969 191.07C166.626 191.07 167.969 192.412 167.969 194.07Z" fill="#42A584"/>
<path fill-rule="evenodd" clip-rule="evenodd" d="M183.969 194.07C183.969 195.727 182.626 197.07 180.969 197.07C179.311 197.07 177.969 195.727 177.969 194.07C177.969 192.412 179.311 191.07 180.969 191.07C182.626 191.07 183.969 192.412 183.969 194.07Z" fill="#42A584"/>
<path fill-rule="evenodd" clip-rule="evenodd" d="M183.969 194.07C183.969 195.727 182.626 197.07 180.969 197.07C179.311 197.07 177.969 195.727 177.969 194.07C177.969 192.412 179.311 191.07 180.969 191.07C182.626 191.07 183.969 192.412 183.969 194.07Z" fill="#42A584"/>
<path fill-rule="evenodd" clip-rule="evenodd" d="M198.969 194.07C198.969 195.727 197.626 197.07 195.969 197.07C194.311 197.07 192.969 195.727 192.969 194.07C192.969 192.412 194.311 191.07 195.969 191.07C197.626 191.07 198.969 192.412 198.969 194.07Z" fill="#42A584"/>
<path fill-rule="evenodd" clip-rule="evenodd" d="M198.969 194.07C198.969 195.727 197.626 197.07 195.969 197.07C194.311 197.07 192.969 195.727 192.969 194.07C192.969 192.412 194.311 191.07 195.969 191.07C197.626 191.07 198.969 192.412 198.969 194.07Z" fill="#42A584"/>
<path fill-rule="evenodd" clip-rule="evenodd" d="M213.969 194.07C213.969 195.727 212.626 197.07 210.969 197.07C209.311 197.07 207.969 195.727 207.969 194.07C207.969 192.412 209.311 191.07 210.969 191.07C212.626 191.07 213.969 192.412 213.969 194.07Z" fill="#42A584"/>
<path fill-rule="evenodd" clip-rule="evenodd" d="M213.969 194.07C213.969 195.727 212.626 197.07 210.969 197.07C209.311 197.07 207.969 195.727 207.969 194.07C207.969 192.412 209.311 191.07 210.969 191.07C212.626 191.07 213.969 192.412 213.969 194.07Z" fill="#42A584"/>
<path fill-rule="evenodd" clip-rule="evenodd" d="M229.969 194.07C229.969 195.727 228.626 197.07 226.969 197.07C225.311 197.07 223.969 195.727 223.969 194.07C223.969 192.412 225.311 191.07 226.969 191.07C228.626 191.07 229.969 192.412 229.969 194.07Z" fill="#42A584"/>
<path fill-rule="evenodd" clip-rule="evenodd" d="M229.969 194.07C229.969 195.727 228.626 197.07 226.969 197.07C225.311 197.07 223.969 195.727 223.969 194.07C223.969 192.412 225.311 191.07 226.969 191.07C228.626 191.07 229.969 192.412 229.969 194.07Z" fill="#42A584"/>
<path fill-rule="evenodd" clip-rule="evenodd" d="M59.9688 209.07C59.9688 210.727 58.6263 212.07 56.9688 212.07C55.3112 212.07 53.9688 210.727 53.9688 209.07C53.9688 207.412 55.3112 206.07 56.9688 206.07C58.6263 206.07 59.9688 207.412 59.9688 209.07Z" fill="#42A584"/>
<path fill-rule="evenodd" clip-rule="evenodd" d="M59.9688 209.07C59.9688 210.727 58.6263 212.07 56.9688 212.07C55.3112 212.07 53.9688 210.727 53.9688 209.07C53.9688 207.412 55.3112 206.07 56.9688 206.07C58.6263 206.07 59.9688 207.412 59.9688 209.07Z" fill="#42A584"/>
<path fill-rule="evenodd" clip-rule="evenodd" d="M75.9688 209.07C75.9688 210.727 74.6263 212.07 72.9688 212.07C71.3112 212.07 69.9688 210.727 69.9688 209.07C69.9688 207.412 71.3112 206.07 72.9688 206.07C74.6263 206.07 75.9688 207.412 75.9688 209.07Z" fill="#42A584"/>
<path fill-rule="evenodd" clip-rule="evenodd" d="M75.9688 209.07C75.9688 210.727 74.6263 212.07 72.9688 212.07C71.3112 212.07 69.9688 210.727 69.9688 209.07C69.9688 207.412 71.3112 206.07 72.9688 206.07C74.6263 206.07 75.9688 207.412 75.9688 209.07Z" fill="#42A584"/>
<path fill-rule="evenodd" clip-rule="evenodd" d="M90.9688 209.07C90.9688 210.727 89.6263 212.07 87.9688 212.07C86.3112 212.07 84.9688 210.727 84.9688 209.07C84.9688 207.412 86.3112 206.07 87.9688 206.07C89.6263 206.07 90.9688 207.412 90.9688 209.07Z" fill="#42A584"/>
<path fill-rule="evenodd" clip-rule="evenodd" d="M90.9688 209.07C90.9688 210.727 89.6263 212.07 87.9688 212.07C86.3112 212.07 84.9688 210.727 84.9688 209.07C84.9688 207.412 86.3112 206.07 87.9688 206.07C89.6263 206.07 90.9688 207.412 90.9688 209.07Z" fill="#42A584"/>
<path fill-rule="evenodd" clip-rule="evenodd" d="M105.969 209.07C105.969 210.727 104.626 212.07 102.969 212.07C101.311 212.07 99.9688 210.727 99.9688 209.07C99.9688 207.412 101.311 206.07 102.969 206.07C104.626 206.07 105.969 207.412 105.969 209.07Z" fill="#42A584"/>
<path fill-rule="evenodd" clip-rule="evenodd" d="M105.969 209.07C105.969 210.727 104.626 212.07 102.969 212.07C101.311 212.07 99.9688 210.727 99.9688 209.07C99.9688 207.412 101.311 206.07 102.969 206.07C104.626 206.07 105.969 207.412 105.969 209.07Z" fill="#42A584"/>
<path fill-rule="evenodd" clip-rule="evenodd" d="M121.969 209.07C121.969 210.727 120.626 212.07 118.969 212.07C117.311 212.07 115.969 210.727 115.969 209.07C115.969 207.412 117.311 206.07 118.969 206.07C120.626 206.07 121.969 207.412 121.969 209.07Z" fill="#42A584"/>
<path fill-rule="evenodd" clip-rule="evenodd" d="M121.969 209.07C121.969 210.727 120.626 212.07 118.969 212.07C117.311 212.07 115.969 210.727 115.969 209.07C115.969 207.412 117.311 206.07 118.969 206.07C120.626 206.07 121.969 207.412 121.969 209.07Z" fill="#42A584"/>
<path fill-rule="evenodd" clip-rule="evenodd" d="M136.969 209.07C136.969 210.727 135.626 212.07 133.969 212.07C132.311 212.07 130.969 210.727 130.969 209.07C130.969 207.412 132.311 206.07 133.969 206.07C135.626 206.07 136.969 207.412 136.969 209.07Z" fill="#42A584"/>
<path fill-rule="evenodd" clip-rule="evenodd" d="M136.969 209.07C136.969 210.727 135.626 212.07 133.969 212.07C132.311 212.07 130.969 210.727 130.969 209.07C130.969 207.412 132.311 206.07 133.969 206.07C135.626 206.07 136.969 207.412 136.969 209.07Z" fill="#42A584"/>
<path fill-rule="evenodd" clip-rule="evenodd" d="M152.969 209.07C152.969 210.727 151.626 212.07 149.969 212.07C148.311 212.07 146.969 210.727 146.969 209.07C146.969 207.412 148.311 206.07 149.969 206.07C151.626 206.07 152.969 207.412 152.969 209.07Z" fill="#42A584"/>
<path fill-rule="evenodd" clip-rule="evenodd" d="M152.969 209.07C152.969 210.727 151.626 212.07 149.969 212.07C148.311 212.07 146.969 210.727 146.969 209.07C146.969 207.412 148.311 206.07 149.969 206.07C151.626 206.07 152.969 207.412 152.969 209.07Z" fill="#42A584"/>
<path fill-rule="evenodd" clip-rule="evenodd" d="M167.969 209.07C167.969 210.727 166.626 212.07 164.969 212.07C163.311 212.07 161.969 210.727 161.969 209.07C161.969 207.412 163.311 206.07 164.969 206.07C166.626 206.07 167.969 207.412 167.969 209.07Z" fill="#42A584"/>
<path fill-rule="evenodd" clip-rule="evenodd" d="M167.969 209.07C167.969 210.727 166.626 212.07 164.969 212.07C163.311 212.07 161.969 210.727 161.969 209.07C161.969 207.412 163.311 206.07 164.969 206.07C166.626 206.07 167.969 207.412 167.969 209.07Z" fill="#42A584"/>
<path fill-rule="evenodd" clip-rule="evenodd" d="M183.969 209.07C183.969 210.727 182.626 212.07 180.969 212.07C179.311 212.07 177.969 210.727 177.969 209.07C177.969 207.412 179.311 206.07 180.969 206.07C182.626 206.07 183.969 207.412 183.969 209.07Z" fill="#42A584"/>
<path fill-rule="evenodd" clip-rule="evenodd" d="M183.969 209.07C183.969 210.727 182.626 212.07 180.969 212.07C179.311 212.07 177.969 210.727 177.969 209.07C177.969 207.412 179.311 206.07 180.969 206.07C182.626 206.07 183.969 207.412 183.969 209.07Z" fill="#42A584"/>
<path fill-rule="evenodd" clip-rule="evenodd" d="M198.969 209.07C198.969 210.727 197.626 212.07 195.969 212.07C194.311 212.07 192.969 210.727 192.969 209.07C192.969 207.412 194.311 206.07 195.969 206.07C197.626 206.07 198.969 207.412 198.969 209.07Z" fill="#42A584"/>
<path fill-rule="evenodd" clip-rule="evenodd" d="M198.969 209.07C198.969 210.727 197.626 212.07 195.969 212.07C194.311 212.07 192.969 210.727 192.969 209.07C192.969 207.412 194.311 206.07 195.969 206.07C197.626 206.07 198.969 207.412 198.969 209.07Z" fill="#42A584"/>
<path fill-rule="evenodd" clip-rule="evenodd" d="M213.969 209.07C213.969 210.727 212.626 212.07 210.969 212.07C209.311 212.07 207.969 210.727 207.969 209.07C207.969 207.412 209.311 206.07 210.969 206.07C212.626 206.07 213.969 207.412 213.969 209.07Z" fill="#42A584"/>
<path fill-rule="evenodd" clip-rule="evenodd" d="M213.969 209.07C213.969 210.727 212.626 212.07 210.969 212.07C209.311 212.07 207.969 210.727 207.969 209.07C207.969 207.412 209.311 206.07 210.969 206.07C212.626 206.07 213.969 207.412 213.969 209.07Z" fill="#42A584"/>
<path fill-rule="evenodd" clip-rule="evenodd" d="M229.969 209.07C229.969 210.727 228.626 212.07 226.969 212.07C225.311 212.07 223.969 210.727 223.969 209.07C223.969 207.412 225.311 206.07 226.969 206.07C228.626 206.07 229.969 207.412 229.969 209.07Z" fill="#42A584"/>
<path fill-rule="evenodd" clip-rule="evenodd" d="M229.969 209.07C229.969 210.727 228.626 212.07 226.969 212.07C225.311 212.07 223.969 210.727 223.969 209.07C223.969 207.412 225.311 206.07 226.969 206.07C228.626 206.07 229.969 207.412 229.969 209.07Z" fill="#42A584"/>
<path fill-rule="evenodd" clip-rule="evenodd" d="M75.9688 24.0698C75.9688 25.7273 74.6263 27.0698 72.9688 27.0698C71.3112 27.0698 69.9688 25.7273 69.9688 24.0698C69.9688 22.4123 71.3112 21.0698 72.9688 21.0698C74.6263 21.0698 75.9688 22.4123 75.9688 24.0698Z" fill="#42A584"/>
<path fill-rule="evenodd" clip-rule="evenodd" d="M75.9688 24.0698C75.9688 25.7273 74.6263 27.0698 72.9688 27.0698C71.3112 27.0698 69.9688 25.7273 69.9688 24.0698C69.9688 22.4123 71.3112 21.0698 72.9688 21.0698C74.6263 21.0698 75.9688 22.4123 75.9688 24.0698Z" fill="#42A584"/>
<path fill-rule="evenodd" clip-rule="evenodd" d="M90.9688 24.0698C90.9688 25.7273 89.6263 27.0698 87.9688 27.0698C86.3112 27.0698 84.9688 25.7273 84.9688 24.0698C84.9688 22.4123 86.3112 21.0698 87.9688 21.0698C89.6263 21.0698 90.9688 22.4123 90.9688 24.0698Z" fill="#42A584"/>
<path fill-rule="evenodd" clip-rule="evenodd" d="M90.9688 24.0698C90.9688 25.7273 89.6263 27.0698 87.9688 27.0698C86.3112 27.0698 84.9688 25.7273 84.9688 24.0698C84.9688 22.4123 86.3112 21.0698 87.9688 21.0698C89.6263 21.0698 90.9688 22.4123 90.9688 24.0698Z" fill="#42A584"/>
<path fill-rule="evenodd" clip-rule="evenodd" d="M105.969 24.0698C105.969 25.7273 104.626 27.0698 102.969 27.0698C101.311 27.0698 99.9688 25.7273 99.9688 24.0698C99.9688 22.4123 101.311 21.0698 102.969 21.0698C104.626 21.0698 105.969 22.4123 105.969 24.0698Z" fill="#42A584"/>
<path fill-rule="evenodd" clip-rule="evenodd" d="M105.969 24.0698C105.969 25.7273 104.626 27.0698 102.969 27.0698C101.311 27.0698 99.9688 25.7273 99.9688 24.0698C99.9688 22.4123 101.311 21.0698 102.969 21.0698C104.626 21.0698 105.969 22.4123 105.969 24.0698Z" fill="#42A584"/>
<path fill-rule="evenodd" clip-rule="evenodd" d="M121.969 24.0698C121.969 25.7273 120.626 27.0698 118.969 27.0698C117.311 27.0698 115.969 25.7273 115.969 24.0698C115.969 22.4123 117.311 21.0698 118.969 21.0698C120.626 21.0698 121.969 22.4123 121.969 24.0698Z" fill="#42A584"/>
<path fill-rule="evenodd" clip-rule="evenodd" d="M121.969 24.0698C121.969 25.7273 120.626 27.0698 118.969 27.0698C117.311 27.0698 115.969 25.7273 115.969 24.0698C115.969 22.4123 117.311 21.0698 118.969 21.0698C120.626 21.0698 121.969 22.4123 121.969 24.0698Z" fill="#42A584"/>
<path fill-rule="evenodd" clip-rule="evenodd" d="M136.969 24.0698C136.969 25.7273 135.626 27.0698 133.969 27.0698C132.311 27.0698 130.969 25.7273 130.969 24.0698C130.969 22.4123 132.311 21.0698 133.969 21.0698C135.626 21.0698 136.969 22.4123 136.969 24.0698Z" fill="#42A584"/>
<path fill-rule="evenodd" clip-rule="evenodd" d="M136.969 24.0698C136.969 25.7273 135.626 27.0698 133.969 27.0698C132.311 27.0698 130.969 25.7273 130.969 24.0698C130.969 22.4123 132.311 21.0698 133.969 21.0698C135.626 21.0698 136.969 22.4123 136.969 24.0698Z" fill="#42A584"/>
<path fill-rule="evenodd" clip-rule="evenodd" d="M152.969 24.0698C152.969 25.7273 151.626 27.0698 149.969 27.0698C148.311 27.0698 146.969 25.7273 146.969 24.0698C146.969 22.4123 148.311 21.0698 149.969 21.0698C151.626 21.0698 152.969 22.4123 152.969 24.0698Z" fill="#42A584"/>
<path fill-rule="evenodd" clip-rule="evenodd" d="M152.969 24.0698C152.969 25.7273 151.626 27.0698 149.969 27.0698C148.311 27.0698 146.969 25.7273 146.969 24.0698C146.969 22.4123 148.311 21.0698 149.969 21.0698C151.626 21.0698 152.969 22.4123 152.969 24.0698Z" fill="#42A584"/>
<path fill-rule="evenodd" clip-rule="evenodd" d="M167.969 24.0698C167.969 25.7273 166.626 27.0698 164.969 27.0698C163.311 27.0698 161.969 25.7273 161.969 24.0698C161.969 22.4123 163.311 21.0698 164.969 21.0698C166.626 21.0698 167.969 22.4123 167.969 24.0698Z" fill="#42A584"/>
<path fill-rule="evenodd" clip-rule="evenodd" d="M167.969 24.0698C167.969 25.7273 166.626 27.0698 164.969 27.0698C163.311 27.0698 161.969 25.7273 161.969 24.0698C161.969 22.4123 163.311 21.0698 164.969 21.0698C166.626 21.0698 167.969 22.4123 167.969 24.0698Z" fill="#42A584"/>
<path fill-rule="evenodd" clip-rule="evenodd" d="M183.969 24.0698C183.969 25.7273 182.626 27.0698 180.969 27.0698C179.311 27.0698 177.969 25.7273 177.969 24.0698C177.969 22.4123 179.311 21.0698 180.969 21.0698C182.626 21.0698 183.969 22.4123 183.969 24.0698Z" fill="#42A584"/>
<path fill-rule="evenodd" clip-rule="evenodd" d="M183.969 24.0698C183.969 25.7273 182.626 27.0698 180.969 27.0698C179.311 27.0698 177.969 25.7273 177.969 24.0698C177.969 22.4123 179.311 21.0698 180.969 21.0698C182.626 21.0698 183.969 22.4123 183.969 24.0698Z" fill="#42A584"/>
<path fill-rule="evenodd" clip-rule="evenodd" d="M198.969 24.0698C198.969 25.7273 197.626 27.0698 195.969 27.0698C194.311 27.0698 192.969 25.7273 192.969 24.0698C192.969 22.4123 194.311 21.0698 195.969 21.0698C197.626 21.0698 198.969 22.4123 198.969 24.0698Z" fill="#42A584"/>
<path fill-rule="evenodd" clip-rule="evenodd" d="M198.969 24.0698C198.969 25.7273 197.626 27.0698 195.969 27.0698C194.311 27.0698 192.969 25.7273 192.969 24.0698C192.969 22.4123 194.311 21.0698 195.969 21.0698C197.626 21.0698 198.969 22.4123 198.969 24.0698Z" fill="#42A584"/>
<path fill-rule="evenodd" clip-rule="evenodd" d="M213.969 24.0698C213.969 25.7273 212.626 27.0698 210.969 27.0698C209.311 27.0698 207.969 25.7273 207.969 24.0698C207.969 22.4123 209.311 21.0698 210.969 21.0698C212.626 21.0698 213.969 22.4123 213.969 24.0698Z" fill="#42A584"/>
<path fill-rule="evenodd" clip-rule="evenodd" d="M213.969 24.0698C213.969 25.7273 212.626 27.0698 210.969 27.0698C209.311 27.0698 207.969 25.7273 207.969 24.0698C207.969 22.4123 209.311 21.0698 210.969 21.0698C212.626 21.0698 213.969 22.4123 213.969 24.0698Z" fill="#42A584"/>
<path fill-rule="evenodd" clip-rule="evenodd" d="M229.969 24.0698C229.969 25.7273 228.626 27.0698 226.969 27.0698C225.311 27.0698 223.969 25.7273 223.969 24.0698C223.969 22.4123 225.311 21.0698 226.969 21.0698C228.626 21.0698 229.969 22.4123 229.969 24.0698Z" fill="#42A584"/>
<path fill-rule="evenodd" clip-rule="evenodd" d="M229.969 24.0698C229.969 25.7273 228.626 27.0698 226.969 27.0698C225.311 27.0698 223.969 25.7273 223.969 24.0698C223.969 22.4123 225.311 21.0698 226.969 21.0698C228.626 21.0698 229.969 22.4123 229.969 24.0698Z" fill="#42A584"/>
</svg>
