<svg width="22" height="22" viewBox="0 0 22 22" fill="none" xmlns="http://www.w3.org/2000/svg">
<path d="M12.0545 8.62826C11.0006 8.62826 10.1432 9.47452 10.1432 10.5148C10.1432 11.555 11.0006 12.4012 12.0545 12.4012C13.1084 12.4012 13.9658 11.555 13.9658 10.5148C13.9658 9.47452 13.1084 8.62826 12.0545 8.62826ZM12.0545 11.4095C11.5546 11.4095 11.1478 11.0081 11.1478 10.5147C11.1478 10.0213 11.5546 9.61985 12.0545 9.61985C12.5544 9.61985 12.9611 10.0213 12.9611 10.5147C12.9611 11.0082 12.5544 11.4095 12.0545 11.4095ZM16.9834 11.5055L16.3344 11.0413C16.3562 10.867 16.3671 10.691 16.3671 10.5151C16.3671 10.3418 16.3565 10.1686 16.3354 9.99712L16.9847 9.53281C17.1506 9.4261 17.3769 9.17466 17.2686 8.62022C17.2166 8.35485 17.0923 8.04496 16.9185 7.74785C16.4368 6.92418 15.8531 6.56378 15.387 6.7978L14.6563 7.12009C14.3717 6.90694 14.0639 6.73098 13.7361 6.59419L13.654 5.81343C13.6292 5.29596 13.0211 4.9761 12.0546 4.9761C11.0908 4.9761 10.4826 5.29508 10.4552 5.81084L10.3728 6.59424C10.045 6.73109 9.7371 6.9071 9.45266 7.1202L8.72355 6.79869C8.54695 6.71026 8.21312 6.64256 7.78099 7.01238C7.57408 7.18945 7.36439 7.45069 7.19063 7.74785C6.70894 8.57119 6.68433 9.25025 7.12248 9.53182L7.77363 9.99739C7.75247 10.1691 7.74187 10.3423 7.74187 10.5152C7.74187 10.691 7.75281 10.867 7.77463 11.0412L7.12321 11.5071C6.68439 11.7883 6.70867 12.4677 7.19058 13.2914C7.36439 13.5886 7.57408 13.8498 7.78099 14.0269C8.21323 14.3968 8.54706 14.329 8.72355 14.2405L9.46009 13.9158C9.74235 14.1262 10.0473 14.3002 10.3719 14.4358L10.4552 15.2283C10.4823 15.7442 11.0907 16.0632 12.0545 16.0632C13.0211 16.0632 13.6291 15.7434 13.6539 15.2258L13.737 14.4358C14.0616 14.3002 14.3666 14.1262 14.6488 13.9158L15.387 14.2414C15.8531 14.4756 16.4367 14.115 16.9184 13.2915C17.4017 12.4652 17.4252 11.7855 16.9834 11.5055ZM15.2982 9.87162C15.3409 10.0817 15.3624 10.2982 15.3624 10.5151C15.3624 10.7339 15.3403 10.9528 15.2968 11.1658C15.2579 11.3562 15.3352 11.5514 15.4945 11.6653L16.2827 12.2289C16.2597 12.345 16.1927 12.5487 16.0483 12.7956C15.9038 13.0424 15.7586 13.2016 15.6682 13.2793L14.7763 12.8858C14.5968 12.8066 14.3869 12.8381 14.2393 12.9664C13.9067 13.2555 13.5265 13.4724 13.1092 13.6108C12.9227 13.6727 12.7899 13.8364 12.7696 14.0296L12.6687 14.9886C12.5554 15.0269 12.3432 15.0715 12.0544 15.0715C11.7655 15.0715 11.5533 15.0269 11.44 14.9885L11.3392 14.0297C11.3189 13.8365 11.1862 13.6727 10.9996 13.6108C10.5824 13.4724 10.2022 13.2555 9.86938 12.9664C9.72186 12.8381 9.51222 12.8066 9.33255 12.8858L8.44045 13.2791C8.35014 13.2014 8.20491 13.0423 8.06057 12.7955C7.91612 12.5486 7.84909 12.3448 7.82615 12.2288L8.61426 11.6651C8.77356 11.5512 8.85081 11.356 8.81196 11.1657C8.76854 10.9527 8.74643 10.7338 8.74643 10.5151C8.74643 10.2989 8.76809 10.0823 8.81068 9.8714C8.84908 9.68133 8.77177 9.48659 8.61275 9.37288L7.82609 8.81045C7.84903 8.69438 7.91607 8.49059 8.06057 8.24362C8.20485 7.99686 8.35009 7.83771 8.4404 7.76003L9.32574 8.15046C9.5058 8.22979 9.716 8.19795 9.86352 8.06909C10.1977 7.77722 10.5802 7.55856 11.0004 7.41929C11.187 7.35742 11.3197 7.19369 11.3401 7.00043L11.4399 6.05071C11.5532 6.01231 11.7655 5.96774 12.0544 5.96774C12.3431 5.96774 12.5553 6.01226 12.6687 6.05066L12.7685 7.00043C12.7889 7.19369 12.9217 7.35742 13.1084 7.41929C13.5284 7.55845 13.9109 7.77705 14.2453 8.06903C14.3928 8.19789 14.603 8.22973 14.783 8.15035L15.6682 7.75992C15.7585 7.8376 15.9038 7.99675 16.0482 8.24367C16.1926 8.49043 16.2596 8.6941 16.2826 8.81023L15.496 9.37282C15.337 9.48664 15.2597 9.6815 15.2982 9.87162ZM17.9743 2.81294H6.13472C4.22466 2.81294 2.68393 4.34195 2.68393 6.22728V15.8909L1.06528 17.3123V6.10801C1.06522 3.42969 3.30035 1.27039 6.01393 1.27039H15.3914C15.9186 1.27039 16.4222 1.42487 16.8476 1.73569C17.0706 1.8986 17.3852 1.84731 17.5503 1.62722C17.7154 1.40713 17.6684 1.10401 17.4454 0.941109C16.8456 0.502969 16.1353 0.278748 15.3914 0.278748H6.01393C2.74644 0.278748 0.0605469 2.88291 0.0605469 6.10801V18.4361C0.0605469 18.6325 0.191769 18.8104 0.373895 18.8897C0.555965 18.9689 0.781794 18.9347 0.928812 18.8023L2.68393 17.2334V20.9852C2.68393 21.1816 2.79478 21.3595 2.9769 21.4388C3.04204 21.4672 3.10773 21.481 3.17628 21.481C3.29924 21.481 3.41896 21.4364 3.5134 21.3514L6.43238 18.7213C6.52319 18.6394 6.60033 18.568 6.66803 18.5057C6.80774 18.377 6.93952 18.2555 6.98322 18.2385C7.02425 18.2226 7.19744 18.2291 7.38074 18.2315C7.47992 18.2328 7.59496 18.2385 7.73048 18.2385H17.9743C19.8844 18.2385 21.438 16.6963 21.438 14.811V6.22728C21.4379 4.34195 19.8843 2.81294 17.9743 2.81294ZM20.4332 14.811C20.4332 16.1495 19.3303 17.2468 17.9742 17.2468H7.73042C7.60015 17.2468 7.48947 17.2412 7.39408 17.24C6.65363 17.2302 6.53475 17.274 5.98217 17.7827C5.91681 17.8429 5.84844 17.9109 5.76075 17.9899L3.68861 19.8614V16.1102C3.68861 16.1097 3.68861 16.1093 3.68861 16.1089V6.22728C3.68855 4.88873 4.77862 3.80459 6.13472 3.80459H17.9743C19.3304 3.80459 20.4332 4.88873 20.4332 6.22728L20.4332 14.811Z" fill="#8D5DA7"/>
</svg>
