<svg width="999" height="683" viewBox="0 0 999 683" fill="none" xmlns="http://www.w3.org/2000/svg">
<rect width="999" height="683" fill="white"/>
<path d="M706 512C798.232 512 873 439.47 873 350C873 260.53 798.232 188 706 188C613.768 188 539 260.53 539 350C539 439.47 613.768 512 706 512Z" fill="#FED14A"/>
<path fill-rule="evenodd" clip-rule="evenodd" d="M63.9688 3.06982C63.9688 4.72732 62.6263 6.06982 60.9688 6.06982C59.3112 6.06982 57.9688 4.72732 57.9688 3.06982C57.9688 1.41232 59.3112 0.0698242 60.9688 0.0698242C62.6263 0.0698242 63.9688 1.41232 63.9688 3.06982Z" fill="#42A584"/>
<path fill-rule="evenodd" clip-rule="evenodd" d="M63.9688 3.06982C63.9688 4.72732 62.6263 6.06982 60.9688 6.06982C59.3112 6.06982 57.9688 4.72732 57.9688 3.06982C57.9688 1.41232 59.3112 0.0698242 60.9688 0.0698242C62.6263 0.0698242 63.9688 1.41232 63.9688 3.06982Z" fill="#42A584"/>
<path fill-rule="evenodd" clip-rule="evenodd" d="M63.9688 18.0698C63.9688 19.7273 62.6263 21.0698 60.9688 21.0698C59.3112 21.0698 57.9688 19.7273 57.9688 18.0698C57.9688 16.4123 59.3112 15.0698 60.9688 15.0698C62.6263 15.0698 63.9688 16.4123 63.9688 18.0698Z" fill="#42A584"/>
<path fill-rule="evenodd" clip-rule="evenodd" d="M63.9688 18.0698C63.9688 19.7273 62.6263 21.0698 60.9688 21.0698C59.3112 21.0698 57.9688 19.7273 57.9688 18.0698C57.9688 16.4123 59.3112 15.0698 60.9688 15.0698C62.6263 15.0698 63.9688 16.4123 63.9688 18.0698Z" fill="#42A584"/>
<path fill-rule="evenodd" clip-rule="evenodd" d="M79.9688 18.0698C79.9688 19.7273 78.6263 21.0698 76.9688 21.0698C75.3112 21.0698 73.9688 19.7273 73.9688 18.0698C73.9688 16.4123 75.3112 15.0698 76.9688 15.0698C78.6263 15.0698 79.9688 16.4123 79.9688 18.0698Z" fill="#42A584"/>
<path fill-rule="evenodd" clip-rule="evenodd" d="M79.9688 18.0698C79.9688 19.7273 78.6263 21.0698 76.9688 21.0698C75.3112 21.0698 73.9688 19.7273 73.9688 18.0698C73.9688 16.4123 75.3112 15.0698 76.9688 15.0698C78.6263 15.0698 79.9688 16.4123 79.9688 18.0698Z" fill="#42A584"/>
<path fill-rule="evenodd" clip-rule="evenodd" d="M94.9688 18.0698C94.9688 19.7273 93.6263 21.0698 91.9688 21.0698C90.3112 21.0698 88.9688 19.7273 88.9688 18.0698C88.9688 16.4123 90.3112 15.0698 91.9688 15.0698C93.6263 15.0698 94.9688 16.4123 94.9688 18.0698Z" fill="#42A584"/>
<path fill-rule="evenodd" clip-rule="evenodd" d="M94.9688 18.0698C94.9688 19.7273 93.6263 21.0698 91.9688 21.0698C90.3112 21.0698 88.9688 19.7273 88.9688 18.0698C88.9688 16.4123 90.3112 15.0698 91.9688 15.0698C93.6263 15.0698 94.9688 16.4123 94.9688 18.0698Z" fill="#42A584"/>
<path fill-rule="evenodd" clip-rule="evenodd" d="M109.969 18.0698C109.969 19.7273 108.626 21.0698 106.969 21.0698C105.311 21.0698 103.969 19.7273 103.969 18.0698C103.969 16.4123 105.311 15.0698 106.969 15.0698C108.626 15.0698 109.969 16.4123 109.969 18.0698Z" fill="#42A584"/>
<path fill-rule="evenodd" clip-rule="evenodd" d="M109.969 18.0698C109.969 19.7273 108.626 21.0698 106.969 21.0698C105.311 21.0698 103.969 19.7273 103.969 18.0698C103.969 16.4123 105.311 15.0698 106.969 15.0698C108.626 15.0698 109.969 16.4123 109.969 18.0698Z" fill="#42A584"/>
<path fill-rule="evenodd" clip-rule="evenodd" d="M125.969 18.0698C125.969 19.7273 124.626 21.0698 122.969 21.0698C121.311 21.0698 119.969 19.7273 119.969 18.0698C119.969 16.4123 121.311 15.0698 122.969 15.0698C124.626 15.0698 125.969 16.4123 125.969 18.0698Z" fill="#42A584"/>
<path fill-rule="evenodd" clip-rule="evenodd" d="M125.969 18.0698C125.969 19.7273 124.626 21.0698 122.969 21.0698C121.311 21.0698 119.969 19.7273 119.969 18.0698C119.969 16.4123 121.311 15.0698 122.969 15.0698C124.626 15.0698 125.969 16.4123 125.969 18.0698Z" fill="#42A584"/>
<path fill-rule="evenodd" clip-rule="evenodd" d="M140.969 18.0698C140.969 19.7273 139.626 21.0698 137.969 21.0698C136.311 21.0698 134.969 19.7273 134.969 18.0698C134.969 16.4123 136.311 15.0698 137.969 15.0698C139.626 15.0698 140.969 16.4123 140.969 18.0698Z" fill="#42A584"/>
<path fill-rule="evenodd" clip-rule="evenodd" d="M140.969 18.0698C140.969 19.7273 139.626 21.0698 137.969 21.0698C136.311 21.0698 134.969 19.7273 134.969 18.0698C134.969 16.4123 136.311 15.0698 137.969 15.0698C139.626 15.0698 140.969 16.4123 140.969 18.0698Z" fill="#42A584"/>
<path fill-rule="evenodd" clip-rule="evenodd" d="M156.969 18.0698C156.969 19.7273 155.626 21.0698 153.969 21.0698C152.311 21.0698 150.969 19.7273 150.969 18.0698C150.969 16.4123 152.311 15.0698 153.969 15.0698C155.626 15.0698 156.969 16.4123 156.969 18.0698Z" fill="#42A584"/>
<path fill-rule="evenodd" clip-rule="evenodd" d="M156.969 18.0698C156.969 19.7273 155.626 21.0698 153.969 21.0698C152.311 21.0698 150.969 19.7273 150.969 18.0698C150.969 16.4123 152.311 15.0698 153.969 15.0698C155.626 15.0698 156.969 16.4123 156.969 18.0698Z" fill="#42A584"/>
<path fill-rule="evenodd" clip-rule="evenodd" d="M171.969 18.0698C171.969 19.7273 170.626 21.0698 168.969 21.0698C167.311 21.0698 165.969 19.7273 165.969 18.0698C165.969 16.4123 167.311 15.0698 168.969 15.0698C170.626 15.0698 171.969 16.4123 171.969 18.0698Z" fill="#42A584"/>
<path fill-rule="evenodd" clip-rule="evenodd" d="M171.969 18.0698C171.969 19.7273 170.626 21.0698 168.969 21.0698C167.311 21.0698 165.969 19.7273 165.969 18.0698C165.969 16.4123 167.311 15.0698 168.969 15.0698C170.626 15.0698 171.969 16.4123 171.969 18.0698Z" fill="#42A584"/>
<path fill-rule="evenodd" clip-rule="evenodd" d="M187.969 18.0698C187.969 19.7273 186.626 21.0698 184.969 21.0698C183.311 21.0698 181.969 19.7273 181.969 18.0698C181.969 16.4123 183.311 15.0698 184.969 15.0698C186.626 15.0698 187.969 16.4123 187.969 18.0698Z" fill="#42A584"/>
<path fill-rule="evenodd" clip-rule="evenodd" d="M187.969 18.0698C187.969 19.7273 186.626 21.0698 184.969 21.0698C183.311 21.0698 181.969 19.7273 181.969 18.0698C181.969 16.4123 183.311 15.0698 184.969 15.0698C186.626 15.0698 187.969 16.4123 187.969 18.0698Z" fill="#42A584"/>
<path fill-rule="evenodd" clip-rule="evenodd" d="M202.969 18.0698C202.969 19.7273 201.626 21.0698 199.969 21.0698C198.311 21.0698 196.969 19.7273 196.969 18.0698C196.969 16.4123 198.311 15.0698 199.969 15.0698C201.626 15.0698 202.969 16.4123 202.969 18.0698Z" fill="#42A584"/>
<path fill-rule="evenodd" clip-rule="evenodd" d="M202.969 18.0698C202.969 19.7273 201.626 21.0698 199.969 21.0698C198.311 21.0698 196.969 19.7273 196.969 18.0698C196.969 16.4123 198.311 15.0698 199.969 15.0698C201.626 15.0698 202.969 16.4123 202.969 18.0698Z" fill="#42A584"/>
<path fill-rule="evenodd" clip-rule="evenodd" d="M217.969 18.0698C217.969 19.7273 216.626 21.0698 214.969 21.0698C213.311 21.0698 211.969 19.7273 211.969 18.0698C211.969 16.4123 213.311 15.0698 214.969 15.0698C216.626 15.0698 217.969 16.4123 217.969 18.0698Z" fill="#42A584"/>
<path fill-rule="evenodd" clip-rule="evenodd" d="M217.969 18.0698C217.969 19.7273 216.626 21.0698 214.969 21.0698C213.311 21.0698 211.969 19.7273 211.969 18.0698C211.969 16.4123 213.311 15.0698 214.969 15.0698C216.626 15.0698 217.969 16.4123 217.969 18.0698Z" fill="#42A584"/>
<path fill-rule="evenodd" clip-rule="evenodd" d="M233.969 18.0698C233.969 19.7273 232.626 21.0698 230.969 21.0698C229.311 21.0698 227.969 19.7273 227.969 18.0698C227.969 16.4123 229.311 15.0698 230.969 15.0698C232.626 15.0698 233.969 16.4123 233.969 18.0698Z" fill="#42A584"/>
<path fill-rule="evenodd" clip-rule="evenodd" d="M233.969 18.0698C233.969 19.7273 232.626 21.0698 230.969 21.0698C229.311 21.0698 227.969 19.7273 227.969 18.0698C227.969 16.4123 229.311 15.0698 230.969 15.0698C232.626 15.0698 233.969 16.4123 233.969 18.0698Z" fill="#42A584"/>
<path fill-rule="evenodd" clip-rule="evenodd" d="M63.9688 34.0698C63.9688 35.7273 62.6263 37.0698 60.9688 37.0698C59.3112 37.0698 57.9688 35.7273 57.9688 34.0698C57.9688 32.4123 59.3112 31.0698 60.9688 31.0698C62.6263 31.0698 63.9688 32.4123 63.9688 34.0698Z" fill="#42A584"/>
<path fill-rule="evenodd" clip-rule="evenodd" d="M63.9688 34.0698C63.9688 35.7273 62.6263 37.0698 60.9688 37.0698C59.3112 37.0698 57.9688 35.7273 57.9688 34.0698C57.9688 32.4123 59.3112 31.0698 60.9688 31.0698C62.6263 31.0698 63.9688 32.4123 63.9688 34.0698Z" fill="#42A584"/>
<path fill-rule="evenodd" clip-rule="evenodd" d="M79.9688 34.0698C79.9688 35.7273 78.6263 37.0698 76.9688 37.0698C75.3112 37.0698 73.9688 35.7273 73.9688 34.0698C73.9688 32.4123 75.3112 31.0698 76.9688 31.0698C78.6263 31.0698 79.9688 32.4123 79.9688 34.0698Z" fill="#42A584"/>
<path fill-rule="evenodd" clip-rule="evenodd" d="M79.9688 34.0698C79.9688 35.7273 78.6263 37.0698 76.9688 37.0698C75.3112 37.0698 73.9688 35.7273 73.9688 34.0698C73.9688 32.4123 75.3112 31.0698 76.9688 31.0698C78.6263 31.0698 79.9688 32.4123 79.9688 34.0698Z" fill="#42A584"/>
<path fill-rule="evenodd" clip-rule="evenodd" d="M94.9688 34.0698C94.9688 35.7273 93.6263 37.0698 91.9688 37.0698C90.3112 37.0698 88.9688 35.7273 88.9688 34.0698C88.9688 32.4123 90.3112 31.0698 91.9688 31.0698C93.6263 31.0698 94.9688 32.4123 94.9688 34.0698Z" fill="#42A584"/>
<path fill-rule="evenodd" clip-rule="evenodd" d="M94.9688 34.0698C94.9688 35.7273 93.6263 37.0698 91.9688 37.0698C90.3112 37.0698 88.9688 35.7273 88.9688 34.0698C88.9688 32.4123 90.3112 31.0698 91.9688 31.0698C93.6263 31.0698 94.9688 32.4123 94.9688 34.0698Z" fill="#42A584"/>
<path fill-rule="evenodd" clip-rule="evenodd" d="M109.969 34.0698C109.969 35.7273 108.626 37.0698 106.969 37.0698C105.311 37.0698 103.969 35.7273 103.969 34.0698C103.969 32.4123 105.311 31.0698 106.969 31.0698C108.626 31.0698 109.969 32.4123 109.969 34.0698Z" fill="#42A584"/>
<path fill-rule="evenodd" clip-rule="evenodd" d="M109.969 34.0698C109.969 35.7273 108.626 37.0698 106.969 37.0698C105.311 37.0698 103.969 35.7273 103.969 34.0698C103.969 32.4123 105.311 31.0698 106.969 31.0698C108.626 31.0698 109.969 32.4123 109.969 34.0698Z" fill="#42A584"/>
<path fill-rule="evenodd" clip-rule="evenodd" d="M125.969 34.0698C125.969 35.7273 124.626 37.0698 122.969 37.0698C121.311 37.0698 119.969 35.7273 119.969 34.0698C119.969 32.4123 121.311 31.0698 122.969 31.0698C124.626 31.0698 125.969 32.4123 125.969 34.0698Z" fill="#42A584"/>
<path fill-rule="evenodd" clip-rule="evenodd" d="M125.969 34.0698C125.969 35.7273 124.626 37.0698 122.969 37.0698C121.311 37.0698 119.969 35.7273 119.969 34.0698C119.969 32.4123 121.311 31.0698 122.969 31.0698C124.626 31.0698 125.969 32.4123 125.969 34.0698Z" fill="#42A584"/>
<path fill-rule="evenodd" clip-rule="evenodd" d="M140.969 34.0698C140.969 35.7273 139.626 37.0698 137.969 37.0698C136.311 37.0698 134.969 35.7273 134.969 34.0698C134.969 32.4123 136.311 31.0698 137.969 31.0698C139.626 31.0698 140.969 32.4123 140.969 34.0698Z" fill="#42A584"/>
<path fill-rule="evenodd" clip-rule="evenodd" d="M140.969 34.0698C140.969 35.7273 139.626 37.0698 137.969 37.0698C136.311 37.0698 134.969 35.7273 134.969 34.0698C134.969 32.4123 136.311 31.0698 137.969 31.0698C139.626 31.0698 140.969 32.4123 140.969 34.0698Z" fill="#42A584"/>
<path fill-rule="evenodd" clip-rule="evenodd" d="M156.969 34.0698C156.969 35.7273 155.626 37.0698 153.969 37.0698C152.311 37.0698 150.969 35.7273 150.969 34.0698C150.969 32.4123 152.311 31.0698 153.969 31.0698C155.626 31.0698 156.969 32.4123 156.969 34.0698Z" fill="#42A584"/>
<path fill-rule="evenodd" clip-rule="evenodd" d="M156.969 34.0698C156.969 35.7273 155.626 37.0698 153.969 37.0698C152.311 37.0698 150.969 35.7273 150.969 34.0698C150.969 32.4123 152.311 31.0698 153.969 31.0698C155.626 31.0698 156.969 32.4123 156.969 34.0698Z" fill="#42A584"/>
<path fill-rule="evenodd" clip-rule="evenodd" d="M171.969 34.0698C171.969 35.7273 170.626 37.0698 168.969 37.0698C167.311 37.0698 165.969 35.7273 165.969 34.0698C165.969 32.4123 167.311 31.0698 168.969 31.0698C170.626 31.0698 171.969 32.4123 171.969 34.0698Z" fill="#42A584"/>
<path fill-rule="evenodd" clip-rule="evenodd" d="M171.969 34.0698C171.969 35.7273 170.626 37.0698 168.969 37.0698C167.311 37.0698 165.969 35.7273 165.969 34.0698C165.969 32.4123 167.311 31.0698 168.969 31.0698C170.626 31.0698 171.969 32.4123 171.969 34.0698Z" fill="#42A584"/>
<path fill-rule="evenodd" clip-rule="evenodd" d="M187.969 34.0698C187.969 35.7273 186.626 37.0698 184.969 37.0698C183.311 37.0698 181.969 35.7273 181.969 34.0698C181.969 32.4123 183.311 31.0698 184.969 31.0698C186.626 31.0698 187.969 32.4123 187.969 34.0698Z" fill="#42A584"/>
<path fill-rule="evenodd" clip-rule="evenodd" d="M187.969 34.0698C187.969 35.7273 186.626 37.0698 184.969 37.0698C183.311 37.0698 181.969 35.7273 181.969 34.0698C181.969 32.4123 183.311 31.0698 184.969 31.0698C186.626 31.0698 187.969 32.4123 187.969 34.0698Z" fill="#42A584"/>
<path fill-rule="evenodd" clip-rule="evenodd" d="M202.969 34.0698C202.969 35.7273 201.626 37.0698 199.969 37.0698C198.311 37.0698 196.969 35.7273 196.969 34.0698C196.969 32.4123 198.311 31.0698 199.969 31.0698C201.626 31.0698 202.969 32.4123 202.969 34.0698Z" fill="#42A584"/>
<path fill-rule="evenodd" clip-rule="evenodd" d="M202.969 34.0698C202.969 35.7273 201.626 37.0698 199.969 37.0698C198.311 37.0698 196.969 35.7273 196.969 34.0698C196.969 32.4123 198.311 31.0698 199.969 31.0698C201.626 31.0698 202.969 32.4123 202.969 34.0698Z" fill="#42A584"/>
<path fill-rule="evenodd" clip-rule="evenodd" d="M217.969 34.0698C217.969 35.7273 216.626 37.0698 214.969 37.0698C213.311 37.0698 211.969 35.7273 211.969 34.0698C211.969 32.4123 213.311 31.0698 214.969 31.0698C216.626 31.0698 217.969 32.4123 217.969 34.0698Z" fill="#42A584"/>
<path fill-rule="evenodd" clip-rule="evenodd" d="M217.969 34.0698C217.969 35.7273 216.626 37.0698 214.969 37.0698C213.311 37.0698 211.969 35.7273 211.969 34.0698C211.969 32.4123 213.311 31.0698 214.969 31.0698C216.626 31.0698 217.969 32.4123 217.969 34.0698Z" fill="#42A584"/>
<path fill-rule="evenodd" clip-rule="evenodd" d="M233.969 34.0698C233.969 35.7273 232.626 37.0698 230.969 37.0698C229.311 37.0698 227.969 35.7273 227.969 34.0698C227.969 32.4123 229.311 31.0698 230.969 31.0698C232.626 31.0698 233.969 32.4123 233.969 34.0698Z" fill="#42A584"/>
<path fill-rule="evenodd" clip-rule="evenodd" d="M233.969 34.0698C233.969 35.7273 232.626 37.0698 230.969 37.0698C229.311 37.0698 227.969 35.7273 227.969 34.0698C227.969 32.4123 229.311 31.0698 230.969 31.0698C232.626 31.0698 233.969 32.4123 233.969 34.0698Z" fill="#42A584"/>
<path fill-rule="evenodd" clip-rule="evenodd" d="M63.9688 49.0698C63.9688 50.7273 62.6263 52.0698 60.9688 52.0698C59.3112 52.0698 57.9688 50.7273 57.9688 49.0698C57.9688 47.4123 59.3112 46.0698 60.9688 46.0698C62.6263 46.0698 63.9688 47.4123 63.9688 49.0698Z" fill="#42A584"/>
<path fill-rule="evenodd" clip-rule="evenodd" d="M63.9688 49.0698C63.9688 50.7273 62.6263 52.0698 60.9688 52.0698C59.3112 52.0698 57.9688 50.7273 57.9688 49.0698C57.9688 47.4123 59.3112 46.0698 60.9688 46.0698C62.6263 46.0698 63.9688 47.4123 63.9688 49.0698Z" fill="#42A584"/>
<path fill-rule="evenodd" clip-rule="evenodd" d="M79.9688 49.0698C79.9688 50.7273 78.6263 52.0698 76.9688 52.0698C75.3112 52.0698 73.9688 50.7273 73.9688 49.0698C73.9688 47.4123 75.3112 46.0698 76.9688 46.0698C78.6263 46.0698 79.9688 47.4123 79.9688 49.0698Z" fill="#42A584"/>
<path fill-rule="evenodd" clip-rule="evenodd" d="M79.9688 49.0698C79.9688 50.7273 78.6263 52.0698 76.9688 52.0698C75.3112 52.0698 73.9688 50.7273 73.9688 49.0698C73.9688 47.4123 75.3112 46.0698 76.9688 46.0698C78.6263 46.0698 79.9688 47.4123 79.9688 49.0698Z" fill="#42A584"/>
<path fill-rule="evenodd" clip-rule="evenodd" d="M94.9688 49.0698C94.9688 50.7273 93.6263 52.0698 91.9688 52.0698C90.3112 52.0698 88.9688 50.7273 88.9688 49.0698C88.9688 47.4123 90.3112 46.0698 91.9688 46.0698C93.6263 46.0698 94.9688 47.4123 94.9688 49.0698Z" fill="#42A584"/>
<path fill-rule="evenodd" clip-rule="evenodd" d="M94.9688 49.0698C94.9688 50.7273 93.6263 52.0698 91.9688 52.0698C90.3112 52.0698 88.9688 50.7273 88.9688 49.0698C88.9688 47.4123 90.3112 46.0698 91.9688 46.0698C93.6263 46.0698 94.9688 47.4123 94.9688 49.0698Z" fill="#42A584"/>
<path fill-rule="evenodd" clip-rule="evenodd" d="M109.969 49.0698C109.969 50.7273 108.626 52.0698 106.969 52.0698C105.311 52.0698 103.969 50.7273 103.969 49.0698C103.969 47.4123 105.311 46.0698 106.969 46.0698C108.626 46.0698 109.969 47.4123 109.969 49.0698Z" fill="#42A584"/>
<path fill-rule="evenodd" clip-rule="evenodd" d="M109.969 49.0698C109.969 50.7273 108.626 52.0698 106.969 52.0698C105.311 52.0698 103.969 50.7273 103.969 49.0698C103.969 47.4123 105.311 46.0698 106.969 46.0698C108.626 46.0698 109.969 47.4123 109.969 49.0698Z" fill="#42A584"/>
<path fill-rule="evenodd" clip-rule="evenodd" d="M125.969 49.0698C125.969 50.7273 124.626 52.0698 122.969 52.0698C121.311 52.0698 119.969 50.7273 119.969 49.0698C119.969 47.4123 121.311 46.0698 122.969 46.0698C124.626 46.0698 125.969 47.4123 125.969 49.0698Z" fill="#42A584"/>
<path fill-rule="evenodd" clip-rule="evenodd" d="M125.969 49.0698C125.969 50.7273 124.626 52.0698 122.969 52.0698C121.311 52.0698 119.969 50.7273 119.969 49.0698C119.969 47.4123 121.311 46.0698 122.969 46.0698C124.626 46.0698 125.969 47.4123 125.969 49.0698Z" fill="#42A584"/>
<path fill-rule="evenodd" clip-rule="evenodd" d="M140.969 49.0698C140.969 50.7273 139.626 52.0698 137.969 52.0698C136.311 52.0698 134.969 50.7273 134.969 49.0698C134.969 47.4123 136.311 46.0698 137.969 46.0698C139.626 46.0698 140.969 47.4123 140.969 49.0698Z" fill="#42A584"/>
<path fill-rule="evenodd" clip-rule="evenodd" d="M140.969 49.0698C140.969 50.7273 139.626 52.0698 137.969 52.0698C136.311 52.0698 134.969 50.7273 134.969 49.0698C134.969 47.4123 136.311 46.0698 137.969 46.0698C139.626 46.0698 140.969 47.4123 140.969 49.0698Z" fill="#42A584"/>
<path fill-rule="evenodd" clip-rule="evenodd" d="M156.969 49.0698C156.969 50.7273 155.626 52.0698 153.969 52.0698C152.311 52.0698 150.969 50.7273 150.969 49.0698C150.969 47.4123 152.311 46.0698 153.969 46.0698C155.626 46.0698 156.969 47.4123 156.969 49.0698Z" fill="#42A584"/>
<path fill-rule="evenodd" clip-rule="evenodd" d="M156.969 49.0698C156.969 50.7273 155.626 52.0698 153.969 52.0698C152.311 52.0698 150.969 50.7273 150.969 49.0698C150.969 47.4123 152.311 46.0698 153.969 46.0698C155.626 46.0698 156.969 47.4123 156.969 49.0698Z" fill="#42A584"/>
<path fill-rule="evenodd" clip-rule="evenodd" d="M171.969 49.0698C171.969 50.7273 170.626 52.0698 168.969 52.0698C167.311 52.0698 165.969 50.7273 165.969 49.0698C165.969 47.4123 167.311 46.0698 168.969 46.0698C170.626 46.0698 171.969 47.4123 171.969 49.0698Z" fill="#42A584"/>
<path fill-rule="evenodd" clip-rule="evenodd" d="M171.969 49.0698C171.969 50.7273 170.626 52.0698 168.969 52.0698C167.311 52.0698 165.969 50.7273 165.969 49.0698C165.969 47.4123 167.311 46.0698 168.969 46.0698C170.626 46.0698 171.969 47.4123 171.969 49.0698Z" fill="#42A584"/>
<path fill-rule="evenodd" clip-rule="evenodd" d="M187.969 49.0698C187.969 50.7273 186.626 52.0698 184.969 52.0698C183.311 52.0698 181.969 50.7273 181.969 49.0698C181.969 47.4123 183.311 46.0698 184.969 46.0698C186.626 46.0698 187.969 47.4123 187.969 49.0698Z" fill="#42A584"/>
<path fill-rule="evenodd" clip-rule="evenodd" d="M187.969 49.0698C187.969 50.7273 186.626 52.0698 184.969 52.0698C183.311 52.0698 181.969 50.7273 181.969 49.0698C181.969 47.4123 183.311 46.0698 184.969 46.0698C186.626 46.0698 187.969 47.4123 187.969 49.0698Z" fill="#42A584"/>
<path fill-rule="evenodd" clip-rule="evenodd" d="M202.969 49.0698C202.969 50.7273 201.626 52.0698 199.969 52.0698C198.311 52.0698 196.969 50.7273 196.969 49.0698C196.969 47.4123 198.311 46.0698 199.969 46.0698C201.626 46.0698 202.969 47.4123 202.969 49.0698Z" fill="#42A584"/>
<path fill-rule="evenodd" clip-rule="evenodd" d="M202.969 49.0698C202.969 50.7273 201.626 52.0698 199.969 52.0698C198.311 52.0698 196.969 50.7273 196.969 49.0698C196.969 47.4123 198.311 46.0698 199.969 46.0698C201.626 46.0698 202.969 47.4123 202.969 49.0698Z" fill="#42A584"/>
<path fill-rule="evenodd" clip-rule="evenodd" d="M217.969 49.0698C217.969 50.7273 216.626 52.0698 214.969 52.0698C213.311 52.0698 211.969 50.7273 211.969 49.0698C211.969 47.4123 213.311 46.0698 214.969 46.0698C216.626 46.0698 217.969 47.4123 217.969 49.0698Z" fill="#42A584"/>
<path fill-rule="evenodd" clip-rule="evenodd" d="M217.969 49.0698C217.969 50.7273 216.626 52.0698 214.969 52.0698C213.311 52.0698 211.969 50.7273 211.969 49.0698C211.969 47.4123 213.311 46.0698 214.969 46.0698C216.626 46.0698 217.969 47.4123 217.969 49.0698Z" fill="#42A584"/>
<path fill-rule="evenodd" clip-rule="evenodd" d="M233.969 49.0698C233.969 50.7273 232.626 52.0698 230.969 52.0698C229.311 52.0698 227.969 50.7273 227.969 49.0698C227.969 47.4123 229.311 46.0698 230.969 46.0698C232.626 46.0698 233.969 47.4123 233.969 49.0698Z" fill="#42A584"/>
<path fill-rule="evenodd" clip-rule="evenodd" d="M233.969 49.0698C233.969 50.7273 232.626 52.0698 230.969 52.0698C229.311 52.0698 227.969 50.7273 227.969 49.0698C227.969 47.4123 229.311 46.0698 230.969 46.0698C232.626 46.0698 233.969 47.4123 233.969 49.0698Z" fill="#42A584"/>
<path fill-rule="evenodd" clip-rule="evenodd" d="M63.9688 65.0698C63.9688 66.7273 62.6263 68.0698 60.9688 68.0698C59.3112 68.0698 57.9688 66.7273 57.9688 65.0698C57.9688 63.4123 59.3112 62.0698 60.9688 62.0698C62.6263 62.0698 63.9688 63.4123 63.9688 65.0698Z" fill="#42A584"/>
<path fill-rule="evenodd" clip-rule="evenodd" d="M63.9688 65.0698C63.9688 66.7273 62.6263 68.0698 60.9688 68.0698C59.3112 68.0698 57.9688 66.7273 57.9688 65.0698C57.9688 63.4123 59.3112 62.0698 60.9688 62.0698C62.6263 62.0698 63.9688 63.4123 63.9688 65.0698Z" fill="#42A584"/>
<path fill-rule="evenodd" clip-rule="evenodd" d="M79.9688 65.0698C79.9688 66.7273 78.6263 68.0698 76.9688 68.0698C75.3112 68.0698 73.9688 66.7273 73.9688 65.0698C73.9688 63.4123 75.3112 62.0698 76.9688 62.0698C78.6263 62.0698 79.9688 63.4123 79.9688 65.0698Z" fill="#42A584"/>
<path fill-rule="evenodd" clip-rule="evenodd" d="M79.9688 65.0698C79.9688 66.7273 78.6263 68.0698 76.9688 68.0698C75.3112 68.0698 73.9688 66.7273 73.9688 65.0698C73.9688 63.4123 75.3112 62.0698 76.9688 62.0698C78.6263 62.0698 79.9688 63.4123 79.9688 65.0698Z" fill="#42A584"/>
<path fill-rule="evenodd" clip-rule="evenodd" d="M94.9688 65.0698C94.9688 66.7273 93.6263 68.0698 91.9688 68.0698C90.3112 68.0698 88.9688 66.7273 88.9688 65.0698C88.9688 63.4123 90.3112 62.0698 91.9688 62.0698C93.6263 62.0698 94.9688 63.4123 94.9688 65.0698Z" fill="#42A584"/>
<path fill-rule="evenodd" clip-rule="evenodd" d="M94.9688 65.0698C94.9688 66.7273 93.6263 68.0698 91.9688 68.0698C90.3112 68.0698 88.9688 66.7273 88.9688 65.0698C88.9688 63.4123 90.3112 62.0698 91.9688 62.0698C93.6263 62.0698 94.9688 63.4123 94.9688 65.0698Z" fill="#42A584"/>
<path fill-rule="evenodd" clip-rule="evenodd" d="M109.969 65.0698C109.969 66.7273 108.626 68.0698 106.969 68.0698C105.311 68.0698 103.969 66.7273 103.969 65.0698C103.969 63.4123 105.311 62.0698 106.969 62.0698C108.626 62.0698 109.969 63.4123 109.969 65.0698Z" fill="#42A584"/>
<path fill-rule="evenodd" clip-rule="evenodd" d="M109.969 65.0698C109.969 66.7273 108.626 68.0698 106.969 68.0698C105.311 68.0698 103.969 66.7273 103.969 65.0698C103.969 63.4123 105.311 62.0698 106.969 62.0698C108.626 62.0698 109.969 63.4123 109.969 65.0698Z" fill="#42A584"/>
<path fill-rule="evenodd" clip-rule="evenodd" d="M125.969 65.0698C125.969 66.7273 124.626 68.0698 122.969 68.0698C121.311 68.0698 119.969 66.7273 119.969 65.0698C119.969 63.4123 121.311 62.0698 122.969 62.0698C124.626 62.0698 125.969 63.4123 125.969 65.0698Z" fill="#42A584"/>
<path fill-rule="evenodd" clip-rule="evenodd" d="M125.969 65.0698C125.969 66.7273 124.626 68.0698 122.969 68.0698C121.311 68.0698 119.969 66.7273 119.969 65.0698C119.969 63.4123 121.311 62.0698 122.969 62.0698C124.626 62.0698 125.969 63.4123 125.969 65.0698Z" fill="#42A584"/>
<path fill-rule="evenodd" clip-rule="evenodd" d="M140.969 65.0698C140.969 66.7273 139.626 68.0698 137.969 68.0698C136.311 68.0698 134.969 66.7273 134.969 65.0698C134.969 63.4123 136.311 62.0698 137.969 62.0698C139.626 62.0698 140.969 63.4123 140.969 65.0698Z" fill="#42A584"/>
<path fill-rule="evenodd" clip-rule="evenodd" d="M140.969 65.0698C140.969 66.7273 139.626 68.0698 137.969 68.0698C136.311 68.0698 134.969 66.7273 134.969 65.0698C134.969 63.4123 136.311 62.0698 137.969 62.0698C139.626 62.0698 140.969 63.4123 140.969 65.0698Z" fill="#42A584"/>
<path fill-rule="evenodd" clip-rule="evenodd" d="M156.969 65.0698C156.969 66.7273 155.626 68.0698 153.969 68.0698C152.311 68.0698 150.969 66.7273 150.969 65.0698C150.969 63.4123 152.311 62.0698 153.969 62.0698C155.626 62.0698 156.969 63.4123 156.969 65.0698Z" fill="#42A584"/>
<path fill-rule="evenodd" clip-rule="evenodd" d="M156.969 65.0698C156.969 66.7273 155.626 68.0698 153.969 68.0698C152.311 68.0698 150.969 66.7273 150.969 65.0698C150.969 63.4123 152.311 62.0698 153.969 62.0698C155.626 62.0698 156.969 63.4123 156.969 65.0698Z" fill="#42A584"/>
<path fill-rule="evenodd" clip-rule="evenodd" d="M171.969 65.0698C171.969 66.7273 170.626 68.0698 168.969 68.0698C167.311 68.0698 165.969 66.7273 165.969 65.0698C165.969 63.4123 167.311 62.0698 168.969 62.0698C170.626 62.0698 171.969 63.4123 171.969 65.0698Z" fill="#42A584"/>
<path fill-rule="evenodd" clip-rule="evenodd" d="M171.969 65.0698C171.969 66.7273 170.626 68.0698 168.969 68.0698C167.311 68.0698 165.969 66.7273 165.969 65.0698C165.969 63.4123 167.311 62.0698 168.969 62.0698C170.626 62.0698 171.969 63.4123 171.969 65.0698Z" fill="#42A584"/>
<path fill-rule="evenodd" clip-rule="evenodd" d="M187.969 65.0698C187.969 66.7273 186.626 68.0698 184.969 68.0698C183.311 68.0698 181.969 66.7273 181.969 65.0698C181.969 63.4123 183.311 62.0698 184.969 62.0698C186.626 62.0698 187.969 63.4123 187.969 65.0698Z" fill="#42A584"/>
<path fill-rule="evenodd" clip-rule="evenodd" d="M187.969 65.0698C187.969 66.7273 186.626 68.0698 184.969 68.0698C183.311 68.0698 181.969 66.7273 181.969 65.0698C181.969 63.4123 183.311 62.0698 184.969 62.0698C186.626 62.0698 187.969 63.4123 187.969 65.0698Z" fill="#42A584"/>
<path fill-rule="evenodd" clip-rule="evenodd" d="M202.969 65.0698C202.969 66.7273 201.626 68.0698 199.969 68.0698C198.311 68.0698 196.969 66.7273 196.969 65.0698C196.969 63.4123 198.311 62.0698 199.969 62.0698C201.626 62.0698 202.969 63.4123 202.969 65.0698Z" fill="#42A584"/>
<path fill-rule="evenodd" clip-rule="evenodd" d="M202.969 65.0698C202.969 66.7273 201.626 68.0698 199.969 68.0698C198.311 68.0698 196.969 66.7273 196.969 65.0698C196.969 63.4123 198.311 62.0698 199.969 62.0698C201.626 62.0698 202.969 63.4123 202.969 65.0698Z" fill="#42A584"/>
<path fill-rule="evenodd" clip-rule="evenodd" d="M217.969 65.0698C217.969 66.7273 216.626 68.0698 214.969 68.0698C213.311 68.0698 211.969 66.7273 211.969 65.0698C211.969 63.4123 213.311 62.0698 214.969 62.0698C216.626 62.0698 217.969 63.4123 217.969 65.0698Z" fill="#42A584"/>
<path fill-rule="evenodd" clip-rule="evenodd" d="M217.969 65.0698C217.969 66.7273 216.626 68.0698 214.969 68.0698C213.311 68.0698 211.969 66.7273 211.969 65.0698C211.969 63.4123 213.311 62.0698 214.969 62.0698C216.626 62.0698 217.969 63.4123 217.969 65.0698Z" fill="#42A584"/>
<path fill-rule="evenodd" clip-rule="evenodd" d="M233.969 65.0698C233.969 66.7273 232.626 68.0698 230.969 68.0698C229.311 68.0698 227.969 66.7273 227.969 65.0698C227.969 63.4123 229.311 62.0698 230.969 62.0698C232.626 62.0698 233.969 63.4123 233.969 65.0698Z" fill="#42A584"/>
<path fill-rule="evenodd" clip-rule="evenodd" d="M233.969 65.0698C233.969 66.7273 232.626 68.0698 230.969 68.0698C229.311 68.0698 227.969 66.7273 227.969 65.0698C227.969 63.4123 229.311 62.0698 230.969 62.0698C232.626 62.0698 233.969 63.4123 233.969 65.0698Z" fill="#42A584"/>
<path fill-rule="evenodd" clip-rule="evenodd" d="M63.9688 80.0698C63.9688 81.7273 62.6263 83.0698 60.9688 83.0698C59.3112 83.0698 57.9688 81.7273 57.9688 80.0698C57.9688 78.4123 59.3112 77.0698 60.9688 77.0698C62.6263 77.0698 63.9688 78.4123 63.9688 80.0698Z" fill="#42A584"/>
<path fill-rule="evenodd" clip-rule="evenodd" d="M63.9688 80.0698C63.9688 81.7273 62.6263 83.0698 60.9688 83.0698C59.3112 83.0698 57.9688 81.7273 57.9688 80.0698C57.9688 78.4123 59.3112 77.0698 60.9688 77.0698C62.6263 77.0698 63.9688 78.4123 63.9688 80.0698Z" fill="#42A584"/>
<path fill-rule="evenodd" clip-rule="evenodd" d="M79.9688 80.0698C79.9688 81.7273 78.6263 83.0698 76.9688 83.0698C75.3112 83.0698 73.9688 81.7273 73.9688 80.0698C73.9688 78.4123 75.3112 77.0698 76.9688 77.0698C78.6263 77.0698 79.9688 78.4123 79.9688 80.0698Z" fill="#42A584"/>
<path fill-rule="evenodd" clip-rule="evenodd" d="M79.9688 80.0698C79.9688 81.7273 78.6263 83.0698 76.9688 83.0698C75.3112 83.0698 73.9688 81.7273 73.9688 80.0698C73.9688 78.4123 75.3112 77.0698 76.9688 77.0698C78.6263 77.0698 79.9688 78.4123 79.9688 80.0698Z" fill="#42A584"/>
<path fill-rule="evenodd" clip-rule="evenodd" d="M94.9688 80.0698C94.9688 81.7273 93.6263 83.0698 91.9688 83.0698C90.3112 83.0698 88.9688 81.7273 88.9688 80.0698C88.9688 78.4123 90.3112 77.0698 91.9688 77.0698C93.6263 77.0698 94.9688 78.4123 94.9688 80.0698Z" fill="#42A584"/>
<path fill-rule="evenodd" clip-rule="evenodd" d="M94.9688 80.0698C94.9688 81.7273 93.6263 83.0698 91.9688 83.0698C90.3112 83.0698 88.9688 81.7273 88.9688 80.0698C88.9688 78.4123 90.3112 77.0698 91.9688 77.0698C93.6263 77.0698 94.9688 78.4123 94.9688 80.0698Z" fill="#42A584"/>
<path fill-rule="evenodd" clip-rule="evenodd" d="M109.969 80.0698C109.969 81.7273 108.626 83.0698 106.969 83.0698C105.311 83.0698 103.969 81.7273 103.969 80.0698C103.969 78.4123 105.311 77.0698 106.969 77.0698C108.626 77.0698 109.969 78.4123 109.969 80.0698Z" fill="#42A584"/>
<path fill-rule="evenodd" clip-rule="evenodd" d="M109.969 80.0698C109.969 81.7273 108.626 83.0698 106.969 83.0698C105.311 83.0698 103.969 81.7273 103.969 80.0698C103.969 78.4123 105.311 77.0698 106.969 77.0698C108.626 77.0698 109.969 78.4123 109.969 80.0698Z" fill="#42A584"/>
<path fill-rule="evenodd" clip-rule="evenodd" d="M125.969 80.0698C125.969 81.7273 124.626 83.0698 122.969 83.0698C121.311 83.0698 119.969 81.7273 119.969 80.0698C119.969 78.4123 121.311 77.0698 122.969 77.0698C124.626 77.0698 125.969 78.4123 125.969 80.0698Z" fill="#42A584"/>
<path fill-rule="evenodd" clip-rule="evenodd" d="M125.969 80.0698C125.969 81.7273 124.626 83.0698 122.969 83.0698C121.311 83.0698 119.969 81.7273 119.969 80.0698C119.969 78.4123 121.311 77.0698 122.969 77.0698C124.626 77.0698 125.969 78.4123 125.969 80.0698Z" fill="#42A584"/>
<path fill-rule="evenodd" clip-rule="evenodd" d="M140.969 80.0698C140.969 81.7273 139.626 83.0698 137.969 83.0698C136.311 83.0698 134.969 81.7273 134.969 80.0698C134.969 78.4123 136.311 77.0698 137.969 77.0698C139.626 77.0698 140.969 78.4123 140.969 80.0698Z" fill="#42A584"/>
<path fill-rule="evenodd" clip-rule="evenodd" d="M140.969 80.0698C140.969 81.7273 139.626 83.0698 137.969 83.0698C136.311 83.0698 134.969 81.7273 134.969 80.0698C134.969 78.4123 136.311 77.0698 137.969 77.0698C139.626 77.0698 140.969 78.4123 140.969 80.0698Z" fill="#42A584"/>
<path fill-rule="evenodd" clip-rule="evenodd" d="M156.969 80.0698C156.969 81.7273 155.626 83.0698 153.969 83.0698C152.311 83.0698 150.969 81.7273 150.969 80.0698C150.969 78.4123 152.311 77.0698 153.969 77.0698C155.626 77.0698 156.969 78.4123 156.969 80.0698Z" fill="#42A584"/>
<path fill-rule="evenodd" clip-rule="evenodd" d="M156.969 80.0698C156.969 81.7273 155.626 83.0698 153.969 83.0698C152.311 83.0698 150.969 81.7273 150.969 80.0698C150.969 78.4123 152.311 77.0698 153.969 77.0698C155.626 77.0698 156.969 78.4123 156.969 80.0698Z" fill="#42A584"/>
<path fill-rule="evenodd" clip-rule="evenodd" d="M171.969 80.0698C171.969 81.7273 170.626 83.0698 168.969 83.0698C167.311 83.0698 165.969 81.7273 165.969 80.0698C165.969 78.4123 167.311 77.0698 168.969 77.0698C170.626 77.0698 171.969 78.4123 171.969 80.0698Z" fill="#42A584"/>
<path fill-rule="evenodd" clip-rule="evenodd" d="M171.969 80.0698C171.969 81.7273 170.626 83.0698 168.969 83.0698C167.311 83.0698 165.969 81.7273 165.969 80.0698C165.969 78.4123 167.311 77.0698 168.969 77.0698C170.626 77.0698 171.969 78.4123 171.969 80.0698Z" fill="#42A584"/>
<path fill-rule="evenodd" clip-rule="evenodd" d="M187.969 80.0698C187.969 81.7273 186.626 83.0698 184.969 83.0698C183.311 83.0698 181.969 81.7273 181.969 80.0698C181.969 78.4123 183.311 77.0698 184.969 77.0698C186.626 77.0698 187.969 78.4123 187.969 80.0698Z" fill="#42A584"/>
<path fill-rule="evenodd" clip-rule="evenodd" d="M187.969 80.0698C187.969 81.7273 186.626 83.0698 184.969 83.0698C183.311 83.0698 181.969 81.7273 181.969 80.0698C181.969 78.4123 183.311 77.0698 184.969 77.0698C186.626 77.0698 187.969 78.4123 187.969 80.0698Z" fill="#42A584"/>
<path fill-rule="evenodd" clip-rule="evenodd" d="M202.969 80.0698C202.969 81.7273 201.626 83.0698 199.969 83.0698C198.311 83.0698 196.969 81.7273 196.969 80.0698C196.969 78.4123 198.311 77.0698 199.969 77.0698C201.626 77.0698 202.969 78.4123 202.969 80.0698Z" fill="#42A584"/>
<path fill-rule="evenodd" clip-rule="evenodd" d="M202.969 80.0698C202.969 81.7273 201.626 83.0698 199.969 83.0698C198.311 83.0698 196.969 81.7273 196.969 80.0698C196.969 78.4123 198.311 77.0698 199.969 77.0698C201.626 77.0698 202.969 78.4123 202.969 80.0698Z" fill="#42A584"/>
<path fill-rule="evenodd" clip-rule="evenodd" d="M217.969 80.0698C217.969 81.7273 216.626 83.0698 214.969 83.0698C213.311 83.0698 211.969 81.7273 211.969 80.0698C211.969 78.4123 213.311 77.0698 214.969 77.0698C216.626 77.0698 217.969 78.4123 217.969 80.0698Z" fill="#42A584"/>
<path fill-rule="evenodd" clip-rule="evenodd" d="M217.969 80.0698C217.969 81.7273 216.626 83.0698 214.969 83.0698C213.311 83.0698 211.969 81.7273 211.969 80.0698C211.969 78.4123 213.311 77.0698 214.969 77.0698C216.626 77.0698 217.969 78.4123 217.969 80.0698Z" fill="#42A584"/>
<path fill-rule="evenodd" clip-rule="evenodd" d="M233.969 80.0698C233.969 81.7273 232.626 83.0698 230.969 83.0698C229.311 83.0698 227.969 81.7273 227.969 80.0698C227.969 78.4123 229.311 77.0698 230.969 77.0698C232.626 77.0698 233.969 78.4123 233.969 80.0698Z" fill="#42A584"/>
<path fill-rule="evenodd" clip-rule="evenodd" d="M233.969 80.0698C233.969 81.7273 232.626 83.0698 230.969 83.0698C229.311 83.0698 227.969 81.7273 227.969 80.0698C227.969 78.4123 229.311 77.0698 230.969 77.0698C232.626 77.0698 233.969 78.4123 233.969 80.0698Z" fill="#42A584"/>
<path fill-rule="evenodd" clip-rule="evenodd" d="M63.9688 96.0698C63.9688 97.7273 62.6263 99.0698 60.9688 99.0698C59.3112 99.0698 57.9688 97.7273 57.9688 96.0698C57.9688 94.4123 59.3112 93.0698 60.9688 93.0698C62.6263 93.0698 63.9688 94.4123 63.9688 96.0698Z" fill="#42A584"/>
<path fill-rule="evenodd" clip-rule="evenodd" d="M63.9688 96.0698C63.9688 97.7273 62.6263 99.0698 60.9688 99.0698C59.3112 99.0698 57.9688 97.7273 57.9688 96.0698C57.9688 94.4123 59.3112 93.0698 60.9688 93.0698C62.6263 93.0698 63.9688 94.4123 63.9688 96.0698Z" fill="#42A584"/>
<path fill-rule="evenodd" clip-rule="evenodd" d="M79.9688 96.0698C79.9688 97.7273 78.6263 99.0698 76.9688 99.0698C75.3112 99.0698 73.9688 97.7273 73.9688 96.0698C73.9688 94.4123 75.3112 93.0698 76.9688 93.0698C78.6263 93.0698 79.9688 94.4123 79.9688 96.0698Z" fill="#42A584"/>
<path fill-rule="evenodd" clip-rule="evenodd" d="M79.9688 96.0698C79.9688 97.7273 78.6263 99.0698 76.9688 99.0698C75.3112 99.0698 73.9688 97.7273 73.9688 96.0698C73.9688 94.4123 75.3112 93.0698 76.9688 93.0698C78.6263 93.0698 79.9688 94.4123 79.9688 96.0698Z" fill="#42A584"/>
<path fill-rule="evenodd" clip-rule="evenodd" d="M94.9688 96.0698C94.9688 97.7273 93.6263 99.0698 91.9688 99.0698C90.3112 99.0698 88.9688 97.7273 88.9688 96.0698C88.9688 94.4123 90.3112 93.0698 91.9688 93.0698C93.6263 93.0698 94.9688 94.4123 94.9688 96.0698Z" fill="#42A584"/>
<path fill-rule="evenodd" clip-rule="evenodd" d="M94.9688 96.0698C94.9688 97.7273 93.6263 99.0698 91.9688 99.0698C90.3112 99.0698 88.9688 97.7273 88.9688 96.0698C88.9688 94.4123 90.3112 93.0698 91.9688 93.0698C93.6263 93.0698 94.9688 94.4123 94.9688 96.0698Z" fill="#42A584"/>
<path fill-rule="evenodd" clip-rule="evenodd" d="M109.969 96.0698C109.969 97.7273 108.626 99.0698 106.969 99.0698C105.311 99.0698 103.969 97.7273 103.969 96.0698C103.969 94.4123 105.311 93.0698 106.969 93.0698C108.626 93.0698 109.969 94.4123 109.969 96.0698Z" fill="#42A584"/>
<path fill-rule="evenodd" clip-rule="evenodd" d="M109.969 96.0698C109.969 97.7273 108.626 99.0698 106.969 99.0698C105.311 99.0698 103.969 97.7273 103.969 96.0698C103.969 94.4123 105.311 93.0698 106.969 93.0698C108.626 93.0698 109.969 94.4123 109.969 96.0698Z" fill="#42A584"/>
<path fill-rule="evenodd" clip-rule="evenodd" d="M125.969 96.0698C125.969 97.7273 124.626 99.0698 122.969 99.0698C121.311 99.0698 119.969 97.7273 119.969 96.0698C119.969 94.4123 121.311 93.0698 122.969 93.0698C124.626 93.0698 125.969 94.4123 125.969 96.0698Z" fill="#42A584"/>
<path fill-rule="evenodd" clip-rule="evenodd" d="M125.969 96.0698C125.969 97.7273 124.626 99.0698 122.969 99.0698C121.311 99.0698 119.969 97.7273 119.969 96.0698C119.969 94.4123 121.311 93.0698 122.969 93.0698C124.626 93.0698 125.969 94.4123 125.969 96.0698Z" fill="#42A584"/>
<path fill-rule="evenodd" clip-rule="evenodd" d="M140.969 96.0698C140.969 97.7273 139.626 99.0698 137.969 99.0698C136.311 99.0698 134.969 97.7273 134.969 96.0698C134.969 94.4123 136.311 93.0698 137.969 93.0698C139.626 93.0698 140.969 94.4123 140.969 96.0698Z" fill="#42A584"/>
<path fill-rule="evenodd" clip-rule="evenodd" d="M140.969 96.0698C140.969 97.7273 139.626 99.0698 137.969 99.0698C136.311 99.0698 134.969 97.7273 134.969 96.0698C134.969 94.4123 136.311 93.0698 137.969 93.0698C139.626 93.0698 140.969 94.4123 140.969 96.0698Z" fill="#42A584"/>
<path fill-rule="evenodd" clip-rule="evenodd" d="M156.969 96.0698C156.969 97.7273 155.626 99.0698 153.969 99.0698C152.311 99.0698 150.969 97.7273 150.969 96.0698C150.969 94.4123 152.311 93.0698 153.969 93.0698C155.626 93.0698 156.969 94.4123 156.969 96.0698Z" fill="#42A584"/>
<path fill-rule="evenodd" clip-rule="evenodd" d="M156.969 96.0698C156.969 97.7273 155.626 99.0698 153.969 99.0698C152.311 99.0698 150.969 97.7273 150.969 96.0698C150.969 94.4123 152.311 93.0698 153.969 93.0698C155.626 93.0698 156.969 94.4123 156.969 96.0698Z" fill="#42A584"/>
<path fill-rule="evenodd" clip-rule="evenodd" d="M171.969 96.0698C171.969 97.7273 170.626 99.0698 168.969 99.0698C167.311 99.0698 165.969 97.7273 165.969 96.0698C165.969 94.4123 167.311 93.0698 168.969 93.0698C170.626 93.0698 171.969 94.4123 171.969 96.0698Z" fill="#42A584"/>
<path fill-rule="evenodd" clip-rule="evenodd" d="M171.969 96.0698C171.969 97.7273 170.626 99.0698 168.969 99.0698C167.311 99.0698 165.969 97.7273 165.969 96.0698C165.969 94.4123 167.311 93.0698 168.969 93.0698C170.626 93.0698 171.969 94.4123 171.969 96.0698Z" fill="#42A584"/>
<path fill-rule="evenodd" clip-rule="evenodd" d="M187.969 96.0698C187.969 97.7273 186.626 99.0698 184.969 99.0698C183.311 99.0698 181.969 97.7273 181.969 96.0698C181.969 94.4123 183.311 93.0698 184.969 93.0698C186.626 93.0698 187.969 94.4123 187.969 96.0698Z" fill="#42A584"/>
<path fill-rule="evenodd" clip-rule="evenodd" d="M187.969 96.0698C187.969 97.7273 186.626 99.0698 184.969 99.0698C183.311 99.0698 181.969 97.7273 181.969 96.0698C181.969 94.4123 183.311 93.0698 184.969 93.0698C186.626 93.0698 187.969 94.4123 187.969 96.0698Z" fill="#42A584"/>
<path fill-rule="evenodd" clip-rule="evenodd" d="M202.969 96.0698C202.969 97.7273 201.626 99.0698 199.969 99.0698C198.311 99.0698 196.969 97.7273 196.969 96.0698C196.969 94.4123 198.311 93.0698 199.969 93.0698C201.626 93.0698 202.969 94.4123 202.969 96.0698Z" fill="#42A584"/>
<path fill-rule="evenodd" clip-rule="evenodd" d="M202.969 96.0698C202.969 97.7273 201.626 99.0698 199.969 99.0698C198.311 99.0698 196.969 97.7273 196.969 96.0698C196.969 94.4123 198.311 93.0698 199.969 93.0698C201.626 93.0698 202.969 94.4123 202.969 96.0698Z" fill="#42A584"/>
<path fill-rule="evenodd" clip-rule="evenodd" d="M217.969 96.0698C217.969 97.7273 216.626 99.0698 214.969 99.0698C213.311 99.0698 211.969 97.7273 211.969 96.0698C211.969 94.4123 213.311 93.0698 214.969 93.0698C216.626 93.0698 217.969 94.4123 217.969 96.0698Z" fill="#42A584"/>
<path fill-rule="evenodd" clip-rule="evenodd" d="M217.969 96.0698C217.969 97.7273 216.626 99.0698 214.969 99.0698C213.311 99.0698 211.969 97.7273 211.969 96.0698C211.969 94.4123 213.311 93.0698 214.969 93.0698C216.626 93.0698 217.969 94.4123 217.969 96.0698Z" fill="#42A584"/>
<path fill-rule="evenodd" clip-rule="evenodd" d="M233.969 96.0698C233.969 97.7273 232.626 99.0698 230.969 99.0698C229.311 99.0698 227.969 97.7273 227.969 96.0698C227.969 94.4123 229.311 93.0698 230.969 93.0698C232.626 93.0698 233.969 94.4123 233.969 96.0698Z" fill="#42A584"/>
<path fill-rule="evenodd" clip-rule="evenodd" d="M233.969 96.0698C233.969 97.7273 232.626 99.0698 230.969 99.0698C229.311 99.0698 227.969 97.7273 227.969 96.0698C227.969 94.4123 229.311 93.0698 230.969 93.0698C232.626 93.0698 233.969 94.4123 233.969 96.0698Z" fill="#42A584"/>
<path fill-rule="evenodd" clip-rule="evenodd" d="M63.9688 111.07C63.9688 112.727 62.6263 114.07 60.9688 114.07C59.3112 114.07 57.9688 112.727 57.9688 111.07C57.9688 109.412 59.3112 108.07 60.9688 108.07C62.6263 108.07 63.9688 109.412 63.9688 111.07Z" fill="#42A584"/>
<path fill-rule="evenodd" clip-rule="evenodd" d="M63.9688 111.07C63.9688 112.727 62.6263 114.07 60.9688 114.07C59.3112 114.07 57.9688 112.727 57.9688 111.07C57.9688 109.412 59.3112 108.07 60.9688 108.07C62.6263 108.07 63.9688 109.412 63.9688 111.07Z" fill="#42A584"/>
<path fill-rule="evenodd" clip-rule="evenodd" d="M79.9688 111.07C79.9688 112.727 78.6263 114.07 76.9688 114.07C75.3112 114.07 73.9688 112.727 73.9688 111.07C73.9688 109.412 75.3112 108.07 76.9688 108.07C78.6263 108.07 79.9688 109.412 79.9688 111.07Z" fill="#42A584"/>
<path fill-rule="evenodd" clip-rule="evenodd" d="M79.9688 111.07C79.9688 112.727 78.6263 114.07 76.9688 114.07C75.3112 114.07 73.9688 112.727 73.9688 111.07C73.9688 109.412 75.3112 108.07 76.9688 108.07C78.6263 108.07 79.9688 109.412 79.9688 111.07Z" fill="#42A584"/>
<path fill-rule="evenodd" clip-rule="evenodd" d="M94.9688 111.07C94.9688 112.727 93.6263 114.07 91.9688 114.07C90.3112 114.07 88.9688 112.727 88.9688 111.07C88.9688 109.412 90.3112 108.07 91.9688 108.07C93.6263 108.07 94.9688 109.412 94.9688 111.07Z" fill="#42A584"/>
<path fill-rule="evenodd" clip-rule="evenodd" d="M94.9688 111.07C94.9688 112.727 93.6263 114.07 91.9688 114.07C90.3112 114.07 88.9688 112.727 88.9688 111.07C88.9688 109.412 90.3112 108.07 91.9688 108.07C93.6263 108.07 94.9688 109.412 94.9688 111.07Z" fill="#42A584"/>
<path fill-rule="evenodd" clip-rule="evenodd" d="M109.969 111.07C109.969 112.727 108.626 114.07 106.969 114.07C105.311 114.07 103.969 112.727 103.969 111.07C103.969 109.412 105.311 108.07 106.969 108.07C108.626 108.07 109.969 109.412 109.969 111.07Z" fill="#42A584"/>
<path fill-rule="evenodd" clip-rule="evenodd" d="M109.969 111.07C109.969 112.727 108.626 114.07 106.969 114.07C105.311 114.07 103.969 112.727 103.969 111.07C103.969 109.412 105.311 108.07 106.969 108.07C108.626 108.07 109.969 109.412 109.969 111.07Z" fill="#42A584"/>
<path fill-rule="evenodd" clip-rule="evenodd" d="M125.969 111.07C125.969 112.727 124.626 114.07 122.969 114.07C121.311 114.07 119.969 112.727 119.969 111.07C119.969 109.412 121.311 108.07 122.969 108.07C124.626 108.07 125.969 109.412 125.969 111.07Z" fill="#42A584"/>
<path fill-rule="evenodd" clip-rule="evenodd" d="M125.969 111.07C125.969 112.727 124.626 114.07 122.969 114.07C121.311 114.07 119.969 112.727 119.969 111.07C119.969 109.412 121.311 108.07 122.969 108.07C124.626 108.07 125.969 109.412 125.969 111.07Z" fill="#42A584"/>
<path fill-rule="evenodd" clip-rule="evenodd" d="M140.969 111.07C140.969 112.727 139.626 114.07 137.969 114.07C136.311 114.07 134.969 112.727 134.969 111.07C134.969 109.412 136.311 108.07 137.969 108.07C139.626 108.07 140.969 109.412 140.969 111.07Z" fill="#42A584"/>
<path fill-rule="evenodd" clip-rule="evenodd" d="M140.969 111.07C140.969 112.727 139.626 114.07 137.969 114.07C136.311 114.07 134.969 112.727 134.969 111.07C134.969 109.412 136.311 108.07 137.969 108.07C139.626 108.07 140.969 109.412 140.969 111.07Z" fill="#42A584"/>
<path fill-rule="evenodd" clip-rule="evenodd" d="M156.969 111.07C156.969 112.727 155.626 114.07 153.969 114.07C152.311 114.07 150.969 112.727 150.969 111.07C150.969 109.412 152.311 108.07 153.969 108.07C155.626 108.07 156.969 109.412 156.969 111.07Z" fill="#42A584"/>
<path fill-rule="evenodd" clip-rule="evenodd" d="M156.969 111.07C156.969 112.727 155.626 114.07 153.969 114.07C152.311 114.07 150.969 112.727 150.969 111.07C150.969 109.412 152.311 108.07 153.969 108.07C155.626 108.07 156.969 109.412 156.969 111.07Z" fill="#42A584"/>
<path fill-rule="evenodd" clip-rule="evenodd" d="M171.969 111.07C171.969 112.727 170.626 114.07 168.969 114.07C167.311 114.07 165.969 112.727 165.969 111.07C165.969 109.412 167.311 108.07 168.969 108.07C170.626 108.07 171.969 109.412 171.969 111.07Z" fill="#42A584"/>
<path fill-rule="evenodd" clip-rule="evenodd" d="M171.969 111.07C171.969 112.727 170.626 114.07 168.969 114.07C167.311 114.07 165.969 112.727 165.969 111.07C165.969 109.412 167.311 108.07 168.969 108.07C170.626 108.07 171.969 109.412 171.969 111.07Z" fill="#42A584"/>
<path fill-rule="evenodd" clip-rule="evenodd" d="M187.969 111.07C187.969 112.727 186.626 114.07 184.969 114.07C183.311 114.07 181.969 112.727 181.969 111.07C181.969 109.412 183.311 108.07 184.969 108.07C186.626 108.07 187.969 109.412 187.969 111.07Z" fill="#42A584"/>
<path fill-rule="evenodd" clip-rule="evenodd" d="M187.969 111.07C187.969 112.727 186.626 114.07 184.969 114.07C183.311 114.07 181.969 112.727 181.969 111.07C181.969 109.412 183.311 108.07 184.969 108.07C186.626 108.07 187.969 109.412 187.969 111.07Z" fill="#42A584"/>
<path fill-rule="evenodd" clip-rule="evenodd" d="M202.969 111.07C202.969 112.727 201.626 114.07 199.969 114.07C198.311 114.07 196.969 112.727 196.969 111.07C196.969 109.412 198.311 108.07 199.969 108.07C201.626 108.07 202.969 109.412 202.969 111.07Z" fill="#42A584"/>
<path fill-rule="evenodd" clip-rule="evenodd" d="M202.969 111.07C202.969 112.727 201.626 114.07 199.969 114.07C198.311 114.07 196.969 112.727 196.969 111.07C196.969 109.412 198.311 108.07 199.969 108.07C201.626 108.07 202.969 109.412 202.969 111.07Z" fill="#42A584"/>
<path fill-rule="evenodd" clip-rule="evenodd" d="M217.969 111.07C217.969 112.727 216.626 114.07 214.969 114.07C213.311 114.07 211.969 112.727 211.969 111.07C211.969 109.412 213.311 108.07 214.969 108.07C216.626 108.07 217.969 109.412 217.969 111.07Z" fill="#42A584"/>
<path fill-rule="evenodd" clip-rule="evenodd" d="M217.969 111.07C217.969 112.727 216.626 114.07 214.969 114.07C213.311 114.07 211.969 112.727 211.969 111.07C211.969 109.412 213.311 108.07 214.969 108.07C216.626 108.07 217.969 109.412 217.969 111.07Z" fill="#42A584"/>
<path fill-rule="evenodd" clip-rule="evenodd" d="M233.969 111.07C233.969 112.727 232.626 114.07 230.969 114.07C229.311 114.07 227.969 112.727 227.969 111.07C227.969 109.412 229.311 108.07 230.969 108.07C232.626 108.07 233.969 109.412 233.969 111.07Z" fill="#42A584"/>
<path fill-rule="evenodd" clip-rule="evenodd" d="M233.969 111.07C233.969 112.727 232.626 114.07 230.969 114.07C229.311 114.07 227.969 112.727 227.969 111.07C227.969 109.412 229.311 108.07 230.969 108.07C232.626 108.07 233.969 109.412 233.969 111.07Z" fill="#42A584"/>
<path fill-rule="evenodd" clip-rule="evenodd" d="M63.9688 126.07C63.9688 127.727 62.6263 129.07 60.9688 129.07C59.3112 129.07 57.9688 127.727 57.9688 126.07C57.9688 124.412 59.3112 123.07 60.9688 123.07C62.6263 123.07 63.9688 124.412 63.9688 126.07Z" fill="#42A584"/>
<path fill-rule="evenodd" clip-rule="evenodd" d="M63.9688 126.07C63.9688 127.727 62.6263 129.07 60.9688 129.07C59.3112 129.07 57.9688 127.727 57.9688 126.07C57.9688 124.412 59.3112 123.07 60.9688 123.07C62.6263 123.07 63.9688 124.412 63.9688 126.07Z" fill="#42A584"/>
<path fill-rule="evenodd" clip-rule="evenodd" d="M79.9688 126.07C79.9688 127.727 78.6263 129.07 76.9688 129.07C75.3112 129.07 73.9688 127.727 73.9688 126.07C73.9688 124.412 75.3112 123.07 76.9688 123.07C78.6263 123.07 79.9688 124.412 79.9688 126.07Z" fill="#42A584"/>
<path fill-rule="evenodd" clip-rule="evenodd" d="M79.9688 126.07C79.9688 127.727 78.6263 129.07 76.9688 129.07C75.3112 129.07 73.9688 127.727 73.9688 126.07C73.9688 124.412 75.3112 123.07 76.9688 123.07C78.6263 123.07 79.9688 124.412 79.9688 126.07Z" fill="#42A584"/>
<path fill-rule="evenodd" clip-rule="evenodd" d="M94.9688 126.07C94.9688 127.727 93.6263 129.07 91.9688 129.07C90.3112 129.07 88.9688 127.727 88.9688 126.07C88.9688 124.412 90.3112 123.07 91.9688 123.07C93.6263 123.07 94.9688 124.412 94.9688 126.07Z" fill="#42A584"/>
<path fill-rule="evenodd" clip-rule="evenodd" d="M94.9688 126.07C94.9688 127.727 93.6263 129.07 91.9688 129.07C90.3112 129.07 88.9688 127.727 88.9688 126.07C88.9688 124.412 90.3112 123.07 91.9688 123.07C93.6263 123.07 94.9688 124.412 94.9688 126.07Z" fill="#42A584"/>
<path fill-rule="evenodd" clip-rule="evenodd" d="M109.969 126.07C109.969 127.727 108.626 129.07 106.969 129.07C105.311 129.07 103.969 127.727 103.969 126.07C103.969 124.412 105.311 123.07 106.969 123.07C108.626 123.07 109.969 124.412 109.969 126.07Z" fill="#42A584"/>
<path fill-rule="evenodd" clip-rule="evenodd" d="M109.969 126.07C109.969 127.727 108.626 129.07 106.969 129.07C105.311 129.07 103.969 127.727 103.969 126.07C103.969 124.412 105.311 123.07 106.969 123.07C108.626 123.07 109.969 124.412 109.969 126.07Z" fill="#42A584"/>
<path fill-rule="evenodd" clip-rule="evenodd" d="M125.969 126.07C125.969 127.727 124.626 129.07 122.969 129.07C121.311 129.07 119.969 127.727 119.969 126.07C119.969 124.412 121.311 123.07 122.969 123.07C124.626 123.07 125.969 124.412 125.969 126.07Z" fill="#42A584"/>
<path fill-rule="evenodd" clip-rule="evenodd" d="M125.969 126.07C125.969 127.727 124.626 129.07 122.969 129.07C121.311 129.07 119.969 127.727 119.969 126.07C119.969 124.412 121.311 123.07 122.969 123.07C124.626 123.07 125.969 124.412 125.969 126.07Z" fill="#42A584"/>
<path fill-rule="evenodd" clip-rule="evenodd" d="M140.969 126.07C140.969 127.727 139.626 129.07 137.969 129.07C136.311 129.07 134.969 127.727 134.969 126.07C134.969 124.412 136.311 123.07 137.969 123.07C139.626 123.07 140.969 124.412 140.969 126.07Z" fill="#42A584"/>
<path fill-rule="evenodd" clip-rule="evenodd" d="M140.969 126.07C140.969 127.727 139.626 129.07 137.969 129.07C136.311 129.07 134.969 127.727 134.969 126.07C134.969 124.412 136.311 123.07 137.969 123.07C139.626 123.07 140.969 124.412 140.969 126.07Z" fill="#42A584"/>
<path fill-rule="evenodd" clip-rule="evenodd" d="M156.969 126.07C156.969 127.727 155.626 129.07 153.969 129.07C152.311 129.07 150.969 127.727 150.969 126.07C150.969 124.412 152.311 123.07 153.969 123.07C155.626 123.07 156.969 124.412 156.969 126.07Z" fill="#42A584"/>
<path fill-rule="evenodd" clip-rule="evenodd" d="M156.969 126.07C156.969 127.727 155.626 129.07 153.969 129.07C152.311 129.07 150.969 127.727 150.969 126.07C150.969 124.412 152.311 123.07 153.969 123.07C155.626 123.07 156.969 124.412 156.969 126.07Z" fill="#42A584"/>
<path fill-rule="evenodd" clip-rule="evenodd" d="M171.969 126.07C171.969 127.727 170.626 129.07 168.969 129.07C167.311 129.07 165.969 127.727 165.969 126.07C165.969 124.412 167.311 123.07 168.969 123.07C170.626 123.07 171.969 124.412 171.969 126.07Z" fill="#42A584"/>
<path fill-rule="evenodd" clip-rule="evenodd" d="M171.969 126.07C171.969 127.727 170.626 129.07 168.969 129.07C167.311 129.07 165.969 127.727 165.969 126.07C165.969 124.412 167.311 123.07 168.969 123.07C170.626 123.07 171.969 124.412 171.969 126.07Z" fill="#42A584"/>
<path fill-rule="evenodd" clip-rule="evenodd" d="M187.969 126.07C187.969 127.727 186.626 129.07 184.969 129.07C183.311 129.07 181.969 127.727 181.969 126.07C181.969 124.412 183.311 123.07 184.969 123.07C186.626 123.07 187.969 124.412 187.969 126.07Z" fill="#42A584"/>
<path fill-rule="evenodd" clip-rule="evenodd" d="M187.969 126.07C187.969 127.727 186.626 129.07 184.969 129.07C183.311 129.07 181.969 127.727 181.969 126.07C181.969 124.412 183.311 123.07 184.969 123.07C186.626 123.07 187.969 124.412 187.969 126.07Z" fill="#42A584"/>
<path fill-rule="evenodd" clip-rule="evenodd" d="M202.969 126.07C202.969 127.727 201.626 129.07 199.969 129.07C198.311 129.07 196.969 127.727 196.969 126.07C196.969 124.412 198.311 123.07 199.969 123.07C201.626 123.07 202.969 124.412 202.969 126.07Z" fill="#42A584"/>
<path fill-rule="evenodd" clip-rule="evenodd" d="M202.969 126.07C202.969 127.727 201.626 129.07 199.969 129.07C198.311 129.07 196.969 127.727 196.969 126.07C196.969 124.412 198.311 123.07 199.969 123.07C201.626 123.07 202.969 124.412 202.969 126.07Z" fill="#42A584"/>
<path fill-rule="evenodd" clip-rule="evenodd" d="M217.969 126.07C217.969 127.727 216.626 129.07 214.969 129.07C213.311 129.07 211.969 127.727 211.969 126.07C211.969 124.412 213.311 123.07 214.969 123.07C216.626 123.07 217.969 124.412 217.969 126.07Z" fill="#42A584"/>
<path fill-rule="evenodd" clip-rule="evenodd" d="M217.969 126.07C217.969 127.727 216.626 129.07 214.969 129.07C213.311 129.07 211.969 127.727 211.969 126.07C211.969 124.412 213.311 123.07 214.969 123.07C216.626 123.07 217.969 124.412 217.969 126.07Z" fill="#42A584"/>
<path fill-rule="evenodd" clip-rule="evenodd" d="M233.969 126.07C233.969 127.727 232.626 129.07 230.969 129.07C229.311 129.07 227.969 127.727 227.969 126.07C227.969 124.412 229.311 123.07 230.969 123.07C232.626 123.07 233.969 124.412 233.969 126.07Z" fill="#42A584"/>
<path fill-rule="evenodd" clip-rule="evenodd" d="M233.969 126.07C233.969 127.727 232.626 129.07 230.969 129.07C229.311 129.07 227.969 127.727 227.969 126.07C227.969 124.412 229.311 123.07 230.969 123.07C232.626 123.07 233.969 124.412 233.969 126.07Z" fill="#42A584"/>
<path fill-rule="evenodd" clip-rule="evenodd" d="M63.9688 142.07C63.9688 143.727 62.6263 145.07 60.9688 145.07C59.3112 145.07 57.9688 143.727 57.9688 142.07C57.9688 140.412 59.3112 139.07 60.9688 139.07C62.6263 139.07 63.9688 140.412 63.9688 142.07Z" fill="#42A584"/>
<path fill-rule="evenodd" clip-rule="evenodd" d="M63.9688 142.07C63.9688 143.727 62.6263 145.07 60.9688 145.07C59.3112 145.07 57.9688 143.727 57.9688 142.07C57.9688 140.412 59.3112 139.07 60.9688 139.07C62.6263 139.07 63.9688 140.412 63.9688 142.07Z" fill="#42A584"/>
<path fill-rule="evenodd" clip-rule="evenodd" d="M79.9688 142.07C79.9688 143.727 78.6263 145.07 76.9688 145.07C75.3112 145.07 73.9688 143.727 73.9688 142.07C73.9688 140.412 75.3112 139.07 76.9688 139.07C78.6263 139.07 79.9688 140.412 79.9688 142.07Z" fill="#42A584"/>
<path fill-rule="evenodd" clip-rule="evenodd" d="M79.9688 142.07C79.9688 143.727 78.6263 145.07 76.9688 145.07C75.3112 145.07 73.9688 143.727 73.9688 142.07C73.9688 140.412 75.3112 139.07 76.9688 139.07C78.6263 139.07 79.9688 140.412 79.9688 142.07Z" fill="#42A584"/>
<path fill-rule="evenodd" clip-rule="evenodd" d="M94.9688 142.07C94.9688 143.727 93.6263 145.07 91.9688 145.07C90.3112 145.07 88.9688 143.727 88.9688 142.07C88.9688 140.412 90.3112 139.07 91.9688 139.07C93.6263 139.07 94.9688 140.412 94.9688 142.07Z" fill="#42A584"/>
<path fill-rule="evenodd" clip-rule="evenodd" d="M94.9688 142.07C94.9688 143.727 93.6263 145.07 91.9688 145.07C90.3112 145.07 88.9688 143.727 88.9688 142.07C88.9688 140.412 90.3112 139.07 91.9688 139.07C93.6263 139.07 94.9688 140.412 94.9688 142.07Z" fill="#42A584"/>
<path fill-rule="evenodd" clip-rule="evenodd" d="M109.969 142.07C109.969 143.727 108.626 145.07 106.969 145.07C105.311 145.07 103.969 143.727 103.969 142.07C103.969 140.412 105.311 139.07 106.969 139.07C108.626 139.07 109.969 140.412 109.969 142.07Z" fill="#42A584"/>
<path fill-rule="evenodd" clip-rule="evenodd" d="M109.969 142.07C109.969 143.727 108.626 145.07 106.969 145.07C105.311 145.07 103.969 143.727 103.969 142.07C103.969 140.412 105.311 139.07 106.969 139.07C108.626 139.07 109.969 140.412 109.969 142.07Z" fill="#42A584"/>
<path fill-rule="evenodd" clip-rule="evenodd" d="M125.969 142.07C125.969 143.727 124.626 145.07 122.969 145.07C121.311 145.07 119.969 143.727 119.969 142.07C119.969 140.412 121.311 139.07 122.969 139.07C124.626 139.07 125.969 140.412 125.969 142.07Z" fill="#42A584"/>
<path fill-rule="evenodd" clip-rule="evenodd" d="M125.969 142.07C125.969 143.727 124.626 145.07 122.969 145.07C121.311 145.07 119.969 143.727 119.969 142.07C119.969 140.412 121.311 139.07 122.969 139.07C124.626 139.07 125.969 140.412 125.969 142.07Z" fill="#42A584"/>
<path fill-rule="evenodd" clip-rule="evenodd" d="M140.969 142.07C140.969 143.727 139.626 145.07 137.969 145.07C136.311 145.07 134.969 143.727 134.969 142.07C134.969 140.412 136.311 139.07 137.969 139.07C139.626 139.07 140.969 140.412 140.969 142.07Z" fill="#42A584"/>
<path fill-rule="evenodd" clip-rule="evenodd" d="M140.969 142.07C140.969 143.727 139.626 145.07 137.969 145.07C136.311 145.07 134.969 143.727 134.969 142.07C134.969 140.412 136.311 139.07 137.969 139.07C139.626 139.07 140.969 140.412 140.969 142.07Z" fill="#42A584"/>
<path fill-rule="evenodd" clip-rule="evenodd" d="M156.969 142.07C156.969 143.727 155.626 145.07 153.969 145.07C152.311 145.07 150.969 143.727 150.969 142.07C150.969 140.412 152.311 139.07 153.969 139.07C155.626 139.07 156.969 140.412 156.969 142.07Z" fill="#42A584"/>
<path fill-rule="evenodd" clip-rule="evenodd" d="M156.969 142.07C156.969 143.727 155.626 145.07 153.969 145.07C152.311 145.07 150.969 143.727 150.969 142.07C150.969 140.412 152.311 139.07 153.969 139.07C155.626 139.07 156.969 140.412 156.969 142.07Z" fill="#42A584"/>
<path fill-rule="evenodd" clip-rule="evenodd" d="M171.969 142.07C171.969 143.727 170.626 145.07 168.969 145.07C167.311 145.07 165.969 143.727 165.969 142.07C165.969 140.412 167.311 139.07 168.969 139.07C170.626 139.07 171.969 140.412 171.969 142.07Z" fill="#42A584"/>
<path fill-rule="evenodd" clip-rule="evenodd" d="M171.969 142.07C171.969 143.727 170.626 145.07 168.969 145.07C167.311 145.07 165.969 143.727 165.969 142.07C165.969 140.412 167.311 139.07 168.969 139.07C170.626 139.07 171.969 140.412 171.969 142.07Z" fill="#42A584"/>
<path fill-rule="evenodd" clip-rule="evenodd" d="M187.969 142.07C187.969 143.727 186.626 145.07 184.969 145.07C183.311 145.07 181.969 143.727 181.969 142.07C181.969 140.412 183.311 139.07 184.969 139.07C186.626 139.07 187.969 140.412 187.969 142.07Z" fill="#42A584"/>
<path fill-rule="evenodd" clip-rule="evenodd" d="M187.969 142.07C187.969 143.727 186.626 145.07 184.969 145.07C183.311 145.07 181.969 143.727 181.969 142.07C181.969 140.412 183.311 139.07 184.969 139.07C186.626 139.07 187.969 140.412 187.969 142.07Z" fill="#42A584"/>
<path fill-rule="evenodd" clip-rule="evenodd" d="M202.969 142.07C202.969 143.727 201.626 145.07 199.969 145.07C198.311 145.07 196.969 143.727 196.969 142.07C196.969 140.412 198.311 139.07 199.969 139.07C201.626 139.07 202.969 140.412 202.969 142.07Z" fill="#42A584"/>
<path fill-rule="evenodd" clip-rule="evenodd" d="M202.969 142.07C202.969 143.727 201.626 145.07 199.969 145.07C198.311 145.07 196.969 143.727 196.969 142.07C196.969 140.412 198.311 139.07 199.969 139.07C201.626 139.07 202.969 140.412 202.969 142.07Z" fill="#42A584"/>
<path fill-rule="evenodd" clip-rule="evenodd" d="M217.969 142.07C217.969 143.727 216.626 145.07 214.969 145.07C213.311 145.07 211.969 143.727 211.969 142.07C211.969 140.412 213.311 139.07 214.969 139.07C216.626 139.07 217.969 140.412 217.969 142.07Z" fill="#42A584"/>
<path fill-rule="evenodd" clip-rule="evenodd" d="M217.969 142.07C217.969 143.727 216.626 145.07 214.969 145.07C213.311 145.07 211.969 143.727 211.969 142.07C211.969 140.412 213.311 139.07 214.969 139.07C216.626 139.07 217.969 140.412 217.969 142.07Z" fill="#42A584"/>
<path fill-rule="evenodd" clip-rule="evenodd" d="M233.969 142.07C233.969 143.727 232.626 145.07 230.969 145.07C229.311 145.07 227.969 143.727 227.969 142.07C227.969 140.412 229.311 139.07 230.969 139.07C232.626 139.07 233.969 140.412 233.969 142.07Z" fill="#42A584"/>
<path fill-rule="evenodd" clip-rule="evenodd" d="M233.969 142.07C233.969 143.727 232.626 145.07 230.969 145.07C229.311 145.07 227.969 143.727 227.969 142.07C227.969 140.412 229.311 139.07 230.969 139.07C232.626 139.07 233.969 140.412 233.969 142.07Z" fill="#42A584"/>
<path fill-rule="evenodd" clip-rule="evenodd" d="M63.9688 157.07C63.9688 158.727 62.6263 160.07 60.9688 160.07C59.3112 160.07 57.9688 158.727 57.9688 157.07C57.9688 155.412 59.3112 154.07 60.9688 154.07C62.6263 154.07 63.9688 155.412 63.9688 157.07Z" fill="#42A584"/>
<path fill-rule="evenodd" clip-rule="evenodd" d="M63.9688 157.07C63.9688 158.727 62.6263 160.07 60.9688 160.07C59.3112 160.07 57.9688 158.727 57.9688 157.07C57.9688 155.412 59.3112 154.07 60.9688 154.07C62.6263 154.07 63.9688 155.412 63.9688 157.07Z" fill="#42A584"/>
<path fill-rule="evenodd" clip-rule="evenodd" d="M79.9688 157.07C79.9688 158.727 78.6263 160.07 76.9688 160.07C75.3112 160.07 73.9688 158.727 73.9688 157.07C73.9688 155.412 75.3112 154.07 76.9688 154.07C78.6263 154.07 79.9688 155.412 79.9688 157.07Z" fill="#42A584"/>
<path fill-rule="evenodd" clip-rule="evenodd" d="M79.9688 157.07C79.9688 158.727 78.6263 160.07 76.9688 160.07C75.3112 160.07 73.9688 158.727 73.9688 157.07C73.9688 155.412 75.3112 154.07 76.9688 154.07C78.6263 154.07 79.9688 155.412 79.9688 157.07Z" fill="#42A584"/>
<path fill-rule="evenodd" clip-rule="evenodd" d="M94.9688 157.07C94.9688 158.727 93.6263 160.07 91.9688 160.07C90.3112 160.07 88.9688 158.727 88.9688 157.07C88.9688 155.412 90.3112 154.07 91.9688 154.07C93.6263 154.07 94.9688 155.412 94.9688 157.07Z" fill="#42A584"/>
<path fill-rule="evenodd" clip-rule="evenodd" d="M94.9688 157.07C94.9688 158.727 93.6263 160.07 91.9688 160.07C90.3112 160.07 88.9688 158.727 88.9688 157.07C88.9688 155.412 90.3112 154.07 91.9688 154.07C93.6263 154.07 94.9688 155.412 94.9688 157.07Z" fill="#42A584"/>
<path fill-rule="evenodd" clip-rule="evenodd" d="M109.969 157.07C109.969 158.727 108.626 160.07 106.969 160.07C105.311 160.07 103.969 158.727 103.969 157.07C103.969 155.412 105.311 154.07 106.969 154.07C108.626 154.07 109.969 155.412 109.969 157.07Z" fill="#42A584"/>
<path fill-rule="evenodd" clip-rule="evenodd" d="M109.969 157.07C109.969 158.727 108.626 160.07 106.969 160.07C105.311 160.07 103.969 158.727 103.969 157.07C103.969 155.412 105.311 154.07 106.969 154.07C108.626 154.07 109.969 155.412 109.969 157.07Z" fill="#42A584"/>
<path fill-rule="evenodd" clip-rule="evenodd" d="M125.969 157.07C125.969 158.727 124.626 160.07 122.969 160.07C121.311 160.07 119.969 158.727 119.969 157.07C119.969 155.412 121.311 154.07 122.969 154.07C124.626 154.07 125.969 155.412 125.969 157.07Z" fill="#42A584"/>
<path fill-rule="evenodd" clip-rule="evenodd" d="M125.969 157.07C125.969 158.727 124.626 160.07 122.969 160.07C121.311 160.07 119.969 158.727 119.969 157.07C119.969 155.412 121.311 154.07 122.969 154.07C124.626 154.07 125.969 155.412 125.969 157.07Z" fill="#42A584"/>
<path fill-rule="evenodd" clip-rule="evenodd" d="M140.969 157.07C140.969 158.727 139.626 160.07 137.969 160.07C136.311 160.07 134.969 158.727 134.969 157.07C134.969 155.412 136.311 154.07 137.969 154.07C139.626 154.07 140.969 155.412 140.969 157.07Z" fill="#42A584"/>
<path fill-rule="evenodd" clip-rule="evenodd" d="M140.969 157.07C140.969 158.727 139.626 160.07 137.969 160.07C136.311 160.07 134.969 158.727 134.969 157.07C134.969 155.412 136.311 154.07 137.969 154.07C139.626 154.07 140.969 155.412 140.969 157.07Z" fill="#42A584"/>
<path fill-rule="evenodd" clip-rule="evenodd" d="M156.969 157.07C156.969 158.727 155.626 160.07 153.969 160.07C152.311 160.07 150.969 158.727 150.969 157.07C150.969 155.412 152.311 154.07 153.969 154.07C155.626 154.07 156.969 155.412 156.969 157.07Z" fill="#42A584"/>
<path fill-rule="evenodd" clip-rule="evenodd" d="M156.969 157.07C156.969 158.727 155.626 160.07 153.969 160.07C152.311 160.07 150.969 158.727 150.969 157.07C150.969 155.412 152.311 154.07 153.969 154.07C155.626 154.07 156.969 155.412 156.969 157.07Z" fill="#42A584"/>
<path fill-rule="evenodd" clip-rule="evenodd" d="M171.969 157.07C171.969 158.727 170.626 160.07 168.969 160.07C167.311 160.07 165.969 158.727 165.969 157.07C165.969 155.412 167.311 154.07 168.969 154.07C170.626 154.07 171.969 155.412 171.969 157.07Z" fill="#42A584"/>
<path fill-rule="evenodd" clip-rule="evenodd" d="M171.969 157.07C171.969 158.727 170.626 160.07 168.969 160.07C167.311 160.07 165.969 158.727 165.969 157.07C165.969 155.412 167.311 154.07 168.969 154.07C170.626 154.07 171.969 155.412 171.969 157.07Z" fill="#42A584"/>
<path fill-rule="evenodd" clip-rule="evenodd" d="M187.969 157.07C187.969 158.727 186.626 160.07 184.969 160.07C183.311 160.07 181.969 158.727 181.969 157.07C181.969 155.412 183.311 154.07 184.969 154.07C186.626 154.07 187.969 155.412 187.969 157.07Z" fill="#42A584"/>
<path fill-rule="evenodd" clip-rule="evenodd" d="M187.969 157.07C187.969 158.727 186.626 160.07 184.969 160.07C183.311 160.07 181.969 158.727 181.969 157.07C181.969 155.412 183.311 154.07 184.969 154.07C186.626 154.07 187.969 155.412 187.969 157.07Z" fill="#42A584"/>
<path fill-rule="evenodd" clip-rule="evenodd" d="M202.969 157.07C202.969 158.727 201.626 160.07 199.969 160.07C198.311 160.07 196.969 158.727 196.969 157.07C196.969 155.412 198.311 154.07 199.969 154.07C201.626 154.07 202.969 155.412 202.969 157.07Z" fill="#42A584"/>
<path fill-rule="evenodd" clip-rule="evenodd" d="M202.969 157.07C202.969 158.727 201.626 160.07 199.969 160.07C198.311 160.07 196.969 158.727 196.969 157.07C196.969 155.412 198.311 154.07 199.969 154.07C201.626 154.07 202.969 155.412 202.969 157.07Z" fill="#42A584"/>
<path fill-rule="evenodd" clip-rule="evenodd" d="M217.969 157.07C217.969 158.727 216.626 160.07 214.969 160.07C213.311 160.07 211.969 158.727 211.969 157.07C211.969 155.412 213.311 154.07 214.969 154.07C216.626 154.07 217.969 155.412 217.969 157.07Z" fill="#42A584"/>
<path fill-rule="evenodd" clip-rule="evenodd" d="M217.969 157.07C217.969 158.727 216.626 160.07 214.969 160.07C213.311 160.07 211.969 158.727 211.969 157.07C211.969 155.412 213.311 154.07 214.969 154.07C216.626 154.07 217.969 155.412 217.969 157.07Z" fill="#42A584"/>
<path fill-rule="evenodd" clip-rule="evenodd" d="M233.969 157.07C233.969 158.727 232.626 160.07 230.969 160.07C229.311 160.07 227.969 158.727 227.969 157.07C227.969 155.412 229.311 154.07 230.969 154.07C232.626 154.07 233.969 155.412 233.969 157.07Z" fill="#42A584"/>
<path fill-rule="evenodd" clip-rule="evenodd" d="M233.969 157.07C233.969 158.727 232.626 160.07 230.969 160.07C229.311 160.07 227.969 158.727 227.969 157.07C227.969 155.412 229.311 154.07 230.969 154.07C232.626 154.07 233.969 155.412 233.969 157.07Z" fill="#42A584"/>
<path fill-rule="evenodd" clip-rule="evenodd" d="M63.9688 173.07C63.9688 174.727 62.6263 176.07 60.9688 176.07C59.3112 176.07 57.9688 174.727 57.9688 173.07C57.9688 171.412 59.3112 170.07 60.9688 170.07C62.6263 170.07 63.9688 171.412 63.9688 173.07Z" fill="#42A584"/>
<path fill-rule="evenodd" clip-rule="evenodd" d="M63.9688 173.07C63.9688 174.727 62.6263 176.07 60.9688 176.07C59.3112 176.07 57.9688 174.727 57.9688 173.07C57.9688 171.412 59.3112 170.07 60.9688 170.07C62.6263 170.07 63.9688 171.412 63.9688 173.07Z" fill="#42A584"/>
<path fill-rule="evenodd" clip-rule="evenodd" d="M79.9688 173.07C79.9688 174.727 78.6263 176.07 76.9688 176.07C75.3112 176.07 73.9688 174.727 73.9688 173.07C73.9688 171.412 75.3112 170.07 76.9688 170.07C78.6263 170.07 79.9688 171.412 79.9688 173.07Z" fill="#42A584"/>
<path fill-rule="evenodd" clip-rule="evenodd" d="M79.9688 173.07C79.9688 174.727 78.6263 176.07 76.9688 176.07C75.3112 176.07 73.9688 174.727 73.9688 173.07C73.9688 171.412 75.3112 170.07 76.9688 170.07C78.6263 170.07 79.9688 171.412 79.9688 173.07Z" fill="#42A584"/>
<path fill-rule="evenodd" clip-rule="evenodd" d="M94.9688 173.07C94.9688 174.727 93.6263 176.07 91.9688 176.07C90.3112 176.07 88.9688 174.727 88.9688 173.07C88.9688 171.412 90.3112 170.07 91.9688 170.07C93.6263 170.07 94.9688 171.412 94.9688 173.07Z" fill="#42A584"/>
<path fill-rule="evenodd" clip-rule="evenodd" d="M94.9688 173.07C94.9688 174.727 93.6263 176.07 91.9688 176.07C90.3112 176.07 88.9688 174.727 88.9688 173.07C88.9688 171.412 90.3112 170.07 91.9688 170.07C93.6263 170.07 94.9688 171.412 94.9688 173.07Z" fill="#42A584"/>
<path fill-rule="evenodd" clip-rule="evenodd" d="M109.969 173.07C109.969 174.727 108.626 176.07 106.969 176.07C105.311 176.07 103.969 174.727 103.969 173.07C103.969 171.412 105.311 170.07 106.969 170.07C108.626 170.07 109.969 171.412 109.969 173.07Z" fill="#42A584"/>
<path fill-rule="evenodd" clip-rule="evenodd" d="M109.969 173.07C109.969 174.727 108.626 176.07 106.969 176.07C105.311 176.07 103.969 174.727 103.969 173.07C103.969 171.412 105.311 170.07 106.969 170.07C108.626 170.07 109.969 171.412 109.969 173.07Z" fill="#42A584"/>
<path fill-rule="evenodd" clip-rule="evenodd" d="M125.969 173.07C125.969 174.727 124.626 176.07 122.969 176.07C121.311 176.07 119.969 174.727 119.969 173.07C119.969 171.412 121.311 170.07 122.969 170.07C124.626 170.07 125.969 171.412 125.969 173.07Z" fill="#42A584"/>
<path fill-rule="evenodd" clip-rule="evenodd" d="M125.969 173.07C125.969 174.727 124.626 176.07 122.969 176.07C121.311 176.07 119.969 174.727 119.969 173.07C119.969 171.412 121.311 170.07 122.969 170.07C124.626 170.07 125.969 171.412 125.969 173.07Z" fill="#42A584"/>
<path fill-rule="evenodd" clip-rule="evenodd" d="M140.969 173.07C140.969 174.727 139.626 176.07 137.969 176.07C136.311 176.07 134.969 174.727 134.969 173.07C134.969 171.412 136.311 170.07 137.969 170.07C139.626 170.07 140.969 171.412 140.969 173.07Z" fill="#42A584"/>
<path fill-rule="evenodd" clip-rule="evenodd" d="M140.969 173.07C140.969 174.727 139.626 176.07 137.969 176.07C136.311 176.07 134.969 174.727 134.969 173.07C134.969 171.412 136.311 170.07 137.969 170.07C139.626 170.07 140.969 171.412 140.969 173.07Z" fill="#42A584"/>
<path fill-rule="evenodd" clip-rule="evenodd" d="M156.969 173.07C156.969 174.727 155.626 176.07 153.969 176.07C152.311 176.07 150.969 174.727 150.969 173.07C150.969 171.412 152.311 170.07 153.969 170.07C155.626 170.07 156.969 171.412 156.969 173.07Z" fill="#42A584"/>
<path fill-rule="evenodd" clip-rule="evenodd" d="M156.969 173.07C156.969 174.727 155.626 176.07 153.969 176.07C152.311 176.07 150.969 174.727 150.969 173.07C150.969 171.412 152.311 170.07 153.969 170.07C155.626 170.07 156.969 171.412 156.969 173.07Z" fill="#42A584"/>
<path fill-rule="evenodd" clip-rule="evenodd" d="M171.969 173.07C171.969 174.727 170.626 176.07 168.969 176.07C167.311 176.07 165.969 174.727 165.969 173.07C165.969 171.412 167.311 170.07 168.969 170.07C170.626 170.07 171.969 171.412 171.969 173.07Z" fill="#42A584"/>
<path fill-rule="evenodd" clip-rule="evenodd" d="M171.969 173.07C171.969 174.727 170.626 176.07 168.969 176.07C167.311 176.07 165.969 174.727 165.969 173.07C165.969 171.412 167.311 170.07 168.969 170.07C170.626 170.07 171.969 171.412 171.969 173.07Z" fill="#42A584"/>
<path fill-rule="evenodd" clip-rule="evenodd" d="M187.969 173.07C187.969 174.727 186.626 176.07 184.969 176.07C183.311 176.07 181.969 174.727 181.969 173.07C181.969 171.412 183.311 170.07 184.969 170.07C186.626 170.07 187.969 171.412 187.969 173.07Z" fill="#42A584"/>
<path fill-rule="evenodd" clip-rule="evenodd" d="M187.969 173.07C187.969 174.727 186.626 176.07 184.969 176.07C183.311 176.07 181.969 174.727 181.969 173.07C181.969 171.412 183.311 170.07 184.969 170.07C186.626 170.07 187.969 171.412 187.969 173.07Z" fill="#42A584"/>
<path fill-rule="evenodd" clip-rule="evenodd" d="M202.969 173.07C202.969 174.727 201.626 176.07 199.969 176.07C198.311 176.07 196.969 174.727 196.969 173.07C196.969 171.412 198.311 170.07 199.969 170.07C201.626 170.07 202.969 171.412 202.969 173.07Z" fill="#42A584"/>
<path fill-rule="evenodd" clip-rule="evenodd" d="M202.969 173.07C202.969 174.727 201.626 176.07 199.969 176.07C198.311 176.07 196.969 174.727 196.969 173.07C196.969 171.412 198.311 170.07 199.969 170.07C201.626 170.07 202.969 171.412 202.969 173.07Z" fill="#42A584"/>
<path fill-rule="evenodd" clip-rule="evenodd" d="M217.969 173.07C217.969 174.727 216.626 176.07 214.969 176.07C213.311 176.07 211.969 174.727 211.969 173.07C211.969 171.412 213.311 170.07 214.969 170.07C216.626 170.07 217.969 171.412 217.969 173.07Z" fill="#42A584"/>
<path fill-rule="evenodd" clip-rule="evenodd" d="M217.969 173.07C217.969 174.727 216.626 176.07 214.969 176.07C213.311 176.07 211.969 174.727 211.969 173.07C211.969 171.412 213.311 170.07 214.969 170.07C216.626 170.07 217.969 171.412 217.969 173.07Z" fill="#42A584"/>
<path fill-rule="evenodd" clip-rule="evenodd" d="M233.969 173.07C233.969 174.727 232.626 176.07 230.969 176.07C229.311 176.07 227.969 174.727 227.969 173.07C227.969 171.412 229.311 170.07 230.969 170.07C232.626 170.07 233.969 171.412 233.969 173.07Z" fill="#42A584"/>
<path fill-rule="evenodd" clip-rule="evenodd" d="M233.969 173.07C233.969 174.727 232.626 176.07 230.969 176.07C229.311 176.07 227.969 174.727 227.969 173.07C227.969 171.412 229.311 170.07 230.969 170.07C232.626 170.07 233.969 171.412 233.969 173.07Z" fill="#42A584"/>
<path fill-rule="evenodd" clip-rule="evenodd" d="M63.9688 188.07C63.9688 189.727 62.6263 191.07 60.9688 191.07C59.3112 191.07 57.9688 189.727 57.9688 188.07C57.9688 186.412 59.3112 185.07 60.9688 185.07C62.6263 185.07 63.9688 186.412 63.9688 188.07Z" fill="#42A584"/>
<path fill-rule="evenodd" clip-rule="evenodd" d="M63.9688 188.07C63.9688 189.727 62.6263 191.07 60.9688 191.07C59.3112 191.07 57.9688 189.727 57.9688 188.07C57.9688 186.412 59.3112 185.07 60.9688 185.07C62.6263 185.07 63.9688 186.412 63.9688 188.07Z" fill="#42A584"/>
<path fill-rule="evenodd" clip-rule="evenodd" d="M79.9688 188.07C79.9688 189.727 78.6263 191.07 76.9688 191.07C75.3112 191.07 73.9688 189.727 73.9688 188.07C73.9688 186.412 75.3112 185.07 76.9688 185.07C78.6263 185.07 79.9688 186.412 79.9688 188.07Z" fill="#42A584"/>
<path fill-rule="evenodd" clip-rule="evenodd" d="M79.9688 188.07C79.9688 189.727 78.6263 191.07 76.9688 191.07C75.3112 191.07 73.9688 189.727 73.9688 188.07C73.9688 186.412 75.3112 185.07 76.9688 185.07C78.6263 185.07 79.9688 186.412 79.9688 188.07Z" fill="#42A584"/>
<path fill-rule="evenodd" clip-rule="evenodd" d="M94.9688 188.07C94.9688 189.727 93.6263 191.07 91.9688 191.07C90.3112 191.07 88.9688 189.727 88.9688 188.07C88.9688 186.412 90.3112 185.07 91.9688 185.07C93.6263 185.07 94.9688 186.412 94.9688 188.07Z" fill="#42A584"/>
<path fill-rule="evenodd" clip-rule="evenodd" d="M94.9688 188.07C94.9688 189.727 93.6263 191.07 91.9688 191.07C90.3112 191.07 88.9688 189.727 88.9688 188.07C88.9688 186.412 90.3112 185.07 91.9688 185.07C93.6263 185.07 94.9688 186.412 94.9688 188.07Z" fill="#42A584"/>
<path fill-rule="evenodd" clip-rule="evenodd" d="M109.969 188.07C109.969 189.727 108.626 191.07 106.969 191.07C105.311 191.07 103.969 189.727 103.969 188.07C103.969 186.412 105.311 185.07 106.969 185.07C108.626 185.07 109.969 186.412 109.969 188.07Z" fill="#42A584"/>
<path fill-rule="evenodd" clip-rule="evenodd" d="M109.969 188.07C109.969 189.727 108.626 191.07 106.969 191.07C105.311 191.07 103.969 189.727 103.969 188.07C103.969 186.412 105.311 185.07 106.969 185.07C108.626 185.07 109.969 186.412 109.969 188.07Z" fill="#42A584"/>
<path fill-rule="evenodd" clip-rule="evenodd" d="M125.969 188.07C125.969 189.727 124.626 191.07 122.969 191.07C121.311 191.07 119.969 189.727 119.969 188.07C119.969 186.412 121.311 185.07 122.969 185.07C124.626 185.07 125.969 186.412 125.969 188.07Z" fill="#42A584"/>
<path fill-rule="evenodd" clip-rule="evenodd" d="M125.969 188.07C125.969 189.727 124.626 191.07 122.969 191.07C121.311 191.07 119.969 189.727 119.969 188.07C119.969 186.412 121.311 185.07 122.969 185.07C124.626 185.07 125.969 186.412 125.969 188.07Z" fill="#42A584"/>
<path fill-rule="evenodd" clip-rule="evenodd" d="M140.969 188.07C140.969 189.727 139.626 191.07 137.969 191.07C136.311 191.07 134.969 189.727 134.969 188.07C134.969 186.412 136.311 185.07 137.969 185.07C139.626 185.07 140.969 186.412 140.969 188.07Z" fill="#42A584"/>
<path fill-rule="evenodd" clip-rule="evenodd" d="M140.969 188.07C140.969 189.727 139.626 191.07 137.969 191.07C136.311 191.07 134.969 189.727 134.969 188.07C134.969 186.412 136.311 185.07 137.969 185.07C139.626 185.07 140.969 186.412 140.969 188.07Z" fill="#42A584"/>
<path fill-rule="evenodd" clip-rule="evenodd" d="M156.969 188.07C156.969 189.727 155.626 191.07 153.969 191.07C152.311 191.07 150.969 189.727 150.969 188.07C150.969 186.412 152.311 185.07 153.969 185.07C155.626 185.07 156.969 186.412 156.969 188.07Z" fill="#42A584"/>
<path fill-rule="evenodd" clip-rule="evenodd" d="M156.969 188.07C156.969 189.727 155.626 191.07 153.969 191.07C152.311 191.07 150.969 189.727 150.969 188.07C150.969 186.412 152.311 185.07 153.969 185.07C155.626 185.07 156.969 186.412 156.969 188.07Z" fill="#42A584"/>
<path fill-rule="evenodd" clip-rule="evenodd" d="M171.969 188.07C171.969 189.727 170.626 191.07 168.969 191.07C167.311 191.07 165.969 189.727 165.969 188.07C165.969 186.412 167.311 185.07 168.969 185.07C170.626 185.07 171.969 186.412 171.969 188.07Z" fill="#42A584"/>
<path fill-rule="evenodd" clip-rule="evenodd" d="M171.969 188.07C171.969 189.727 170.626 191.07 168.969 191.07C167.311 191.07 165.969 189.727 165.969 188.07C165.969 186.412 167.311 185.07 168.969 185.07C170.626 185.07 171.969 186.412 171.969 188.07Z" fill="#42A584"/>
<path fill-rule="evenodd" clip-rule="evenodd" d="M187.969 188.07C187.969 189.727 186.626 191.07 184.969 191.07C183.311 191.07 181.969 189.727 181.969 188.07C181.969 186.412 183.311 185.07 184.969 185.07C186.626 185.07 187.969 186.412 187.969 188.07Z" fill="#42A584"/>
<path fill-rule="evenodd" clip-rule="evenodd" d="M187.969 188.07C187.969 189.727 186.626 191.07 184.969 191.07C183.311 191.07 181.969 189.727 181.969 188.07C181.969 186.412 183.311 185.07 184.969 185.07C186.626 185.07 187.969 186.412 187.969 188.07Z" fill="#42A584"/>
<path fill-rule="evenodd" clip-rule="evenodd" d="M202.969 188.07C202.969 189.727 201.626 191.07 199.969 191.07C198.311 191.07 196.969 189.727 196.969 188.07C196.969 186.412 198.311 185.07 199.969 185.07C201.626 185.07 202.969 186.412 202.969 188.07Z" fill="#42A584"/>
<path fill-rule="evenodd" clip-rule="evenodd" d="M202.969 188.07C202.969 189.727 201.626 191.07 199.969 191.07C198.311 191.07 196.969 189.727 196.969 188.07C196.969 186.412 198.311 185.07 199.969 185.07C201.626 185.07 202.969 186.412 202.969 188.07Z" fill="#42A584"/>
<path fill-rule="evenodd" clip-rule="evenodd" d="M217.969 188.07C217.969 189.727 216.626 191.07 214.969 191.07C213.311 191.07 211.969 189.727 211.969 188.07C211.969 186.412 213.311 185.07 214.969 185.07C216.626 185.07 217.969 186.412 217.969 188.07Z" fill="#42A584"/>
<path fill-rule="evenodd" clip-rule="evenodd" d="M217.969 188.07C217.969 189.727 216.626 191.07 214.969 191.07C213.311 191.07 211.969 189.727 211.969 188.07C211.969 186.412 213.311 185.07 214.969 185.07C216.626 185.07 217.969 186.412 217.969 188.07Z" fill="#42A584"/>
<path fill-rule="evenodd" clip-rule="evenodd" d="M233.969 188.07C233.969 189.727 232.626 191.07 230.969 191.07C229.311 191.07 227.969 189.727 227.969 188.07C227.969 186.412 229.311 185.07 230.969 185.07C232.626 185.07 233.969 186.412 233.969 188.07Z" fill="#42A584"/>
<path fill-rule="evenodd" clip-rule="evenodd" d="M233.969 188.07C233.969 189.727 232.626 191.07 230.969 191.07C229.311 191.07 227.969 189.727 227.969 188.07C227.969 186.412 229.311 185.07 230.969 185.07C232.626 185.07 233.969 186.412 233.969 188.07Z" fill="#42A584"/>
<path fill-rule="evenodd" clip-rule="evenodd" d="M79.9688 3.06982C79.9688 4.72732 78.6263 6.06982 76.9688 6.06982C75.3112 6.06982 73.9688 4.72732 73.9688 3.06982C73.9688 1.41232 75.3112 0.0698242 76.9688 0.0698242C78.6263 0.0698242 79.9688 1.41232 79.9688 3.06982Z" fill="#42A584"/>
<path fill-rule="evenodd" clip-rule="evenodd" d="M79.9688 3.06982C79.9688 4.72732 78.6263 6.06982 76.9688 6.06982C75.3112 6.06982 73.9688 4.72732 73.9688 3.06982C73.9688 1.41232 75.3112 0.0698242 76.9688 0.0698242C78.6263 0.0698242 79.9688 1.41232 79.9688 3.06982Z" fill="#42A584"/>
<path fill-rule="evenodd" clip-rule="evenodd" d="M94.9688 3.06982C94.9688 4.72732 93.6263 6.06982 91.9688 6.06982C90.3112 6.06982 88.9688 4.72732 88.9688 3.06982C88.9688 1.41232 90.3112 0.0698242 91.9688 0.0698242C93.6263 0.0698242 94.9688 1.41232 94.9688 3.06982Z" fill="#42A584"/>
<path fill-rule="evenodd" clip-rule="evenodd" d="M94.9688 3.06982C94.9688 4.72732 93.6263 6.06982 91.9688 6.06982C90.3112 6.06982 88.9688 4.72732 88.9688 3.06982C88.9688 1.41232 90.3112 0.0698242 91.9688 0.0698242C93.6263 0.0698242 94.9688 1.41232 94.9688 3.06982Z" fill="#42A584"/>
<path fill-rule="evenodd" clip-rule="evenodd" d="M109.969 3.06982C109.969 4.72732 108.626 6.06982 106.969 6.06982C105.311 6.06982 103.969 4.72732 103.969 3.06982C103.969 1.41232 105.311 0.0698242 106.969 0.0698242C108.626 0.0698242 109.969 1.41232 109.969 3.06982Z" fill="#42A584"/>
<path fill-rule="evenodd" clip-rule="evenodd" d="M109.969 3.06982C109.969 4.72732 108.626 6.06982 106.969 6.06982C105.311 6.06982 103.969 4.72732 103.969 3.06982C103.969 1.41232 105.311 0.0698242 106.969 0.0698242C108.626 0.0698242 109.969 1.41232 109.969 3.06982Z" fill="#42A584"/>
<path fill-rule="evenodd" clip-rule="evenodd" d="M125.969 3.06982C125.969 4.72732 124.626 6.06982 122.969 6.06982C121.311 6.06982 119.969 4.72732 119.969 3.06982C119.969 1.41232 121.311 0.0698242 122.969 0.0698242C124.626 0.0698242 125.969 1.41232 125.969 3.06982Z" fill="#42A584"/>
<path fill-rule="evenodd" clip-rule="evenodd" d="M125.969 3.06982C125.969 4.72732 124.626 6.06982 122.969 6.06982C121.311 6.06982 119.969 4.72732 119.969 3.06982C119.969 1.41232 121.311 0.0698242 122.969 0.0698242C124.626 0.0698242 125.969 1.41232 125.969 3.06982Z" fill="#42A584"/>
<path fill-rule="evenodd" clip-rule="evenodd" d="M140.969 3.06982C140.969 4.72732 139.626 6.06982 137.969 6.06982C136.311 6.06982 134.969 4.72732 134.969 3.06982C134.969 1.41232 136.311 0.0698242 137.969 0.0698242C139.626 0.0698242 140.969 1.41232 140.969 3.06982Z" fill="#42A584"/>
<path fill-rule="evenodd" clip-rule="evenodd" d="M140.969 3.06982C140.969 4.72732 139.626 6.06982 137.969 6.06982C136.311 6.06982 134.969 4.72732 134.969 3.06982C134.969 1.41232 136.311 0.0698242 137.969 0.0698242C139.626 0.0698242 140.969 1.41232 140.969 3.06982Z" fill="#42A584"/>
<path fill-rule="evenodd" clip-rule="evenodd" d="M156.969 3.06982C156.969 4.72732 155.626 6.06982 153.969 6.06982C152.311 6.06982 150.969 4.72732 150.969 3.06982C150.969 1.41232 152.311 0.0698242 153.969 0.0698242C155.626 0.0698242 156.969 1.41232 156.969 3.06982Z" fill="#42A584"/>
<path fill-rule="evenodd" clip-rule="evenodd" d="M156.969 3.06982C156.969 4.72732 155.626 6.06982 153.969 6.06982C152.311 6.06982 150.969 4.72732 150.969 3.06982C150.969 1.41232 152.311 0.0698242 153.969 0.0698242C155.626 0.0698242 156.969 1.41232 156.969 3.06982Z" fill="#42A584"/>
<path fill-rule="evenodd" clip-rule="evenodd" d="M171.969 3.06982C171.969 4.72732 170.626 6.06982 168.969 6.06982C167.311 6.06982 165.969 4.72732 165.969 3.06982C165.969 1.41232 167.311 0.0698242 168.969 0.0698242C170.626 0.0698242 171.969 1.41232 171.969 3.06982Z" fill="#42A584"/>
<path fill-rule="evenodd" clip-rule="evenodd" d="M171.969 3.06982C171.969 4.72732 170.626 6.06982 168.969 6.06982C167.311 6.06982 165.969 4.72732 165.969 3.06982C165.969 1.41232 167.311 0.0698242 168.969 0.0698242C170.626 0.0698242 171.969 1.41232 171.969 3.06982Z" fill="#42A584"/>
<path fill-rule="evenodd" clip-rule="evenodd" d="M187.969 3.06982C187.969 4.72732 186.626 6.06982 184.969 6.06982C183.311 6.06982 181.969 4.72732 181.969 3.06982C181.969 1.41232 183.311 0.0698242 184.969 0.0698242C186.626 0.0698242 187.969 1.41232 187.969 3.06982Z" fill="#42A584"/>
<path fill-rule="evenodd" clip-rule="evenodd" d="M187.969 3.06982C187.969 4.72732 186.626 6.06982 184.969 6.06982C183.311 6.06982 181.969 4.72732 181.969 3.06982C181.969 1.41232 183.311 0.0698242 184.969 0.0698242C186.626 0.0698242 187.969 1.41232 187.969 3.06982Z" fill="#42A584"/>
<path fill-rule="evenodd" clip-rule="evenodd" d="M202.969 3.06982C202.969 4.72732 201.626 6.06982 199.969 6.06982C198.311 6.06982 196.969 4.72732 196.969 3.06982C196.969 1.41232 198.311 0.0698242 199.969 0.0698242C201.626 0.0698242 202.969 1.41232 202.969 3.06982Z" fill="#42A584"/>
<path fill-rule="evenodd" clip-rule="evenodd" d="M202.969 3.06982C202.969 4.72732 201.626 6.06982 199.969 6.06982C198.311 6.06982 196.969 4.72732 196.969 3.06982C196.969 1.41232 198.311 0.0698242 199.969 0.0698242C201.626 0.0698242 202.969 1.41232 202.969 3.06982Z" fill="#42A584"/>
<path fill-rule="evenodd" clip-rule="evenodd" d="M217.969 3.06982C217.969 4.72732 216.626 6.06982 214.969 6.06982C213.311 6.06982 211.969 4.72732 211.969 3.06982C211.969 1.41232 213.311 0.0698242 214.969 0.0698242C216.626 0.0698242 217.969 1.41232 217.969 3.06982Z" fill="#42A584"/>
<path fill-rule="evenodd" clip-rule="evenodd" d="M217.969 3.06982C217.969 4.72732 216.626 6.06982 214.969 6.06982C213.311 6.06982 211.969 4.72732 211.969 3.06982C211.969 1.41232 213.311 0.0698242 214.969 0.0698242C216.626 0.0698242 217.969 1.41232 217.969 3.06982Z" fill="#42A584"/>
<path fill-rule="evenodd" clip-rule="evenodd" d="M233.969 3.06982C233.969 4.72732 232.626 6.06982 230.969 6.06982C229.311 6.06982 227.969 4.72732 227.969 3.06982C227.969 1.41232 229.311 0.0698242 230.969 0.0698242C232.626 0.0698242 233.969 1.41232 233.969 3.06982Z" fill="#42A584"/>
<path fill-rule="evenodd" clip-rule="evenodd" d="M233.969 3.06982C233.969 4.72732 232.626 6.06982 230.969 6.06982C229.311 6.06982 227.969 4.72732 227.969 3.06982C227.969 1.41232 229.311 0.0698242 230.969 0.0698242C232.626 0.0698242 233.969 1.41232 233.969 3.06982Z" fill="#42A584"/>
</svg>
