<svg width="32" height="32" viewBox="0 0 32 32" fill="none" xmlns="http://www.w3.org/2000/svg">
<path d="M23.2681 12.6352C23.0937 11.9424 22.5796 11.3967 21.9269 11.2115C20.7438 10.875 15.9999 10.875 15.9999 10.875C15.9999 10.875 11.256 10.875 10.073 11.2115C9.42026 11.3967 8.90621 11.9424 8.73173 12.6352C8.41473 13.8911 8.41473 16.5114 8.41473 16.5114C8.41473 16.5114 8.41473 19.1316 8.73173 20.3875C8.90621 21.0804 9.42026 21.6033 10.073 21.7885C11.256 22.125 15.9999 22.125 15.9999 22.125C15.9999 22.125 20.7438 22.125 21.9269 21.7885C22.5796 21.6033 23.0937 21.0804 23.2681 20.3875C23.5851 19.1316 23.5851 16.5114 23.5851 16.5114C23.5851 16.5114 23.5851 13.8911 23.2681 12.6352V12.6352ZM14.4484 18.8904V14.1324L18.4134 16.5114L14.4484 18.8904V18.8904Z" fill="white"/>
</svg>
