<svg width="999" height="683" viewBox="0 0 999 683" fill="none" xmlns="http://www.w3.org/2000/svg">
<rect width="999" height="683" fill="white"/>
<path d="M781.66 648.32C883.093 648.32 965.32 566.093 965.32 464.66C965.32 363.227 883.093 281 781.66 281C680.227 281 598 363.227 598 464.66C598 566.093 680.227 648.32 781.66 648.32Z" fill="#FED14A"/>
<path fill-rule="evenodd" clip-rule="evenodd" d="M55.9688 52.0698C55.9688 53.7273 54.6263 55.0698 52.9688 55.0698C51.3112 55.0698 49.9688 53.7273 49.9688 52.0698C49.9688 50.4123 51.3112 49.0698 52.9688 49.0698C54.6263 49.0698 55.9688 50.4123 55.9688 52.0698Z" fill="#42A584"/>
<path fill-rule="evenodd" clip-rule="evenodd" d="M55.9688 52.0698C55.9688 53.7273 54.6263 55.0698 52.9688 55.0698C51.3112 55.0698 49.9688 53.7273 49.9688 52.0698C49.9688 50.4123 51.3112 49.0698 52.9688 49.0698C54.6263 49.0698 55.9688 50.4123 55.9688 52.0698Z" fill="#42A584"/>
<path fill-rule="evenodd" clip-rule="evenodd" d="M55.9688 67.0698C55.9688 68.7273 54.6263 70.0698 52.9688 70.0698C51.3112 70.0698 49.9688 68.7273 49.9688 67.0698C49.9688 65.4123 51.3112 64.0698 52.9688 64.0698C54.6263 64.0698 55.9688 65.4123 55.9688 67.0698Z" fill="#42A584"/>
<path fill-rule="evenodd" clip-rule="evenodd" d="M55.9688 67.0698C55.9688 68.7273 54.6263 70.0698 52.9688 70.0698C51.3112 70.0698 49.9688 68.7273 49.9688 67.0698C49.9688 65.4123 51.3112 64.0698 52.9688 64.0698C54.6263 64.0698 55.9688 65.4123 55.9688 67.0698Z" fill="#42A584"/>
<path fill-rule="evenodd" clip-rule="evenodd" d="M71.9688 67.0698C71.9688 68.7273 70.6263 70.0698 68.9688 70.0698C67.3112 70.0698 65.9688 68.7273 65.9688 67.0698C65.9688 65.4123 67.3112 64.0698 68.9688 64.0698C70.6263 64.0698 71.9688 65.4123 71.9688 67.0698Z" fill="#42A584"/>
<path fill-rule="evenodd" clip-rule="evenodd" d="M71.9688 67.0698C71.9688 68.7273 70.6263 70.0698 68.9688 70.0698C67.3112 70.0698 65.9688 68.7273 65.9688 67.0698C65.9688 65.4123 67.3112 64.0698 68.9688 64.0698C70.6263 64.0698 71.9688 65.4123 71.9688 67.0698Z" fill="#42A584"/>
<path fill-rule="evenodd" clip-rule="evenodd" d="M86.9688 67.0698C86.9688 68.7273 85.6263 70.0698 83.9688 70.0698C82.3112 70.0698 80.9688 68.7273 80.9688 67.0698C80.9688 65.4123 82.3112 64.0698 83.9688 64.0698C85.6263 64.0698 86.9688 65.4123 86.9688 67.0698Z" fill="#42A584"/>
<path fill-rule="evenodd" clip-rule="evenodd" d="M86.9688 67.0698C86.9688 68.7273 85.6263 70.0698 83.9688 70.0698C82.3112 70.0698 80.9688 68.7273 80.9688 67.0698C80.9688 65.4123 82.3112 64.0698 83.9688 64.0698C85.6263 64.0698 86.9688 65.4123 86.9688 67.0698Z" fill="#42A584"/>
<path fill-rule="evenodd" clip-rule="evenodd" d="M101.969 67.0698C101.969 68.7273 100.626 70.0698 98.9688 70.0698C97.3112 70.0698 95.9688 68.7273 95.9688 67.0698C95.9688 65.4123 97.3112 64.0698 98.9688 64.0698C100.626 64.0698 101.969 65.4123 101.969 67.0698Z" fill="#42A584"/>
<path fill-rule="evenodd" clip-rule="evenodd" d="M101.969 67.0698C101.969 68.7273 100.626 70.0698 98.9688 70.0698C97.3112 70.0698 95.9688 68.7273 95.9688 67.0698C95.9688 65.4123 97.3112 64.0698 98.9688 64.0698C100.626 64.0698 101.969 65.4123 101.969 67.0698Z" fill="#42A584"/>
<path fill-rule="evenodd" clip-rule="evenodd" d="M117.969 67.0698C117.969 68.7273 116.626 70.0698 114.969 70.0698C113.311 70.0698 111.969 68.7273 111.969 67.0698C111.969 65.4123 113.311 64.0698 114.969 64.0698C116.626 64.0698 117.969 65.4123 117.969 67.0698Z" fill="#42A584"/>
<path fill-rule="evenodd" clip-rule="evenodd" d="M117.969 67.0698C117.969 68.7273 116.626 70.0698 114.969 70.0698C113.311 70.0698 111.969 68.7273 111.969 67.0698C111.969 65.4123 113.311 64.0698 114.969 64.0698C116.626 64.0698 117.969 65.4123 117.969 67.0698Z" fill="#42A584"/>
<path fill-rule="evenodd" clip-rule="evenodd" d="M132.969 67.0698C132.969 68.7273 131.626 70.0698 129.969 70.0698C128.311 70.0698 126.969 68.7273 126.969 67.0698C126.969 65.4123 128.311 64.0698 129.969 64.0698C131.626 64.0698 132.969 65.4123 132.969 67.0698Z" fill="#42A584"/>
<path fill-rule="evenodd" clip-rule="evenodd" d="M132.969 67.0698C132.969 68.7273 131.626 70.0698 129.969 70.0698C128.311 70.0698 126.969 68.7273 126.969 67.0698C126.969 65.4123 128.311 64.0698 129.969 64.0698C131.626 64.0698 132.969 65.4123 132.969 67.0698Z" fill="#42A584"/>
<path fill-rule="evenodd" clip-rule="evenodd" d="M148.969 67.0698C148.969 68.7273 147.626 70.0698 145.969 70.0698C144.311 70.0698 142.969 68.7273 142.969 67.0698C142.969 65.4123 144.311 64.0698 145.969 64.0698C147.626 64.0698 148.969 65.4123 148.969 67.0698Z" fill="#42A584"/>
<path fill-rule="evenodd" clip-rule="evenodd" d="M148.969 67.0698C148.969 68.7273 147.626 70.0698 145.969 70.0698C144.311 70.0698 142.969 68.7273 142.969 67.0698C142.969 65.4123 144.311 64.0698 145.969 64.0698C147.626 64.0698 148.969 65.4123 148.969 67.0698Z" fill="#42A584"/>
<path fill-rule="evenodd" clip-rule="evenodd" d="M163.969 67.0698C163.969 68.7273 162.626 70.0698 160.969 70.0698C159.311 70.0698 157.969 68.7273 157.969 67.0698C157.969 65.4123 159.311 64.0698 160.969 64.0698C162.626 64.0698 163.969 65.4123 163.969 67.0698Z" fill="#42A584"/>
<path fill-rule="evenodd" clip-rule="evenodd" d="M163.969 67.0698C163.969 68.7273 162.626 70.0698 160.969 70.0698C159.311 70.0698 157.969 68.7273 157.969 67.0698C157.969 65.4123 159.311 64.0698 160.969 64.0698C162.626 64.0698 163.969 65.4123 163.969 67.0698Z" fill="#42A584"/>
<path fill-rule="evenodd" clip-rule="evenodd" d="M179.969 67.0698C179.969 68.7273 178.626 70.0698 176.969 70.0698C175.311 70.0698 173.969 68.7273 173.969 67.0698C173.969 65.4123 175.311 64.0698 176.969 64.0698C178.626 64.0698 179.969 65.4123 179.969 67.0698Z" fill="#42A584"/>
<path fill-rule="evenodd" clip-rule="evenodd" d="M179.969 67.0698C179.969 68.7273 178.626 70.0698 176.969 70.0698C175.311 70.0698 173.969 68.7273 173.969 67.0698C173.969 65.4123 175.311 64.0698 176.969 64.0698C178.626 64.0698 179.969 65.4123 179.969 67.0698Z" fill="#42A584"/>
<path fill-rule="evenodd" clip-rule="evenodd" d="M194.969 67.0698C194.969 68.7273 193.626 70.0698 191.969 70.0698C190.311 70.0698 188.969 68.7273 188.969 67.0698C188.969 65.4123 190.311 64.0698 191.969 64.0698C193.626 64.0698 194.969 65.4123 194.969 67.0698Z" fill="#42A584"/>
<path fill-rule="evenodd" clip-rule="evenodd" d="M194.969 67.0698C194.969 68.7273 193.626 70.0698 191.969 70.0698C190.311 70.0698 188.969 68.7273 188.969 67.0698C188.969 65.4123 190.311 64.0698 191.969 64.0698C193.626 64.0698 194.969 65.4123 194.969 67.0698Z" fill="#42A584"/>
<path fill-rule="evenodd" clip-rule="evenodd" d="M209.969 67.0698C209.969 68.7273 208.626 70.0698 206.969 70.0698C205.311 70.0698 203.969 68.7273 203.969 67.0698C203.969 65.4123 205.311 64.0698 206.969 64.0698C208.626 64.0698 209.969 65.4123 209.969 67.0698Z" fill="#42A584"/>
<path fill-rule="evenodd" clip-rule="evenodd" d="M209.969 67.0698C209.969 68.7273 208.626 70.0698 206.969 70.0698C205.311 70.0698 203.969 68.7273 203.969 67.0698C203.969 65.4123 205.311 64.0698 206.969 64.0698C208.626 64.0698 209.969 65.4123 209.969 67.0698Z" fill="#42A584"/>
<path fill-rule="evenodd" clip-rule="evenodd" d="M225.969 67.0698C225.969 68.7273 224.626 70.0698 222.969 70.0698C221.311 70.0698 219.969 68.7273 219.969 67.0698C219.969 65.4123 221.311 64.0698 222.969 64.0698C224.626 64.0698 225.969 65.4123 225.969 67.0698Z" fill="#42A584"/>
<path fill-rule="evenodd" clip-rule="evenodd" d="M225.969 67.0698C225.969 68.7273 224.626 70.0698 222.969 70.0698C221.311 70.0698 219.969 68.7273 219.969 67.0698C219.969 65.4123 221.311 64.0698 222.969 64.0698C224.626 64.0698 225.969 65.4123 225.969 67.0698Z" fill="#42A584"/>
<path fill-rule="evenodd" clip-rule="evenodd" d="M55.9688 83.0698C55.9688 84.7273 54.6263 86.0698 52.9688 86.0698C51.3112 86.0698 49.9688 84.7273 49.9688 83.0698C49.9688 81.4123 51.3112 80.0698 52.9688 80.0698C54.6263 80.0698 55.9688 81.4123 55.9688 83.0698Z" fill="#42A584"/>
<path fill-rule="evenodd" clip-rule="evenodd" d="M55.9688 83.0698C55.9688 84.7273 54.6263 86.0698 52.9688 86.0698C51.3112 86.0698 49.9688 84.7273 49.9688 83.0698C49.9688 81.4123 51.3112 80.0698 52.9688 80.0698C54.6263 80.0698 55.9688 81.4123 55.9688 83.0698Z" fill="#42A584"/>
<path fill-rule="evenodd" clip-rule="evenodd" d="M71.9688 83.0698C71.9688 84.7273 70.6263 86.0698 68.9688 86.0698C67.3112 86.0698 65.9688 84.7273 65.9688 83.0698C65.9688 81.4123 67.3112 80.0698 68.9688 80.0698C70.6263 80.0698 71.9688 81.4123 71.9688 83.0698Z" fill="#42A584"/>
<path fill-rule="evenodd" clip-rule="evenodd" d="M71.9688 83.0698C71.9688 84.7273 70.6263 86.0698 68.9688 86.0698C67.3112 86.0698 65.9688 84.7273 65.9688 83.0698C65.9688 81.4123 67.3112 80.0698 68.9688 80.0698C70.6263 80.0698 71.9688 81.4123 71.9688 83.0698Z" fill="#42A584"/>
<path fill-rule="evenodd" clip-rule="evenodd" d="M86.9688 83.0698C86.9688 84.7273 85.6263 86.0698 83.9688 86.0698C82.3112 86.0698 80.9688 84.7273 80.9688 83.0698C80.9688 81.4123 82.3112 80.0698 83.9688 80.0698C85.6263 80.0698 86.9688 81.4123 86.9688 83.0698Z" fill="#42A584"/>
<path fill-rule="evenodd" clip-rule="evenodd" d="M86.9688 83.0698C86.9688 84.7273 85.6263 86.0698 83.9688 86.0698C82.3112 86.0698 80.9688 84.7273 80.9688 83.0698C80.9688 81.4123 82.3112 80.0698 83.9688 80.0698C85.6263 80.0698 86.9688 81.4123 86.9688 83.0698Z" fill="#42A584"/>
<path fill-rule="evenodd" clip-rule="evenodd" d="M101.969 83.0698C101.969 84.7273 100.626 86.0698 98.9688 86.0698C97.3112 86.0698 95.9688 84.7273 95.9688 83.0698C95.9688 81.4123 97.3112 80.0698 98.9688 80.0698C100.626 80.0698 101.969 81.4123 101.969 83.0698Z" fill="#42A584"/>
<path fill-rule="evenodd" clip-rule="evenodd" d="M101.969 83.0698C101.969 84.7273 100.626 86.0698 98.9688 86.0698C97.3112 86.0698 95.9688 84.7273 95.9688 83.0698C95.9688 81.4123 97.3112 80.0698 98.9688 80.0698C100.626 80.0698 101.969 81.4123 101.969 83.0698Z" fill="#42A584"/>
<path fill-rule="evenodd" clip-rule="evenodd" d="M117.969 83.0698C117.969 84.7273 116.626 86.0698 114.969 86.0698C113.311 86.0698 111.969 84.7273 111.969 83.0698C111.969 81.4123 113.311 80.0698 114.969 80.0698C116.626 80.0698 117.969 81.4123 117.969 83.0698Z" fill="#42A584"/>
<path fill-rule="evenodd" clip-rule="evenodd" d="M117.969 83.0698C117.969 84.7273 116.626 86.0698 114.969 86.0698C113.311 86.0698 111.969 84.7273 111.969 83.0698C111.969 81.4123 113.311 80.0698 114.969 80.0698C116.626 80.0698 117.969 81.4123 117.969 83.0698Z" fill="#42A584"/>
<path fill-rule="evenodd" clip-rule="evenodd" d="M132.969 83.0698C132.969 84.7273 131.626 86.0698 129.969 86.0698C128.311 86.0698 126.969 84.7273 126.969 83.0698C126.969 81.4123 128.311 80.0698 129.969 80.0698C131.626 80.0698 132.969 81.4123 132.969 83.0698Z" fill="#42A584"/>
<path fill-rule="evenodd" clip-rule="evenodd" d="M132.969 83.0698C132.969 84.7273 131.626 86.0698 129.969 86.0698C128.311 86.0698 126.969 84.7273 126.969 83.0698C126.969 81.4123 128.311 80.0698 129.969 80.0698C131.626 80.0698 132.969 81.4123 132.969 83.0698Z" fill="#42A584"/>
<path fill-rule="evenodd" clip-rule="evenodd" d="M148.969 83.0698C148.969 84.7273 147.626 86.0698 145.969 86.0698C144.311 86.0698 142.969 84.7273 142.969 83.0698C142.969 81.4123 144.311 80.0698 145.969 80.0698C147.626 80.0698 148.969 81.4123 148.969 83.0698Z" fill="#42A584"/>
<path fill-rule="evenodd" clip-rule="evenodd" d="M148.969 83.0698C148.969 84.7273 147.626 86.0698 145.969 86.0698C144.311 86.0698 142.969 84.7273 142.969 83.0698C142.969 81.4123 144.311 80.0698 145.969 80.0698C147.626 80.0698 148.969 81.4123 148.969 83.0698Z" fill="#42A584"/>
<path fill-rule="evenodd" clip-rule="evenodd" d="M163.969 83.0698C163.969 84.7273 162.626 86.0698 160.969 86.0698C159.311 86.0698 157.969 84.7273 157.969 83.0698C157.969 81.4123 159.311 80.0698 160.969 80.0698C162.626 80.0698 163.969 81.4123 163.969 83.0698Z" fill="#42A584"/>
<path fill-rule="evenodd" clip-rule="evenodd" d="M163.969 83.0698C163.969 84.7273 162.626 86.0698 160.969 86.0698C159.311 86.0698 157.969 84.7273 157.969 83.0698C157.969 81.4123 159.311 80.0698 160.969 80.0698C162.626 80.0698 163.969 81.4123 163.969 83.0698Z" fill="#42A584"/>
<path fill-rule="evenodd" clip-rule="evenodd" d="M179.969 83.0698C179.969 84.7273 178.626 86.0698 176.969 86.0698C175.311 86.0698 173.969 84.7273 173.969 83.0698C173.969 81.4123 175.311 80.0698 176.969 80.0698C178.626 80.0698 179.969 81.4123 179.969 83.0698Z" fill="#42A584"/>
<path fill-rule="evenodd" clip-rule="evenodd" d="M179.969 83.0698C179.969 84.7273 178.626 86.0698 176.969 86.0698C175.311 86.0698 173.969 84.7273 173.969 83.0698C173.969 81.4123 175.311 80.0698 176.969 80.0698C178.626 80.0698 179.969 81.4123 179.969 83.0698Z" fill="#42A584"/>
<path fill-rule="evenodd" clip-rule="evenodd" d="M194.969 83.0698C194.969 84.7273 193.626 86.0698 191.969 86.0698C190.311 86.0698 188.969 84.7273 188.969 83.0698C188.969 81.4123 190.311 80.0698 191.969 80.0698C193.626 80.0698 194.969 81.4123 194.969 83.0698Z" fill="#42A584"/>
<path fill-rule="evenodd" clip-rule="evenodd" d="M194.969 83.0698C194.969 84.7273 193.626 86.0698 191.969 86.0698C190.311 86.0698 188.969 84.7273 188.969 83.0698C188.969 81.4123 190.311 80.0698 191.969 80.0698C193.626 80.0698 194.969 81.4123 194.969 83.0698Z" fill="#42A584"/>
<path fill-rule="evenodd" clip-rule="evenodd" d="M209.969 83.0698C209.969 84.7273 208.626 86.0698 206.969 86.0698C205.311 86.0698 203.969 84.7273 203.969 83.0698C203.969 81.4123 205.311 80.0698 206.969 80.0698C208.626 80.0698 209.969 81.4123 209.969 83.0698Z" fill="#42A584"/>
<path fill-rule="evenodd" clip-rule="evenodd" d="M209.969 83.0698C209.969 84.7273 208.626 86.0698 206.969 86.0698C205.311 86.0698 203.969 84.7273 203.969 83.0698C203.969 81.4123 205.311 80.0698 206.969 80.0698C208.626 80.0698 209.969 81.4123 209.969 83.0698Z" fill="#42A584"/>
<path fill-rule="evenodd" clip-rule="evenodd" d="M225.969 83.0698C225.969 84.7273 224.626 86.0698 222.969 86.0698C221.311 86.0698 219.969 84.7273 219.969 83.0698C219.969 81.4123 221.311 80.0698 222.969 80.0698C224.626 80.0698 225.969 81.4123 225.969 83.0698Z" fill="#42A584"/>
<path fill-rule="evenodd" clip-rule="evenodd" d="M225.969 83.0698C225.969 84.7273 224.626 86.0698 222.969 86.0698C221.311 86.0698 219.969 84.7273 219.969 83.0698C219.969 81.4123 221.311 80.0698 222.969 80.0698C224.626 80.0698 225.969 81.4123 225.969 83.0698Z" fill="#42A584"/>
<path fill-rule="evenodd" clip-rule="evenodd" d="M55.9688 98.0698C55.9688 99.7273 54.6263 101.07 52.9688 101.07C51.3112 101.07 49.9688 99.7273 49.9688 98.0698C49.9688 96.4123 51.3112 95.0698 52.9688 95.0698C54.6263 95.0698 55.9688 96.4123 55.9688 98.0698Z" fill="#42A584"/>
<path fill-rule="evenodd" clip-rule="evenodd" d="M55.9688 98.0698C55.9688 99.7273 54.6263 101.07 52.9688 101.07C51.3112 101.07 49.9688 99.7273 49.9688 98.0698C49.9688 96.4123 51.3112 95.0698 52.9688 95.0698C54.6263 95.0698 55.9688 96.4123 55.9688 98.0698Z" fill="#42A584"/>
<path fill-rule="evenodd" clip-rule="evenodd" d="M71.9688 98.0698C71.9688 99.7273 70.6263 101.07 68.9688 101.07C67.3112 101.07 65.9688 99.7273 65.9688 98.0698C65.9688 96.4123 67.3112 95.0698 68.9688 95.0698C70.6263 95.0698 71.9688 96.4123 71.9688 98.0698Z" fill="#42A584"/>
<path fill-rule="evenodd" clip-rule="evenodd" d="M71.9688 98.0698C71.9688 99.7273 70.6263 101.07 68.9688 101.07C67.3112 101.07 65.9688 99.7273 65.9688 98.0698C65.9688 96.4123 67.3112 95.0698 68.9688 95.0698C70.6263 95.0698 71.9688 96.4123 71.9688 98.0698Z" fill="#42A584"/>
<path fill-rule="evenodd" clip-rule="evenodd" d="M86.9688 98.0698C86.9688 99.7273 85.6263 101.07 83.9688 101.07C82.3112 101.07 80.9688 99.7273 80.9688 98.0698C80.9688 96.4123 82.3112 95.0698 83.9688 95.0698C85.6263 95.0698 86.9688 96.4123 86.9688 98.0698Z" fill="#42A584"/>
<path fill-rule="evenodd" clip-rule="evenodd" d="M86.9688 98.0698C86.9688 99.7273 85.6263 101.07 83.9688 101.07C82.3112 101.07 80.9688 99.7273 80.9688 98.0698C80.9688 96.4123 82.3112 95.0698 83.9688 95.0698C85.6263 95.0698 86.9688 96.4123 86.9688 98.0698Z" fill="#42A584"/>
<path fill-rule="evenodd" clip-rule="evenodd" d="M101.969 98.0698C101.969 99.7273 100.626 101.07 98.9688 101.07C97.3112 101.07 95.9688 99.7273 95.9688 98.0698C95.9688 96.4123 97.3112 95.0698 98.9688 95.0698C100.626 95.0698 101.969 96.4123 101.969 98.0698Z" fill="#42A584"/>
<path fill-rule="evenodd" clip-rule="evenodd" d="M101.969 98.0698C101.969 99.7273 100.626 101.07 98.9688 101.07C97.3112 101.07 95.9688 99.7273 95.9688 98.0698C95.9688 96.4123 97.3112 95.0698 98.9688 95.0698C100.626 95.0698 101.969 96.4123 101.969 98.0698Z" fill="#42A584"/>
<path fill-rule="evenodd" clip-rule="evenodd" d="M117.969 98.0698C117.969 99.7273 116.626 101.07 114.969 101.07C113.311 101.07 111.969 99.7273 111.969 98.0698C111.969 96.4123 113.311 95.0698 114.969 95.0698C116.626 95.0698 117.969 96.4123 117.969 98.0698Z" fill="#42A584"/>
<path fill-rule="evenodd" clip-rule="evenodd" d="M117.969 98.0698C117.969 99.7273 116.626 101.07 114.969 101.07C113.311 101.07 111.969 99.7273 111.969 98.0698C111.969 96.4123 113.311 95.0698 114.969 95.0698C116.626 95.0698 117.969 96.4123 117.969 98.0698Z" fill="#42A584"/>
<path fill-rule="evenodd" clip-rule="evenodd" d="M132.969 98.0698C132.969 99.7273 131.626 101.07 129.969 101.07C128.311 101.07 126.969 99.7273 126.969 98.0698C126.969 96.4123 128.311 95.0698 129.969 95.0698C131.626 95.0698 132.969 96.4123 132.969 98.0698Z" fill="#42A584"/>
<path fill-rule="evenodd" clip-rule="evenodd" d="M132.969 98.0698C132.969 99.7273 131.626 101.07 129.969 101.07C128.311 101.07 126.969 99.7273 126.969 98.0698C126.969 96.4123 128.311 95.0698 129.969 95.0698C131.626 95.0698 132.969 96.4123 132.969 98.0698Z" fill="#42A584"/>
<path fill-rule="evenodd" clip-rule="evenodd" d="M148.969 98.0698C148.969 99.7273 147.626 101.07 145.969 101.07C144.311 101.07 142.969 99.7273 142.969 98.0698C142.969 96.4123 144.311 95.0698 145.969 95.0698C147.626 95.0698 148.969 96.4123 148.969 98.0698Z" fill="#42A584"/>
<path fill-rule="evenodd" clip-rule="evenodd" d="M148.969 98.0698C148.969 99.7273 147.626 101.07 145.969 101.07C144.311 101.07 142.969 99.7273 142.969 98.0698C142.969 96.4123 144.311 95.0698 145.969 95.0698C147.626 95.0698 148.969 96.4123 148.969 98.0698Z" fill="#42A584"/>
<path fill-rule="evenodd" clip-rule="evenodd" d="M163.969 98.0698C163.969 99.7273 162.626 101.07 160.969 101.07C159.311 101.07 157.969 99.7273 157.969 98.0698C157.969 96.4123 159.311 95.0698 160.969 95.0698C162.626 95.0698 163.969 96.4123 163.969 98.0698Z" fill="#42A584"/>
<path fill-rule="evenodd" clip-rule="evenodd" d="M163.969 98.0698C163.969 99.7273 162.626 101.07 160.969 101.07C159.311 101.07 157.969 99.7273 157.969 98.0698C157.969 96.4123 159.311 95.0698 160.969 95.0698C162.626 95.0698 163.969 96.4123 163.969 98.0698Z" fill="#42A584"/>
<path fill-rule="evenodd" clip-rule="evenodd" d="M179.969 98.0698C179.969 99.7273 178.626 101.07 176.969 101.07C175.311 101.07 173.969 99.7273 173.969 98.0698C173.969 96.4123 175.311 95.0698 176.969 95.0698C178.626 95.0698 179.969 96.4123 179.969 98.0698Z" fill="#42A584"/>
<path fill-rule="evenodd" clip-rule="evenodd" d="M179.969 98.0698C179.969 99.7273 178.626 101.07 176.969 101.07C175.311 101.07 173.969 99.7273 173.969 98.0698C173.969 96.4123 175.311 95.0698 176.969 95.0698C178.626 95.0698 179.969 96.4123 179.969 98.0698Z" fill="#42A584"/>
<path fill-rule="evenodd" clip-rule="evenodd" d="M194.969 98.0698C194.969 99.7273 193.626 101.07 191.969 101.07C190.311 101.07 188.969 99.7273 188.969 98.0698C188.969 96.4123 190.311 95.0698 191.969 95.0698C193.626 95.0698 194.969 96.4123 194.969 98.0698Z" fill="#42A584"/>
<path fill-rule="evenodd" clip-rule="evenodd" d="M194.969 98.0698C194.969 99.7273 193.626 101.07 191.969 101.07C190.311 101.07 188.969 99.7273 188.969 98.0698C188.969 96.4123 190.311 95.0698 191.969 95.0698C193.626 95.0698 194.969 96.4123 194.969 98.0698Z" fill="#42A584"/>
<path fill-rule="evenodd" clip-rule="evenodd" d="M209.969 98.0698C209.969 99.7273 208.626 101.07 206.969 101.07C205.311 101.07 203.969 99.7273 203.969 98.0698C203.969 96.4123 205.311 95.0698 206.969 95.0698C208.626 95.0698 209.969 96.4123 209.969 98.0698Z" fill="#42A584"/>
<path fill-rule="evenodd" clip-rule="evenodd" d="M209.969 98.0698C209.969 99.7273 208.626 101.07 206.969 101.07C205.311 101.07 203.969 99.7273 203.969 98.0698C203.969 96.4123 205.311 95.0698 206.969 95.0698C208.626 95.0698 209.969 96.4123 209.969 98.0698Z" fill="#42A584"/>
<path fill-rule="evenodd" clip-rule="evenodd" d="M225.969 98.0698C225.969 99.7273 224.626 101.07 222.969 101.07C221.311 101.07 219.969 99.7273 219.969 98.0698C219.969 96.4123 221.311 95.0698 222.969 95.0698C224.626 95.0698 225.969 96.4123 225.969 98.0698Z" fill="#42A584"/>
<path fill-rule="evenodd" clip-rule="evenodd" d="M225.969 98.0698C225.969 99.7273 224.626 101.07 222.969 101.07C221.311 101.07 219.969 99.7273 219.969 98.0698C219.969 96.4123 221.311 95.0698 222.969 95.0698C224.626 95.0698 225.969 96.4123 225.969 98.0698Z" fill="#42A584"/>
<path fill-rule="evenodd" clip-rule="evenodd" d="M55.9688 114.07C55.9688 115.727 54.6263 117.07 52.9688 117.07C51.3112 117.07 49.9688 115.727 49.9688 114.07C49.9688 112.412 51.3112 111.07 52.9688 111.07C54.6263 111.07 55.9688 112.412 55.9688 114.07Z" fill="#42A584"/>
<path fill-rule="evenodd" clip-rule="evenodd" d="M55.9688 114.07C55.9688 115.727 54.6263 117.07 52.9688 117.07C51.3112 117.07 49.9688 115.727 49.9688 114.07C49.9688 112.412 51.3112 111.07 52.9688 111.07C54.6263 111.07 55.9688 112.412 55.9688 114.07Z" fill="#42A584"/>
<path fill-rule="evenodd" clip-rule="evenodd" d="M71.9688 114.07C71.9688 115.727 70.6263 117.07 68.9688 117.07C67.3112 117.07 65.9688 115.727 65.9688 114.07C65.9688 112.412 67.3112 111.07 68.9688 111.07C70.6263 111.07 71.9688 112.412 71.9688 114.07Z" fill="#42A584"/>
<path fill-rule="evenodd" clip-rule="evenodd" d="M71.9688 114.07C71.9688 115.727 70.6263 117.07 68.9688 117.07C67.3112 117.07 65.9688 115.727 65.9688 114.07C65.9688 112.412 67.3112 111.07 68.9688 111.07C70.6263 111.07 71.9688 112.412 71.9688 114.07Z" fill="#42A584"/>
<path fill-rule="evenodd" clip-rule="evenodd" d="M86.9688 114.07C86.9688 115.727 85.6263 117.07 83.9688 117.07C82.3112 117.07 80.9688 115.727 80.9688 114.07C80.9688 112.412 82.3112 111.07 83.9688 111.07C85.6263 111.07 86.9688 112.412 86.9688 114.07Z" fill="#42A584"/>
<path fill-rule="evenodd" clip-rule="evenodd" d="M86.9688 114.07C86.9688 115.727 85.6263 117.07 83.9688 117.07C82.3112 117.07 80.9688 115.727 80.9688 114.07C80.9688 112.412 82.3112 111.07 83.9688 111.07C85.6263 111.07 86.9688 112.412 86.9688 114.07Z" fill="#42A584"/>
<path fill-rule="evenodd" clip-rule="evenodd" d="M101.969 114.07C101.969 115.727 100.626 117.07 98.9688 117.07C97.3112 117.07 95.9688 115.727 95.9688 114.07C95.9688 112.412 97.3112 111.07 98.9688 111.07C100.626 111.07 101.969 112.412 101.969 114.07Z" fill="#42A584"/>
<path fill-rule="evenodd" clip-rule="evenodd" d="M101.969 114.07C101.969 115.727 100.626 117.07 98.9688 117.07C97.3112 117.07 95.9688 115.727 95.9688 114.07C95.9688 112.412 97.3112 111.07 98.9688 111.07C100.626 111.07 101.969 112.412 101.969 114.07Z" fill="#42A584"/>
<path fill-rule="evenodd" clip-rule="evenodd" d="M117.969 114.07C117.969 115.727 116.626 117.07 114.969 117.07C113.311 117.07 111.969 115.727 111.969 114.07C111.969 112.412 113.311 111.07 114.969 111.07C116.626 111.07 117.969 112.412 117.969 114.07Z" fill="#42A584"/>
<path fill-rule="evenodd" clip-rule="evenodd" d="M117.969 114.07C117.969 115.727 116.626 117.07 114.969 117.07C113.311 117.07 111.969 115.727 111.969 114.07C111.969 112.412 113.311 111.07 114.969 111.07C116.626 111.07 117.969 112.412 117.969 114.07Z" fill="#42A584"/>
<path fill-rule="evenodd" clip-rule="evenodd" d="M132.969 114.07C132.969 115.727 131.626 117.07 129.969 117.07C128.311 117.07 126.969 115.727 126.969 114.07C126.969 112.412 128.311 111.07 129.969 111.07C131.626 111.07 132.969 112.412 132.969 114.07Z" fill="#42A584"/>
<path fill-rule="evenodd" clip-rule="evenodd" d="M132.969 114.07C132.969 115.727 131.626 117.07 129.969 117.07C128.311 117.07 126.969 115.727 126.969 114.07C126.969 112.412 128.311 111.07 129.969 111.07C131.626 111.07 132.969 112.412 132.969 114.07Z" fill="#42A584"/>
<path fill-rule="evenodd" clip-rule="evenodd" d="M148.969 114.07C148.969 115.727 147.626 117.07 145.969 117.07C144.311 117.07 142.969 115.727 142.969 114.07C142.969 112.412 144.311 111.07 145.969 111.07C147.626 111.07 148.969 112.412 148.969 114.07Z" fill="#42A584"/>
<path fill-rule="evenodd" clip-rule="evenodd" d="M148.969 114.07C148.969 115.727 147.626 117.07 145.969 117.07C144.311 117.07 142.969 115.727 142.969 114.07C142.969 112.412 144.311 111.07 145.969 111.07C147.626 111.07 148.969 112.412 148.969 114.07Z" fill="#42A584"/>
<path fill-rule="evenodd" clip-rule="evenodd" d="M163.969 114.07C163.969 115.727 162.626 117.07 160.969 117.07C159.311 117.07 157.969 115.727 157.969 114.07C157.969 112.412 159.311 111.07 160.969 111.07C162.626 111.07 163.969 112.412 163.969 114.07Z" fill="#42A584"/>
<path fill-rule="evenodd" clip-rule="evenodd" d="M163.969 114.07C163.969 115.727 162.626 117.07 160.969 117.07C159.311 117.07 157.969 115.727 157.969 114.07C157.969 112.412 159.311 111.07 160.969 111.07C162.626 111.07 163.969 112.412 163.969 114.07Z" fill="#42A584"/>
<path fill-rule="evenodd" clip-rule="evenodd" d="M179.969 114.07C179.969 115.727 178.626 117.07 176.969 117.07C175.311 117.07 173.969 115.727 173.969 114.07C173.969 112.412 175.311 111.07 176.969 111.07C178.626 111.07 179.969 112.412 179.969 114.07Z" fill="#42A584"/>
<path fill-rule="evenodd" clip-rule="evenodd" d="M179.969 114.07C179.969 115.727 178.626 117.07 176.969 117.07C175.311 117.07 173.969 115.727 173.969 114.07C173.969 112.412 175.311 111.07 176.969 111.07C178.626 111.07 179.969 112.412 179.969 114.07Z" fill="#42A584"/>
<path fill-rule="evenodd" clip-rule="evenodd" d="M194.969 114.07C194.969 115.727 193.626 117.07 191.969 117.07C190.311 117.07 188.969 115.727 188.969 114.07C188.969 112.412 190.311 111.07 191.969 111.07C193.626 111.07 194.969 112.412 194.969 114.07Z" fill="#42A584"/>
<path fill-rule="evenodd" clip-rule="evenodd" d="M194.969 114.07C194.969 115.727 193.626 117.07 191.969 117.07C190.311 117.07 188.969 115.727 188.969 114.07C188.969 112.412 190.311 111.07 191.969 111.07C193.626 111.07 194.969 112.412 194.969 114.07Z" fill="#42A584"/>
<path fill-rule="evenodd" clip-rule="evenodd" d="M209.969 114.07C209.969 115.727 208.626 117.07 206.969 117.07C205.311 117.07 203.969 115.727 203.969 114.07C203.969 112.412 205.311 111.07 206.969 111.07C208.626 111.07 209.969 112.412 209.969 114.07Z" fill="#42A584"/>
<path fill-rule="evenodd" clip-rule="evenodd" d="M209.969 114.07C209.969 115.727 208.626 117.07 206.969 117.07C205.311 117.07 203.969 115.727 203.969 114.07C203.969 112.412 205.311 111.07 206.969 111.07C208.626 111.07 209.969 112.412 209.969 114.07Z" fill="#42A584"/>
<path fill-rule="evenodd" clip-rule="evenodd" d="M225.969 114.07C225.969 115.727 224.626 117.07 222.969 117.07C221.311 117.07 219.969 115.727 219.969 114.07C219.969 112.412 221.311 111.07 222.969 111.07C224.626 111.07 225.969 112.412 225.969 114.07Z" fill="#42A584"/>
<path fill-rule="evenodd" clip-rule="evenodd" d="M225.969 114.07C225.969 115.727 224.626 117.07 222.969 117.07C221.311 117.07 219.969 115.727 219.969 114.07C219.969 112.412 221.311 111.07 222.969 111.07C224.626 111.07 225.969 112.412 225.969 114.07Z" fill="#42A584"/>
<path fill-rule="evenodd" clip-rule="evenodd" d="M55.9688 129.07C55.9688 130.727 54.6263 132.07 52.9688 132.07C51.3112 132.07 49.9688 130.727 49.9688 129.07C49.9688 127.412 51.3112 126.07 52.9688 126.07C54.6263 126.07 55.9688 127.412 55.9688 129.07Z" fill="#42A584"/>
<path fill-rule="evenodd" clip-rule="evenodd" d="M55.9688 129.07C55.9688 130.727 54.6263 132.07 52.9688 132.07C51.3112 132.07 49.9688 130.727 49.9688 129.07C49.9688 127.412 51.3112 126.07 52.9688 126.07C54.6263 126.07 55.9688 127.412 55.9688 129.07Z" fill="#42A584"/>
<path fill-rule="evenodd" clip-rule="evenodd" d="M71.9688 129.07C71.9688 130.727 70.6263 132.07 68.9688 132.07C67.3112 132.07 65.9688 130.727 65.9688 129.07C65.9688 127.412 67.3112 126.07 68.9688 126.07C70.6263 126.07 71.9688 127.412 71.9688 129.07Z" fill="#42A584"/>
<path fill-rule="evenodd" clip-rule="evenodd" d="M71.9688 129.07C71.9688 130.727 70.6263 132.07 68.9688 132.07C67.3112 132.07 65.9688 130.727 65.9688 129.07C65.9688 127.412 67.3112 126.07 68.9688 126.07C70.6263 126.07 71.9688 127.412 71.9688 129.07Z" fill="#42A584"/>
<path fill-rule="evenodd" clip-rule="evenodd" d="M86.9688 129.07C86.9688 130.727 85.6263 132.07 83.9688 132.07C82.3112 132.07 80.9688 130.727 80.9688 129.07C80.9688 127.412 82.3112 126.07 83.9688 126.07C85.6263 126.07 86.9688 127.412 86.9688 129.07Z" fill="#42A584"/>
<path fill-rule="evenodd" clip-rule="evenodd" d="M86.9688 129.07C86.9688 130.727 85.6263 132.07 83.9688 132.07C82.3112 132.07 80.9688 130.727 80.9688 129.07C80.9688 127.412 82.3112 126.07 83.9688 126.07C85.6263 126.07 86.9688 127.412 86.9688 129.07Z" fill="#42A584"/>
<path fill-rule="evenodd" clip-rule="evenodd" d="M101.969 129.07C101.969 130.727 100.626 132.07 98.9688 132.07C97.3112 132.07 95.9688 130.727 95.9688 129.07C95.9688 127.412 97.3112 126.07 98.9688 126.07C100.626 126.07 101.969 127.412 101.969 129.07Z" fill="#42A584"/>
<path fill-rule="evenodd" clip-rule="evenodd" d="M101.969 129.07C101.969 130.727 100.626 132.07 98.9688 132.07C97.3112 132.07 95.9688 130.727 95.9688 129.07C95.9688 127.412 97.3112 126.07 98.9688 126.07C100.626 126.07 101.969 127.412 101.969 129.07Z" fill="#42A584"/>
<path fill-rule="evenodd" clip-rule="evenodd" d="M117.969 129.07C117.969 130.727 116.626 132.07 114.969 132.07C113.311 132.07 111.969 130.727 111.969 129.07C111.969 127.412 113.311 126.07 114.969 126.07C116.626 126.07 117.969 127.412 117.969 129.07Z" fill="#42A584"/>
<path fill-rule="evenodd" clip-rule="evenodd" d="M117.969 129.07C117.969 130.727 116.626 132.07 114.969 132.07C113.311 132.07 111.969 130.727 111.969 129.07C111.969 127.412 113.311 126.07 114.969 126.07C116.626 126.07 117.969 127.412 117.969 129.07Z" fill="#42A584"/>
<path fill-rule="evenodd" clip-rule="evenodd" d="M132.969 129.07C132.969 130.727 131.626 132.07 129.969 132.07C128.311 132.07 126.969 130.727 126.969 129.07C126.969 127.412 128.311 126.07 129.969 126.07C131.626 126.07 132.969 127.412 132.969 129.07Z" fill="#42A584"/>
<path fill-rule="evenodd" clip-rule="evenodd" d="M132.969 129.07C132.969 130.727 131.626 132.07 129.969 132.07C128.311 132.07 126.969 130.727 126.969 129.07C126.969 127.412 128.311 126.07 129.969 126.07C131.626 126.07 132.969 127.412 132.969 129.07Z" fill="#42A584"/>
<path fill-rule="evenodd" clip-rule="evenodd" d="M148.969 129.07C148.969 130.727 147.626 132.07 145.969 132.07C144.311 132.07 142.969 130.727 142.969 129.07C142.969 127.412 144.311 126.07 145.969 126.07C147.626 126.07 148.969 127.412 148.969 129.07Z" fill="#42A584"/>
<path fill-rule="evenodd" clip-rule="evenodd" d="M148.969 129.07C148.969 130.727 147.626 132.07 145.969 132.07C144.311 132.07 142.969 130.727 142.969 129.07C142.969 127.412 144.311 126.07 145.969 126.07C147.626 126.07 148.969 127.412 148.969 129.07Z" fill="#42A584"/>
<path fill-rule="evenodd" clip-rule="evenodd" d="M163.969 129.07C163.969 130.727 162.626 132.07 160.969 132.07C159.311 132.07 157.969 130.727 157.969 129.07C157.969 127.412 159.311 126.07 160.969 126.07C162.626 126.07 163.969 127.412 163.969 129.07Z" fill="#42A584"/>
<path fill-rule="evenodd" clip-rule="evenodd" d="M163.969 129.07C163.969 130.727 162.626 132.07 160.969 132.07C159.311 132.07 157.969 130.727 157.969 129.07C157.969 127.412 159.311 126.07 160.969 126.07C162.626 126.07 163.969 127.412 163.969 129.07Z" fill="#42A584"/>
<path fill-rule="evenodd" clip-rule="evenodd" d="M179.969 129.07C179.969 130.727 178.626 132.07 176.969 132.07C175.311 132.07 173.969 130.727 173.969 129.07C173.969 127.412 175.311 126.07 176.969 126.07C178.626 126.07 179.969 127.412 179.969 129.07Z" fill="#42A584"/>
<path fill-rule="evenodd" clip-rule="evenodd" d="M179.969 129.07C179.969 130.727 178.626 132.07 176.969 132.07C175.311 132.07 173.969 130.727 173.969 129.07C173.969 127.412 175.311 126.07 176.969 126.07C178.626 126.07 179.969 127.412 179.969 129.07Z" fill="#42A584"/>
<path fill-rule="evenodd" clip-rule="evenodd" d="M194.969 129.07C194.969 130.727 193.626 132.07 191.969 132.07C190.311 132.07 188.969 130.727 188.969 129.07C188.969 127.412 190.311 126.07 191.969 126.07C193.626 126.07 194.969 127.412 194.969 129.07Z" fill="#42A584"/>
<path fill-rule="evenodd" clip-rule="evenodd" d="M194.969 129.07C194.969 130.727 193.626 132.07 191.969 132.07C190.311 132.07 188.969 130.727 188.969 129.07C188.969 127.412 190.311 126.07 191.969 126.07C193.626 126.07 194.969 127.412 194.969 129.07Z" fill="#42A584"/>
<path fill-rule="evenodd" clip-rule="evenodd" d="M209.969 129.07C209.969 130.727 208.626 132.07 206.969 132.07C205.311 132.07 203.969 130.727 203.969 129.07C203.969 127.412 205.311 126.07 206.969 126.07C208.626 126.07 209.969 127.412 209.969 129.07Z" fill="#42A584"/>
<path fill-rule="evenodd" clip-rule="evenodd" d="M209.969 129.07C209.969 130.727 208.626 132.07 206.969 132.07C205.311 132.07 203.969 130.727 203.969 129.07C203.969 127.412 205.311 126.07 206.969 126.07C208.626 126.07 209.969 127.412 209.969 129.07Z" fill="#42A584"/>
<path fill-rule="evenodd" clip-rule="evenodd" d="M225.969 129.07C225.969 130.727 224.626 132.07 222.969 132.07C221.311 132.07 219.969 130.727 219.969 129.07C219.969 127.412 221.311 126.07 222.969 126.07C224.626 126.07 225.969 127.412 225.969 129.07Z" fill="#42A584"/>
<path fill-rule="evenodd" clip-rule="evenodd" d="M225.969 129.07C225.969 130.727 224.626 132.07 222.969 132.07C221.311 132.07 219.969 130.727 219.969 129.07C219.969 127.412 221.311 126.07 222.969 126.07C224.626 126.07 225.969 127.412 225.969 129.07Z" fill="#42A584"/>
<path fill-rule="evenodd" clip-rule="evenodd" d="M55.9688 145.07C55.9688 146.727 54.6263 148.07 52.9688 148.07C51.3112 148.07 49.9688 146.727 49.9688 145.07C49.9688 143.412 51.3112 142.07 52.9688 142.07C54.6263 142.07 55.9688 143.412 55.9688 145.07Z" fill="#42A584"/>
<path fill-rule="evenodd" clip-rule="evenodd" d="M55.9688 145.07C55.9688 146.727 54.6263 148.07 52.9688 148.07C51.3112 148.07 49.9688 146.727 49.9688 145.07C49.9688 143.412 51.3112 142.07 52.9688 142.07C54.6263 142.07 55.9688 143.412 55.9688 145.07Z" fill="#42A584"/>
<path fill-rule="evenodd" clip-rule="evenodd" d="M71.9688 145.07C71.9688 146.727 70.6263 148.07 68.9688 148.07C67.3112 148.07 65.9688 146.727 65.9688 145.07C65.9688 143.412 67.3112 142.07 68.9688 142.07C70.6263 142.07 71.9688 143.412 71.9688 145.07Z" fill="#42A584"/>
<path fill-rule="evenodd" clip-rule="evenodd" d="M71.9688 145.07C71.9688 146.727 70.6263 148.07 68.9688 148.07C67.3112 148.07 65.9688 146.727 65.9688 145.07C65.9688 143.412 67.3112 142.07 68.9688 142.07C70.6263 142.07 71.9688 143.412 71.9688 145.07Z" fill="#42A584"/>
<path fill-rule="evenodd" clip-rule="evenodd" d="M86.9688 145.07C86.9688 146.727 85.6263 148.07 83.9688 148.07C82.3112 148.07 80.9688 146.727 80.9688 145.07C80.9688 143.412 82.3112 142.07 83.9688 142.07C85.6263 142.07 86.9688 143.412 86.9688 145.07Z" fill="#42A584"/>
<path fill-rule="evenodd" clip-rule="evenodd" d="M86.9688 145.07C86.9688 146.727 85.6263 148.07 83.9688 148.07C82.3112 148.07 80.9688 146.727 80.9688 145.07C80.9688 143.412 82.3112 142.07 83.9688 142.07C85.6263 142.07 86.9688 143.412 86.9688 145.07Z" fill="#42A584"/>
<path fill-rule="evenodd" clip-rule="evenodd" d="M101.969 145.07C101.969 146.727 100.626 148.07 98.9688 148.07C97.3112 148.07 95.9688 146.727 95.9688 145.07C95.9688 143.412 97.3112 142.07 98.9688 142.07C100.626 142.07 101.969 143.412 101.969 145.07Z" fill="#42A584"/>
<path fill-rule="evenodd" clip-rule="evenodd" d="M101.969 145.07C101.969 146.727 100.626 148.07 98.9688 148.07C97.3112 148.07 95.9688 146.727 95.9688 145.07C95.9688 143.412 97.3112 142.07 98.9688 142.07C100.626 142.07 101.969 143.412 101.969 145.07Z" fill="#42A584"/>
<path fill-rule="evenodd" clip-rule="evenodd" d="M117.969 145.07C117.969 146.727 116.626 148.07 114.969 148.07C113.311 148.07 111.969 146.727 111.969 145.07C111.969 143.412 113.311 142.07 114.969 142.07C116.626 142.07 117.969 143.412 117.969 145.07Z" fill="#42A584"/>
<path fill-rule="evenodd" clip-rule="evenodd" d="M117.969 145.07C117.969 146.727 116.626 148.07 114.969 148.07C113.311 148.07 111.969 146.727 111.969 145.07C111.969 143.412 113.311 142.07 114.969 142.07C116.626 142.07 117.969 143.412 117.969 145.07Z" fill="#42A584"/>
<path fill-rule="evenodd" clip-rule="evenodd" d="M132.969 145.07C132.969 146.727 131.626 148.07 129.969 148.07C128.311 148.07 126.969 146.727 126.969 145.07C126.969 143.412 128.311 142.07 129.969 142.07C131.626 142.07 132.969 143.412 132.969 145.07Z" fill="#42A584"/>
<path fill-rule="evenodd" clip-rule="evenodd" d="M132.969 145.07C132.969 146.727 131.626 148.07 129.969 148.07C128.311 148.07 126.969 146.727 126.969 145.07C126.969 143.412 128.311 142.07 129.969 142.07C131.626 142.07 132.969 143.412 132.969 145.07Z" fill="#42A584"/>
<path fill-rule="evenodd" clip-rule="evenodd" d="M148.969 145.07C148.969 146.727 147.626 148.07 145.969 148.07C144.311 148.07 142.969 146.727 142.969 145.07C142.969 143.412 144.311 142.07 145.969 142.07C147.626 142.07 148.969 143.412 148.969 145.07Z" fill="#42A584"/>
<path fill-rule="evenodd" clip-rule="evenodd" d="M148.969 145.07C148.969 146.727 147.626 148.07 145.969 148.07C144.311 148.07 142.969 146.727 142.969 145.07C142.969 143.412 144.311 142.07 145.969 142.07C147.626 142.07 148.969 143.412 148.969 145.07Z" fill="#42A584"/>
<path fill-rule="evenodd" clip-rule="evenodd" d="M163.969 145.07C163.969 146.727 162.626 148.07 160.969 148.07C159.311 148.07 157.969 146.727 157.969 145.07C157.969 143.412 159.311 142.07 160.969 142.07C162.626 142.07 163.969 143.412 163.969 145.07Z" fill="#42A584"/>
<path fill-rule="evenodd" clip-rule="evenodd" d="M163.969 145.07C163.969 146.727 162.626 148.07 160.969 148.07C159.311 148.07 157.969 146.727 157.969 145.07C157.969 143.412 159.311 142.07 160.969 142.07C162.626 142.07 163.969 143.412 163.969 145.07Z" fill="#42A584"/>
<path fill-rule="evenodd" clip-rule="evenodd" d="M179.969 145.07C179.969 146.727 178.626 148.07 176.969 148.07C175.311 148.07 173.969 146.727 173.969 145.07C173.969 143.412 175.311 142.07 176.969 142.07C178.626 142.07 179.969 143.412 179.969 145.07Z" fill="#42A584"/>
<path fill-rule="evenodd" clip-rule="evenodd" d="M179.969 145.07C179.969 146.727 178.626 148.07 176.969 148.07C175.311 148.07 173.969 146.727 173.969 145.07C173.969 143.412 175.311 142.07 176.969 142.07C178.626 142.07 179.969 143.412 179.969 145.07Z" fill="#42A584"/>
<path fill-rule="evenodd" clip-rule="evenodd" d="M194.969 145.07C194.969 146.727 193.626 148.07 191.969 148.07C190.311 148.07 188.969 146.727 188.969 145.07C188.969 143.412 190.311 142.07 191.969 142.07C193.626 142.07 194.969 143.412 194.969 145.07Z" fill="#42A584"/>
<path fill-rule="evenodd" clip-rule="evenodd" d="M194.969 145.07C194.969 146.727 193.626 148.07 191.969 148.07C190.311 148.07 188.969 146.727 188.969 145.07C188.969 143.412 190.311 142.07 191.969 142.07C193.626 142.07 194.969 143.412 194.969 145.07Z" fill="#42A584"/>
<path fill-rule="evenodd" clip-rule="evenodd" d="M209.969 145.07C209.969 146.727 208.626 148.07 206.969 148.07C205.311 148.07 203.969 146.727 203.969 145.07C203.969 143.412 205.311 142.07 206.969 142.07C208.626 142.07 209.969 143.412 209.969 145.07Z" fill="#42A584"/>
<path fill-rule="evenodd" clip-rule="evenodd" d="M209.969 145.07C209.969 146.727 208.626 148.07 206.969 148.07C205.311 148.07 203.969 146.727 203.969 145.07C203.969 143.412 205.311 142.07 206.969 142.07C208.626 142.07 209.969 143.412 209.969 145.07Z" fill="#42A584"/>
<path fill-rule="evenodd" clip-rule="evenodd" d="M225.969 145.07C225.969 146.727 224.626 148.07 222.969 148.07C221.311 148.07 219.969 146.727 219.969 145.07C219.969 143.412 221.311 142.07 222.969 142.07C224.626 142.07 225.969 143.412 225.969 145.07Z" fill="#42A584"/>
<path fill-rule="evenodd" clip-rule="evenodd" d="M225.969 145.07C225.969 146.727 224.626 148.07 222.969 148.07C221.311 148.07 219.969 146.727 219.969 145.07C219.969 143.412 221.311 142.07 222.969 142.07C224.626 142.07 225.969 143.412 225.969 145.07Z" fill="#42A584"/>
<path fill-rule="evenodd" clip-rule="evenodd" d="M55.9688 160.07C55.9688 161.727 54.6263 163.07 52.9688 163.07C51.3112 163.07 49.9688 161.727 49.9688 160.07C49.9688 158.412 51.3112 157.07 52.9688 157.07C54.6263 157.07 55.9688 158.412 55.9688 160.07Z" fill="#42A584"/>
<path fill-rule="evenodd" clip-rule="evenodd" d="M55.9688 160.07C55.9688 161.727 54.6263 163.07 52.9688 163.07C51.3112 163.07 49.9688 161.727 49.9688 160.07C49.9688 158.412 51.3112 157.07 52.9688 157.07C54.6263 157.07 55.9688 158.412 55.9688 160.07Z" fill="#42A584"/>
<path fill-rule="evenodd" clip-rule="evenodd" d="M71.9688 160.07C71.9688 161.727 70.6263 163.07 68.9688 163.07C67.3112 163.07 65.9688 161.727 65.9688 160.07C65.9688 158.412 67.3112 157.07 68.9688 157.07C70.6263 157.07 71.9688 158.412 71.9688 160.07Z" fill="#42A584"/>
<path fill-rule="evenodd" clip-rule="evenodd" d="M71.9688 160.07C71.9688 161.727 70.6263 163.07 68.9688 163.07C67.3112 163.07 65.9688 161.727 65.9688 160.07C65.9688 158.412 67.3112 157.07 68.9688 157.07C70.6263 157.07 71.9688 158.412 71.9688 160.07Z" fill="#42A584"/>
<path fill-rule="evenodd" clip-rule="evenodd" d="M86.9688 160.07C86.9688 161.727 85.6263 163.07 83.9688 163.07C82.3112 163.07 80.9688 161.727 80.9688 160.07C80.9688 158.412 82.3112 157.07 83.9688 157.07C85.6263 157.07 86.9688 158.412 86.9688 160.07Z" fill="#42A584"/>
<path fill-rule="evenodd" clip-rule="evenodd" d="M86.9688 160.07C86.9688 161.727 85.6263 163.07 83.9688 163.07C82.3112 163.07 80.9688 161.727 80.9688 160.07C80.9688 158.412 82.3112 157.07 83.9688 157.07C85.6263 157.07 86.9688 158.412 86.9688 160.07Z" fill="#42A584"/>
<path fill-rule="evenodd" clip-rule="evenodd" d="M101.969 160.07C101.969 161.727 100.626 163.07 98.9688 163.07C97.3112 163.07 95.9688 161.727 95.9688 160.07C95.9688 158.412 97.3112 157.07 98.9688 157.07C100.626 157.07 101.969 158.412 101.969 160.07Z" fill="#42A584"/>
<path fill-rule="evenodd" clip-rule="evenodd" d="M101.969 160.07C101.969 161.727 100.626 163.07 98.9688 163.07C97.3112 163.07 95.9688 161.727 95.9688 160.07C95.9688 158.412 97.3112 157.07 98.9688 157.07C100.626 157.07 101.969 158.412 101.969 160.07Z" fill="#42A584"/>
<path fill-rule="evenodd" clip-rule="evenodd" d="M117.969 160.07C117.969 161.727 116.626 163.07 114.969 163.07C113.311 163.07 111.969 161.727 111.969 160.07C111.969 158.412 113.311 157.07 114.969 157.07C116.626 157.07 117.969 158.412 117.969 160.07Z" fill="#42A584"/>
<path fill-rule="evenodd" clip-rule="evenodd" d="M117.969 160.07C117.969 161.727 116.626 163.07 114.969 163.07C113.311 163.07 111.969 161.727 111.969 160.07C111.969 158.412 113.311 157.07 114.969 157.07C116.626 157.07 117.969 158.412 117.969 160.07Z" fill="#42A584"/>
<path fill-rule="evenodd" clip-rule="evenodd" d="M132.969 160.07C132.969 161.727 131.626 163.07 129.969 163.07C128.311 163.07 126.969 161.727 126.969 160.07C126.969 158.412 128.311 157.07 129.969 157.07C131.626 157.07 132.969 158.412 132.969 160.07Z" fill="#42A584"/>
<path fill-rule="evenodd" clip-rule="evenodd" d="M132.969 160.07C132.969 161.727 131.626 163.07 129.969 163.07C128.311 163.07 126.969 161.727 126.969 160.07C126.969 158.412 128.311 157.07 129.969 157.07C131.626 157.07 132.969 158.412 132.969 160.07Z" fill="#42A584"/>
<path fill-rule="evenodd" clip-rule="evenodd" d="M148.969 160.07C148.969 161.727 147.626 163.07 145.969 163.07C144.311 163.07 142.969 161.727 142.969 160.07C142.969 158.412 144.311 157.07 145.969 157.07C147.626 157.07 148.969 158.412 148.969 160.07Z" fill="#42A584"/>
<path fill-rule="evenodd" clip-rule="evenodd" d="M148.969 160.07C148.969 161.727 147.626 163.07 145.969 163.07C144.311 163.07 142.969 161.727 142.969 160.07C142.969 158.412 144.311 157.07 145.969 157.07C147.626 157.07 148.969 158.412 148.969 160.07Z" fill="#42A584"/>
<path fill-rule="evenodd" clip-rule="evenodd" d="M163.969 160.07C163.969 161.727 162.626 163.07 160.969 163.07C159.311 163.07 157.969 161.727 157.969 160.07C157.969 158.412 159.311 157.07 160.969 157.07C162.626 157.07 163.969 158.412 163.969 160.07Z" fill="#42A584"/>
<path fill-rule="evenodd" clip-rule="evenodd" d="M163.969 160.07C163.969 161.727 162.626 163.07 160.969 163.07C159.311 163.07 157.969 161.727 157.969 160.07C157.969 158.412 159.311 157.07 160.969 157.07C162.626 157.07 163.969 158.412 163.969 160.07Z" fill="#42A584"/>
<path fill-rule="evenodd" clip-rule="evenodd" d="M179.969 160.07C179.969 161.727 178.626 163.07 176.969 163.07C175.311 163.07 173.969 161.727 173.969 160.07C173.969 158.412 175.311 157.07 176.969 157.07C178.626 157.07 179.969 158.412 179.969 160.07Z" fill="#42A584"/>
<path fill-rule="evenodd" clip-rule="evenodd" d="M179.969 160.07C179.969 161.727 178.626 163.07 176.969 163.07C175.311 163.07 173.969 161.727 173.969 160.07C173.969 158.412 175.311 157.07 176.969 157.07C178.626 157.07 179.969 158.412 179.969 160.07Z" fill="#42A584"/>
<path fill-rule="evenodd" clip-rule="evenodd" d="M194.969 160.07C194.969 161.727 193.626 163.07 191.969 163.07C190.311 163.07 188.969 161.727 188.969 160.07C188.969 158.412 190.311 157.07 191.969 157.07C193.626 157.07 194.969 158.412 194.969 160.07Z" fill="#42A584"/>
<path fill-rule="evenodd" clip-rule="evenodd" d="M194.969 160.07C194.969 161.727 193.626 163.07 191.969 163.07C190.311 163.07 188.969 161.727 188.969 160.07C188.969 158.412 190.311 157.07 191.969 157.07C193.626 157.07 194.969 158.412 194.969 160.07Z" fill="#42A584"/>
<path fill-rule="evenodd" clip-rule="evenodd" d="M209.969 160.07C209.969 161.727 208.626 163.07 206.969 163.07C205.311 163.07 203.969 161.727 203.969 160.07C203.969 158.412 205.311 157.07 206.969 157.07C208.626 157.07 209.969 158.412 209.969 160.07Z" fill="#42A584"/>
<path fill-rule="evenodd" clip-rule="evenodd" d="M209.969 160.07C209.969 161.727 208.626 163.07 206.969 163.07C205.311 163.07 203.969 161.727 203.969 160.07C203.969 158.412 205.311 157.07 206.969 157.07C208.626 157.07 209.969 158.412 209.969 160.07Z" fill="#42A584"/>
<path fill-rule="evenodd" clip-rule="evenodd" d="M225.969 160.07C225.969 161.727 224.626 163.07 222.969 163.07C221.311 163.07 219.969 161.727 219.969 160.07C219.969 158.412 221.311 157.07 222.969 157.07C224.626 157.07 225.969 158.412 225.969 160.07Z" fill="#42A584"/>
<path fill-rule="evenodd" clip-rule="evenodd" d="M225.969 160.07C225.969 161.727 224.626 163.07 222.969 163.07C221.311 163.07 219.969 161.727 219.969 160.07C219.969 158.412 221.311 157.07 222.969 157.07C224.626 157.07 225.969 158.412 225.969 160.07Z" fill="#42A584"/>
<path fill-rule="evenodd" clip-rule="evenodd" d="M55.9688 175.07C55.9688 176.727 54.6263 178.07 52.9688 178.07C51.3112 178.07 49.9688 176.727 49.9688 175.07C49.9688 173.412 51.3112 172.07 52.9688 172.07C54.6263 172.07 55.9688 173.412 55.9688 175.07Z" fill="#42A584"/>
<path fill-rule="evenodd" clip-rule="evenodd" d="M55.9688 175.07C55.9688 176.727 54.6263 178.07 52.9688 178.07C51.3112 178.07 49.9688 176.727 49.9688 175.07C49.9688 173.412 51.3112 172.07 52.9688 172.07C54.6263 172.07 55.9688 173.412 55.9688 175.07Z" fill="#42A584"/>
<path fill-rule="evenodd" clip-rule="evenodd" d="M71.9688 175.07C71.9688 176.727 70.6263 178.07 68.9688 178.07C67.3112 178.07 65.9688 176.727 65.9688 175.07C65.9688 173.412 67.3112 172.07 68.9688 172.07C70.6263 172.07 71.9688 173.412 71.9688 175.07Z" fill="#42A584"/>
<path fill-rule="evenodd" clip-rule="evenodd" d="M71.9688 175.07C71.9688 176.727 70.6263 178.07 68.9688 178.07C67.3112 178.07 65.9688 176.727 65.9688 175.07C65.9688 173.412 67.3112 172.07 68.9688 172.07C70.6263 172.07 71.9688 173.412 71.9688 175.07Z" fill="#42A584"/>
<path fill-rule="evenodd" clip-rule="evenodd" d="M86.9688 175.07C86.9688 176.727 85.6263 178.07 83.9688 178.07C82.3112 178.07 80.9688 176.727 80.9688 175.07C80.9688 173.412 82.3112 172.07 83.9688 172.07C85.6263 172.07 86.9688 173.412 86.9688 175.07Z" fill="#42A584"/>
<path fill-rule="evenodd" clip-rule="evenodd" d="M86.9688 175.07C86.9688 176.727 85.6263 178.07 83.9688 178.07C82.3112 178.07 80.9688 176.727 80.9688 175.07C80.9688 173.412 82.3112 172.07 83.9688 172.07C85.6263 172.07 86.9688 173.412 86.9688 175.07Z" fill="#42A584"/>
<path fill-rule="evenodd" clip-rule="evenodd" d="M101.969 175.07C101.969 176.727 100.626 178.07 98.9688 178.07C97.3112 178.07 95.9688 176.727 95.9688 175.07C95.9688 173.412 97.3112 172.07 98.9688 172.07C100.626 172.07 101.969 173.412 101.969 175.07Z" fill="#42A584"/>
<path fill-rule="evenodd" clip-rule="evenodd" d="M101.969 175.07C101.969 176.727 100.626 178.07 98.9688 178.07C97.3112 178.07 95.9688 176.727 95.9688 175.07C95.9688 173.412 97.3112 172.07 98.9688 172.07C100.626 172.07 101.969 173.412 101.969 175.07Z" fill="#42A584"/>
<path fill-rule="evenodd" clip-rule="evenodd" d="M117.969 175.07C117.969 176.727 116.626 178.07 114.969 178.07C113.311 178.07 111.969 176.727 111.969 175.07C111.969 173.412 113.311 172.07 114.969 172.07C116.626 172.07 117.969 173.412 117.969 175.07Z" fill="#42A584"/>
<path fill-rule="evenodd" clip-rule="evenodd" d="M117.969 175.07C117.969 176.727 116.626 178.07 114.969 178.07C113.311 178.07 111.969 176.727 111.969 175.07C111.969 173.412 113.311 172.07 114.969 172.07C116.626 172.07 117.969 173.412 117.969 175.07Z" fill="#42A584"/>
<path fill-rule="evenodd" clip-rule="evenodd" d="M132.969 175.07C132.969 176.727 131.626 178.07 129.969 178.07C128.311 178.07 126.969 176.727 126.969 175.07C126.969 173.412 128.311 172.07 129.969 172.07C131.626 172.07 132.969 173.412 132.969 175.07Z" fill="#42A584"/>
<path fill-rule="evenodd" clip-rule="evenodd" d="M132.969 175.07C132.969 176.727 131.626 178.07 129.969 178.07C128.311 178.07 126.969 176.727 126.969 175.07C126.969 173.412 128.311 172.07 129.969 172.07C131.626 172.07 132.969 173.412 132.969 175.07Z" fill="#42A584"/>
<path fill-rule="evenodd" clip-rule="evenodd" d="M148.969 175.07C148.969 176.727 147.626 178.07 145.969 178.07C144.311 178.07 142.969 176.727 142.969 175.07C142.969 173.412 144.311 172.07 145.969 172.07C147.626 172.07 148.969 173.412 148.969 175.07Z" fill="#42A584"/>
<path fill-rule="evenodd" clip-rule="evenodd" d="M148.969 175.07C148.969 176.727 147.626 178.07 145.969 178.07C144.311 178.07 142.969 176.727 142.969 175.07C142.969 173.412 144.311 172.07 145.969 172.07C147.626 172.07 148.969 173.412 148.969 175.07Z" fill="#42A584"/>
<path fill-rule="evenodd" clip-rule="evenodd" d="M163.969 175.07C163.969 176.727 162.626 178.07 160.969 178.07C159.311 178.07 157.969 176.727 157.969 175.07C157.969 173.412 159.311 172.07 160.969 172.07C162.626 172.07 163.969 173.412 163.969 175.07Z" fill="#42A584"/>
<path fill-rule="evenodd" clip-rule="evenodd" d="M163.969 175.07C163.969 176.727 162.626 178.07 160.969 178.07C159.311 178.07 157.969 176.727 157.969 175.07C157.969 173.412 159.311 172.07 160.969 172.07C162.626 172.07 163.969 173.412 163.969 175.07Z" fill="#42A584"/>
<path fill-rule="evenodd" clip-rule="evenodd" d="M179.969 175.07C179.969 176.727 178.626 178.07 176.969 178.07C175.311 178.07 173.969 176.727 173.969 175.07C173.969 173.412 175.311 172.07 176.969 172.07C178.626 172.07 179.969 173.412 179.969 175.07Z" fill="#42A584"/>
<path fill-rule="evenodd" clip-rule="evenodd" d="M179.969 175.07C179.969 176.727 178.626 178.07 176.969 178.07C175.311 178.07 173.969 176.727 173.969 175.07C173.969 173.412 175.311 172.07 176.969 172.07C178.626 172.07 179.969 173.412 179.969 175.07Z" fill="#42A584"/>
<path fill-rule="evenodd" clip-rule="evenodd" d="M194.969 175.07C194.969 176.727 193.626 178.07 191.969 178.07C190.311 178.07 188.969 176.727 188.969 175.07C188.969 173.412 190.311 172.07 191.969 172.07C193.626 172.07 194.969 173.412 194.969 175.07Z" fill="#42A584"/>
<path fill-rule="evenodd" clip-rule="evenodd" d="M194.969 175.07C194.969 176.727 193.626 178.07 191.969 178.07C190.311 178.07 188.969 176.727 188.969 175.07C188.969 173.412 190.311 172.07 191.969 172.07C193.626 172.07 194.969 173.412 194.969 175.07Z" fill="#42A584"/>
<path fill-rule="evenodd" clip-rule="evenodd" d="M209.969 175.07C209.969 176.727 208.626 178.07 206.969 178.07C205.311 178.07 203.969 176.727 203.969 175.07C203.969 173.412 205.311 172.07 206.969 172.07C208.626 172.07 209.969 173.412 209.969 175.07Z" fill="#42A584"/>
<path fill-rule="evenodd" clip-rule="evenodd" d="M209.969 175.07C209.969 176.727 208.626 178.07 206.969 178.07C205.311 178.07 203.969 176.727 203.969 175.07C203.969 173.412 205.311 172.07 206.969 172.07C208.626 172.07 209.969 173.412 209.969 175.07Z" fill="#42A584"/>
<path fill-rule="evenodd" clip-rule="evenodd" d="M225.969 175.07C225.969 176.727 224.626 178.07 222.969 178.07C221.311 178.07 219.969 176.727 219.969 175.07C219.969 173.412 221.311 172.07 222.969 172.07C224.626 172.07 225.969 173.412 225.969 175.07Z" fill="#42A584"/>
<path fill-rule="evenodd" clip-rule="evenodd" d="M225.969 175.07C225.969 176.727 224.626 178.07 222.969 178.07C221.311 178.07 219.969 176.727 219.969 175.07C219.969 173.412 221.311 172.07 222.969 172.07C224.626 172.07 225.969 173.412 225.969 175.07Z" fill="#42A584"/>
<path fill-rule="evenodd" clip-rule="evenodd" d="M55.9688 191.07C55.9688 192.727 54.6263 194.07 52.9688 194.07C51.3112 194.07 49.9688 192.727 49.9688 191.07C49.9688 189.412 51.3112 188.07 52.9688 188.07C54.6263 188.07 55.9688 189.412 55.9688 191.07Z" fill="#42A584"/>
<path fill-rule="evenodd" clip-rule="evenodd" d="M55.9688 191.07C55.9688 192.727 54.6263 194.07 52.9688 194.07C51.3112 194.07 49.9688 192.727 49.9688 191.07C49.9688 189.412 51.3112 188.07 52.9688 188.07C54.6263 188.07 55.9688 189.412 55.9688 191.07Z" fill="#42A584"/>
<path fill-rule="evenodd" clip-rule="evenodd" d="M71.9688 191.07C71.9688 192.727 70.6263 194.07 68.9688 194.07C67.3112 194.07 65.9688 192.727 65.9688 191.07C65.9688 189.412 67.3112 188.07 68.9688 188.07C70.6263 188.07 71.9688 189.412 71.9688 191.07Z" fill="#42A584"/>
<path fill-rule="evenodd" clip-rule="evenodd" d="M71.9688 191.07C71.9688 192.727 70.6263 194.07 68.9688 194.07C67.3112 194.07 65.9688 192.727 65.9688 191.07C65.9688 189.412 67.3112 188.07 68.9688 188.07C70.6263 188.07 71.9688 189.412 71.9688 191.07Z" fill="#42A584"/>
<path fill-rule="evenodd" clip-rule="evenodd" d="M86.9688 191.07C86.9688 192.727 85.6263 194.07 83.9688 194.07C82.3112 194.07 80.9688 192.727 80.9688 191.07C80.9688 189.412 82.3112 188.07 83.9688 188.07C85.6263 188.07 86.9688 189.412 86.9688 191.07Z" fill="#42A584"/>
<path fill-rule="evenodd" clip-rule="evenodd" d="M86.9688 191.07C86.9688 192.727 85.6263 194.07 83.9688 194.07C82.3112 194.07 80.9688 192.727 80.9688 191.07C80.9688 189.412 82.3112 188.07 83.9688 188.07C85.6263 188.07 86.9688 189.412 86.9688 191.07Z" fill="#42A584"/>
<path fill-rule="evenodd" clip-rule="evenodd" d="M101.969 191.07C101.969 192.727 100.626 194.07 98.9688 194.07C97.3112 194.07 95.9688 192.727 95.9688 191.07C95.9688 189.412 97.3112 188.07 98.9688 188.07C100.626 188.07 101.969 189.412 101.969 191.07Z" fill="#42A584"/>
<path fill-rule="evenodd" clip-rule="evenodd" d="M101.969 191.07C101.969 192.727 100.626 194.07 98.9688 194.07C97.3112 194.07 95.9688 192.727 95.9688 191.07C95.9688 189.412 97.3112 188.07 98.9688 188.07C100.626 188.07 101.969 189.412 101.969 191.07Z" fill="#42A584"/>
<path fill-rule="evenodd" clip-rule="evenodd" d="M117.969 191.07C117.969 192.727 116.626 194.07 114.969 194.07C113.311 194.07 111.969 192.727 111.969 191.07C111.969 189.412 113.311 188.07 114.969 188.07C116.626 188.07 117.969 189.412 117.969 191.07Z" fill="#42A584"/>
<path fill-rule="evenodd" clip-rule="evenodd" d="M117.969 191.07C117.969 192.727 116.626 194.07 114.969 194.07C113.311 194.07 111.969 192.727 111.969 191.07C111.969 189.412 113.311 188.07 114.969 188.07C116.626 188.07 117.969 189.412 117.969 191.07Z" fill="#42A584"/>
<path fill-rule="evenodd" clip-rule="evenodd" d="M132.969 191.07C132.969 192.727 131.626 194.07 129.969 194.07C128.311 194.07 126.969 192.727 126.969 191.07C126.969 189.412 128.311 188.07 129.969 188.07C131.626 188.07 132.969 189.412 132.969 191.07Z" fill="#42A584"/>
<path fill-rule="evenodd" clip-rule="evenodd" d="M132.969 191.07C132.969 192.727 131.626 194.07 129.969 194.07C128.311 194.07 126.969 192.727 126.969 191.07C126.969 189.412 128.311 188.07 129.969 188.07C131.626 188.07 132.969 189.412 132.969 191.07Z" fill="#42A584"/>
<path fill-rule="evenodd" clip-rule="evenodd" d="M148.969 191.07C148.969 192.727 147.626 194.07 145.969 194.07C144.311 194.07 142.969 192.727 142.969 191.07C142.969 189.412 144.311 188.07 145.969 188.07C147.626 188.07 148.969 189.412 148.969 191.07Z" fill="#42A584"/>
<path fill-rule="evenodd" clip-rule="evenodd" d="M148.969 191.07C148.969 192.727 147.626 194.07 145.969 194.07C144.311 194.07 142.969 192.727 142.969 191.07C142.969 189.412 144.311 188.07 145.969 188.07C147.626 188.07 148.969 189.412 148.969 191.07Z" fill="#42A584"/>
<path fill-rule="evenodd" clip-rule="evenodd" d="M163.969 191.07C163.969 192.727 162.626 194.07 160.969 194.07C159.311 194.07 157.969 192.727 157.969 191.07C157.969 189.412 159.311 188.07 160.969 188.07C162.626 188.07 163.969 189.412 163.969 191.07Z" fill="#42A584"/>
<path fill-rule="evenodd" clip-rule="evenodd" d="M163.969 191.07C163.969 192.727 162.626 194.07 160.969 194.07C159.311 194.07 157.969 192.727 157.969 191.07C157.969 189.412 159.311 188.07 160.969 188.07C162.626 188.07 163.969 189.412 163.969 191.07Z" fill="#42A584"/>
<path fill-rule="evenodd" clip-rule="evenodd" d="M179.969 191.07C179.969 192.727 178.626 194.07 176.969 194.07C175.311 194.07 173.969 192.727 173.969 191.07C173.969 189.412 175.311 188.07 176.969 188.07C178.626 188.07 179.969 189.412 179.969 191.07Z" fill="#42A584"/>
<path fill-rule="evenodd" clip-rule="evenodd" d="M179.969 191.07C179.969 192.727 178.626 194.07 176.969 194.07C175.311 194.07 173.969 192.727 173.969 191.07C173.969 189.412 175.311 188.07 176.969 188.07C178.626 188.07 179.969 189.412 179.969 191.07Z" fill="#42A584"/>
<path fill-rule="evenodd" clip-rule="evenodd" d="M194.969 191.07C194.969 192.727 193.626 194.07 191.969 194.07C190.311 194.07 188.969 192.727 188.969 191.07C188.969 189.412 190.311 188.07 191.969 188.07C193.626 188.07 194.969 189.412 194.969 191.07Z" fill="#42A584"/>
<path fill-rule="evenodd" clip-rule="evenodd" d="M194.969 191.07C194.969 192.727 193.626 194.07 191.969 194.07C190.311 194.07 188.969 192.727 188.969 191.07C188.969 189.412 190.311 188.07 191.969 188.07C193.626 188.07 194.969 189.412 194.969 191.07Z" fill="#42A584"/>
<path fill-rule="evenodd" clip-rule="evenodd" d="M209.969 191.07C209.969 192.727 208.626 194.07 206.969 194.07C205.311 194.07 203.969 192.727 203.969 191.07C203.969 189.412 205.311 188.07 206.969 188.07C208.626 188.07 209.969 189.412 209.969 191.07Z" fill="#42A584"/>
<path fill-rule="evenodd" clip-rule="evenodd" d="M209.969 191.07C209.969 192.727 208.626 194.07 206.969 194.07C205.311 194.07 203.969 192.727 203.969 191.07C203.969 189.412 205.311 188.07 206.969 188.07C208.626 188.07 209.969 189.412 209.969 191.07Z" fill="#42A584"/>
<path fill-rule="evenodd" clip-rule="evenodd" d="M225.969 191.07C225.969 192.727 224.626 194.07 222.969 194.07C221.311 194.07 219.969 192.727 219.969 191.07C219.969 189.412 221.311 188.07 222.969 188.07C224.626 188.07 225.969 189.412 225.969 191.07Z" fill="#42A584"/>
<path fill-rule="evenodd" clip-rule="evenodd" d="M225.969 191.07C225.969 192.727 224.626 194.07 222.969 194.07C221.311 194.07 219.969 192.727 219.969 191.07C219.969 189.412 221.311 188.07 222.969 188.07C224.626 188.07 225.969 189.412 225.969 191.07Z" fill="#42A584"/>
<path fill-rule="evenodd" clip-rule="evenodd" d="M55.9688 206.07C55.9688 207.727 54.6263 209.07 52.9688 209.07C51.3112 209.07 49.9688 207.727 49.9688 206.07C49.9688 204.412 51.3112 203.07 52.9688 203.07C54.6263 203.07 55.9688 204.412 55.9688 206.07Z" fill="#42A584"/>
<path fill-rule="evenodd" clip-rule="evenodd" d="M55.9688 206.07C55.9688 207.727 54.6263 209.07 52.9688 209.07C51.3112 209.07 49.9688 207.727 49.9688 206.07C49.9688 204.412 51.3112 203.07 52.9688 203.07C54.6263 203.07 55.9688 204.412 55.9688 206.07Z" fill="#42A584"/>
<path fill-rule="evenodd" clip-rule="evenodd" d="M71.9688 206.07C71.9688 207.727 70.6263 209.07 68.9688 209.07C67.3112 209.07 65.9688 207.727 65.9688 206.07C65.9688 204.412 67.3112 203.07 68.9688 203.07C70.6263 203.07 71.9688 204.412 71.9688 206.07Z" fill="#42A584"/>
<path fill-rule="evenodd" clip-rule="evenodd" d="M71.9688 206.07C71.9688 207.727 70.6263 209.07 68.9688 209.07C67.3112 209.07 65.9688 207.727 65.9688 206.07C65.9688 204.412 67.3112 203.07 68.9688 203.07C70.6263 203.07 71.9688 204.412 71.9688 206.07Z" fill="#42A584"/>
<path fill-rule="evenodd" clip-rule="evenodd" d="M86.9688 206.07C86.9688 207.727 85.6263 209.07 83.9688 209.07C82.3112 209.07 80.9688 207.727 80.9688 206.07C80.9688 204.412 82.3112 203.07 83.9688 203.07C85.6263 203.07 86.9688 204.412 86.9688 206.07Z" fill="#42A584"/>
<path fill-rule="evenodd" clip-rule="evenodd" d="M86.9688 206.07C86.9688 207.727 85.6263 209.07 83.9688 209.07C82.3112 209.07 80.9688 207.727 80.9688 206.07C80.9688 204.412 82.3112 203.07 83.9688 203.07C85.6263 203.07 86.9688 204.412 86.9688 206.07Z" fill="#42A584"/>
<path fill-rule="evenodd" clip-rule="evenodd" d="M101.969 206.07C101.969 207.727 100.626 209.07 98.9688 209.07C97.3112 209.07 95.9688 207.727 95.9688 206.07C95.9688 204.412 97.3112 203.07 98.9688 203.07C100.626 203.07 101.969 204.412 101.969 206.07Z" fill="#42A584"/>
<path fill-rule="evenodd" clip-rule="evenodd" d="M101.969 206.07C101.969 207.727 100.626 209.07 98.9688 209.07C97.3112 209.07 95.9688 207.727 95.9688 206.07C95.9688 204.412 97.3112 203.07 98.9688 203.07C100.626 203.07 101.969 204.412 101.969 206.07Z" fill="#42A584"/>
<path fill-rule="evenodd" clip-rule="evenodd" d="M117.969 206.07C117.969 207.727 116.626 209.07 114.969 209.07C113.311 209.07 111.969 207.727 111.969 206.07C111.969 204.412 113.311 203.07 114.969 203.07C116.626 203.07 117.969 204.412 117.969 206.07Z" fill="#42A584"/>
<path fill-rule="evenodd" clip-rule="evenodd" d="M117.969 206.07C117.969 207.727 116.626 209.07 114.969 209.07C113.311 209.07 111.969 207.727 111.969 206.07C111.969 204.412 113.311 203.07 114.969 203.07C116.626 203.07 117.969 204.412 117.969 206.07Z" fill="#42A584"/>
<path fill-rule="evenodd" clip-rule="evenodd" d="M132.969 206.07C132.969 207.727 131.626 209.07 129.969 209.07C128.311 209.07 126.969 207.727 126.969 206.07C126.969 204.412 128.311 203.07 129.969 203.07C131.626 203.07 132.969 204.412 132.969 206.07Z" fill="#42A584"/>
<path fill-rule="evenodd" clip-rule="evenodd" d="M132.969 206.07C132.969 207.727 131.626 209.07 129.969 209.07C128.311 209.07 126.969 207.727 126.969 206.07C126.969 204.412 128.311 203.07 129.969 203.07C131.626 203.07 132.969 204.412 132.969 206.07Z" fill="#42A584"/>
<path fill-rule="evenodd" clip-rule="evenodd" d="M148.969 206.07C148.969 207.727 147.626 209.07 145.969 209.07C144.311 209.07 142.969 207.727 142.969 206.07C142.969 204.412 144.311 203.07 145.969 203.07C147.626 203.07 148.969 204.412 148.969 206.07Z" fill="#42A584"/>
<path fill-rule="evenodd" clip-rule="evenodd" d="M148.969 206.07C148.969 207.727 147.626 209.07 145.969 209.07C144.311 209.07 142.969 207.727 142.969 206.07C142.969 204.412 144.311 203.07 145.969 203.07C147.626 203.07 148.969 204.412 148.969 206.07Z" fill="#42A584"/>
<path fill-rule="evenodd" clip-rule="evenodd" d="M163.969 206.07C163.969 207.727 162.626 209.07 160.969 209.07C159.311 209.07 157.969 207.727 157.969 206.07C157.969 204.412 159.311 203.07 160.969 203.07C162.626 203.07 163.969 204.412 163.969 206.07Z" fill="#42A584"/>
<path fill-rule="evenodd" clip-rule="evenodd" d="M163.969 206.07C163.969 207.727 162.626 209.07 160.969 209.07C159.311 209.07 157.969 207.727 157.969 206.07C157.969 204.412 159.311 203.07 160.969 203.07C162.626 203.07 163.969 204.412 163.969 206.07Z" fill="#42A584"/>
<path fill-rule="evenodd" clip-rule="evenodd" d="M179.969 206.07C179.969 207.727 178.626 209.07 176.969 209.07C175.311 209.07 173.969 207.727 173.969 206.07C173.969 204.412 175.311 203.07 176.969 203.07C178.626 203.07 179.969 204.412 179.969 206.07Z" fill="#42A584"/>
<path fill-rule="evenodd" clip-rule="evenodd" d="M179.969 206.07C179.969 207.727 178.626 209.07 176.969 209.07C175.311 209.07 173.969 207.727 173.969 206.07C173.969 204.412 175.311 203.07 176.969 203.07C178.626 203.07 179.969 204.412 179.969 206.07Z" fill="#42A584"/>
<path fill-rule="evenodd" clip-rule="evenodd" d="M194.969 206.07C194.969 207.727 193.626 209.07 191.969 209.07C190.311 209.07 188.969 207.727 188.969 206.07C188.969 204.412 190.311 203.07 191.969 203.07C193.626 203.07 194.969 204.412 194.969 206.07Z" fill="#42A584"/>
<path fill-rule="evenodd" clip-rule="evenodd" d="M194.969 206.07C194.969 207.727 193.626 209.07 191.969 209.07C190.311 209.07 188.969 207.727 188.969 206.07C188.969 204.412 190.311 203.07 191.969 203.07C193.626 203.07 194.969 204.412 194.969 206.07Z" fill="#42A584"/>
<path fill-rule="evenodd" clip-rule="evenodd" d="M209.969 206.07C209.969 207.727 208.626 209.07 206.969 209.07C205.311 209.07 203.969 207.727 203.969 206.07C203.969 204.412 205.311 203.07 206.969 203.07C208.626 203.07 209.969 204.412 209.969 206.07Z" fill="#42A584"/>
<path fill-rule="evenodd" clip-rule="evenodd" d="M209.969 206.07C209.969 207.727 208.626 209.07 206.969 209.07C205.311 209.07 203.969 207.727 203.969 206.07C203.969 204.412 205.311 203.07 206.969 203.07C208.626 203.07 209.969 204.412 209.969 206.07Z" fill="#42A584"/>
<path fill-rule="evenodd" clip-rule="evenodd" d="M225.969 206.07C225.969 207.727 224.626 209.07 222.969 209.07C221.311 209.07 219.969 207.727 219.969 206.07C219.969 204.412 221.311 203.07 222.969 203.07C224.626 203.07 225.969 204.412 225.969 206.07Z" fill="#42A584"/>
<path fill-rule="evenodd" clip-rule="evenodd" d="M225.969 206.07C225.969 207.727 224.626 209.07 222.969 209.07C221.311 209.07 219.969 207.727 219.969 206.07C219.969 204.412 221.311 203.07 222.969 203.07C224.626 203.07 225.969 204.412 225.969 206.07Z" fill="#42A584"/>
<path fill-rule="evenodd" clip-rule="evenodd" d="M55.9688 222.07C55.9688 223.727 54.6263 225.07 52.9688 225.07C51.3112 225.07 49.9688 223.727 49.9688 222.07C49.9688 220.412 51.3112 219.07 52.9688 219.07C54.6263 219.07 55.9688 220.412 55.9688 222.07Z" fill="#42A584"/>
<path fill-rule="evenodd" clip-rule="evenodd" d="M55.9688 222.07C55.9688 223.727 54.6263 225.07 52.9688 225.07C51.3112 225.07 49.9688 223.727 49.9688 222.07C49.9688 220.412 51.3112 219.07 52.9688 219.07C54.6263 219.07 55.9688 220.412 55.9688 222.07Z" fill="#42A584"/>
<path fill-rule="evenodd" clip-rule="evenodd" d="M71.9688 222.07C71.9688 223.727 70.6263 225.07 68.9688 225.07C67.3112 225.07 65.9688 223.727 65.9688 222.07C65.9688 220.412 67.3112 219.07 68.9688 219.07C70.6263 219.07 71.9688 220.412 71.9688 222.07Z" fill="#42A584"/>
<path fill-rule="evenodd" clip-rule="evenodd" d="M71.9688 222.07C71.9688 223.727 70.6263 225.07 68.9688 225.07C67.3112 225.07 65.9688 223.727 65.9688 222.07C65.9688 220.412 67.3112 219.07 68.9688 219.07C70.6263 219.07 71.9688 220.412 71.9688 222.07Z" fill="#42A584"/>
<path fill-rule="evenodd" clip-rule="evenodd" d="M86.9688 222.07C86.9688 223.727 85.6263 225.07 83.9688 225.07C82.3112 225.07 80.9688 223.727 80.9688 222.07C80.9688 220.412 82.3112 219.07 83.9688 219.07C85.6263 219.07 86.9688 220.412 86.9688 222.07Z" fill="#42A584"/>
<path fill-rule="evenodd" clip-rule="evenodd" d="M86.9688 222.07C86.9688 223.727 85.6263 225.07 83.9688 225.07C82.3112 225.07 80.9688 223.727 80.9688 222.07C80.9688 220.412 82.3112 219.07 83.9688 219.07C85.6263 219.07 86.9688 220.412 86.9688 222.07Z" fill="#42A584"/>
<path fill-rule="evenodd" clip-rule="evenodd" d="M101.969 222.07C101.969 223.727 100.626 225.07 98.9688 225.07C97.3112 225.07 95.9688 223.727 95.9688 222.07C95.9688 220.412 97.3112 219.07 98.9688 219.07C100.626 219.07 101.969 220.412 101.969 222.07Z" fill="#42A584"/>
<path fill-rule="evenodd" clip-rule="evenodd" d="M101.969 222.07C101.969 223.727 100.626 225.07 98.9688 225.07C97.3112 225.07 95.9688 223.727 95.9688 222.07C95.9688 220.412 97.3112 219.07 98.9688 219.07C100.626 219.07 101.969 220.412 101.969 222.07Z" fill="#42A584"/>
<path fill-rule="evenodd" clip-rule="evenodd" d="M117.969 222.07C117.969 223.727 116.626 225.07 114.969 225.07C113.311 225.07 111.969 223.727 111.969 222.07C111.969 220.412 113.311 219.07 114.969 219.07C116.626 219.07 117.969 220.412 117.969 222.07Z" fill="#42A584"/>
<path fill-rule="evenodd" clip-rule="evenodd" d="M117.969 222.07C117.969 223.727 116.626 225.07 114.969 225.07C113.311 225.07 111.969 223.727 111.969 222.07C111.969 220.412 113.311 219.07 114.969 219.07C116.626 219.07 117.969 220.412 117.969 222.07Z" fill="#42A584"/>
<path fill-rule="evenodd" clip-rule="evenodd" d="M132.969 222.07C132.969 223.727 131.626 225.07 129.969 225.07C128.311 225.07 126.969 223.727 126.969 222.07C126.969 220.412 128.311 219.07 129.969 219.07C131.626 219.07 132.969 220.412 132.969 222.07Z" fill="#42A584"/>
<path fill-rule="evenodd" clip-rule="evenodd" d="M132.969 222.07C132.969 223.727 131.626 225.07 129.969 225.07C128.311 225.07 126.969 223.727 126.969 222.07C126.969 220.412 128.311 219.07 129.969 219.07C131.626 219.07 132.969 220.412 132.969 222.07Z" fill="#42A584"/>
<path fill-rule="evenodd" clip-rule="evenodd" d="M148.969 222.07C148.969 223.727 147.626 225.07 145.969 225.07C144.311 225.07 142.969 223.727 142.969 222.07C142.969 220.412 144.311 219.07 145.969 219.07C147.626 219.07 148.969 220.412 148.969 222.07Z" fill="#42A584"/>
<path fill-rule="evenodd" clip-rule="evenodd" d="M148.969 222.07C148.969 223.727 147.626 225.07 145.969 225.07C144.311 225.07 142.969 223.727 142.969 222.07C142.969 220.412 144.311 219.07 145.969 219.07C147.626 219.07 148.969 220.412 148.969 222.07Z" fill="#42A584"/>
<path fill-rule="evenodd" clip-rule="evenodd" d="M163.969 222.07C163.969 223.727 162.626 225.07 160.969 225.07C159.311 225.07 157.969 223.727 157.969 222.07C157.969 220.412 159.311 219.07 160.969 219.07C162.626 219.07 163.969 220.412 163.969 222.07Z" fill="#42A584"/>
<path fill-rule="evenodd" clip-rule="evenodd" d="M163.969 222.07C163.969 223.727 162.626 225.07 160.969 225.07C159.311 225.07 157.969 223.727 157.969 222.07C157.969 220.412 159.311 219.07 160.969 219.07C162.626 219.07 163.969 220.412 163.969 222.07Z" fill="#42A584"/>
<path fill-rule="evenodd" clip-rule="evenodd" d="M179.969 222.07C179.969 223.727 178.626 225.07 176.969 225.07C175.311 225.07 173.969 223.727 173.969 222.07C173.969 220.412 175.311 219.07 176.969 219.07C178.626 219.07 179.969 220.412 179.969 222.07Z" fill="#42A584"/>
<path fill-rule="evenodd" clip-rule="evenodd" d="M179.969 222.07C179.969 223.727 178.626 225.07 176.969 225.07C175.311 225.07 173.969 223.727 173.969 222.07C173.969 220.412 175.311 219.07 176.969 219.07C178.626 219.07 179.969 220.412 179.969 222.07Z" fill="#42A584"/>
<path fill-rule="evenodd" clip-rule="evenodd" d="M194.969 222.07C194.969 223.727 193.626 225.07 191.969 225.07C190.311 225.07 188.969 223.727 188.969 222.07C188.969 220.412 190.311 219.07 191.969 219.07C193.626 219.07 194.969 220.412 194.969 222.07Z" fill="#42A584"/>
<path fill-rule="evenodd" clip-rule="evenodd" d="M194.969 222.07C194.969 223.727 193.626 225.07 191.969 225.07C190.311 225.07 188.969 223.727 188.969 222.07C188.969 220.412 190.311 219.07 191.969 219.07C193.626 219.07 194.969 220.412 194.969 222.07Z" fill="#42A584"/>
<path fill-rule="evenodd" clip-rule="evenodd" d="M209.969 222.07C209.969 223.727 208.626 225.07 206.969 225.07C205.311 225.07 203.969 223.727 203.969 222.07C203.969 220.412 205.311 219.07 206.969 219.07C208.626 219.07 209.969 220.412 209.969 222.07Z" fill="#42A584"/>
<path fill-rule="evenodd" clip-rule="evenodd" d="M209.969 222.07C209.969 223.727 208.626 225.07 206.969 225.07C205.311 225.07 203.969 223.727 203.969 222.07C203.969 220.412 205.311 219.07 206.969 219.07C208.626 219.07 209.969 220.412 209.969 222.07Z" fill="#42A584"/>
<path fill-rule="evenodd" clip-rule="evenodd" d="M225.969 222.07C225.969 223.727 224.626 225.07 222.969 225.07C221.311 225.07 219.969 223.727 219.969 222.07C219.969 220.412 221.311 219.07 222.969 219.07C224.626 219.07 225.969 220.412 225.969 222.07Z" fill="#42A584"/>
<path fill-rule="evenodd" clip-rule="evenodd" d="M225.969 222.07C225.969 223.727 224.626 225.07 222.969 225.07C221.311 225.07 219.969 223.727 219.969 222.07C219.969 220.412 221.311 219.07 222.969 219.07C224.626 219.07 225.969 220.412 225.969 222.07Z" fill="#42A584"/>
<path fill-rule="evenodd" clip-rule="evenodd" d="M55.9688 237.07C55.9688 238.727 54.6263 240.07 52.9688 240.07C51.3112 240.07 49.9688 238.727 49.9688 237.07C49.9688 235.412 51.3112 234.07 52.9688 234.07C54.6263 234.07 55.9688 235.412 55.9688 237.07Z" fill="#42A584"/>
<path fill-rule="evenodd" clip-rule="evenodd" d="M55.9688 237.07C55.9688 238.727 54.6263 240.07 52.9688 240.07C51.3112 240.07 49.9688 238.727 49.9688 237.07C49.9688 235.412 51.3112 234.07 52.9688 234.07C54.6263 234.07 55.9688 235.412 55.9688 237.07Z" fill="#42A584"/>
<path fill-rule="evenodd" clip-rule="evenodd" d="M71.9688 237.07C71.9688 238.727 70.6263 240.07 68.9688 240.07C67.3112 240.07 65.9688 238.727 65.9688 237.07C65.9688 235.412 67.3112 234.07 68.9688 234.07C70.6263 234.07 71.9688 235.412 71.9688 237.07Z" fill="#42A584"/>
<path fill-rule="evenodd" clip-rule="evenodd" d="M71.9688 237.07C71.9688 238.727 70.6263 240.07 68.9688 240.07C67.3112 240.07 65.9688 238.727 65.9688 237.07C65.9688 235.412 67.3112 234.07 68.9688 234.07C70.6263 234.07 71.9688 235.412 71.9688 237.07Z" fill="#42A584"/>
<path fill-rule="evenodd" clip-rule="evenodd" d="M86.9688 237.07C86.9688 238.727 85.6263 240.07 83.9688 240.07C82.3112 240.07 80.9688 238.727 80.9688 237.07C80.9688 235.412 82.3112 234.07 83.9688 234.07C85.6263 234.07 86.9688 235.412 86.9688 237.07Z" fill="#42A584"/>
<path fill-rule="evenodd" clip-rule="evenodd" d="M86.9688 237.07C86.9688 238.727 85.6263 240.07 83.9688 240.07C82.3112 240.07 80.9688 238.727 80.9688 237.07C80.9688 235.412 82.3112 234.07 83.9688 234.07C85.6263 234.07 86.9688 235.412 86.9688 237.07Z" fill="#42A584"/>
<path fill-rule="evenodd" clip-rule="evenodd" d="M101.969 237.07C101.969 238.727 100.626 240.07 98.9688 240.07C97.3112 240.07 95.9688 238.727 95.9688 237.07C95.9688 235.412 97.3112 234.07 98.9688 234.07C100.626 234.07 101.969 235.412 101.969 237.07Z" fill="#42A584"/>
<path fill-rule="evenodd" clip-rule="evenodd" d="M101.969 237.07C101.969 238.727 100.626 240.07 98.9688 240.07C97.3112 240.07 95.9688 238.727 95.9688 237.07C95.9688 235.412 97.3112 234.07 98.9688 234.07C100.626 234.07 101.969 235.412 101.969 237.07Z" fill="#42A584"/>
<path fill-rule="evenodd" clip-rule="evenodd" d="M117.969 237.07C117.969 238.727 116.626 240.07 114.969 240.07C113.311 240.07 111.969 238.727 111.969 237.07C111.969 235.412 113.311 234.07 114.969 234.07C116.626 234.07 117.969 235.412 117.969 237.07Z" fill="#42A584"/>
<path fill-rule="evenodd" clip-rule="evenodd" d="M117.969 237.07C117.969 238.727 116.626 240.07 114.969 240.07C113.311 240.07 111.969 238.727 111.969 237.07C111.969 235.412 113.311 234.07 114.969 234.07C116.626 234.07 117.969 235.412 117.969 237.07Z" fill="#42A584"/>
<path fill-rule="evenodd" clip-rule="evenodd" d="M132.969 237.07C132.969 238.727 131.626 240.07 129.969 240.07C128.311 240.07 126.969 238.727 126.969 237.07C126.969 235.412 128.311 234.07 129.969 234.07C131.626 234.07 132.969 235.412 132.969 237.07Z" fill="#42A584"/>
<path fill-rule="evenodd" clip-rule="evenodd" d="M132.969 237.07C132.969 238.727 131.626 240.07 129.969 240.07C128.311 240.07 126.969 238.727 126.969 237.07C126.969 235.412 128.311 234.07 129.969 234.07C131.626 234.07 132.969 235.412 132.969 237.07Z" fill="#42A584"/>
<path fill-rule="evenodd" clip-rule="evenodd" d="M148.969 237.07C148.969 238.727 147.626 240.07 145.969 240.07C144.311 240.07 142.969 238.727 142.969 237.07C142.969 235.412 144.311 234.07 145.969 234.07C147.626 234.07 148.969 235.412 148.969 237.07Z" fill="#42A584"/>
<path fill-rule="evenodd" clip-rule="evenodd" d="M148.969 237.07C148.969 238.727 147.626 240.07 145.969 240.07C144.311 240.07 142.969 238.727 142.969 237.07C142.969 235.412 144.311 234.07 145.969 234.07C147.626 234.07 148.969 235.412 148.969 237.07Z" fill="#42A584"/>
<path fill-rule="evenodd" clip-rule="evenodd" d="M163.969 237.07C163.969 238.727 162.626 240.07 160.969 240.07C159.311 240.07 157.969 238.727 157.969 237.07C157.969 235.412 159.311 234.07 160.969 234.07C162.626 234.07 163.969 235.412 163.969 237.07Z" fill="#42A584"/>
<path fill-rule="evenodd" clip-rule="evenodd" d="M163.969 237.07C163.969 238.727 162.626 240.07 160.969 240.07C159.311 240.07 157.969 238.727 157.969 237.07C157.969 235.412 159.311 234.07 160.969 234.07C162.626 234.07 163.969 235.412 163.969 237.07Z" fill="#42A584"/>
<path fill-rule="evenodd" clip-rule="evenodd" d="M179.969 237.07C179.969 238.727 178.626 240.07 176.969 240.07C175.311 240.07 173.969 238.727 173.969 237.07C173.969 235.412 175.311 234.07 176.969 234.07C178.626 234.07 179.969 235.412 179.969 237.07Z" fill="#42A584"/>
<path fill-rule="evenodd" clip-rule="evenodd" d="M179.969 237.07C179.969 238.727 178.626 240.07 176.969 240.07C175.311 240.07 173.969 238.727 173.969 237.07C173.969 235.412 175.311 234.07 176.969 234.07C178.626 234.07 179.969 235.412 179.969 237.07Z" fill="#42A584"/>
<path fill-rule="evenodd" clip-rule="evenodd" d="M194.969 237.07C194.969 238.727 193.626 240.07 191.969 240.07C190.311 240.07 188.969 238.727 188.969 237.07C188.969 235.412 190.311 234.07 191.969 234.07C193.626 234.07 194.969 235.412 194.969 237.07Z" fill="#42A584"/>
<path fill-rule="evenodd" clip-rule="evenodd" d="M194.969 237.07C194.969 238.727 193.626 240.07 191.969 240.07C190.311 240.07 188.969 238.727 188.969 237.07C188.969 235.412 190.311 234.07 191.969 234.07C193.626 234.07 194.969 235.412 194.969 237.07Z" fill="#42A584"/>
<path fill-rule="evenodd" clip-rule="evenodd" d="M209.969 237.07C209.969 238.727 208.626 240.07 206.969 240.07C205.311 240.07 203.969 238.727 203.969 237.07C203.969 235.412 205.311 234.07 206.969 234.07C208.626 234.07 209.969 235.412 209.969 237.07Z" fill="#42A584"/>
<path fill-rule="evenodd" clip-rule="evenodd" d="M209.969 237.07C209.969 238.727 208.626 240.07 206.969 240.07C205.311 240.07 203.969 238.727 203.969 237.07C203.969 235.412 205.311 234.07 206.969 234.07C208.626 234.07 209.969 235.412 209.969 237.07Z" fill="#42A584"/>
<path fill-rule="evenodd" clip-rule="evenodd" d="M225.969 237.07C225.969 238.727 224.626 240.07 222.969 240.07C221.311 240.07 219.969 238.727 219.969 237.07C219.969 235.412 221.311 234.07 222.969 234.07C224.626 234.07 225.969 235.412 225.969 237.07Z" fill="#42A584"/>
<path fill-rule="evenodd" clip-rule="evenodd" d="M225.969 237.07C225.969 238.727 224.626 240.07 222.969 240.07C221.311 240.07 219.969 238.727 219.969 237.07C219.969 235.412 221.311 234.07 222.969 234.07C224.626 234.07 225.969 235.412 225.969 237.07Z" fill="#42A584"/>
<path fill-rule="evenodd" clip-rule="evenodd" d="M71.9688 52.0698C71.9688 53.7273 70.6263 55.0698 68.9688 55.0698C67.3112 55.0698 65.9688 53.7273 65.9688 52.0698C65.9688 50.4123 67.3112 49.0698 68.9688 49.0698C70.6263 49.0698 71.9688 50.4123 71.9688 52.0698Z" fill="#42A584"/>
<path fill-rule="evenodd" clip-rule="evenodd" d="M71.9688 52.0698C71.9688 53.7273 70.6263 55.0698 68.9688 55.0698C67.3112 55.0698 65.9688 53.7273 65.9688 52.0698C65.9688 50.4123 67.3112 49.0698 68.9688 49.0698C70.6263 49.0698 71.9688 50.4123 71.9688 52.0698Z" fill="#42A584"/>
<path fill-rule="evenodd" clip-rule="evenodd" d="M86.9688 52.0698C86.9688 53.7273 85.6263 55.0698 83.9688 55.0698C82.3112 55.0698 80.9688 53.7273 80.9688 52.0698C80.9688 50.4123 82.3112 49.0698 83.9688 49.0698C85.6263 49.0698 86.9688 50.4123 86.9688 52.0698Z" fill="#42A584"/>
<path fill-rule="evenodd" clip-rule="evenodd" d="M86.9688 52.0698C86.9688 53.7273 85.6263 55.0698 83.9688 55.0698C82.3112 55.0698 80.9688 53.7273 80.9688 52.0698C80.9688 50.4123 82.3112 49.0698 83.9688 49.0698C85.6263 49.0698 86.9688 50.4123 86.9688 52.0698Z" fill="#42A584"/>
<path fill-rule="evenodd" clip-rule="evenodd" d="M101.969 52.0698C101.969 53.7273 100.626 55.0698 98.9688 55.0698C97.3112 55.0698 95.9688 53.7273 95.9688 52.0698C95.9688 50.4123 97.3112 49.0698 98.9688 49.0698C100.626 49.0698 101.969 50.4123 101.969 52.0698Z" fill="#42A584"/>
<path fill-rule="evenodd" clip-rule="evenodd" d="M101.969 52.0698C101.969 53.7273 100.626 55.0698 98.9688 55.0698C97.3112 55.0698 95.9688 53.7273 95.9688 52.0698C95.9688 50.4123 97.3112 49.0698 98.9688 49.0698C100.626 49.0698 101.969 50.4123 101.969 52.0698Z" fill="#42A584"/>
<path fill-rule="evenodd" clip-rule="evenodd" d="M117.969 52.0698C117.969 53.7273 116.626 55.0698 114.969 55.0698C113.311 55.0698 111.969 53.7273 111.969 52.0698C111.969 50.4123 113.311 49.0698 114.969 49.0698C116.626 49.0698 117.969 50.4123 117.969 52.0698Z" fill="#42A584"/>
<path fill-rule="evenodd" clip-rule="evenodd" d="M117.969 52.0698C117.969 53.7273 116.626 55.0698 114.969 55.0698C113.311 55.0698 111.969 53.7273 111.969 52.0698C111.969 50.4123 113.311 49.0698 114.969 49.0698C116.626 49.0698 117.969 50.4123 117.969 52.0698Z" fill="#42A584"/>
<path fill-rule="evenodd" clip-rule="evenodd" d="M132.969 52.0698C132.969 53.7273 131.626 55.0698 129.969 55.0698C128.311 55.0698 126.969 53.7273 126.969 52.0698C126.969 50.4123 128.311 49.0698 129.969 49.0698C131.626 49.0698 132.969 50.4123 132.969 52.0698Z" fill="#42A584"/>
<path fill-rule="evenodd" clip-rule="evenodd" d="M132.969 52.0698C132.969 53.7273 131.626 55.0698 129.969 55.0698C128.311 55.0698 126.969 53.7273 126.969 52.0698C126.969 50.4123 128.311 49.0698 129.969 49.0698C131.626 49.0698 132.969 50.4123 132.969 52.0698Z" fill="#42A584"/>
<path fill-rule="evenodd" clip-rule="evenodd" d="M148.969 52.0698C148.969 53.7273 147.626 55.0698 145.969 55.0698C144.311 55.0698 142.969 53.7273 142.969 52.0698C142.969 50.4123 144.311 49.0698 145.969 49.0698C147.626 49.0698 148.969 50.4123 148.969 52.0698Z" fill="#42A584"/>
<path fill-rule="evenodd" clip-rule="evenodd" d="M148.969 52.0698C148.969 53.7273 147.626 55.0698 145.969 55.0698C144.311 55.0698 142.969 53.7273 142.969 52.0698C142.969 50.4123 144.311 49.0698 145.969 49.0698C147.626 49.0698 148.969 50.4123 148.969 52.0698Z" fill="#42A584"/>
<path fill-rule="evenodd" clip-rule="evenodd" d="M163.969 52.0698C163.969 53.7273 162.626 55.0698 160.969 55.0698C159.311 55.0698 157.969 53.7273 157.969 52.0698C157.969 50.4123 159.311 49.0698 160.969 49.0698C162.626 49.0698 163.969 50.4123 163.969 52.0698Z" fill="#42A584"/>
<path fill-rule="evenodd" clip-rule="evenodd" d="M163.969 52.0698C163.969 53.7273 162.626 55.0698 160.969 55.0698C159.311 55.0698 157.969 53.7273 157.969 52.0698C157.969 50.4123 159.311 49.0698 160.969 49.0698C162.626 49.0698 163.969 50.4123 163.969 52.0698Z" fill="#42A584"/>
<path fill-rule="evenodd" clip-rule="evenodd" d="M179.969 52.0698C179.969 53.7273 178.626 55.0698 176.969 55.0698C175.311 55.0698 173.969 53.7273 173.969 52.0698C173.969 50.4123 175.311 49.0698 176.969 49.0698C178.626 49.0698 179.969 50.4123 179.969 52.0698Z" fill="#42A584"/>
<path fill-rule="evenodd" clip-rule="evenodd" d="M179.969 52.0698C179.969 53.7273 178.626 55.0698 176.969 55.0698C175.311 55.0698 173.969 53.7273 173.969 52.0698C173.969 50.4123 175.311 49.0698 176.969 49.0698C178.626 49.0698 179.969 50.4123 179.969 52.0698Z" fill="#42A584"/>
<path fill-rule="evenodd" clip-rule="evenodd" d="M194.969 52.0698C194.969 53.7273 193.626 55.0698 191.969 55.0698C190.311 55.0698 188.969 53.7273 188.969 52.0698C188.969 50.4123 190.311 49.0698 191.969 49.0698C193.626 49.0698 194.969 50.4123 194.969 52.0698Z" fill="#42A584"/>
<path fill-rule="evenodd" clip-rule="evenodd" d="M194.969 52.0698C194.969 53.7273 193.626 55.0698 191.969 55.0698C190.311 55.0698 188.969 53.7273 188.969 52.0698C188.969 50.4123 190.311 49.0698 191.969 49.0698C193.626 49.0698 194.969 50.4123 194.969 52.0698Z" fill="#42A584"/>
<path fill-rule="evenodd" clip-rule="evenodd" d="M209.969 52.0698C209.969 53.7273 208.626 55.0698 206.969 55.0698C205.311 55.0698 203.969 53.7273 203.969 52.0698C203.969 50.4123 205.311 49.0698 206.969 49.0698C208.626 49.0698 209.969 50.4123 209.969 52.0698Z" fill="#42A584"/>
<path fill-rule="evenodd" clip-rule="evenodd" d="M209.969 52.0698C209.969 53.7273 208.626 55.0698 206.969 55.0698C205.311 55.0698 203.969 53.7273 203.969 52.0698C203.969 50.4123 205.311 49.0698 206.969 49.0698C208.626 49.0698 209.969 50.4123 209.969 52.0698Z" fill="#42A584"/>
<path fill-rule="evenodd" clip-rule="evenodd" d="M225.969 52.0698C225.969 53.7273 224.626 55.0698 222.969 55.0698C221.311 55.0698 219.969 53.7273 219.969 52.0698C219.969 50.4123 221.311 49.0698 222.969 49.0698C224.626 49.0698 225.969 50.4123 225.969 52.0698Z" fill="#42A584"/>
<path fill-rule="evenodd" clip-rule="evenodd" d="M225.969 52.0698C225.969 53.7273 224.626 55.0698 222.969 55.0698C221.311 55.0698 219.969 53.7273 219.969 52.0698C219.969 50.4123 221.311 49.0698 222.969 49.0698C224.626 49.0698 225.969 50.4123 225.969 52.0698Z" fill="#42A584"/>
</svg>
