<svg width="999" height="683" viewBox="0 0 999 683" fill="none" xmlns="http://www.w3.org/2000/svg">
<rect width="999" height="683" fill="white"/>
<rect width="998.36" height="682.84" fill="#FAFAFC"/>
<path d="M831 665C923.232 665 998 592.47 998 503C998 413.53 923.232 341 831 341C738.768 341 664 413.53 664 503C664 592.47 738.768 665 831 665Z" fill="#FED14A"/>
<path fill-rule="evenodd" clip-rule="evenodd" d="M34.9688 3.06982C34.9688 4.72732 33.6263 6.06982 31.9688 6.06982C30.3112 6.06982 28.9688 4.72732 28.9688 3.06982C28.9688 1.41232 30.3112 0.0698242 31.9688 0.0698242C33.6263 0.0698242 34.9688 1.41232 34.9688 3.06982Z" fill="#42A584"/>
<path fill-rule="evenodd" clip-rule="evenodd" d="M34.9688 3.06982C34.9688 4.72732 33.6263 6.06982 31.9688 6.06982C30.3112 6.06982 28.9688 4.72732 28.9688 3.06982C28.9688 1.41232 30.3112 0.0698242 31.9688 0.0698242C33.6263 0.0698242 34.9688 1.41232 34.9688 3.06982Z" fill="#42A584"/>
<path fill-rule="evenodd" clip-rule="evenodd" d="M34.9688 18.0698C34.9688 19.7273 33.6263 21.0698 31.9688 21.0698C30.3112 21.0698 28.9688 19.7273 28.9688 18.0698C28.9688 16.4123 30.3112 15.0698 31.9688 15.0698C33.6263 15.0698 34.9688 16.4123 34.9688 18.0698Z" fill="#42A584"/>
<path fill-rule="evenodd" clip-rule="evenodd" d="M34.9688 18.0698C34.9688 19.7273 33.6263 21.0698 31.9688 21.0698C30.3112 21.0698 28.9688 19.7273 28.9688 18.0698C28.9688 16.4123 30.3112 15.0698 31.9688 15.0698C33.6263 15.0698 34.9688 16.4123 34.9688 18.0698Z" fill="#42A584"/>
<path fill-rule="evenodd" clip-rule="evenodd" d="M50.9688 18.0698C50.9688 19.7273 49.6263 21.0698 47.9688 21.0698C46.3112 21.0698 44.9688 19.7273 44.9688 18.0698C44.9688 16.4123 46.3112 15.0698 47.9688 15.0698C49.6263 15.0698 50.9688 16.4123 50.9688 18.0698Z" fill="#42A584"/>
<path fill-rule="evenodd" clip-rule="evenodd" d="M50.9688 18.0698C50.9688 19.7273 49.6263 21.0698 47.9688 21.0698C46.3112 21.0698 44.9688 19.7273 44.9688 18.0698C44.9688 16.4123 46.3112 15.0698 47.9688 15.0698C49.6263 15.0698 50.9688 16.4123 50.9688 18.0698Z" fill="#42A584"/>
<path fill-rule="evenodd" clip-rule="evenodd" d="M65.9688 18.0698C65.9688 19.7273 64.6263 21.0698 62.9688 21.0698C61.3112 21.0698 59.9688 19.7273 59.9688 18.0698C59.9688 16.4123 61.3112 15.0698 62.9688 15.0698C64.6263 15.0698 65.9688 16.4123 65.9688 18.0698Z" fill="#42A584"/>
<path fill-rule="evenodd" clip-rule="evenodd" d="M65.9688 18.0698C65.9688 19.7273 64.6263 21.0698 62.9688 21.0698C61.3112 21.0698 59.9688 19.7273 59.9688 18.0698C59.9688 16.4123 61.3112 15.0698 62.9688 15.0698C64.6263 15.0698 65.9688 16.4123 65.9688 18.0698Z" fill="#42A584"/>
<path fill-rule="evenodd" clip-rule="evenodd" d="M80.9688 18.0698C80.9688 19.7273 79.6263 21.0698 77.9688 21.0698C76.3112 21.0698 74.9688 19.7273 74.9688 18.0698C74.9688 16.4123 76.3112 15.0698 77.9688 15.0698C79.6263 15.0698 80.9688 16.4123 80.9688 18.0698Z" fill="#42A584"/>
<path fill-rule="evenodd" clip-rule="evenodd" d="M80.9688 18.0698C80.9688 19.7273 79.6263 21.0698 77.9688 21.0698C76.3112 21.0698 74.9688 19.7273 74.9688 18.0698C74.9688 16.4123 76.3112 15.0698 77.9688 15.0698C79.6263 15.0698 80.9688 16.4123 80.9688 18.0698Z" fill="#42A584"/>
<path fill-rule="evenodd" clip-rule="evenodd" d="M96.9688 18.0698C96.9688 19.7273 95.6263 21.0698 93.9688 21.0698C92.3112 21.0698 90.9688 19.7273 90.9688 18.0698C90.9688 16.4123 92.3112 15.0698 93.9688 15.0698C95.6263 15.0698 96.9688 16.4123 96.9688 18.0698Z" fill="#42A584"/>
<path fill-rule="evenodd" clip-rule="evenodd" d="M96.9688 18.0698C96.9688 19.7273 95.6263 21.0698 93.9688 21.0698C92.3112 21.0698 90.9688 19.7273 90.9688 18.0698C90.9688 16.4123 92.3112 15.0698 93.9688 15.0698C95.6263 15.0698 96.9688 16.4123 96.9688 18.0698Z" fill="#42A584"/>
<path fill-rule="evenodd" clip-rule="evenodd" d="M111.969 18.0698C111.969 19.7273 110.626 21.0698 108.969 21.0698C107.311 21.0698 105.969 19.7273 105.969 18.0698C105.969 16.4123 107.311 15.0698 108.969 15.0698C110.626 15.0698 111.969 16.4123 111.969 18.0698Z" fill="#42A584"/>
<path fill-rule="evenodd" clip-rule="evenodd" d="M111.969 18.0698C111.969 19.7273 110.626 21.0698 108.969 21.0698C107.311 21.0698 105.969 19.7273 105.969 18.0698C105.969 16.4123 107.311 15.0698 108.969 15.0698C110.626 15.0698 111.969 16.4123 111.969 18.0698Z" fill="#42A584"/>
<path fill-rule="evenodd" clip-rule="evenodd" d="M127.969 18.0698C127.969 19.7273 126.626 21.0698 124.969 21.0698C123.311 21.0698 121.969 19.7273 121.969 18.0698C121.969 16.4123 123.311 15.0698 124.969 15.0698C126.626 15.0698 127.969 16.4123 127.969 18.0698Z" fill="#42A584"/>
<path fill-rule="evenodd" clip-rule="evenodd" d="M127.969 18.0698C127.969 19.7273 126.626 21.0698 124.969 21.0698C123.311 21.0698 121.969 19.7273 121.969 18.0698C121.969 16.4123 123.311 15.0698 124.969 15.0698C126.626 15.0698 127.969 16.4123 127.969 18.0698Z" fill="#42A584"/>
<path fill-rule="evenodd" clip-rule="evenodd" d="M142.969 18.0698C142.969 19.7273 141.626 21.0698 139.969 21.0698C138.311 21.0698 136.969 19.7273 136.969 18.0698C136.969 16.4123 138.311 15.0698 139.969 15.0698C141.626 15.0698 142.969 16.4123 142.969 18.0698Z" fill="#42A584"/>
<path fill-rule="evenodd" clip-rule="evenodd" d="M142.969 18.0698C142.969 19.7273 141.626 21.0698 139.969 21.0698C138.311 21.0698 136.969 19.7273 136.969 18.0698C136.969 16.4123 138.311 15.0698 139.969 15.0698C141.626 15.0698 142.969 16.4123 142.969 18.0698Z" fill="#42A584"/>
<path fill-rule="evenodd" clip-rule="evenodd" d="M158.969 18.0698C158.969 19.7273 157.626 21.0698 155.969 21.0698C154.311 21.0698 152.969 19.7273 152.969 18.0698C152.969 16.4123 154.311 15.0698 155.969 15.0698C157.626 15.0698 158.969 16.4123 158.969 18.0698Z" fill="#42A584"/>
<path fill-rule="evenodd" clip-rule="evenodd" d="M158.969 18.0698C158.969 19.7273 157.626 21.0698 155.969 21.0698C154.311 21.0698 152.969 19.7273 152.969 18.0698C152.969 16.4123 154.311 15.0698 155.969 15.0698C157.626 15.0698 158.969 16.4123 158.969 18.0698Z" fill="#42A584"/>
<path fill-rule="evenodd" clip-rule="evenodd" d="M173.969 18.0698C173.969 19.7273 172.626 21.0698 170.969 21.0698C169.311 21.0698 167.969 19.7273 167.969 18.0698C167.969 16.4123 169.311 15.0698 170.969 15.0698C172.626 15.0698 173.969 16.4123 173.969 18.0698Z" fill="#42A584"/>
<path fill-rule="evenodd" clip-rule="evenodd" d="M173.969 18.0698C173.969 19.7273 172.626 21.0698 170.969 21.0698C169.311 21.0698 167.969 19.7273 167.969 18.0698C167.969 16.4123 169.311 15.0698 170.969 15.0698C172.626 15.0698 173.969 16.4123 173.969 18.0698Z" fill="#42A584"/>
<path fill-rule="evenodd" clip-rule="evenodd" d="M188.969 18.0698C188.969 19.7273 187.626 21.0698 185.969 21.0698C184.311 21.0698 182.969 19.7273 182.969 18.0698C182.969 16.4123 184.311 15.0698 185.969 15.0698C187.626 15.0698 188.969 16.4123 188.969 18.0698Z" fill="#42A584"/>
<path fill-rule="evenodd" clip-rule="evenodd" d="M188.969 18.0698C188.969 19.7273 187.626 21.0698 185.969 21.0698C184.311 21.0698 182.969 19.7273 182.969 18.0698C182.969 16.4123 184.311 15.0698 185.969 15.0698C187.626 15.0698 188.969 16.4123 188.969 18.0698Z" fill="#42A584"/>
<path fill-rule="evenodd" clip-rule="evenodd" d="M204.969 18.0698C204.969 19.7273 203.626 21.0698 201.969 21.0698C200.311 21.0698 198.969 19.7273 198.969 18.0698C198.969 16.4123 200.311 15.0698 201.969 15.0698C203.626 15.0698 204.969 16.4123 204.969 18.0698Z" fill="#42A584"/>
<path fill-rule="evenodd" clip-rule="evenodd" d="M204.969 18.0698C204.969 19.7273 203.626 21.0698 201.969 21.0698C200.311 21.0698 198.969 19.7273 198.969 18.0698C198.969 16.4123 200.311 15.0698 201.969 15.0698C203.626 15.0698 204.969 16.4123 204.969 18.0698Z" fill="#42A584"/>
<path fill-rule="evenodd" clip-rule="evenodd" d="M34.9688 34.0698C34.9688 35.7273 33.6263 37.0698 31.9688 37.0698C30.3112 37.0698 28.9688 35.7273 28.9688 34.0698C28.9688 32.4123 30.3112 31.0698 31.9688 31.0698C33.6263 31.0698 34.9688 32.4123 34.9688 34.0698Z" fill="#42A584"/>
<path fill-rule="evenodd" clip-rule="evenodd" d="M34.9688 34.0698C34.9688 35.7273 33.6263 37.0698 31.9688 37.0698C30.3112 37.0698 28.9688 35.7273 28.9688 34.0698C28.9688 32.4123 30.3112 31.0698 31.9688 31.0698C33.6263 31.0698 34.9688 32.4123 34.9688 34.0698Z" fill="#42A584"/>
<path fill-rule="evenodd" clip-rule="evenodd" d="M50.9688 34.0698C50.9688 35.7273 49.6263 37.0698 47.9688 37.0698C46.3112 37.0698 44.9688 35.7273 44.9688 34.0698C44.9688 32.4123 46.3112 31.0698 47.9688 31.0698C49.6263 31.0698 50.9688 32.4123 50.9688 34.0698Z" fill="#42A584"/>
<path fill-rule="evenodd" clip-rule="evenodd" d="M50.9688 34.0698C50.9688 35.7273 49.6263 37.0698 47.9688 37.0698C46.3112 37.0698 44.9688 35.7273 44.9688 34.0698C44.9688 32.4123 46.3112 31.0698 47.9688 31.0698C49.6263 31.0698 50.9688 32.4123 50.9688 34.0698Z" fill="#42A584"/>
<path fill-rule="evenodd" clip-rule="evenodd" d="M65.9688 34.0698C65.9688 35.7273 64.6263 37.0698 62.9688 37.0698C61.3112 37.0698 59.9688 35.7273 59.9688 34.0698C59.9688 32.4123 61.3112 31.0698 62.9688 31.0698C64.6263 31.0698 65.9688 32.4123 65.9688 34.0698Z" fill="#42A584"/>
<path fill-rule="evenodd" clip-rule="evenodd" d="M65.9688 34.0698C65.9688 35.7273 64.6263 37.0698 62.9688 37.0698C61.3112 37.0698 59.9688 35.7273 59.9688 34.0698C59.9688 32.4123 61.3112 31.0698 62.9688 31.0698C64.6263 31.0698 65.9688 32.4123 65.9688 34.0698Z" fill="#42A584"/>
<path fill-rule="evenodd" clip-rule="evenodd" d="M80.9688 34.0698C80.9688 35.7273 79.6263 37.0698 77.9688 37.0698C76.3112 37.0698 74.9688 35.7273 74.9688 34.0698C74.9688 32.4123 76.3112 31.0698 77.9688 31.0698C79.6263 31.0698 80.9688 32.4123 80.9688 34.0698Z" fill="#42A584"/>
<path fill-rule="evenodd" clip-rule="evenodd" d="M80.9688 34.0698C80.9688 35.7273 79.6263 37.0698 77.9688 37.0698C76.3112 37.0698 74.9688 35.7273 74.9688 34.0698C74.9688 32.4123 76.3112 31.0698 77.9688 31.0698C79.6263 31.0698 80.9688 32.4123 80.9688 34.0698Z" fill="#42A584"/>
<path fill-rule="evenodd" clip-rule="evenodd" d="M96.9688 34.0698C96.9688 35.7273 95.6263 37.0698 93.9688 37.0698C92.3112 37.0698 90.9688 35.7273 90.9688 34.0698C90.9688 32.4123 92.3112 31.0698 93.9688 31.0698C95.6263 31.0698 96.9688 32.4123 96.9688 34.0698Z" fill="#42A584"/>
<path fill-rule="evenodd" clip-rule="evenodd" d="M96.9688 34.0698C96.9688 35.7273 95.6263 37.0698 93.9688 37.0698C92.3112 37.0698 90.9688 35.7273 90.9688 34.0698C90.9688 32.4123 92.3112 31.0698 93.9688 31.0698C95.6263 31.0698 96.9688 32.4123 96.9688 34.0698Z" fill="#42A584"/>
<path fill-rule="evenodd" clip-rule="evenodd" d="M111.969 34.0698C111.969 35.7273 110.626 37.0698 108.969 37.0698C107.311 37.0698 105.969 35.7273 105.969 34.0698C105.969 32.4123 107.311 31.0698 108.969 31.0698C110.626 31.0698 111.969 32.4123 111.969 34.0698Z" fill="#42A584"/>
<path fill-rule="evenodd" clip-rule="evenodd" d="M111.969 34.0698C111.969 35.7273 110.626 37.0698 108.969 37.0698C107.311 37.0698 105.969 35.7273 105.969 34.0698C105.969 32.4123 107.311 31.0698 108.969 31.0698C110.626 31.0698 111.969 32.4123 111.969 34.0698Z" fill="#42A584"/>
<path fill-rule="evenodd" clip-rule="evenodd" d="M127.969 34.0698C127.969 35.7273 126.626 37.0698 124.969 37.0698C123.311 37.0698 121.969 35.7273 121.969 34.0698C121.969 32.4123 123.311 31.0698 124.969 31.0698C126.626 31.0698 127.969 32.4123 127.969 34.0698Z" fill="#42A584"/>
<path fill-rule="evenodd" clip-rule="evenodd" d="M127.969 34.0698C127.969 35.7273 126.626 37.0698 124.969 37.0698C123.311 37.0698 121.969 35.7273 121.969 34.0698C121.969 32.4123 123.311 31.0698 124.969 31.0698C126.626 31.0698 127.969 32.4123 127.969 34.0698Z" fill="#42A584"/>
<path fill-rule="evenodd" clip-rule="evenodd" d="M142.969 34.0698C142.969 35.7273 141.626 37.0698 139.969 37.0698C138.311 37.0698 136.969 35.7273 136.969 34.0698C136.969 32.4123 138.311 31.0698 139.969 31.0698C141.626 31.0698 142.969 32.4123 142.969 34.0698Z" fill="#42A584"/>
<path fill-rule="evenodd" clip-rule="evenodd" d="M142.969 34.0698C142.969 35.7273 141.626 37.0698 139.969 37.0698C138.311 37.0698 136.969 35.7273 136.969 34.0698C136.969 32.4123 138.311 31.0698 139.969 31.0698C141.626 31.0698 142.969 32.4123 142.969 34.0698Z" fill="#42A584"/>
<path fill-rule="evenodd" clip-rule="evenodd" d="M158.969 34.0698C158.969 35.7273 157.626 37.0698 155.969 37.0698C154.311 37.0698 152.969 35.7273 152.969 34.0698C152.969 32.4123 154.311 31.0698 155.969 31.0698C157.626 31.0698 158.969 32.4123 158.969 34.0698Z" fill="#42A584"/>
<path fill-rule="evenodd" clip-rule="evenodd" d="M158.969 34.0698C158.969 35.7273 157.626 37.0698 155.969 37.0698C154.311 37.0698 152.969 35.7273 152.969 34.0698C152.969 32.4123 154.311 31.0698 155.969 31.0698C157.626 31.0698 158.969 32.4123 158.969 34.0698Z" fill="#42A584"/>
<path fill-rule="evenodd" clip-rule="evenodd" d="M173.969 34.0698C173.969 35.7273 172.626 37.0698 170.969 37.0698C169.311 37.0698 167.969 35.7273 167.969 34.0698C167.969 32.4123 169.311 31.0698 170.969 31.0698C172.626 31.0698 173.969 32.4123 173.969 34.0698Z" fill="#42A584"/>
<path fill-rule="evenodd" clip-rule="evenodd" d="M173.969 34.0698C173.969 35.7273 172.626 37.0698 170.969 37.0698C169.311 37.0698 167.969 35.7273 167.969 34.0698C167.969 32.4123 169.311 31.0698 170.969 31.0698C172.626 31.0698 173.969 32.4123 173.969 34.0698Z" fill="#42A584"/>
<path fill-rule="evenodd" clip-rule="evenodd" d="M188.969 34.0698C188.969 35.7273 187.626 37.0698 185.969 37.0698C184.311 37.0698 182.969 35.7273 182.969 34.0698C182.969 32.4123 184.311 31.0698 185.969 31.0698C187.626 31.0698 188.969 32.4123 188.969 34.0698Z" fill="#42A584"/>
<path fill-rule="evenodd" clip-rule="evenodd" d="M188.969 34.0698C188.969 35.7273 187.626 37.0698 185.969 37.0698C184.311 37.0698 182.969 35.7273 182.969 34.0698C182.969 32.4123 184.311 31.0698 185.969 31.0698C187.626 31.0698 188.969 32.4123 188.969 34.0698Z" fill="#42A584"/>
<path fill-rule="evenodd" clip-rule="evenodd" d="M204.969 34.0698C204.969 35.7273 203.626 37.0698 201.969 37.0698C200.311 37.0698 198.969 35.7273 198.969 34.0698C198.969 32.4123 200.311 31.0698 201.969 31.0698C203.626 31.0698 204.969 32.4123 204.969 34.0698Z" fill="#42A584"/>
<path fill-rule="evenodd" clip-rule="evenodd" d="M204.969 34.0698C204.969 35.7273 203.626 37.0698 201.969 37.0698C200.311 37.0698 198.969 35.7273 198.969 34.0698C198.969 32.4123 200.311 31.0698 201.969 31.0698C203.626 31.0698 204.969 32.4123 204.969 34.0698Z" fill="#42A584"/>
<path fill-rule="evenodd" clip-rule="evenodd" d="M34.9688 49.0698C34.9688 50.7273 33.6263 52.0698 31.9688 52.0698C30.3112 52.0698 28.9688 50.7273 28.9688 49.0698C28.9688 47.4123 30.3112 46.0698 31.9688 46.0698C33.6263 46.0698 34.9688 47.4123 34.9688 49.0698Z" fill="#42A584"/>
<path fill-rule="evenodd" clip-rule="evenodd" d="M34.9688 49.0698C34.9688 50.7273 33.6263 52.0698 31.9688 52.0698C30.3112 52.0698 28.9688 50.7273 28.9688 49.0698C28.9688 47.4123 30.3112 46.0698 31.9688 46.0698C33.6263 46.0698 34.9688 47.4123 34.9688 49.0698Z" fill="#42A584"/>
<path fill-rule="evenodd" clip-rule="evenodd" d="M50.9688 49.0698C50.9688 50.7273 49.6263 52.0698 47.9688 52.0698C46.3112 52.0698 44.9688 50.7273 44.9688 49.0698C44.9688 47.4123 46.3112 46.0698 47.9688 46.0698C49.6263 46.0698 50.9688 47.4123 50.9688 49.0698Z" fill="#42A584"/>
<path fill-rule="evenodd" clip-rule="evenodd" d="M50.9688 49.0698C50.9688 50.7273 49.6263 52.0698 47.9688 52.0698C46.3112 52.0698 44.9688 50.7273 44.9688 49.0698C44.9688 47.4123 46.3112 46.0698 47.9688 46.0698C49.6263 46.0698 50.9688 47.4123 50.9688 49.0698Z" fill="#42A584"/>
<path fill-rule="evenodd" clip-rule="evenodd" d="M65.9688 49.0698C65.9688 50.7273 64.6263 52.0698 62.9688 52.0698C61.3112 52.0698 59.9688 50.7273 59.9688 49.0698C59.9688 47.4123 61.3112 46.0698 62.9688 46.0698C64.6263 46.0698 65.9688 47.4123 65.9688 49.0698Z" fill="#42A584"/>
<path fill-rule="evenodd" clip-rule="evenodd" d="M65.9688 49.0698C65.9688 50.7273 64.6263 52.0698 62.9688 52.0698C61.3112 52.0698 59.9688 50.7273 59.9688 49.0698C59.9688 47.4123 61.3112 46.0698 62.9688 46.0698C64.6263 46.0698 65.9688 47.4123 65.9688 49.0698Z" fill="#42A584"/>
<path fill-rule="evenodd" clip-rule="evenodd" d="M80.9688 49.0698C80.9688 50.7273 79.6263 52.0698 77.9688 52.0698C76.3112 52.0698 74.9688 50.7273 74.9688 49.0698C74.9688 47.4123 76.3112 46.0698 77.9688 46.0698C79.6263 46.0698 80.9688 47.4123 80.9688 49.0698Z" fill="#42A584"/>
<path fill-rule="evenodd" clip-rule="evenodd" d="M80.9688 49.0698C80.9688 50.7273 79.6263 52.0698 77.9688 52.0698C76.3112 52.0698 74.9688 50.7273 74.9688 49.0698C74.9688 47.4123 76.3112 46.0698 77.9688 46.0698C79.6263 46.0698 80.9688 47.4123 80.9688 49.0698Z" fill="#42A584"/>
<path fill-rule="evenodd" clip-rule="evenodd" d="M96.9688 49.0698C96.9688 50.7273 95.6263 52.0698 93.9688 52.0698C92.3112 52.0698 90.9688 50.7273 90.9688 49.0698C90.9688 47.4123 92.3112 46.0698 93.9688 46.0698C95.6263 46.0698 96.9688 47.4123 96.9688 49.0698Z" fill="#42A584"/>
<path fill-rule="evenodd" clip-rule="evenodd" d="M96.9688 49.0698C96.9688 50.7273 95.6263 52.0698 93.9688 52.0698C92.3112 52.0698 90.9688 50.7273 90.9688 49.0698C90.9688 47.4123 92.3112 46.0698 93.9688 46.0698C95.6263 46.0698 96.9688 47.4123 96.9688 49.0698Z" fill="#42A584"/>
<path fill-rule="evenodd" clip-rule="evenodd" d="M111.969 49.0698C111.969 50.7273 110.626 52.0698 108.969 52.0698C107.311 52.0698 105.969 50.7273 105.969 49.0698C105.969 47.4123 107.311 46.0698 108.969 46.0698C110.626 46.0698 111.969 47.4123 111.969 49.0698Z" fill="#42A584"/>
<path fill-rule="evenodd" clip-rule="evenodd" d="M111.969 49.0698C111.969 50.7273 110.626 52.0698 108.969 52.0698C107.311 52.0698 105.969 50.7273 105.969 49.0698C105.969 47.4123 107.311 46.0698 108.969 46.0698C110.626 46.0698 111.969 47.4123 111.969 49.0698Z" fill="#42A584"/>
<path fill-rule="evenodd" clip-rule="evenodd" d="M127.969 49.0698C127.969 50.7273 126.626 52.0698 124.969 52.0698C123.311 52.0698 121.969 50.7273 121.969 49.0698C121.969 47.4123 123.311 46.0698 124.969 46.0698C126.626 46.0698 127.969 47.4123 127.969 49.0698Z" fill="#42A584"/>
<path fill-rule="evenodd" clip-rule="evenodd" d="M127.969 49.0698C127.969 50.7273 126.626 52.0698 124.969 52.0698C123.311 52.0698 121.969 50.7273 121.969 49.0698C121.969 47.4123 123.311 46.0698 124.969 46.0698C126.626 46.0698 127.969 47.4123 127.969 49.0698Z" fill="#42A584"/>
<path fill-rule="evenodd" clip-rule="evenodd" d="M142.969 49.0698C142.969 50.7273 141.626 52.0698 139.969 52.0698C138.311 52.0698 136.969 50.7273 136.969 49.0698C136.969 47.4123 138.311 46.0698 139.969 46.0698C141.626 46.0698 142.969 47.4123 142.969 49.0698Z" fill="#42A584"/>
<path fill-rule="evenodd" clip-rule="evenodd" d="M142.969 49.0698C142.969 50.7273 141.626 52.0698 139.969 52.0698C138.311 52.0698 136.969 50.7273 136.969 49.0698C136.969 47.4123 138.311 46.0698 139.969 46.0698C141.626 46.0698 142.969 47.4123 142.969 49.0698Z" fill="#42A584"/>
<path fill-rule="evenodd" clip-rule="evenodd" d="M158.969 49.0698C158.969 50.7273 157.626 52.0698 155.969 52.0698C154.311 52.0698 152.969 50.7273 152.969 49.0698C152.969 47.4123 154.311 46.0698 155.969 46.0698C157.626 46.0698 158.969 47.4123 158.969 49.0698Z" fill="#42A584"/>
<path fill-rule="evenodd" clip-rule="evenodd" d="M158.969 49.0698C158.969 50.7273 157.626 52.0698 155.969 52.0698C154.311 52.0698 152.969 50.7273 152.969 49.0698C152.969 47.4123 154.311 46.0698 155.969 46.0698C157.626 46.0698 158.969 47.4123 158.969 49.0698Z" fill="#42A584"/>
<path fill-rule="evenodd" clip-rule="evenodd" d="M173.969 49.0698C173.969 50.7273 172.626 52.0698 170.969 52.0698C169.311 52.0698 167.969 50.7273 167.969 49.0698C167.969 47.4123 169.311 46.0698 170.969 46.0698C172.626 46.0698 173.969 47.4123 173.969 49.0698Z" fill="#42A584"/>
<path fill-rule="evenodd" clip-rule="evenodd" d="M173.969 49.0698C173.969 50.7273 172.626 52.0698 170.969 52.0698C169.311 52.0698 167.969 50.7273 167.969 49.0698C167.969 47.4123 169.311 46.0698 170.969 46.0698C172.626 46.0698 173.969 47.4123 173.969 49.0698Z" fill="#42A584"/>
<path fill-rule="evenodd" clip-rule="evenodd" d="M188.969 49.0698C188.969 50.7273 187.626 52.0698 185.969 52.0698C184.311 52.0698 182.969 50.7273 182.969 49.0698C182.969 47.4123 184.311 46.0698 185.969 46.0698C187.626 46.0698 188.969 47.4123 188.969 49.0698Z" fill="#42A584"/>
<path fill-rule="evenodd" clip-rule="evenodd" d="M188.969 49.0698C188.969 50.7273 187.626 52.0698 185.969 52.0698C184.311 52.0698 182.969 50.7273 182.969 49.0698C182.969 47.4123 184.311 46.0698 185.969 46.0698C187.626 46.0698 188.969 47.4123 188.969 49.0698Z" fill="#42A584"/>
<path fill-rule="evenodd" clip-rule="evenodd" d="M204.969 49.0698C204.969 50.7273 203.626 52.0698 201.969 52.0698C200.311 52.0698 198.969 50.7273 198.969 49.0698C198.969 47.4123 200.311 46.0698 201.969 46.0698C203.626 46.0698 204.969 47.4123 204.969 49.0698Z" fill="#42A584"/>
<path fill-rule="evenodd" clip-rule="evenodd" d="M204.969 49.0698C204.969 50.7273 203.626 52.0698 201.969 52.0698C200.311 52.0698 198.969 50.7273 198.969 49.0698C198.969 47.4123 200.311 46.0698 201.969 46.0698C203.626 46.0698 204.969 47.4123 204.969 49.0698Z" fill="#42A584"/>
<path fill-rule="evenodd" clip-rule="evenodd" d="M34.9688 65.0698C34.9688 66.7273 33.6263 68.0698 31.9688 68.0698C30.3112 68.0698 28.9688 66.7273 28.9688 65.0698C28.9688 63.4123 30.3112 62.0698 31.9688 62.0698C33.6263 62.0698 34.9688 63.4123 34.9688 65.0698Z" fill="#42A584"/>
<path fill-rule="evenodd" clip-rule="evenodd" d="M34.9688 65.0698C34.9688 66.7273 33.6263 68.0698 31.9688 68.0698C30.3112 68.0698 28.9688 66.7273 28.9688 65.0698C28.9688 63.4123 30.3112 62.0698 31.9688 62.0698C33.6263 62.0698 34.9688 63.4123 34.9688 65.0698Z" fill="#42A584"/>
<path fill-rule="evenodd" clip-rule="evenodd" d="M50.9688 65.0698C50.9688 66.7273 49.6263 68.0698 47.9688 68.0698C46.3112 68.0698 44.9688 66.7273 44.9688 65.0698C44.9688 63.4123 46.3112 62.0698 47.9688 62.0698C49.6263 62.0698 50.9688 63.4123 50.9688 65.0698Z" fill="#42A584"/>
<path fill-rule="evenodd" clip-rule="evenodd" d="M50.9688 65.0698C50.9688 66.7273 49.6263 68.0698 47.9688 68.0698C46.3112 68.0698 44.9688 66.7273 44.9688 65.0698C44.9688 63.4123 46.3112 62.0698 47.9688 62.0698C49.6263 62.0698 50.9688 63.4123 50.9688 65.0698Z" fill="#42A584"/>
<path fill-rule="evenodd" clip-rule="evenodd" d="M65.9688 65.0698C65.9688 66.7273 64.6263 68.0698 62.9688 68.0698C61.3112 68.0698 59.9688 66.7273 59.9688 65.0698C59.9688 63.4123 61.3112 62.0698 62.9688 62.0698C64.6263 62.0698 65.9688 63.4123 65.9688 65.0698Z" fill="#42A584"/>
<path fill-rule="evenodd" clip-rule="evenodd" d="M65.9688 65.0698C65.9688 66.7273 64.6263 68.0698 62.9688 68.0698C61.3112 68.0698 59.9688 66.7273 59.9688 65.0698C59.9688 63.4123 61.3112 62.0698 62.9688 62.0698C64.6263 62.0698 65.9688 63.4123 65.9688 65.0698Z" fill="#42A584"/>
<path fill-rule="evenodd" clip-rule="evenodd" d="M80.9688 65.0698C80.9688 66.7273 79.6263 68.0698 77.9688 68.0698C76.3112 68.0698 74.9688 66.7273 74.9688 65.0698C74.9688 63.4123 76.3112 62.0698 77.9688 62.0698C79.6263 62.0698 80.9688 63.4123 80.9688 65.0698Z" fill="#42A584"/>
<path fill-rule="evenodd" clip-rule="evenodd" d="M80.9688 65.0698C80.9688 66.7273 79.6263 68.0698 77.9688 68.0698C76.3112 68.0698 74.9688 66.7273 74.9688 65.0698C74.9688 63.4123 76.3112 62.0698 77.9688 62.0698C79.6263 62.0698 80.9688 63.4123 80.9688 65.0698Z" fill="#42A584"/>
<path fill-rule="evenodd" clip-rule="evenodd" d="M96.9688 65.0698C96.9688 66.7273 95.6263 68.0698 93.9688 68.0698C92.3112 68.0698 90.9688 66.7273 90.9688 65.0698C90.9688 63.4123 92.3112 62.0698 93.9688 62.0698C95.6263 62.0698 96.9688 63.4123 96.9688 65.0698Z" fill="#42A584"/>
<path fill-rule="evenodd" clip-rule="evenodd" d="M96.9688 65.0698C96.9688 66.7273 95.6263 68.0698 93.9688 68.0698C92.3112 68.0698 90.9688 66.7273 90.9688 65.0698C90.9688 63.4123 92.3112 62.0698 93.9688 62.0698C95.6263 62.0698 96.9688 63.4123 96.9688 65.0698Z" fill="#42A584"/>
<path fill-rule="evenodd" clip-rule="evenodd" d="M111.969 65.0698C111.969 66.7273 110.626 68.0698 108.969 68.0698C107.311 68.0698 105.969 66.7273 105.969 65.0698C105.969 63.4123 107.311 62.0698 108.969 62.0698C110.626 62.0698 111.969 63.4123 111.969 65.0698Z" fill="#42A584"/>
<path fill-rule="evenodd" clip-rule="evenodd" d="M111.969 65.0698C111.969 66.7273 110.626 68.0698 108.969 68.0698C107.311 68.0698 105.969 66.7273 105.969 65.0698C105.969 63.4123 107.311 62.0698 108.969 62.0698C110.626 62.0698 111.969 63.4123 111.969 65.0698Z" fill="#42A584"/>
<path fill-rule="evenodd" clip-rule="evenodd" d="M127.969 65.0698C127.969 66.7273 126.626 68.0698 124.969 68.0698C123.311 68.0698 121.969 66.7273 121.969 65.0698C121.969 63.4123 123.311 62.0698 124.969 62.0698C126.626 62.0698 127.969 63.4123 127.969 65.0698Z" fill="#42A584"/>
<path fill-rule="evenodd" clip-rule="evenodd" d="M127.969 65.0698C127.969 66.7273 126.626 68.0698 124.969 68.0698C123.311 68.0698 121.969 66.7273 121.969 65.0698C121.969 63.4123 123.311 62.0698 124.969 62.0698C126.626 62.0698 127.969 63.4123 127.969 65.0698Z" fill="#42A584"/>
<path fill-rule="evenodd" clip-rule="evenodd" d="M142.969 65.0698C142.969 66.7273 141.626 68.0698 139.969 68.0698C138.311 68.0698 136.969 66.7273 136.969 65.0698C136.969 63.4123 138.311 62.0698 139.969 62.0698C141.626 62.0698 142.969 63.4123 142.969 65.0698Z" fill="#42A584"/>
<path fill-rule="evenodd" clip-rule="evenodd" d="M142.969 65.0698C142.969 66.7273 141.626 68.0698 139.969 68.0698C138.311 68.0698 136.969 66.7273 136.969 65.0698C136.969 63.4123 138.311 62.0698 139.969 62.0698C141.626 62.0698 142.969 63.4123 142.969 65.0698Z" fill="#42A584"/>
<path fill-rule="evenodd" clip-rule="evenodd" d="M158.969 65.0698C158.969 66.7273 157.626 68.0698 155.969 68.0698C154.311 68.0698 152.969 66.7273 152.969 65.0698C152.969 63.4123 154.311 62.0698 155.969 62.0698C157.626 62.0698 158.969 63.4123 158.969 65.0698Z" fill="#42A584"/>
<path fill-rule="evenodd" clip-rule="evenodd" d="M158.969 65.0698C158.969 66.7273 157.626 68.0698 155.969 68.0698C154.311 68.0698 152.969 66.7273 152.969 65.0698C152.969 63.4123 154.311 62.0698 155.969 62.0698C157.626 62.0698 158.969 63.4123 158.969 65.0698Z" fill="#42A584"/>
<path fill-rule="evenodd" clip-rule="evenodd" d="M173.969 65.0698C173.969 66.7273 172.626 68.0698 170.969 68.0698C169.311 68.0698 167.969 66.7273 167.969 65.0698C167.969 63.4123 169.311 62.0698 170.969 62.0698C172.626 62.0698 173.969 63.4123 173.969 65.0698Z" fill="#42A584"/>
<path fill-rule="evenodd" clip-rule="evenodd" d="M173.969 65.0698C173.969 66.7273 172.626 68.0698 170.969 68.0698C169.311 68.0698 167.969 66.7273 167.969 65.0698C167.969 63.4123 169.311 62.0698 170.969 62.0698C172.626 62.0698 173.969 63.4123 173.969 65.0698Z" fill="#42A584"/>
<path fill-rule="evenodd" clip-rule="evenodd" d="M188.969 65.0698C188.969 66.7273 187.626 68.0698 185.969 68.0698C184.311 68.0698 182.969 66.7273 182.969 65.0698C182.969 63.4123 184.311 62.0698 185.969 62.0698C187.626 62.0698 188.969 63.4123 188.969 65.0698Z" fill="#42A584"/>
<path fill-rule="evenodd" clip-rule="evenodd" d="M188.969 65.0698C188.969 66.7273 187.626 68.0698 185.969 68.0698C184.311 68.0698 182.969 66.7273 182.969 65.0698C182.969 63.4123 184.311 62.0698 185.969 62.0698C187.626 62.0698 188.969 63.4123 188.969 65.0698Z" fill="#42A584"/>
<path fill-rule="evenodd" clip-rule="evenodd" d="M204.969 65.0698C204.969 66.7273 203.626 68.0698 201.969 68.0698C200.311 68.0698 198.969 66.7273 198.969 65.0698C198.969 63.4123 200.311 62.0698 201.969 62.0698C203.626 62.0698 204.969 63.4123 204.969 65.0698Z" fill="#42A584"/>
<path fill-rule="evenodd" clip-rule="evenodd" d="M204.969 65.0698C204.969 66.7273 203.626 68.0698 201.969 68.0698C200.311 68.0698 198.969 66.7273 198.969 65.0698C198.969 63.4123 200.311 62.0698 201.969 62.0698C203.626 62.0698 204.969 63.4123 204.969 65.0698Z" fill="#42A584"/>
<path fill-rule="evenodd" clip-rule="evenodd" d="M34.9688 80.0698C34.9688 81.7273 33.6263 83.0698 31.9688 83.0698C30.3112 83.0698 28.9688 81.7273 28.9688 80.0698C28.9688 78.4123 30.3112 77.0698 31.9688 77.0698C33.6263 77.0698 34.9688 78.4123 34.9688 80.0698Z" fill="#42A584"/>
<path fill-rule="evenodd" clip-rule="evenodd" d="M34.9688 80.0698C34.9688 81.7273 33.6263 83.0698 31.9688 83.0698C30.3112 83.0698 28.9688 81.7273 28.9688 80.0698C28.9688 78.4123 30.3112 77.0698 31.9688 77.0698C33.6263 77.0698 34.9688 78.4123 34.9688 80.0698Z" fill="#42A584"/>
<path fill-rule="evenodd" clip-rule="evenodd" d="M50.9688 80.0698C50.9688 81.7273 49.6263 83.0698 47.9688 83.0698C46.3112 83.0698 44.9688 81.7273 44.9688 80.0698C44.9688 78.4123 46.3112 77.0698 47.9688 77.0698C49.6263 77.0698 50.9688 78.4123 50.9688 80.0698Z" fill="#42A584"/>
<path fill-rule="evenodd" clip-rule="evenodd" d="M50.9688 80.0698C50.9688 81.7273 49.6263 83.0698 47.9688 83.0698C46.3112 83.0698 44.9688 81.7273 44.9688 80.0698C44.9688 78.4123 46.3112 77.0698 47.9688 77.0698C49.6263 77.0698 50.9688 78.4123 50.9688 80.0698Z" fill="#42A584"/>
<path fill-rule="evenodd" clip-rule="evenodd" d="M65.9688 80.0698C65.9688 81.7273 64.6263 83.0698 62.9688 83.0698C61.3112 83.0698 59.9688 81.7273 59.9688 80.0698C59.9688 78.4123 61.3112 77.0698 62.9688 77.0698C64.6263 77.0698 65.9688 78.4123 65.9688 80.0698Z" fill="#42A584"/>
<path fill-rule="evenodd" clip-rule="evenodd" d="M65.9688 80.0698C65.9688 81.7273 64.6263 83.0698 62.9688 83.0698C61.3112 83.0698 59.9688 81.7273 59.9688 80.0698C59.9688 78.4123 61.3112 77.0698 62.9688 77.0698C64.6263 77.0698 65.9688 78.4123 65.9688 80.0698Z" fill="#42A584"/>
<path fill-rule="evenodd" clip-rule="evenodd" d="M80.9688 80.0698C80.9688 81.7273 79.6263 83.0698 77.9688 83.0698C76.3112 83.0698 74.9688 81.7273 74.9688 80.0698C74.9688 78.4123 76.3112 77.0698 77.9688 77.0698C79.6263 77.0698 80.9688 78.4123 80.9688 80.0698Z" fill="#42A584"/>
<path fill-rule="evenodd" clip-rule="evenodd" d="M80.9688 80.0698C80.9688 81.7273 79.6263 83.0698 77.9688 83.0698C76.3112 83.0698 74.9688 81.7273 74.9688 80.0698C74.9688 78.4123 76.3112 77.0698 77.9688 77.0698C79.6263 77.0698 80.9688 78.4123 80.9688 80.0698Z" fill="#42A584"/>
<path fill-rule="evenodd" clip-rule="evenodd" d="M96.9688 80.0698C96.9688 81.7273 95.6263 83.0698 93.9688 83.0698C92.3112 83.0698 90.9688 81.7273 90.9688 80.0698C90.9688 78.4123 92.3112 77.0698 93.9688 77.0698C95.6263 77.0698 96.9688 78.4123 96.9688 80.0698Z" fill="#42A584"/>
<path fill-rule="evenodd" clip-rule="evenodd" d="M96.9688 80.0698C96.9688 81.7273 95.6263 83.0698 93.9688 83.0698C92.3112 83.0698 90.9688 81.7273 90.9688 80.0698C90.9688 78.4123 92.3112 77.0698 93.9688 77.0698C95.6263 77.0698 96.9688 78.4123 96.9688 80.0698Z" fill="#42A584"/>
<path fill-rule="evenodd" clip-rule="evenodd" d="M111.969 80.0698C111.969 81.7273 110.626 83.0698 108.969 83.0698C107.311 83.0698 105.969 81.7273 105.969 80.0698C105.969 78.4123 107.311 77.0698 108.969 77.0698C110.626 77.0698 111.969 78.4123 111.969 80.0698Z" fill="#42A584"/>
<path fill-rule="evenodd" clip-rule="evenodd" d="M111.969 80.0698C111.969 81.7273 110.626 83.0698 108.969 83.0698C107.311 83.0698 105.969 81.7273 105.969 80.0698C105.969 78.4123 107.311 77.0698 108.969 77.0698C110.626 77.0698 111.969 78.4123 111.969 80.0698Z" fill="#42A584"/>
<path fill-rule="evenodd" clip-rule="evenodd" d="M127.969 80.0698C127.969 81.7273 126.626 83.0698 124.969 83.0698C123.311 83.0698 121.969 81.7273 121.969 80.0698C121.969 78.4123 123.311 77.0698 124.969 77.0698C126.626 77.0698 127.969 78.4123 127.969 80.0698Z" fill="#42A584"/>
<path fill-rule="evenodd" clip-rule="evenodd" d="M127.969 80.0698C127.969 81.7273 126.626 83.0698 124.969 83.0698C123.311 83.0698 121.969 81.7273 121.969 80.0698C121.969 78.4123 123.311 77.0698 124.969 77.0698C126.626 77.0698 127.969 78.4123 127.969 80.0698Z" fill="#42A584"/>
<path fill-rule="evenodd" clip-rule="evenodd" d="M142.969 80.0698C142.969 81.7273 141.626 83.0698 139.969 83.0698C138.311 83.0698 136.969 81.7273 136.969 80.0698C136.969 78.4123 138.311 77.0698 139.969 77.0698C141.626 77.0698 142.969 78.4123 142.969 80.0698Z" fill="#42A584"/>
<path fill-rule="evenodd" clip-rule="evenodd" d="M142.969 80.0698C142.969 81.7273 141.626 83.0698 139.969 83.0698C138.311 83.0698 136.969 81.7273 136.969 80.0698C136.969 78.4123 138.311 77.0698 139.969 77.0698C141.626 77.0698 142.969 78.4123 142.969 80.0698Z" fill="#42A584"/>
<path fill-rule="evenodd" clip-rule="evenodd" d="M158.969 80.0698C158.969 81.7273 157.626 83.0698 155.969 83.0698C154.311 83.0698 152.969 81.7273 152.969 80.0698C152.969 78.4123 154.311 77.0698 155.969 77.0698C157.626 77.0698 158.969 78.4123 158.969 80.0698Z" fill="#42A584"/>
<path fill-rule="evenodd" clip-rule="evenodd" d="M158.969 80.0698C158.969 81.7273 157.626 83.0698 155.969 83.0698C154.311 83.0698 152.969 81.7273 152.969 80.0698C152.969 78.4123 154.311 77.0698 155.969 77.0698C157.626 77.0698 158.969 78.4123 158.969 80.0698Z" fill="#42A584"/>
<path fill-rule="evenodd" clip-rule="evenodd" d="M173.969 80.0698C173.969 81.7273 172.626 83.0698 170.969 83.0698C169.311 83.0698 167.969 81.7273 167.969 80.0698C167.969 78.4123 169.311 77.0698 170.969 77.0698C172.626 77.0698 173.969 78.4123 173.969 80.0698Z" fill="#42A584"/>
<path fill-rule="evenodd" clip-rule="evenodd" d="M173.969 80.0698C173.969 81.7273 172.626 83.0698 170.969 83.0698C169.311 83.0698 167.969 81.7273 167.969 80.0698C167.969 78.4123 169.311 77.0698 170.969 77.0698C172.626 77.0698 173.969 78.4123 173.969 80.0698Z" fill="#42A584"/>
<path fill-rule="evenodd" clip-rule="evenodd" d="M188.969 80.0698C188.969 81.7273 187.626 83.0698 185.969 83.0698C184.311 83.0698 182.969 81.7273 182.969 80.0698C182.969 78.4123 184.311 77.0698 185.969 77.0698C187.626 77.0698 188.969 78.4123 188.969 80.0698Z" fill="#42A584"/>
<path fill-rule="evenodd" clip-rule="evenodd" d="M188.969 80.0698C188.969 81.7273 187.626 83.0698 185.969 83.0698C184.311 83.0698 182.969 81.7273 182.969 80.0698C182.969 78.4123 184.311 77.0698 185.969 77.0698C187.626 77.0698 188.969 78.4123 188.969 80.0698Z" fill="#42A584"/>
<path fill-rule="evenodd" clip-rule="evenodd" d="M204.969 80.0698C204.969 81.7273 203.626 83.0698 201.969 83.0698C200.311 83.0698 198.969 81.7273 198.969 80.0698C198.969 78.4123 200.311 77.0698 201.969 77.0698C203.626 77.0698 204.969 78.4123 204.969 80.0698Z" fill="#42A584"/>
<path fill-rule="evenodd" clip-rule="evenodd" d="M204.969 80.0698C204.969 81.7273 203.626 83.0698 201.969 83.0698C200.311 83.0698 198.969 81.7273 198.969 80.0698C198.969 78.4123 200.311 77.0698 201.969 77.0698C203.626 77.0698 204.969 78.4123 204.969 80.0698Z" fill="#42A584"/>
<path fill-rule="evenodd" clip-rule="evenodd" d="M34.9688 96.0698C34.9688 97.7273 33.6263 99.0698 31.9688 99.0698C30.3112 99.0698 28.9688 97.7273 28.9688 96.0698C28.9688 94.4123 30.3112 93.0698 31.9688 93.0698C33.6263 93.0698 34.9688 94.4123 34.9688 96.0698Z" fill="#42A584"/>
<path fill-rule="evenodd" clip-rule="evenodd" d="M34.9688 96.0698C34.9688 97.7273 33.6263 99.0698 31.9688 99.0698C30.3112 99.0698 28.9688 97.7273 28.9688 96.0698C28.9688 94.4123 30.3112 93.0698 31.9688 93.0698C33.6263 93.0698 34.9688 94.4123 34.9688 96.0698Z" fill="#42A584"/>
<path fill-rule="evenodd" clip-rule="evenodd" d="M50.9688 96.0698C50.9688 97.7273 49.6263 99.0698 47.9688 99.0698C46.3112 99.0698 44.9688 97.7273 44.9688 96.0698C44.9688 94.4123 46.3112 93.0698 47.9688 93.0698C49.6263 93.0698 50.9688 94.4123 50.9688 96.0698Z" fill="#42A584"/>
<path fill-rule="evenodd" clip-rule="evenodd" d="M50.9688 96.0698C50.9688 97.7273 49.6263 99.0698 47.9688 99.0698C46.3112 99.0698 44.9688 97.7273 44.9688 96.0698C44.9688 94.4123 46.3112 93.0698 47.9688 93.0698C49.6263 93.0698 50.9688 94.4123 50.9688 96.0698Z" fill="#42A584"/>
<path fill-rule="evenodd" clip-rule="evenodd" d="M65.9688 96.0698C65.9688 97.7273 64.6263 99.0698 62.9688 99.0698C61.3112 99.0698 59.9688 97.7273 59.9688 96.0698C59.9688 94.4123 61.3112 93.0698 62.9688 93.0698C64.6263 93.0698 65.9688 94.4123 65.9688 96.0698Z" fill="#42A584"/>
<path fill-rule="evenodd" clip-rule="evenodd" d="M65.9688 96.0698C65.9688 97.7273 64.6263 99.0698 62.9688 99.0698C61.3112 99.0698 59.9688 97.7273 59.9688 96.0698C59.9688 94.4123 61.3112 93.0698 62.9688 93.0698C64.6263 93.0698 65.9688 94.4123 65.9688 96.0698Z" fill="#42A584"/>
<path fill-rule="evenodd" clip-rule="evenodd" d="M80.9688 96.0698C80.9688 97.7273 79.6263 99.0698 77.9688 99.0698C76.3112 99.0698 74.9688 97.7273 74.9688 96.0698C74.9688 94.4123 76.3112 93.0698 77.9688 93.0698C79.6263 93.0698 80.9688 94.4123 80.9688 96.0698Z" fill="#42A584"/>
<path fill-rule="evenodd" clip-rule="evenodd" d="M80.9688 96.0698C80.9688 97.7273 79.6263 99.0698 77.9688 99.0698C76.3112 99.0698 74.9688 97.7273 74.9688 96.0698C74.9688 94.4123 76.3112 93.0698 77.9688 93.0698C79.6263 93.0698 80.9688 94.4123 80.9688 96.0698Z" fill="#42A584"/>
<path fill-rule="evenodd" clip-rule="evenodd" d="M96.9688 96.0698C96.9688 97.7273 95.6263 99.0698 93.9688 99.0698C92.3112 99.0698 90.9688 97.7273 90.9688 96.0698C90.9688 94.4123 92.3112 93.0698 93.9688 93.0698C95.6263 93.0698 96.9688 94.4123 96.9688 96.0698Z" fill="#42A584"/>
<path fill-rule="evenodd" clip-rule="evenodd" d="M96.9688 96.0698C96.9688 97.7273 95.6263 99.0698 93.9688 99.0698C92.3112 99.0698 90.9688 97.7273 90.9688 96.0698C90.9688 94.4123 92.3112 93.0698 93.9688 93.0698C95.6263 93.0698 96.9688 94.4123 96.9688 96.0698Z" fill="#42A584"/>
<path fill-rule="evenodd" clip-rule="evenodd" d="M111.969 96.0698C111.969 97.7273 110.626 99.0698 108.969 99.0698C107.311 99.0698 105.969 97.7273 105.969 96.0698C105.969 94.4123 107.311 93.0698 108.969 93.0698C110.626 93.0698 111.969 94.4123 111.969 96.0698Z" fill="#42A584"/>
<path fill-rule="evenodd" clip-rule="evenodd" d="M111.969 96.0698C111.969 97.7273 110.626 99.0698 108.969 99.0698C107.311 99.0698 105.969 97.7273 105.969 96.0698C105.969 94.4123 107.311 93.0698 108.969 93.0698C110.626 93.0698 111.969 94.4123 111.969 96.0698Z" fill="#42A584"/>
<path fill-rule="evenodd" clip-rule="evenodd" d="M127.969 96.0698C127.969 97.7273 126.626 99.0698 124.969 99.0698C123.311 99.0698 121.969 97.7273 121.969 96.0698C121.969 94.4123 123.311 93.0698 124.969 93.0698C126.626 93.0698 127.969 94.4123 127.969 96.0698Z" fill="#42A584"/>
<path fill-rule="evenodd" clip-rule="evenodd" d="M127.969 96.0698C127.969 97.7273 126.626 99.0698 124.969 99.0698C123.311 99.0698 121.969 97.7273 121.969 96.0698C121.969 94.4123 123.311 93.0698 124.969 93.0698C126.626 93.0698 127.969 94.4123 127.969 96.0698Z" fill="#42A584"/>
<path fill-rule="evenodd" clip-rule="evenodd" d="M142.969 96.0698C142.969 97.7273 141.626 99.0698 139.969 99.0698C138.311 99.0698 136.969 97.7273 136.969 96.0698C136.969 94.4123 138.311 93.0698 139.969 93.0698C141.626 93.0698 142.969 94.4123 142.969 96.0698Z" fill="#42A584"/>
<path fill-rule="evenodd" clip-rule="evenodd" d="M142.969 96.0698C142.969 97.7273 141.626 99.0698 139.969 99.0698C138.311 99.0698 136.969 97.7273 136.969 96.0698C136.969 94.4123 138.311 93.0698 139.969 93.0698C141.626 93.0698 142.969 94.4123 142.969 96.0698Z" fill="#42A584"/>
<path fill-rule="evenodd" clip-rule="evenodd" d="M158.969 96.0698C158.969 97.7273 157.626 99.0698 155.969 99.0698C154.311 99.0698 152.969 97.7273 152.969 96.0698C152.969 94.4123 154.311 93.0698 155.969 93.0698C157.626 93.0698 158.969 94.4123 158.969 96.0698Z" fill="#42A584"/>
<path fill-rule="evenodd" clip-rule="evenodd" d="M158.969 96.0698C158.969 97.7273 157.626 99.0698 155.969 99.0698C154.311 99.0698 152.969 97.7273 152.969 96.0698C152.969 94.4123 154.311 93.0698 155.969 93.0698C157.626 93.0698 158.969 94.4123 158.969 96.0698Z" fill="#42A584"/>
<path fill-rule="evenodd" clip-rule="evenodd" d="M173.969 96.0698C173.969 97.7273 172.626 99.0698 170.969 99.0698C169.311 99.0698 167.969 97.7273 167.969 96.0698C167.969 94.4123 169.311 93.0698 170.969 93.0698C172.626 93.0698 173.969 94.4123 173.969 96.0698Z" fill="#42A584"/>
<path fill-rule="evenodd" clip-rule="evenodd" d="M173.969 96.0698C173.969 97.7273 172.626 99.0698 170.969 99.0698C169.311 99.0698 167.969 97.7273 167.969 96.0698C167.969 94.4123 169.311 93.0698 170.969 93.0698C172.626 93.0698 173.969 94.4123 173.969 96.0698Z" fill="#42A584"/>
<path fill-rule="evenodd" clip-rule="evenodd" d="M188.969 96.0698C188.969 97.7273 187.626 99.0698 185.969 99.0698C184.311 99.0698 182.969 97.7273 182.969 96.0698C182.969 94.4123 184.311 93.0698 185.969 93.0698C187.626 93.0698 188.969 94.4123 188.969 96.0698Z" fill="#42A584"/>
<path fill-rule="evenodd" clip-rule="evenodd" d="M188.969 96.0698C188.969 97.7273 187.626 99.0698 185.969 99.0698C184.311 99.0698 182.969 97.7273 182.969 96.0698C182.969 94.4123 184.311 93.0698 185.969 93.0698C187.626 93.0698 188.969 94.4123 188.969 96.0698Z" fill="#42A584"/>
<path fill-rule="evenodd" clip-rule="evenodd" d="M204.969 96.0698C204.969 97.7273 203.626 99.0698 201.969 99.0698C200.311 99.0698 198.969 97.7273 198.969 96.0698C198.969 94.4123 200.311 93.0698 201.969 93.0698C203.626 93.0698 204.969 94.4123 204.969 96.0698Z" fill="#42A584"/>
<path fill-rule="evenodd" clip-rule="evenodd" d="M204.969 96.0698C204.969 97.7273 203.626 99.0698 201.969 99.0698C200.311 99.0698 198.969 97.7273 198.969 96.0698C198.969 94.4123 200.311 93.0698 201.969 93.0698C203.626 93.0698 204.969 94.4123 204.969 96.0698Z" fill="#42A584"/>
<path fill-rule="evenodd" clip-rule="evenodd" d="M34.9688 111.07C34.9688 112.727 33.6263 114.07 31.9688 114.07C30.3112 114.07 28.9688 112.727 28.9688 111.07C28.9688 109.412 30.3112 108.07 31.9688 108.07C33.6263 108.07 34.9688 109.412 34.9688 111.07Z" fill="#42A584"/>
<path fill-rule="evenodd" clip-rule="evenodd" d="M34.9688 111.07C34.9688 112.727 33.6263 114.07 31.9688 114.07C30.3112 114.07 28.9688 112.727 28.9688 111.07C28.9688 109.412 30.3112 108.07 31.9688 108.07C33.6263 108.07 34.9688 109.412 34.9688 111.07Z" fill="#42A584"/>
<path fill-rule="evenodd" clip-rule="evenodd" d="M50.9688 111.07C50.9688 112.727 49.6263 114.07 47.9688 114.07C46.3112 114.07 44.9688 112.727 44.9688 111.07C44.9688 109.412 46.3112 108.07 47.9688 108.07C49.6263 108.07 50.9688 109.412 50.9688 111.07Z" fill="#42A584"/>
<path fill-rule="evenodd" clip-rule="evenodd" d="M50.9688 111.07C50.9688 112.727 49.6263 114.07 47.9688 114.07C46.3112 114.07 44.9688 112.727 44.9688 111.07C44.9688 109.412 46.3112 108.07 47.9688 108.07C49.6263 108.07 50.9688 109.412 50.9688 111.07Z" fill="#42A584"/>
<path fill-rule="evenodd" clip-rule="evenodd" d="M65.9688 111.07C65.9688 112.727 64.6263 114.07 62.9688 114.07C61.3112 114.07 59.9688 112.727 59.9688 111.07C59.9688 109.412 61.3112 108.07 62.9688 108.07C64.6263 108.07 65.9688 109.412 65.9688 111.07Z" fill="#42A584"/>
<path fill-rule="evenodd" clip-rule="evenodd" d="M65.9688 111.07C65.9688 112.727 64.6263 114.07 62.9688 114.07C61.3112 114.07 59.9688 112.727 59.9688 111.07C59.9688 109.412 61.3112 108.07 62.9688 108.07C64.6263 108.07 65.9688 109.412 65.9688 111.07Z" fill="#42A584"/>
<path fill-rule="evenodd" clip-rule="evenodd" d="M80.9688 111.07C80.9688 112.727 79.6263 114.07 77.9688 114.07C76.3112 114.07 74.9688 112.727 74.9688 111.07C74.9688 109.412 76.3112 108.07 77.9688 108.07C79.6263 108.07 80.9688 109.412 80.9688 111.07Z" fill="#42A584"/>
<path fill-rule="evenodd" clip-rule="evenodd" d="M80.9688 111.07C80.9688 112.727 79.6263 114.07 77.9688 114.07C76.3112 114.07 74.9688 112.727 74.9688 111.07C74.9688 109.412 76.3112 108.07 77.9688 108.07C79.6263 108.07 80.9688 109.412 80.9688 111.07Z" fill="#42A584"/>
<path fill-rule="evenodd" clip-rule="evenodd" d="M96.9688 111.07C96.9688 112.727 95.6263 114.07 93.9688 114.07C92.3112 114.07 90.9688 112.727 90.9688 111.07C90.9688 109.412 92.3112 108.07 93.9688 108.07C95.6263 108.07 96.9688 109.412 96.9688 111.07Z" fill="#42A584"/>
<path fill-rule="evenodd" clip-rule="evenodd" d="M96.9688 111.07C96.9688 112.727 95.6263 114.07 93.9688 114.07C92.3112 114.07 90.9688 112.727 90.9688 111.07C90.9688 109.412 92.3112 108.07 93.9688 108.07C95.6263 108.07 96.9688 109.412 96.9688 111.07Z" fill="#42A584"/>
<path fill-rule="evenodd" clip-rule="evenodd" d="M111.969 111.07C111.969 112.727 110.626 114.07 108.969 114.07C107.311 114.07 105.969 112.727 105.969 111.07C105.969 109.412 107.311 108.07 108.969 108.07C110.626 108.07 111.969 109.412 111.969 111.07Z" fill="#42A584"/>
<path fill-rule="evenodd" clip-rule="evenodd" d="M111.969 111.07C111.969 112.727 110.626 114.07 108.969 114.07C107.311 114.07 105.969 112.727 105.969 111.07C105.969 109.412 107.311 108.07 108.969 108.07C110.626 108.07 111.969 109.412 111.969 111.07Z" fill="#42A584"/>
<path fill-rule="evenodd" clip-rule="evenodd" d="M127.969 111.07C127.969 112.727 126.626 114.07 124.969 114.07C123.311 114.07 121.969 112.727 121.969 111.07C121.969 109.412 123.311 108.07 124.969 108.07C126.626 108.07 127.969 109.412 127.969 111.07Z" fill="#42A584"/>
<path fill-rule="evenodd" clip-rule="evenodd" d="M127.969 111.07C127.969 112.727 126.626 114.07 124.969 114.07C123.311 114.07 121.969 112.727 121.969 111.07C121.969 109.412 123.311 108.07 124.969 108.07C126.626 108.07 127.969 109.412 127.969 111.07Z" fill="#42A584"/>
<path fill-rule="evenodd" clip-rule="evenodd" d="M142.969 111.07C142.969 112.727 141.626 114.07 139.969 114.07C138.311 114.07 136.969 112.727 136.969 111.07C136.969 109.412 138.311 108.07 139.969 108.07C141.626 108.07 142.969 109.412 142.969 111.07Z" fill="#42A584"/>
<path fill-rule="evenodd" clip-rule="evenodd" d="M142.969 111.07C142.969 112.727 141.626 114.07 139.969 114.07C138.311 114.07 136.969 112.727 136.969 111.07C136.969 109.412 138.311 108.07 139.969 108.07C141.626 108.07 142.969 109.412 142.969 111.07Z" fill="#42A584"/>
<path fill-rule="evenodd" clip-rule="evenodd" d="M158.969 111.07C158.969 112.727 157.626 114.07 155.969 114.07C154.311 114.07 152.969 112.727 152.969 111.07C152.969 109.412 154.311 108.07 155.969 108.07C157.626 108.07 158.969 109.412 158.969 111.07Z" fill="#42A584"/>
<path fill-rule="evenodd" clip-rule="evenodd" d="M158.969 111.07C158.969 112.727 157.626 114.07 155.969 114.07C154.311 114.07 152.969 112.727 152.969 111.07C152.969 109.412 154.311 108.07 155.969 108.07C157.626 108.07 158.969 109.412 158.969 111.07Z" fill="#42A584"/>
<path fill-rule="evenodd" clip-rule="evenodd" d="M173.969 111.07C173.969 112.727 172.626 114.07 170.969 114.07C169.311 114.07 167.969 112.727 167.969 111.07C167.969 109.412 169.311 108.07 170.969 108.07C172.626 108.07 173.969 109.412 173.969 111.07Z" fill="#42A584"/>
<path fill-rule="evenodd" clip-rule="evenodd" d="M173.969 111.07C173.969 112.727 172.626 114.07 170.969 114.07C169.311 114.07 167.969 112.727 167.969 111.07C167.969 109.412 169.311 108.07 170.969 108.07C172.626 108.07 173.969 109.412 173.969 111.07Z" fill="#42A584"/>
<path fill-rule="evenodd" clip-rule="evenodd" d="M188.969 111.07C188.969 112.727 187.626 114.07 185.969 114.07C184.311 114.07 182.969 112.727 182.969 111.07C182.969 109.412 184.311 108.07 185.969 108.07C187.626 108.07 188.969 109.412 188.969 111.07Z" fill="#42A584"/>
<path fill-rule="evenodd" clip-rule="evenodd" d="M188.969 111.07C188.969 112.727 187.626 114.07 185.969 114.07C184.311 114.07 182.969 112.727 182.969 111.07C182.969 109.412 184.311 108.07 185.969 108.07C187.626 108.07 188.969 109.412 188.969 111.07Z" fill="#42A584"/>
<path fill-rule="evenodd" clip-rule="evenodd" d="M204.969 111.07C204.969 112.727 203.626 114.07 201.969 114.07C200.311 114.07 198.969 112.727 198.969 111.07C198.969 109.412 200.311 108.07 201.969 108.07C203.626 108.07 204.969 109.412 204.969 111.07Z" fill="#42A584"/>
<path fill-rule="evenodd" clip-rule="evenodd" d="M204.969 111.07C204.969 112.727 203.626 114.07 201.969 114.07C200.311 114.07 198.969 112.727 198.969 111.07C198.969 109.412 200.311 108.07 201.969 108.07C203.626 108.07 204.969 109.412 204.969 111.07Z" fill="#42A584"/>
<path fill-rule="evenodd" clip-rule="evenodd" d="M34.9688 126.07C34.9688 127.727 33.6263 129.07 31.9688 129.07C30.3112 129.07 28.9688 127.727 28.9688 126.07C28.9688 124.412 30.3112 123.07 31.9688 123.07C33.6263 123.07 34.9688 124.412 34.9688 126.07Z" fill="#42A584"/>
<path fill-rule="evenodd" clip-rule="evenodd" d="M34.9688 126.07C34.9688 127.727 33.6263 129.07 31.9688 129.07C30.3112 129.07 28.9688 127.727 28.9688 126.07C28.9688 124.412 30.3112 123.07 31.9688 123.07C33.6263 123.07 34.9688 124.412 34.9688 126.07Z" fill="#42A584"/>
<path fill-rule="evenodd" clip-rule="evenodd" d="M50.9688 126.07C50.9688 127.727 49.6263 129.07 47.9688 129.07C46.3112 129.07 44.9688 127.727 44.9688 126.07C44.9688 124.412 46.3112 123.07 47.9688 123.07C49.6263 123.07 50.9688 124.412 50.9688 126.07Z" fill="#42A584"/>
<path fill-rule="evenodd" clip-rule="evenodd" d="M50.9688 126.07C50.9688 127.727 49.6263 129.07 47.9688 129.07C46.3112 129.07 44.9688 127.727 44.9688 126.07C44.9688 124.412 46.3112 123.07 47.9688 123.07C49.6263 123.07 50.9688 124.412 50.9688 126.07Z" fill="#42A584"/>
<path fill-rule="evenodd" clip-rule="evenodd" d="M65.9688 126.07C65.9688 127.727 64.6263 129.07 62.9688 129.07C61.3112 129.07 59.9688 127.727 59.9688 126.07C59.9688 124.412 61.3112 123.07 62.9688 123.07C64.6263 123.07 65.9688 124.412 65.9688 126.07Z" fill="#42A584"/>
<path fill-rule="evenodd" clip-rule="evenodd" d="M65.9688 126.07C65.9688 127.727 64.6263 129.07 62.9688 129.07C61.3112 129.07 59.9688 127.727 59.9688 126.07C59.9688 124.412 61.3112 123.07 62.9688 123.07C64.6263 123.07 65.9688 124.412 65.9688 126.07Z" fill="#42A584"/>
<path fill-rule="evenodd" clip-rule="evenodd" d="M80.9688 126.07C80.9688 127.727 79.6263 129.07 77.9688 129.07C76.3112 129.07 74.9688 127.727 74.9688 126.07C74.9688 124.412 76.3112 123.07 77.9688 123.07C79.6263 123.07 80.9688 124.412 80.9688 126.07Z" fill="#42A584"/>
<path fill-rule="evenodd" clip-rule="evenodd" d="M80.9688 126.07C80.9688 127.727 79.6263 129.07 77.9688 129.07C76.3112 129.07 74.9688 127.727 74.9688 126.07C74.9688 124.412 76.3112 123.07 77.9688 123.07C79.6263 123.07 80.9688 124.412 80.9688 126.07Z" fill="#42A584"/>
<path fill-rule="evenodd" clip-rule="evenodd" d="M96.9688 126.07C96.9688 127.727 95.6263 129.07 93.9688 129.07C92.3112 129.07 90.9688 127.727 90.9688 126.07C90.9688 124.412 92.3112 123.07 93.9688 123.07C95.6263 123.07 96.9688 124.412 96.9688 126.07Z" fill="#42A584"/>
<path fill-rule="evenodd" clip-rule="evenodd" d="M96.9688 126.07C96.9688 127.727 95.6263 129.07 93.9688 129.07C92.3112 129.07 90.9688 127.727 90.9688 126.07C90.9688 124.412 92.3112 123.07 93.9688 123.07C95.6263 123.07 96.9688 124.412 96.9688 126.07Z" fill="#42A584"/>
<path fill-rule="evenodd" clip-rule="evenodd" d="M111.969 126.07C111.969 127.727 110.626 129.07 108.969 129.07C107.311 129.07 105.969 127.727 105.969 126.07C105.969 124.412 107.311 123.07 108.969 123.07C110.626 123.07 111.969 124.412 111.969 126.07Z" fill="#42A584"/>
<path fill-rule="evenodd" clip-rule="evenodd" d="M111.969 126.07C111.969 127.727 110.626 129.07 108.969 129.07C107.311 129.07 105.969 127.727 105.969 126.07C105.969 124.412 107.311 123.07 108.969 123.07C110.626 123.07 111.969 124.412 111.969 126.07Z" fill="#42A584"/>
<path fill-rule="evenodd" clip-rule="evenodd" d="M127.969 126.07C127.969 127.727 126.626 129.07 124.969 129.07C123.311 129.07 121.969 127.727 121.969 126.07C121.969 124.412 123.311 123.07 124.969 123.07C126.626 123.07 127.969 124.412 127.969 126.07Z" fill="#42A584"/>
<path fill-rule="evenodd" clip-rule="evenodd" d="M127.969 126.07C127.969 127.727 126.626 129.07 124.969 129.07C123.311 129.07 121.969 127.727 121.969 126.07C121.969 124.412 123.311 123.07 124.969 123.07C126.626 123.07 127.969 124.412 127.969 126.07Z" fill="#42A584"/>
<path fill-rule="evenodd" clip-rule="evenodd" d="M142.969 126.07C142.969 127.727 141.626 129.07 139.969 129.07C138.311 129.07 136.969 127.727 136.969 126.07C136.969 124.412 138.311 123.07 139.969 123.07C141.626 123.07 142.969 124.412 142.969 126.07Z" fill="#42A584"/>
<path fill-rule="evenodd" clip-rule="evenodd" d="M142.969 126.07C142.969 127.727 141.626 129.07 139.969 129.07C138.311 129.07 136.969 127.727 136.969 126.07C136.969 124.412 138.311 123.07 139.969 123.07C141.626 123.07 142.969 124.412 142.969 126.07Z" fill="#42A584"/>
<path fill-rule="evenodd" clip-rule="evenodd" d="M158.969 126.07C158.969 127.727 157.626 129.07 155.969 129.07C154.311 129.07 152.969 127.727 152.969 126.07C152.969 124.412 154.311 123.07 155.969 123.07C157.626 123.07 158.969 124.412 158.969 126.07Z" fill="#42A584"/>
<path fill-rule="evenodd" clip-rule="evenodd" d="M158.969 126.07C158.969 127.727 157.626 129.07 155.969 129.07C154.311 129.07 152.969 127.727 152.969 126.07C152.969 124.412 154.311 123.07 155.969 123.07C157.626 123.07 158.969 124.412 158.969 126.07Z" fill="#42A584"/>
<path fill-rule="evenodd" clip-rule="evenodd" d="M173.969 126.07C173.969 127.727 172.626 129.07 170.969 129.07C169.311 129.07 167.969 127.727 167.969 126.07C167.969 124.412 169.311 123.07 170.969 123.07C172.626 123.07 173.969 124.412 173.969 126.07Z" fill="#42A584"/>
<path fill-rule="evenodd" clip-rule="evenodd" d="M173.969 126.07C173.969 127.727 172.626 129.07 170.969 129.07C169.311 129.07 167.969 127.727 167.969 126.07C167.969 124.412 169.311 123.07 170.969 123.07C172.626 123.07 173.969 124.412 173.969 126.07Z" fill="#42A584"/>
<path fill-rule="evenodd" clip-rule="evenodd" d="M188.969 126.07C188.969 127.727 187.626 129.07 185.969 129.07C184.311 129.07 182.969 127.727 182.969 126.07C182.969 124.412 184.311 123.07 185.969 123.07C187.626 123.07 188.969 124.412 188.969 126.07Z" fill="#42A584"/>
<path fill-rule="evenodd" clip-rule="evenodd" d="M188.969 126.07C188.969 127.727 187.626 129.07 185.969 129.07C184.311 129.07 182.969 127.727 182.969 126.07C182.969 124.412 184.311 123.07 185.969 123.07C187.626 123.07 188.969 124.412 188.969 126.07Z" fill="#42A584"/>
<path fill-rule="evenodd" clip-rule="evenodd" d="M204.969 126.07C204.969 127.727 203.626 129.07 201.969 129.07C200.311 129.07 198.969 127.727 198.969 126.07C198.969 124.412 200.311 123.07 201.969 123.07C203.626 123.07 204.969 124.412 204.969 126.07Z" fill="#42A584"/>
<path fill-rule="evenodd" clip-rule="evenodd" d="M204.969 126.07C204.969 127.727 203.626 129.07 201.969 129.07C200.311 129.07 198.969 127.727 198.969 126.07C198.969 124.412 200.311 123.07 201.969 123.07C203.626 123.07 204.969 124.412 204.969 126.07Z" fill="#42A584"/>
<path fill-rule="evenodd" clip-rule="evenodd" d="M34.9688 142.07C34.9688 143.727 33.6263 145.07 31.9688 145.07C30.3112 145.07 28.9688 143.727 28.9688 142.07C28.9688 140.412 30.3112 139.07 31.9688 139.07C33.6263 139.07 34.9688 140.412 34.9688 142.07Z" fill="#42A584"/>
<path fill-rule="evenodd" clip-rule="evenodd" d="M34.9688 142.07C34.9688 143.727 33.6263 145.07 31.9688 145.07C30.3112 145.07 28.9688 143.727 28.9688 142.07C28.9688 140.412 30.3112 139.07 31.9688 139.07C33.6263 139.07 34.9688 140.412 34.9688 142.07Z" fill="#42A584"/>
<path fill-rule="evenodd" clip-rule="evenodd" d="M50.9688 142.07C50.9688 143.727 49.6263 145.07 47.9688 145.07C46.3112 145.07 44.9688 143.727 44.9688 142.07C44.9688 140.412 46.3112 139.07 47.9688 139.07C49.6263 139.07 50.9688 140.412 50.9688 142.07Z" fill="#42A584"/>
<path fill-rule="evenodd" clip-rule="evenodd" d="M50.9688 142.07C50.9688 143.727 49.6263 145.07 47.9688 145.07C46.3112 145.07 44.9688 143.727 44.9688 142.07C44.9688 140.412 46.3112 139.07 47.9688 139.07C49.6263 139.07 50.9688 140.412 50.9688 142.07Z" fill="#42A584"/>
<path fill-rule="evenodd" clip-rule="evenodd" d="M65.9688 142.07C65.9688 143.727 64.6263 145.07 62.9688 145.07C61.3112 145.07 59.9688 143.727 59.9688 142.07C59.9688 140.412 61.3112 139.07 62.9688 139.07C64.6263 139.07 65.9688 140.412 65.9688 142.07Z" fill="#42A584"/>
<path fill-rule="evenodd" clip-rule="evenodd" d="M65.9688 142.07C65.9688 143.727 64.6263 145.07 62.9688 145.07C61.3112 145.07 59.9688 143.727 59.9688 142.07C59.9688 140.412 61.3112 139.07 62.9688 139.07C64.6263 139.07 65.9688 140.412 65.9688 142.07Z" fill="#42A584"/>
<path fill-rule="evenodd" clip-rule="evenodd" d="M80.9688 142.07C80.9688 143.727 79.6263 145.07 77.9688 145.07C76.3112 145.07 74.9688 143.727 74.9688 142.07C74.9688 140.412 76.3112 139.07 77.9688 139.07C79.6263 139.07 80.9688 140.412 80.9688 142.07Z" fill="#42A584"/>
<path fill-rule="evenodd" clip-rule="evenodd" d="M80.9688 142.07C80.9688 143.727 79.6263 145.07 77.9688 145.07C76.3112 145.07 74.9688 143.727 74.9688 142.07C74.9688 140.412 76.3112 139.07 77.9688 139.07C79.6263 139.07 80.9688 140.412 80.9688 142.07Z" fill="#42A584"/>
<path fill-rule="evenodd" clip-rule="evenodd" d="M96.9688 142.07C96.9688 143.727 95.6263 145.07 93.9688 145.07C92.3112 145.07 90.9688 143.727 90.9688 142.07C90.9688 140.412 92.3112 139.07 93.9688 139.07C95.6263 139.07 96.9688 140.412 96.9688 142.07Z" fill="#42A584"/>
<path fill-rule="evenodd" clip-rule="evenodd" d="M96.9688 142.07C96.9688 143.727 95.6263 145.07 93.9688 145.07C92.3112 145.07 90.9688 143.727 90.9688 142.07C90.9688 140.412 92.3112 139.07 93.9688 139.07C95.6263 139.07 96.9688 140.412 96.9688 142.07Z" fill="#42A584"/>
<path fill-rule="evenodd" clip-rule="evenodd" d="M111.969 142.07C111.969 143.727 110.626 145.07 108.969 145.07C107.311 145.07 105.969 143.727 105.969 142.07C105.969 140.412 107.311 139.07 108.969 139.07C110.626 139.07 111.969 140.412 111.969 142.07Z" fill="#42A584"/>
<path fill-rule="evenodd" clip-rule="evenodd" d="M111.969 142.07C111.969 143.727 110.626 145.07 108.969 145.07C107.311 145.07 105.969 143.727 105.969 142.07C105.969 140.412 107.311 139.07 108.969 139.07C110.626 139.07 111.969 140.412 111.969 142.07Z" fill="#42A584"/>
<path fill-rule="evenodd" clip-rule="evenodd" d="M127.969 142.07C127.969 143.727 126.626 145.07 124.969 145.07C123.311 145.07 121.969 143.727 121.969 142.07C121.969 140.412 123.311 139.07 124.969 139.07C126.626 139.07 127.969 140.412 127.969 142.07Z" fill="#42A584"/>
<path fill-rule="evenodd" clip-rule="evenodd" d="M127.969 142.07C127.969 143.727 126.626 145.07 124.969 145.07C123.311 145.07 121.969 143.727 121.969 142.07C121.969 140.412 123.311 139.07 124.969 139.07C126.626 139.07 127.969 140.412 127.969 142.07Z" fill="#42A584"/>
<path fill-rule="evenodd" clip-rule="evenodd" d="M142.969 142.07C142.969 143.727 141.626 145.07 139.969 145.07C138.311 145.07 136.969 143.727 136.969 142.07C136.969 140.412 138.311 139.07 139.969 139.07C141.626 139.07 142.969 140.412 142.969 142.07Z" fill="#42A584"/>
<path fill-rule="evenodd" clip-rule="evenodd" d="M142.969 142.07C142.969 143.727 141.626 145.07 139.969 145.07C138.311 145.07 136.969 143.727 136.969 142.07C136.969 140.412 138.311 139.07 139.969 139.07C141.626 139.07 142.969 140.412 142.969 142.07Z" fill="#42A584"/>
<path fill-rule="evenodd" clip-rule="evenodd" d="M158.969 142.07C158.969 143.727 157.626 145.07 155.969 145.07C154.311 145.07 152.969 143.727 152.969 142.07C152.969 140.412 154.311 139.07 155.969 139.07C157.626 139.07 158.969 140.412 158.969 142.07Z" fill="#42A584"/>
<path fill-rule="evenodd" clip-rule="evenodd" d="M158.969 142.07C158.969 143.727 157.626 145.07 155.969 145.07C154.311 145.07 152.969 143.727 152.969 142.07C152.969 140.412 154.311 139.07 155.969 139.07C157.626 139.07 158.969 140.412 158.969 142.07Z" fill="#42A584"/>
<path fill-rule="evenodd" clip-rule="evenodd" d="M173.969 142.07C173.969 143.727 172.626 145.07 170.969 145.07C169.311 145.07 167.969 143.727 167.969 142.07C167.969 140.412 169.311 139.07 170.969 139.07C172.626 139.07 173.969 140.412 173.969 142.07Z" fill="#42A584"/>
<path fill-rule="evenodd" clip-rule="evenodd" d="M173.969 142.07C173.969 143.727 172.626 145.07 170.969 145.07C169.311 145.07 167.969 143.727 167.969 142.07C167.969 140.412 169.311 139.07 170.969 139.07C172.626 139.07 173.969 140.412 173.969 142.07Z" fill="#42A584"/>
<path fill-rule="evenodd" clip-rule="evenodd" d="M188.969 142.07C188.969 143.727 187.626 145.07 185.969 145.07C184.311 145.07 182.969 143.727 182.969 142.07C182.969 140.412 184.311 139.07 185.969 139.07C187.626 139.07 188.969 140.412 188.969 142.07Z" fill="#42A584"/>
<path fill-rule="evenodd" clip-rule="evenodd" d="M188.969 142.07C188.969 143.727 187.626 145.07 185.969 145.07C184.311 145.07 182.969 143.727 182.969 142.07C182.969 140.412 184.311 139.07 185.969 139.07C187.626 139.07 188.969 140.412 188.969 142.07Z" fill="#42A584"/>
<path fill-rule="evenodd" clip-rule="evenodd" d="M204.969 142.07C204.969 143.727 203.626 145.07 201.969 145.07C200.311 145.07 198.969 143.727 198.969 142.07C198.969 140.412 200.311 139.07 201.969 139.07C203.626 139.07 204.969 140.412 204.969 142.07Z" fill="#42A584"/>
<path fill-rule="evenodd" clip-rule="evenodd" d="M204.969 142.07C204.969 143.727 203.626 145.07 201.969 145.07C200.311 145.07 198.969 143.727 198.969 142.07C198.969 140.412 200.311 139.07 201.969 139.07C203.626 139.07 204.969 140.412 204.969 142.07Z" fill="#42A584"/>
<path fill-rule="evenodd" clip-rule="evenodd" d="M34.9688 157.07C34.9688 158.727 33.6263 160.07 31.9688 160.07C30.3112 160.07 28.9688 158.727 28.9688 157.07C28.9688 155.412 30.3112 154.07 31.9688 154.07C33.6263 154.07 34.9688 155.412 34.9688 157.07Z" fill="#42A584"/>
<path fill-rule="evenodd" clip-rule="evenodd" d="M34.9688 157.07C34.9688 158.727 33.6263 160.07 31.9688 160.07C30.3112 160.07 28.9688 158.727 28.9688 157.07C28.9688 155.412 30.3112 154.07 31.9688 154.07C33.6263 154.07 34.9688 155.412 34.9688 157.07Z" fill="#42A584"/>
<path fill-rule="evenodd" clip-rule="evenodd" d="M50.9688 157.07C50.9688 158.727 49.6263 160.07 47.9688 160.07C46.3112 160.07 44.9688 158.727 44.9688 157.07C44.9688 155.412 46.3112 154.07 47.9688 154.07C49.6263 154.07 50.9688 155.412 50.9688 157.07Z" fill="#42A584"/>
<path fill-rule="evenodd" clip-rule="evenodd" d="M50.9688 157.07C50.9688 158.727 49.6263 160.07 47.9688 160.07C46.3112 160.07 44.9688 158.727 44.9688 157.07C44.9688 155.412 46.3112 154.07 47.9688 154.07C49.6263 154.07 50.9688 155.412 50.9688 157.07Z" fill="#42A584"/>
<path fill-rule="evenodd" clip-rule="evenodd" d="M65.9688 157.07C65.9688 158.727 64.6263 160.07 62.9688 160.07C61.3112 160.07 59.9688 158.727 59.9688 157.07C59.9688 155.412 61.3112 154.07 62.9688 154.07C64.6263 154.07 65.9688 155.412 65.9688 157.07Z" fill="#42A584"/>
<path fill-rule="evenodd" clip-rule="evenodd" d="M65.9688 157.07C65.9688 158.727 64.6263 160.07 62.9688 160.07C61.3112 160.07 59.9688 158.727 59.9688 157.07C59.9688 155.412 61.3112 154.07 62.9688 154.07C64.6263 154.07 65.9688 155.412 65.9688 157.07Z" fill="#42A584"/>
<path fill-rule="evenodd" clip-rule="evenodd" d="M80.9688 157.07C80.9688 158.727 79.6263 160.07 77.9688 160.07C76.3112 160.07 74.9688 158.727 74.9688 157.07C74.9688 155.412 76.3112 154.07 77.9688 154.07C79.6263 154.07 80.9688 155.412 80.9688 157.07Z" fill="#42A584"/>
<path fill-rule="evenodd" clip-rule="evenodd" d="M80.9688 157.07C80.9688 158.727 79.6263 160.07 77.9688 160.07C76.3112 160.07 74.9688 158.727 74.9688 157.07C74.9688 155.412 76.3112 154.07 77.9688 154.07C79.6263 154.07 80.9688 155.412 80.9688 157.07Z" fill="#42A584"/>
<path fill-rule="evenodd" clip-rule="evenodd" d="M96.9688 157.07C96.9688 158.727 95.6263 160.07 93.9688 160.07C92.3112 160.07 90.9688 158.727 90.9688 157.07C90.9688 155.412 92.3112 154.07 93.9688 154.07C95.6263 154.07 96.9688 155.412 96.9688 157.07Z" fill="#42A584"/>
<path fill-rule="evenodd" clip-rule="evenodd" d="M96.9688 157.07C96.9688 158.727 95.6263 160.07 93.9688 160.07C92.3112 160.07 90.9688 158.727 90.9688 157.07C90.9688 155.412 92.3112 154.07 93.9688 154.07C95.6263 154.07 96.9688 155.412 96.9688 157.07Z" fill="#42A584"/>
<path fill-rule="evenodd" clip-rule="evenodd" d="M111.969 157.07C111.969 158.727 110.626 160.07 108.969 160.07C107.311 160.07 105.969 158.727 105.969 157.07C105.969 155.412 107.311 154.07 108.969 154.07C110.626 154.07 111.969 155.412 111.969 157.07Z" fill="#42A584"/>
<path fill-rule="evenodd" clip-rule="evenodd" d="M111.969 157.07C111.969 158.727 110.626 160.07 108.969 160.07C107.311 160.07 105.969 158.727 105.969 157.07C105.969 155.412 107.311 154.07 108.969 154.07C110.626 154.07 111.969 155.412 111.969 157.07Z" fill="#42A584"/>
<path fill-rule="evenodd" clip-rule="evenodd" d="M127.969 157.07C127.969 158.727 126.626 160.07 124.969 160.07C123.311 160.07 121.969 158.727 121.969 157.07C121.969 155.412 123.311 154.07 124.969 154.07C126.626 154.07 127.969 155.412 127.969 157.07Z" fill="#42A584"/>
<path fill-rule="evenodd" clip-rule="evenodd" d="M127.969 157.07C127.969 158.727 126.626 160.07 124.969 160.07C123.311 160.07 121.969 158.727 121.969 157.07C121.969 155.412 123.311 154.07 124.969 154.07C126.626 154.07 127.969 155.412 127.969 157.07Z" fill="#42A584"/>
<path fill-rule="evenodd" clip-rule="evenodd" d="M142.969 157.07C142.969 158.727 141.626 160.07 139.969 160.07C138.311 160.07 136.969 158.727 136.969 157.07C136.969 155.412 138.311 154.07 139.969 154.07C141.626 154.07 142.969 155.412 142.969 157.07Z" fill="#42A584"/>
<path fill-rule="evenodd" clip-rule="evenodd" d="M142.969 157.07C142.969 158.727 141.626 160.07 139.969 160.07C138.311 160.07 136.969 158.727 136.969 157.07C136.969 155.412 138.311 154.07 139.969 154.07C141.626 154.07 142.969 155.412 142.969 157.07Z" fill="#42A584"/>
<path fill-rule="evenodd" clip-rule="evenodd" d="M158.969 157.07C158.969 158.727 157.626 160.07 155.969 160.07C154.311 160.07 152.969 158.727 152.969 157.07C152.969 155.412 154.311 154.07 155.969 154.07C157.626 154.07 158.969 155.412 158.969 157.07Z" fill="#42A584"/>
<path fill-rule="evenodd" clip-rule="evenodd" d="M158.969 157.07C158.969 158.727 157.626 160.07 155.969 160.07C154.311 160.07 152.969 158.727 152.969 157.07C152.969 155.412 154.311 154.07 155.969 154.07C157.626 154.07 158.969 155.412 158.969 157.07Z" fill="#42A584"/>
<path fill-rule="evenodd" clip-rule="evenodd" d="M173.969 157.07C173.969 158.727 172.626 160.07 170.969 160.07C169.311 160.07 167.969 158.727 167.969 157.07C167.969 155.412 169.311 154.07 170.969 154.07C172.626 154.07 173.969 155.412 173.969 157.07Z" fill="#42A584"/>
<path fill-rule="evenodd" clip-rule="evenodd" d="M173.969 157.07C173.969 158.727 172.626 160.07 170.969 160.07C169.311 160.07 167.969 158.727 167.969 157.07C167.969 155.412 169.311 154.07 170.969 154.07C172.626 154.07 173.969 155.412 173.969 157.07Z" fill="#42A584"/>
<path fill-rule="evenodd" clip-rule="evenodd" d="M188.969 157.07C188.969 158.727 187.626 160.07 185.969 160.07C184.311 160.07 182.969 158.727 182.969 157.07C182.969 155.412 184.311 154.07 185.969 154.07C187.626 154.07 188.969 155.412 188.969 157.07Z" fill="#42A584"/>
<path fill-rule="evenodd" clip-rule="evenodd" d="M188.969 157.07C188.969 158.727 187.626 160.07 185.969 160.07C184.311 160.07 182.969 158.727 182.969 157.07C182.969 155.412 184.311 154.07 185.969 154.07C187.626 154.07 188.969 155.412 188.969 157.07Z" fill="#42A584"/>
<path fill-rule="evenodd" clip-rule="evenodd" d="M204.969 157.07C204.969 158.727 203.626 160.07 201.969 160.07C200.311 160.07 198.969 158.727 198.969 157.07C198.969 155.412 200.311 154.07 201.969 154.07C203.626 154.07 204.969 155.412 204.969 157.07Z" fill="#42A584"/>
<path fill-rule="evenodd" clip-rule="evenodd" d="M204.969 157.07C204.969 158.727 203.626 160.07 201.969 160.07C200.311 160.07 198.969 158.727 198.969 157.07C198.969 155.412 200.311 154.07 201.969 154.07C203.626 154.07 204.969 155.412 204.969 157.07Z" fill="#42A584"/>
<path fill-rule="evenodd" clip-rule="evenodd" d="M34.9688 173.07C34.9688 174.727 33.6263 176.07 31.9688 176.07C30.3112 176.07 28.9688 174.727 28.9688 173.07C28.9688 171.412 30.3112 170.07 31.9688 170.07C33.6263 170.07 34.9688 171.412 34.9688 173.07Z" fill="#42A584"/>
<path fill-rule="evenodd" clip-rule="evenodd" d="M34.9688 173.07C34.9688 174.727 33.6263 176.07 31.9688 176.07C30.3112 176.07 28.9688 174.727 28.9688 173.07C28.9688 171.412 30.3112 170.07 31.9688 170.07C33.6263 170.07 34.9688 171.412 34.9688 173.07Z" fill="#42A584"/>
<path fill-rule="evenodd" clip-rule="evenodd" d="M50.9688 173.07C50.9688 174.727 49.6263 176.07 47.9688 176.07C46.3112 176.07 44.9688 174.727 44.9688 173.07C44.9688 171.412 46.3112 170.07 47.9688 170.07C49.6263 170.07 50.9688 171.412 50.9688 173.07Z" fill="#42A584"/>
<path fill-rule="evenodd" clip-rule="evenodd" d="M50.9688 173.07C50.9688 174.727 49.6263 176.07 47.9688 176.07C46.3112 176.07 44.9688 174.727 44.9688 173.07C44.9688 171.412 46.3112 170.07 47.9688 170.07C49.6263 170.07 50.9688 171.412 50.9688 173.07Z" fill="#42A584"/>
<path fill-rule="evenodd" clip-rule="evenodd" d="M65.9688 173.07C65.9688 174.727 64.6263 176.07 62.9688 176.07C61.3112 176.07 59.9688 174.727 59.9688 173.07C59.9688 171.412 61.3112 170.07 62.9688 170.07C64.6263 170.07 65.9688 171.412 65.9688 173.07Z" fill="#42A584"/>
<path fill-rule="evenodd" clip-rule="evenodd" d="M65.9688 173.07C65.9688 174.727 64.6263 176.07 62.9688 176.07C61.3112 176.07 59.9688 174.727 59.9688 173.07C59.9688 171.412 61.3112 170.07 62.9688 170.07C64.6263 170.07 65.9688 171.412 65.9688 173.07Z" fill="#42A584"/>
<path fill-rule="evenodd" clip-rule="evenodd" d="M80.9688 173.07C80.9688 174.727 79.6263 176.07 77.9688 176.07C76.3112 176.07 74.9688 174.727 74.9688 173.07C74.9688 171.412 76.3112 170.07 77.9688 170.07C79.6263 170.07 80.9688 171.412 80.9688 173.07Z" fill="#42A584"/>
<path fill-rule="evenodd" clip-rule="evenodd" d="M80.9688 173.07C80.9688 174.727 79.6263 176.07 77.9688 176.07C76.3112 176.07 74.9688 174.727 74.9688 173.07C74.9688 171.412 76.3112 170.07 77.9688 170.07C79.6263 170.07 80.9688 171.412 80.9688 173.07Z" fill="#42A584"/>
<path fill-rule="evenodd" clip-rule="evenodd" d="M96.9688 173.07C96.9688 174.727 95.6263 176.07 93.9688 176.07C92.3112 176.07 90.9688 174.727 90.9688 173.07C90.9688 171.412 92.3112 170.07 93.9688 170.07C95.6263 170.07 96.9688 171.412 96.9688 173.07Z" fill="#42A584"/>
<path fill-rule="evenodd" clip-rule="evenodd" d="M96.9688 173.07C96.9688 174.727 95.6263 176.07 93.9688 176.07C92.3112 176.07 90.9688 174.727 90.9688 173.07C90.9688 171.412 92.3112 170.07 93.9688 170.07C95.6263 170.07 96.9688 171.412 96.9688 173.07Z" fill="#42A584"/>
<path fill-rule="evenodd" clip-rule="evenodd" d="M111.969 173.07C111.969 174.727 110.626 176.07 108.969 176.07C107.311 176.07 105.969 174.727 105.969 173.07C105.969 171.412 107.311 170.07 108.969 170.07C110.626 170.07 111.969 171.412 111.969 173.07Z" fill="#42A584"/>
<path fill-rule="evenodd" clip-rule="evenodd" d="M111.969 173.07C111.969 174.727 110.626 176.07 108.969 176.07C107.311 176.07 105.969 174.727 105.969 173.07C105.969 171.412 107.311 170.07 108.969 170.07C110.626 170.07 111.969 171.412 111.969 173.07Z" fill="#42A584"/>
<path fill-rule="evenodd" clip-rule="evenodd" d="M127.969 173.07C127.969 174.727 126.626 176.07 124.969 176.07C123.311 176.07 121.969 174.727 121.969 173.07C121.969 171.412 123.311 170.07 124.969 170.07C126.626 170.07 127.969 171.412 127.969 173.07Z" fill="#42A584"/>
<path fill-rule="evenodd" clip-rule="evenodd" d="M127.969 173.07C127.969 174.727 126.626 176.07 124.969 176.07C123.311 176.07 121.969 174.727 121.969 173.07C121.969 171.412 123.311 170.07 124.969 170.07C126.626 170.07 127.969 171.412 127.969 173.07Z" fill="#42A584"/>
<path fill-rule="evenodd" clip-rule="evenodd" d="M142.969 173.07C142.969 174.727 141.626 176.07 139.969 176.07C138.311 176.07 136.969 174.727 136.969 173.07C136.969 171.412 138.311 170.07 139.969 170.07C141.626 170.07 142.969 171.412 142.969 173.07Z" fill="#42A584"/>
<path fill-rule="evenodd" clip-rule="evenodd" d="M142.969 173.07C142.969 174.727 141.626 176.07 139.969 176.07C138.311 176.07 136.969 174.727 136.969 173.07C136.969 171.412 138.311 170.07 139.969 170.07C141.626 170.07 142.969 171.412 142.969 173.07Z" fill="#42A584"/>
<path fill-rule="evenodd" clip-rule="evenodd" d="M158.969 173.07C158.969 174.727 157.626 176.07 155.969 176.07C154.311 176.07 152.969 174.727 152.969 173.07C152.969 171.412 154.311 170.07 155.969 170.07C157.626 170.07 158.969 171.412 158.969 173.07Z" fill="#42A584"/>
<path fill-rule="evenodd" clip-rule="evenodd" d="M158.969 173.07C158.969 174.727 157.626 176.07 155.969 176.07C154.311 176.07 152.969 174.727 152.969 173.07C152.969 171.412 154.311 170.07 155.969 170.07C157.626 170.07 158.969 171.412 158.969 173.07Z" fill="#42A584"/>
<path fill-rule="evenodd" clip-rule="evenodd" d="M173.969 173.07C173.969 174.727 172.626 176.07 170.969 176.07C169.311 176.07 167.969 174.727 167.969 173.07C167.969 171.412 169.311 170.07 170.969 170.07C172.626 170.07 173.969 171.412 173.969 173.07Z" fill="#42A584"/>
<path fill-rule="evenodd" clip-rule="evenodd" d="M173.969 173.07C173.969 174.727 172.626 176.07 170.969 176.07C169.311 176.07 167.969 174.727 167.969 173.07C167.969 171.412 169.311 170.07 170.969 170.07C172.626 170.07 173.969 171.412 173.969 173.07Z" fill="#42A584"/>
<path fill-rule="evenodd" clip-rule="evenodd" d="M188.969 173.07C188.969 174.727 187.626 176.07 185.969 176.07C184.311 176.07 182.969 174.727 182.969 173.07C182.969 171.412 184.311 170.07 185.969 170.07C187.626 170.07 188.969 171.412 188.969 173.07Z" fill="#42A584"/>
<path fill-rule="evenodd" clip-rule="evenodd" d="M188.969 173.07C188.969 174.727 187.626 176.07 185.969 176.07C184.311 176.07 182.969 174.727 182.969 173.07C182.969 171.412 184.311 170.07 185.969 170.07C187.626 170.07 188.969 171.412 188.969 173.07Z" fill="#42A584"/>
<path fill-rule="evenodd" clip-rule="evenodd" d="M204.969 173.07C204.969 174.727 203.626 176.07 201.969 176.07C200.311 176.07 198.969 174.727 198.969 173.07C198.969 171.412 200.311 170.07 201.969 170.07C203.626 170.07 204.969 171.412 204.969 173.07Z" fill="#42A584"/>
<path fill-rule="evenodd" clip-rule="evenodd" d="M204.969 173.07C204.969 174.727 203.626 176.07 201.969 176.07C200.311 176.07 198.969 174.727 198.969 173.07C198.969 171.412 200.311 170.07 201.969 170.07C203.626 170.07 204.969 171.412 204.969 173.07Z" fill="#42A584"/>
<path fill-rule="evenodd" clip-rule="evenodd" d="M34.9688 188.07C34.9688 189.727 33.6263 191.07 31.9688 191.07C30.3112 191.07 28.9688 189.727 28.9688 188.07C28.9688 186.412 30.3112 185.07 31.9688 185.07C33.6263 185.07 34.9688 186.412 34.9688 188.07Z" fill="#42A584"/>
<path fill-rule="evenodd" clip-rule="evenodd" d="M34.9688 188.07C34.9688 189.727 33.6263 191.07 31.9688 191.07C30.3112 191.07 28.9688 189.727 28.9688 188.07C28.9688 186.412 30.3112 185.07 31.9688 185.07C33.6263 185.07 34.9688 186.412 34.9688 188.07Z" fill="#42A584"/>
<path fill-rule="evenodd" clip-rule="evenodd" d="M50.9688 188.07C50.9688 189.727 49.6263 191.07 47.9688 191.07C46.3112 191.07 44.9688 189.727 44.9688 188.07C44.9688 186.412 46.3112 185.07 47.9688 185.07C49.6263 185.07 50.9688 186.412 50.9688 188.07Z" fill="#42A584"/>
<path fill-rule="evenodd" clip-rule="evenodd" d="M50.9688 188.07C50.9688 189.727 49.6263 191.07 47.9688 191.07C46.3112 191.07 44.9688 189.727 44.9688 188.07C44.9688 186.412 46.3112 185.07 47.9688 185.07C49.6263 185.07 50.9688 186.412 50.9688 188.07Z" fill="#42A584"/>
<path fill-rule="evenodd" clip-rule="evenodd" d="M65.9688 188.07C65.9688 189.727 64.6263 191.07 62.9688 191.07C61.3112 191.07 59.9688 189.727 59.9688 188.07C59.9688 186.412 61.3112 185.07 62.9688 185.07C64.6263 185.07 65.9688 186.412 65.9688 188.07Z" fill="#42A584"/>
<path fill-rule="evenodd" clip-rule="evenodd" d="M65.9688 188.07C65.9688 189.727 64.6263 191.07 62.9688 191.07C61.3112 191.07 59.9688 189.727 59.9688 188.07C59.9688 186.412 61.3112 185.07 62.9688 185.07C64.6263 185.07 65.9688 186.412 65.9688 188.07Z" fill="#42A584"/>
<path fill-rule="evenodd" clip-rule="evenodd" d="M80.9688 188.07C80.9688 189.727 79.6263 191.07 77.9688 191.07C76.3112 191.07 74.9688 189.727 74.9688 188.07C74.9688 186.412 76.3112 185.07 77.9688 185.07C79.6263 185.07 80.9688 186.412 80.9688 188.07Z" fill="#42A584"/>
<path fill-rule="evenodd" clip-rule="evenodd" d="M80.9688 188.07C80.9688 189.727 79.6263 191.07 77.9688 191.07C76.3112 191.07 74.9688 189.727 74.9688 188.07C74.9688 186.412 76.3112 185.07 77.9688 185.07C79.6263 185.07 80.9688 186.412 80.9688 188.07Z" fill="#42A584"/>
<path fill-rule="evenodd" clip-rule="evenodd" d="M96.9688 188.07C96.9688 189.727 95.6263 191.07 93.9688 191.07C92.3112 191.07 90.9688 189.727 90.9688 188.07C90.9688 186.412 92.3112 185.07 93.9688 185.07C95.6263 185.07 96.9688 186.412 96.9688 188.07Z" fill="#42A584"/>
<path fill-rule="evenodd" clip-rule="evenodd" d="M96.9688 188.07C96.9688 189.727 95.6263 191.07 93.9688 191.07C92.3112 191.07 90.9688 189.727 90.9688 188.07C90.9688 186.412 92.3112 185.07 93.9688 185.07C95.6263 185.07 96.9688 186.412 96.9688 188.07Z" fill="#42A584"/>
<path fill-rule="evenodd" clip-rule="evenodd" d="M111.969 188.07C111.969 189.727 110.626 191.07 108.969 191.07C107.311 191.07 105.969 189.727 105.969 188.07C105.969 186.412 107.311 185.07 108.969 185.07C110.626 185.07 111.969 186.412 111.969 188.07Z" fill="#42A584"/>
<path fill-rule="evenodd" clip-rule="evenodd" d="M111.969 188.07C111.969 189.727 110.626 191.07 108.969 191.07C107.311 191.07 105.969 189.727 105.969 188.07C105.969 186.412 107.311 185.07 108.969 185.07C110.626 185.07 111.969 186.412 111.969 188.07Z" fill="#42A584"/>
<path fill-rule="evenodd" clip-rule="evenodd" d="M127.969 188.07C127.969 189.727 126.626 191.07 124.969 191.07C123.311 191.07 121.969 189.727 121.969 188.07C121.969 186.412 123.311 185.07 124.969 185.07C126.626 185.07 127.969 186.412 127.969 188.07Z" fill="#42A584"/>
<path fill-rule="evenodd" clip-rule="evenodd" d="M127.969 188.07C127.969 189.727 126.626 191.07 124.969 191.07C123.311 191.07 121.969 189.727 121.969 188.07C121.969 186.412 123.311 185.07 124.969 185.07C126.626 185.07 127.969 186.412 127.969 188.07Z" fill="#42A584"/>
<path fill-rule="evenodd" clip-rule="evenodd" d="M142.969 188.07C142.969 189.727 141.626 191.07 139.969 191.07C138.311 191.07 136.969 189.727 136.969 188.07C136.969 186.412 138.311 185.07 139.969 185.07C141.626 185.07 142.969 186.412 142.969 188.07Z" fill="#42A584"/>
<path fill-rule="evenodd" clip-rule="evenodd" d="M142.969 188.07C142.969 189.727 141.626 191.07 139.969 191.07C138.311 191.07 136.969 189.727 136.969 188.07C136.969 186.412 138.311 185.07 139.969 185.07C141.626 185.07 142.969 186.412 142.969 188.07Z" fill="#42A584"/>
<path fill-rule="evenodd" clip-rule="evenodd" d="M158.969 188.07C158.969 189.727 157.626 191.07 155.969 191.07C154.311 191.07 152.969 189.727 152.969 188.07C152.969 186.412 154.311 185.07 155.969 185.07C157.626 185.07 158.969 186.412 158.969 188.07Z" fill="#42A584"/>
<path fill-rule="evenodd" clip-rule="evenodd" d="M158.969 188.07C158.969 189.727 157.626 191.07 155.969 191.07C154.311 191.07 152.969 189.727 152.969 188.07C152.969 186.412 154.311 185.07 155.969 185.07C157.626 185.07 158.969 186.412 158.969 188.07Z" fill="#42A584"/>
<path fill-rule="evenodd" clip-rule="evenodd" d="M173.969 188.07C173.969 189.727 172.626 191.07 170.969 191.07C169.311 191.07 167.969 189.727 167.969 188.07C167.969 186.412 169.311 185.07 170.969 185.07C172.626 185.07 173.969 186.412 173.969 188.07Z" fill="#42A584"/>
<path fill-rule="evenodd" clip-rule="evenodd" d="M173.969 188.07C173.969 189.727 172.626 191.07 170.969 191.07C169.311 191.07 167.969 189.727 167.969 188.07C167.969 186.412 169.311 185.07 170.969 185.07C172.626 185.07 173.969 186.412 173.969 188.07Z" fill="#42A584"/>
<path fill-rule="evenodd" clip-rule="evenodd" d="M188.969 188.07C188.969 189.727 187.626 191.07 185.969 191.07C184.311 191.07 182.969 189.727 182.969 188.07C182.969 186.412 184.311 185.07 185.969 185.07C187.626 185.07 188.969 186.412 188.969 188.07Z" fill="#42A584"/>
<path fill-rule="evenodd" clip-rule="evenodd" d="M188.969 188.07C188.969 189.727 187.626 191.07 185.969 191.07C184.311 191.07 182.969 189.727 182.969 188.07C182.969 186.412 184.311 185.07 185.969 185.07C187.626 185.07 188.969 186.412 188.969 188.07Z" fill="#42A584"/>
<path fill-rule="evenodd" clip-rule="evenodd" d="M204.969 188.07C204.969 189.727 203.626 191.07 201.969 191.07C200.311 191.07 198.969 189.727 198.969 188.07C198.969 186.412 200.311 185.07 201.969 185.07C203.626 185.07 204.969 186.412 204.969 188.07Z" fill="#42A584"/>
<path fill-rule="evenodd" clip-rule="evenodd" d="M204.969 188.07C204.969 189.727 203.626 191.07 201.969 191.07C200.311 191.07 198.969 189.727 198.969 188.07C198.969 186.412 200.311 185.07 201.969 185.07C203.626 185.07 204.969 186.412 204.969 188.07Z" fill="#42A584"/>
<path fill-rule="evenodd" clip-rule="evenodd" d="M50.9688 3.06982C50.9688 4.72732 49.6263 6.06982 47.9688 6.06982C46.3112 6.06982 44.9688 4.72732 44.9688 3.06982C44.9688 1.41232 46.3112 0.0698242 47.9688 0.0698242C49.6263 0.0698242 50.9688 1.41232 50.9688 3.06982Z" fill="#42A584"/>
<path fill-rule="evenodd" clip-rule="evenodd" d="M50.9688 3.06982C50.9688 4.72732 49.6263 6.06982 47.9688 6.06982C46.3112 6.06982 44.9688 4.72732 44.9688 3.06982C44.9688 1.41232 46.3112 0.0698242 47.9688 0.0698242C49.6263 0.0698242 50.9688 1.41232 50.9688 3.06982Z" fill="#42A584"/>
<path fill-rule="evenodd" clip-rule="evenodd" d="M65.9688 3.06982C65.9688 4.72732 64.6263 6.06982 62.9688 6.06982C61.3112 6.06982 59.9688 4.72732 59.9688 3.06982C59.9688 1.41232 61.3112 0.0698242 62.9688 0.0698242C64.6263 0.0698242 65.9688 1.41232 65.9688 3.06982Z" fill="#42A584"/>
<path fill-rule="evenodd" clip-rule="evenodd" d="M65.9688 3.06982C65.9688 4.72732 64.6263 6.06982 62.9688 6.06982C61.3112 6.06982 59.9688 4.72732 59.9688 3.06982C59.9688 1.41232 61.3112 0.0698242 62.9688 0.0698242C64.6263 0.0698242 65.9688 1.41232 65.9688 3.06982Z" fill="#42A584"/>
<path fill-rule="evenodd" clip-rule="evenodd" d="M80.9688 3.06982C80.9688 4.72732 79.6263 6.06982 77.9688 6.06982C76.3112 6.06982 74.9688 4.72732 74.9688 3.06982C74.9688 1.41232 76.3112 0.0698242 77.9688 0.0698242C79.6263 0.0698242 80.9688 1.41232 80.9688 3.06982Z" fill="#42A584"/>
<path fill-rule="evenodd" clip-rule="evenodd" d="M80.9688 3.06982C80.9688 4.72732 79.6263 6.06982 77.9688 6.06982C76.3112 6.06982 74.9688 4.72732 74.9688 3.06982C74.9688 1.41232 76.3112 0.0698242 77.9688 0.0698242C79.6263 0.0698242 80.9688 1.41232 80.9688 3.06982Z" fill="#42A584"/>
<path fill-rule="evenodd" clip-rule="evenodd" d="M96.9688 3.06982C96.9688 4.72732 95.6263 6.06982 93.9688 6.06982C92.3112 6.06982 90.9688 4.72732 90.9688 3.06982C90.9688 1.41232 92.3112 0.0698242 93.9688 0.0698242C95.6263 0.0698242 96.9688 1.41232 96.9688 3.06982Z" fill="#42A584"/>
<path fill-rule="evenodd" clip-rule="evenodd" d="M96.9688 3.06982C96.9688 4.72732 95.6263 6.06982 93.9688 6.06982C92.3112 6.06982 90.9688 4.72732 90.9688 3.06982C90.9688 1.41232 92.3112 0.0698242 93.9688 0.0698242C95.6263 0.0698242 96.9688 1.41232 96.9688 3.06982Z" fill="#42A584"/>
<path fill-rule="evenodd" clip-rule="evenodd" d="M111.969 3.06982C111.969 4.72732 110.626 6.06982 108.969 6.06982C107.311 6.06982 105.969 4.72732 105.969 3.06982C105.969 1.41232 107.311 0.0698242 108.969 0.0698242C110.626 0.0698242 111.969 1.41232 111.969 3.06982Z" fill="#42A584"/>
<path fill-rule="evenodd" clip-rule="evenodd" d="M111.969 3.06982C111.969 4.72732 110.626 6.06982 108.969 6.06982C107.311 6.06982 105.969 4.72732 105.969 3.06982C105.969 1.41232 107.311 0.0698242 108.969 0.0698242C110.626 0.0698242 111.969 1.41232 111.969 3.06982Z" fill="#42A584"/>
<path fill-rule="evenodd" clip-rule="evenodd" d="M127.969 3.06982C127.969 4.72732 126.626 6.06982 124.969 6.06982C123.311 6.06982 121.969 4.72732 121.969 3.06982C121.969 1.41232 123.311 0.0698242 124.969 0.0698242C126.626 0.0698242 127.969 1.41232 127.969 3.06982Z" fill="#42A584"/>
<path fill-rule="evenodd" clip-rule="evenodd" d="M127.969 3.06982C127.969 4.72732 126.626 6.06982 124.969 6.06982C123.311 6.06982 121.969 4.72732 121.969 3.06982C121.969 1.41232 123.311 0.0698242 124.969 0.0698242C126.626 0.0698242 127.969 1.41232 127.969 3.06982Z" fill="#42A584"/>
<path fill-rule="evenodd" clip-rule="evenodd" d="M142.969 3.06982C142.969 4.72732 141.626 6.06982 139.969 6.06982C138.311 6.06982 136.969 4.72732 136.969 3.06982C136.969 1.41232 138.311 0.0698242 139.969 0.0698242C141.626 0.0698242 142.969 1.41232 142.969 3.06982Z" fill="#42A584"/>
<path fill-rule="evenodd" clip-rule="evenodd" d="M142.969 3.06982C142.969 4.72732 141.626 6.06982 139.969 6.06982C138.311 6.06982 136.969 4.72732 136.969 3.06982C136.969 1.41232 138.311 0.0698242 139.969 0.0698242C141.626 0.0698242 142.969 1.41232 142.969 3.06982Z" fill="#42A584"/>
<path fill-rule="evenodd" clip-rule="evenodd" d="M158.969 3.06982C158.969 4.72732 157.626 6.06982 155.969 6.06982C154.311 6.06982 152.969 4.72732 152.969 3.06982C152.969 1.41232 154.311 0.0698242 155.969 0.0698242C157.626 0.0698242 158.969 1.41232 158.969 3.06982Z" fill="#42A584"/>
<path fill-rule="evenodd" clip-rule="evenodd" d="M158.969 3.06982C158.969 4.72732 157.626 6.06982 155.969 6.06982C154.311 6.06982 152.969 4.72732 152.969 3.06982C152.969 1.41232 154.311 0.0698242 155.969 0.0698242C157.626 0.0698242 158.969 1.41232 158.969 3.06982Z" fill="#42A584"/>
<path fill-rule="evenodd" clip-rule="evenodd" d="M173.969 3.06982C173.969 4.72732 172.626 6.06982 170.969 6.06982C169.311 6.06982 167.969 4.72732 167.969 3.06982C167.969 1.41232 169.311 0.0698242 170.969 0.0698242C172.626 0.0698242 173.969 1.41232 173.969 3.06982Z" fill="#42A584"/>
<path fill-rule="evenodd" clip-rule="evenodd" d="M173.969 3.06982C173.969 4.72732 172.626 6.06982 170.969 6.06982C169.311 6.06982 167.969 4.72732 167.969 3.06982C167.969 1.41232 169.311 0.0698242 170.969 0.0698242C172.626 0.0698242 173.969 1.41232 173.969 3.06982Z" fill="#42A584"/>
<path fill-rule="evenodd" clip-rule="evenodd" d="M188.969 3.06982C188.969 4.72732 187.626 6.06982 185.969 6.06982C184.311 6.06982 182.969 4.72732 182.969 3.06982C182.969 1.41232 184.311 0.0698242 185.969 0.0698242C187.626 0.0698242 188.969 1.41232 188.969 3.06982Z" fill="#42A584"/>
<path fill-rule="evenodd" clip-rule="evenodd" d="M188.969 3.06982C188.969 4.72732 187.626 6.06982 185.969 6.06982C184.311 6.06982 182.969 4.72732 182.969 3.06982C182.969 1.41232 184.311 0.0698242 185.969 0.0698242C187.626 0.0698242 188.969 1.41232 188.969 3.06982Z" fill="#42A584"/>
<path fill-rule="evenodd" clip-rule="evenodd" d="M204.969 3.06982C204.969 4.72732 203.626 6.06982 201.969 6.06982C200.311 6.06982 198.969 4.72732 198.969 3.06982C198.969 1.41232 200.311 0.0698242 201.969 0.0698242C203.626 0.0698242 204.969 1.41232 204.969 3.06982Z" fill="#42A584"/>
<path fill-rule="evenodd" clip-rule="evenodd" d="M204.969 3.06982C204.969 4.72732 203.626 6.06982 201.969 6.06982C200.311 6.06982 198.969 4.72732 198.969 3.06982C198.969 1.41232 200.311 0.0698242 201.969 0.0698242C203.626 0.0698242 204.969 1.41232 204.969 3.06982Z" fill="#42A584"/>
</svg>
