<svg width="32" height="32" viewBox="0 0 32 32" fill="none" xmlns="http://www.w3.org/2000/svg">
<path d="M12.1337 22H9.2312V12.6531H12.1337V22ZM10.6809 11.3781C9.75296 11.3781 9 10.6094 9 9.68125C9 8.75312 9.75296 8 10.6809 8C11.6088 8 12.3617 8.75312 12.3617 9.68125C12.3617 10.6094 11.6088 11.3781 10.6809 11.3781ZM22.9969 22H20.1006V17.45C20.1006 16.3656 20.0788 14.975 18.5916 14.975C17.0826 14.975 16.8514 16.1531 16.8514 17.3719V22H13.952V12.6531H16.7358V13.9281H16.7764C17.1638 13.1937 18.1105 12.4187 19.5227 12.4187C22.4595 12.4187 23 14.3531 23 16.8656V22H22.9969Z" fill="white"/>
</svg>
