<svg width="24" height="24" viewBox="0 0 24 24" fill="none" xmlns="http://www.w3.org/2000/svg">
<g clip-path="url(#clip0_5_687)">
<path d="M15.7917 13.9334C19.602 13.9334 22.7021 10.8314 22.7021 7.01881C22.7021 3.20621 19.602 0.104248 15.7917 0.104248C11.9814 0.104248 8.88135 3.20621 8.88135 7.01881C8.88135 10.8314 11.9814 13.9334 15.7917 13.9334ZM15.7917 0.872503C19.1785 0.872503 21.9342 3.62987 21.9342 7.01877C21.9342 10.4077 19.1785 13.165 15.7917 13.165C12.4049 13.165 9.64918 10.4077 9.64918 7.01877C9.64918 3.62987 12.4049 0.872503 15.7917 0.872503Z" fill="#8D5DA7"/>
<path d="M15.7905 8.93901C15.3671 8.93901 15.0227 8.59447 15.0227 8.17075C15.0227 7.95873 14.8511 7.78664 14.6388 7.78664C14.4265 7.78664 14.2549 7.95873 14.2549 8.17075C14.2549 8.88445 14.7459 9.48098 15.4066 9.65271V9.70727C15.4066 9.91929 15.5782 10.0914 15.7905 10.0914C16.0028 10.0914 16.1744 9.91929 16.1744 9.70727V9.65271C16.8351 9.48103 17.3261 8.88445 17.3261 8.17075C17.3261 7.32335 16.6374 6.63427 15.7905 6.63427C15.3671 6.63427 15.0227 6.28973 15.0227 5.86601C15.0227 5.44233 15.367 5.09774 15.7905 5.09774C16.2139 5.09774 16.5583 5.44228 16.5583 5.86601C16.5583 6.07802 16.7299 6.25011 16.9422 6.25011C17.1545 6.25011 17.3261 6.07802 17.3261 5.86601C17.3261 5.1523 16.8351 4.55577 16.1744 4.38404V4.32948C16.1744 4.11746 16.0028 3.94537 15.7905 3.94537C15.5782 3.94537 15.4066 4.11746 15.4066 4.32948V4.38404C14.7459 4.55572 14.2549 5.1523 14.2549 5.86601C14.2549 6.7134 14.9436 7.40248 15.7905 7.40248C16.2139 7.40248 16.5583 7.74703 16.5583 8.17075C16.5583 8.59447 16.214 8.93901 15.7905 8.93901Z" fill="#8D5DA7"/>
<path d="M15.7907 12.3968C18.7545 12.3968 21.1654 9.98435 21.1654 7.01864C21.1654 4.05294 18.7545 1.6405 15.7907 1.6405C12.8269 1.6405 10.416 4.05298 10.416 7.01869C10.416 9.9844 12.8269 12.3968 15.7907 12.3968ZM15.7907 2.40883C18.331 2.40883 20.3976 4.47674 20.3976 7.01869C20.3976 9.56064 18.331 11.6286 15.7907 11.6286C13.2504 11.6286 11.1838 9.56064 11.1838 7.01869C11.1838 4.47674 13.2504 2.40883 15.7907 2.40883Z" fill="#8D5DA7"/>
<path d="M2.35387 20.6564C2.35387 20.3388 2.0955 20.0803 1.77801 20.0803C1.46052 20.0803 1.20215 20.3388 1.20215 20.6564C1.20215 20.9741 1.46052 21.2326 1.77801 21.2326C2.0955 21.2326 2.35387 20.9741 2.35387 20.6564Z" fill="#8D5DA7"/>
<path d="M23.2628 16.2382C22.8393 15.5041 21.8968 15.2529 21.1889 15.6631L16.7705 17.815C16.0837 18.1588 15.3904 18.1588 13.8708 18.1588C12.3855 18.1588 10.1177 17.7835 10.0947 17.78C9.88587 17.7451 9.68778 17.8865 9.65323 18.0954C9.61827 18.3048 9.75958 18.503 9.96878 18.5375C10.064 18.5537 12.3214 18.9271 13.8708 18.9271C15.4648 18.9271 16.2649 18.9271 17.1099 18.5041L21.549 16.3412C21.7264 16.2386 21.9329 16.2113 22.1318 16.2643C22.3296 16.3177 22.4954 16.4449 22.5975 16.6223C22.7004 16.8002 22.7277 17.0072 22.6747 17.2054C22.6217 17.4037 22.4946 17.5692 22.3061 17.6783L17.1153 20.9107C17.1045 20.918 15.9969 21.6159 13.487 21.6159C11.3106 21.6159 7.94836 19.7622 7.89995 19.7356C7.86499 19.7188 7.03269 19.3112 5.42491 19.3112C5.2126 19.3112 5.04102 19.4833 5.04102 19.6953C5.04102 19.9073 5.2126 20.0794 5.42491 20.0794C6.8212 20.0794 7.54062 20.4155 7.54215 20.4155V20.4151C7.68729 20.4958 11.1117 22.3842 13.487 22.3842C16.2588 22.3842 17.4881 21.5852 17.5288 21.5579L22.7008 18.337C23.0559 18.1319 23.31 17.8004 23.416 17.4044C23.5227 17.0075 23.4678 16.5935 23.2628 16.2382Z" fill="#8D5DA7"/>
<path d="M5.4254 14.7016H8.49668C8.94469 14.7016 9.706 15.2732 10.3778 15.7771C11.2201 16.4094 12.016 17.0064 12.7197 17.0064H15.0231C15.6063 17.0064 15.8957 17.271 15.9034 17.2779C15.9783 17.3528 16.0766 17.3905 16.1748 17.3905C16.2731 17.3905 16.3714 17.3528 16.4463 17.2779C16.5963 17.1277 16.5963 16.885 16.4463 16.7348C16.3956 16.6841 15.9241 16.2381 15.0231 16.2381H12.7197C12.2716 16.2381 11.5103 15.6665 10.8385 15.1626C9.99622 14.5303 9.20036 13.9333 8.49668 13.9333H5.4254C5.21309 13.9333 5.0415 14.1054 5.0415 14.3175C5.0415 14.5295 5.21309 14.7016 5.4254 14.7016Z" fill="#8D5DA7"/>
<path d="M3.12192 12.3967H0.818464C0.60616 12.3967 0.43457 12.5688 0.43457 12.7809C0.43457 12.9929 0.60616 13.165 0.818464 13.165H3.12192C3.33382 13.165 3.50581 13.3375 3.50581 13.5491V22.0006C3.50581 22.2122 3.33382 22.3847 3.12192 22.3847H0.818464C0.60616 22.3847 0.43457 22.5568 0.43457 22.7688C0.43457 22.9809 0.60616 23.153 0.818464 23.153H3.12192C3.7569 23.153 4.27364 22.6359 4.27364 22.0005V13.5492C4.27364 12.9138 3.7569 12.3967 3.12192 12.3967Z" fill="#8D5DA7"/>
</g>
<defs>
<clipPath id="clip0_5_687">
<rect width="23.0352" height="23.05" fill="white" transform="translate(0.43457 0.103821)"/>
</clipPath>
</defs>
</svg>
